999
dxfrw 0.6.3
  0
SECTION
  2
HEADER
  9
$ACADVER
  1
AC1015
  9
$DWGCODEPAGE
  3
ANSI_1252
  9
$INSBASE
 10
0
 20
0
 30
0
  9
$EXTMIN
 10
-7.66381971000003
 20
-59.5895613625538
 30
0
  9
$EXTMAX
 10
790
 20
384
 30
0
  9
$LIMMIN
 10
0
 20
0
  9
$LIMMAX
 10
12
 20
9
  9
$ORTHOMODE
 70
    1
  9
$REGENMODE
 70
    1
  9
$FILLMODE
 70
    1
  9
$QTEXTMODE
 70
    0
  9
$MIRRTEXT
 70
    0
  9
$LTSCALE
 40
1
  9
$ATTMODE
 70
    0
  9
$TEXTSIZE
 40
2.5
  9
$TRACEWID
 40
15.68
  9
$TEXTSTYLE
  7
Standard
  9
$CLAYER
  8
0
  9
$CELTYPE
  6
BYLAYER
  9
$CECOLOR
 62
  256
  9
$CELTSCALE
 40
1
  9
$DISPSILH
 70
    0
  9
$DIMSCALE
 40
1
  9
$DIMASZ
 40
0.18
  9
$DIMEXO
 40
0.0625
  9
$DIMDLI
 40
3.75
  9
$DIMRND
 40
0
  9
$DIMDLE
 40
0
  9
$DIMEXE
 40
0.18
  9
$DIMTP
 40
0
  9
$DIMTM
 40
0
  9
$DIMTXT
 40
0.18
  9
$DIMCEN
 40
2.5
  9
$DIMTSZ
 40
0
  9
$DIMTOL
 70
    0
  9
$DIMLIM
 70
    0
  9
$DIMTIH
 70
    1
  9
$DIMTOH
 70
    0
  9
$DIMSE1
 70
    0
  9
$DIMSE2
 70
    0
  9
$DIMTAD
 70
    1
  9
$DIMZIN
 70
    8
  9
$DIMBLK
  1

  9
$DIMASO
 70
    1
  9
$DIMSHO
 70
    1
  9
$DIMPOST
  1

  9
$DIMAPOST
  1

  9
$DIMALT
 70
    0
  9
$DIMALTD
 70
    3
  9
$DIMALTF
 40
0.03937
  9
$DIMLFAC
 40
1
  9
$DIMTOFL
 70
    1
  9
$DIMTVP
 40
0
  9
$DIMTIX
 70
    0
  9
$DIMSOXD
 70
    0
  9
$DIMSAH
 70
    0
  9
$DIMBLK1
  1

  9
$DIMBLK2
  1

  9
$DIMSTYLE
  2
Standard
  9
$DIMCLRD
 70
    0
  9
$DIMCLRE
 70
    0
  9
$DIMCLRT
 70
    0
  9
$DIMTFAC
 40
1
  9
$DIMGAP
 40
0.09
  9
$DIMJUST
 70
    0
  9
$DIMSD1
 70
    0
  9
$DIMSD2
 70
    0
  9
$DIMTOLJ
 70
    0
  9
$DIMTZIN
 70
    8
  9
$DIMALTZ
 70
    0
  9
$DIMALTTZ
 70
    0
  9
$DIMUPT
 70
    0
  9
$DIMDEC
 70
    4
  9
$DIMTDEC
 70
    2
  9
$DIMALTU
 70
    2
  9
$DIMALTTD
 70
    3
  9
$DIMTXSTY
  7
STANDARD
  9
$DIMAUNIT
 70
    0
  9
$DIMADEC
 70
    0
  9
$DIMALTRND
 40
0
  9
$DIMAZIN
 70
    0
  9
$DIMDSEP
 70
   44
  9
$DIMATFIT
 70
    3
  9
$DIMFRAC
 70
    0
  9
$DIMLDRBLK
  1
STANDARD
  9
$DIMLUNIT
 70
    2
  9
$DIMLWD
 70
   -2
  9
$DIMLWE
 70
   -2
  9
$DIMTMOVE
 70
    0
  9
$LUNITS
 70
    2
  9
$LUPREC
 70
    4
  9
$SKETCHINC
 40
1
  9
$FILLETRAD
 40
0
  9
$AUNITS
 70
    0
  9
$AUPREC
 70
    0
  9
$MENU
  1
.
  9
$ELEVATION
 40
0
  9
$PELEVATION
 40
0
  9
$THICKNESS
 40
0
  9
$LIMCHECK
 70
    0
  9
$CHAMFERA
 40
0
  9
$CHAMFERB
 40
0
  9
$CHAMFERC
 40
0
  9
$CHAMFERD
 40
0
  9
$SKPOLY
 70
    0
  9
$USRTIMER
 70
    1
  9
$ANGBASE
 50
0
  9
$ANGDIR
 70
    0
  9
$PDMODE
 70
   34
  9
$PDSIZE
 40
0
  9
$PLINEWID
 40
0
  9
$SPLFRAME
 70
    0
  9
$SPLINETYPE
 70
    2
  9
$SPLINESEGS
 70
    8
  9
$HANDSEED
  5
20000
  9
$SURFTAB1
 70
    6
  9
$SURFTAB2
 70
    6
  9
$SURFTYPE
 70
    6
  9
$SURFU
 70
    6
  9
$SURFV
 70
    6
  9
$UCSBASE
  2

  9
$UCSNAME
  2

  9
$UCSORG
 10
0
 20
0
 30
0
  9
$UCSXDIR
 10
1
 20
0
 30
0
  9
$UCSYDIR
 10
0
 20
1
 30
0
  9
$UCSORTHOREF
  2

  9
$UCSORTHOVIEW
 70
    0
  9
$UCSORGTOP
 10
0
 20
0
 30
0
  9
$UCSORGBOTTOM
 10
0
 20
0
 30
0
  9
$UCSORGLEFT
 10
0
 20
0
 30
0
  9
$UCSORGRIGHT
 10
0
 20
0
 30
0
  9
$UCSORGFRONT
 10
0
 20
0
 30
0
  9
$UCSORGBACK
 10
0
 20
0
 30
0
  9
$PUCSBASE
  2

  9
$PUCSNAME
  2

  9
$PUCSORG
 10
0
 20
0
 30
0
  9
$PUCSXDIR
 10
1
 20
0
 30
0
  9
$PUCSYDIR
 10
0
 20
1
 30
0
  9
$PUCSORTHOREF
  2

  9
$PUCSORTHOVIEW
 70
    0
  9
$PUCSORGTOP
 10
0
 20
0
 30
0
  9
$PUCSORGBOTTOM
 10
0
 20
0
 30
0
  9
$PUCSORGLEFT
 10
0
 20
0
 30
0
  9
$PUCSORGRIGHT
 10
0
 20
0
 30
0
  9
$PUCSORGFRONT
 10
0
 20
0
 30
0
  9
$PUCSORGBACK
 10
0
 20
0
 30
0
  9
$USERI1
 70
    0
  9
$USERI2
 70
    0
  9
$USERI3
 70
    0
  9
$USERI4
 70
    0
  9
$USERI5
 70
    0
  9
$USERR1
 40
0
  9
$USERR2
 40
0
  9
$USERR3
 40
0
  9
$USERR4
 40
0
  9
$USERR5
 40
0
  9
$WORLDVIEW
 70
    1
  9
$SHADEDGE
 70
    3
  9
$SHADEDIF
 70
   70
  9
$TILEMODE
 70
    1
  9
$MAXACTVP
 70
   64
  9
$PINSBASE
 10
-745.38892782
 20
213.758358272
 30
0
  9
$PLIMCHECK
 70
    0
  9
$PEXTMIN
 10
0
 20
0
 30
0
  9
$PEXTMAX
 10
0
 20
0
 30
0
  9
$GRIDMODE
 70
    1
  9
$SNAPSTYLE
 70
    0
  9
$GRIDUNIT
 10
0
 20
0
  9
$PLIMMIN
 10
0
 20
0
  9
$PLIMMAX
 10
594
 20
420
  9
$UNITMODE
 70
    0
  9
$VISRETAIN
 70
    1
  9
$PLINEGEN
 70
    0
  9
$PSLTSCALE
 70
    1
  9
$TREEDEPTH
 70
 3020
  9
$CMLSTYLE
  2
Standard
  9
$CMLJUST
 70
    0
  9
$CMLSCALE
 40
20
  9
$PROXYGRAPHICS
 70
    1
  9
$MEASUREMENT
 70
    1
  9
$CELWEIGHT
370
   -1
  9
$ENDCAPS
280
    0
  9
$JOINSTYLE
280
    0
  9
$LWDISPLAY
290
    0
  9
$INSUNITS
 70
    4
  9
$HYPERLINKBASE
  1

  9
$STYLESHEET
  1

  9
$XEDIT
290
    1
  9
$CEPSNTYPE
380
    0
  9
$PSTYLEMODE
290
    1
  9
$EXTNAMES
290
    1
  9
$PSVPSCALE
 40
0.64360004119
  9
$OLESTARTUP
290
    0
  0
ENDSEC
  0
SECTION
  2
CLASSES
  0
ENDSEC
  0
SECTION
  2
TABLES
  0
TABLE
  2
VPORT
  5
8
330
0
100
AcDbSymbolTable
 70
    1
  0
VPORT
  5
31
330
2
100
AcDbSymbolTableRecord
100
AcDbViewportTableRecord
  2
*ACTIVE
 70
    0
 10
0
 20
0
 11
1
 21
1
 12
655.0211952109744
 22
307.629762607071
 13
0
 23
0
 14
10
 24
10
 15
10
 25
10
 16
0
 26
0
 36
1
 17
0
 27
0
 37
0
 40
709.8504454171326
 41
1.895047169811321
 42
50
 43
0
 44
0
 50
0
 51
0
 71
    0
 72
  100
 73
    1
 74
    3
 75
    0
 76
    1
 77
    0
 78
    0
281
    0
 65
    1
110
0
120
0
130
0
111
1
121
0
131
0
112
0
122
1
132
0
 79
    0
146
0
  0
ENDTAB
  0
TABLE
  2
LTYPE
  5
5
330
0
100
AcDbSymbolTable
 70
    4
  0
LTYPE
  5
14
330
5
100
AcDbSymbolTableRecord
100
AcDbLinetypeTableRecord
  2
ByBlock
 70
    0
  3

 72
   65
 73
    0
 40
0
  0
LTYPE
  5
15
330
5
100
AcDbSymbolTableRecord
100
AcDbLinetypeTableRecord
  2
ByLayer
 70
    0
  3

 72
   65
 73
    0
 40
0
  0
LTYPE
  5
16
330
5
100
AcDbSymbolTableRecord
100
AcDbLinetypeTableRecord
  2
Continuous
 70
    0
  3
Solid line
 72
   65
 73
    0
 40
0
  0
LTYPE
  5
32
330
5
100
AcDbSymbolTableRecord
100
AcDbLinetypeTableRecord
  2
DOT
 70
    0
  3
Dot . . . . . . . . . . . . . . . . . . . . . .
 72
   65
 73
    2
 40
6.35
 49
0
 74
    0
 49
-6.35
 74
    0
  0
LTYPE
  5
33
330
5
100
AcDbSymbolTableRecord
100
AcDbLinetypeTableRecord
  2
DOTTINY
 70
    0
  3
Dot (.15x) .....................................
 72
   65
 73
    2
 40
0.9525
 49
0
 74
    0
 49
-0.9525
 74
    0
  0
LTYPE
  5
34
330
5
100
AcDbSymbolTableRecord
100
AcDbLinetypeTableRecord
  2
DOT2
 70
    0
  3
Dot (.5x) .....................................
 72
   65
 73
    2
 40
3.175
 49
0
 74
    0
 49
-3.175
 74
    0
  0
LTYPE
  5
35
330
5
100
AcDbSymbolTableRecord
100
AcDbLinetypeTableRecord
  2
DOTX2
 70
    0
  3
Dot (2x) .  .  .  .  .  .  .  .  .  .  .  .  .
 72
   65
 73
    2
 40
12.7
 49
0
 74
    0
 49
-12.7
 74
    0
  0
LTYPE
  5
36
330
5
100
AcDbSymbolTableRecord
100
AcDbLinetypeTableRecord
  2
DASHED
 70
    0
  3
Dashed _ _ _ _ _ _ _ _ _ _ _ _ _ _ _ _ _
 72
   65
 73
    2
 40
19.05
 49
12.7
 74
    0
 49
-6.35
 74
    0
  0
LTYPE
  5
37
330
5
100
AcDbSymbolTableRecord
100
AcDbLinetypeTableRecord
  2
DASHEDTINY
 70
    0
  3
Dashed (.15x) _ _ _ _ _ _ _ _ _ _ _ _ _ _ _ _ _
 72
   65
 73
    2
 40
2.8575
 49
1.905
 74
    0
 49
-0.9525
 74
    0
  0
LTYPE
  5
38
330
5
100
AcDbSymbolTableRecord
100
AcDbLinetypeTableRecord
  2
DASHED2
 70
    0
  3
Dashed (.5x) _ _ _ _ _ _ _ _ _ _ _ _ _ _ _ _ _
 72
   65
 73
    2
 40
9.524999999999999
 49
6.35
 74
    0
 49
-3.175
 74
    0
  0
LTYPE
  5
39
330
5
100
AcDbSymbolTableRecord
100
AcDbLinetypeTableRecord
  2
DASHEDX2
 70
    0
  3
Dashed (2x) ____  ____  ____  ____  ____  ___
 72
   65
 73
    2
 40
38.09999999999999
 49
25.4
 74
    0
 49
-12.7
 74
    0
  0
LTYPE
  5
3A
330
5
100
AcDbSymbolTableRecord
100
AcDbLinetypeTableRecord
  2
DASHDOT
 70
    0
  3
Dash dot __ . __ . __ . __ . __ . __ . __ . __
 72
   65
 73
    4
 40
25.4
 49
12.7
 74
    0
 49
-6.35
 74
    0
 49
0
 74
    0
 49
-6.35
 74
    0
  0
LTYPE
  5
3B
330
5
100
AcDbSymbolTableRecord
100
AcDbLinetypeTableRecord
  2
DASHDOTTINY
 70
    0
  3
Dash dot (.15x) _._._._._._._._._._._._._._._.
 72
   65
 73
    4
 40
3.81
 49
1.905
 74
    0
 49
-0.9525
 74
    0
 49
0
 74
    0
 49
-0.9525
 74
    0
  0
LTYPE
  5
3C
330
5
100
AcDbSymbolTableRecord
100
AcDbLinetypeTableRecord
  2
DASHDOT2
 70
    0
  3
Dash dot (.5x) _._._._._._._._._._._._._._._.
 72
   65
 73
    4
 40
12.7
 49
6.35
 74
    0
 49
-3.175
 74
    0
 49
0
 74
    0
 49
-3.175
 74
    0
  0
LTYPE
  5
3D
330
5
100
AcDbSymbolTableRecord
100
AcDbLinetypeTableRecord
  2
DASHDOTX2
 70
    0
  3
Dash dot (2x) ____  .  ____  .  ____  .  ___
 72
   65
 73
    4
 40
50.8
 49
25.4
 74
    0
 49
-12.7
 74
    0
 49
0
 74
    0
 49
-12.7
 74
    0
  0
LTYPE
  5
3E
330
5
100
AcDbSymbolTableRecord
100
AcDbLinetypeTableRecord
  2
DIVIDE
 70
    0
  3
Divide ____ . . ____ . . ____ . . ____ . . ____
 72
   65
 73
    6
 40
31.75
 49
12.7
 74
    0
 49
-6.35
 74
    0
 49
0
 74
    0
 49
-6.35
 74
    0
 49
0
 74
    0
 49
-6.35
 74
    0
  0
LTYPE
  5
3F
330
5
100
AcDbSymbolTableRecord
100
AcDbLinetypeTableRecord
  2
DIVIDETINY
 70
    0
  3
Divide (.15x) __..__..__..__..__..__..__..__.._
 72
   65
 73
    6
 40
4.7625
 49
1.905
 74
    0
 49
-0.9525
 74
    0
 49
0
 74
    0
 49
-0.9525
 74
    0
 49
0
 74
    0
 49
-0.9525
 74
    0
  0
LTYPE
  5
40
330
5
100
AcDbSymbolTableRecord
100
AcDbLinetypeTableRecord
  2
DIVIDE2
 70
    0
  3
Divide (.5x) __..__..__..__..__..__..__..__.._
 72
   65
 73
    6
 40
15.875
 49
6.35
 74
    0
 49
-3.175
 74
    0
 49
0
 74
    0
 49
-3.175
 74
    0
 49
0
 74
    0
 49
-3.175
 74
    0
  0
LTYPE
  5
41
330
5
100
AcDbSymbolTableRecord
100
AcDbLinetypeTableRecord
  2
DIVIDEX2
 70
    0
  3
Divide (2x) ________  .  .  ________  .  .  _
 72
   65
 73
    6
 40
63.5
 49
25.4
 74
    0
 49
-12.7
 74
    0
 49
0
 74
    0
 49
-12.7
 74
    0
 49
0
 74
    0
 49
-12.7
 74
    0
  0
LTYPE
  5
42
330
5
100
AcDbSymbolTableRecord
100
AcDbLinetypeTableRecord
  2
BORDER
 70
    0
  3
Border __ __ . __ __ . __ __ . __ __ . __ __ .
 72
   65
 73
    6
 40
44.45
 49
12.7
 74
    0
 49
-6.35
 74
    0
 49
12.7
 74
    0
 49
-6.35
 74
    0
 49
0
 74
    0
 49
-6.35
 74
    0
  0
LTYPE
  5
43
330
5
100
AcDbSymbolTableRecord
100
AcDbLinetypeTableRecord
  2
BORDERTINY
 70
    0
  3
Border (.15x) __.__.__.__.__.__.__.__.__.__.__.
 72
   65
 73
    6
 40
6.6675
 49
1.905
 74
    0
 49
-0.9525
 74
    0
 49
1.905
 74
    0
 49
-0.9525
 74
    0
 49
0
 74
    0
 49
-0.9525
 74
    0
  0
LTYPE
  5
44
330
5
100
AcDbSymbolTableRecord
100
AcDbLinetypeTableRecord
  2
BORDER2
 70
    0
  3
Border (.5x) __.__.__.__.__.__.__.__.__.__.__.
 72
   65
 73
    6
 40
22.225
 49
6.35
 74
    0
 49
-3.175
 74
    0
 49
6.35
 74
    0
 49
-3.175
 74
    0
 49
0
 74
    0
 49
-3.175
 74
    0
  0
LTYPE
  5
45
330
5
100
AcDbSymbolTableRecord
100
AcDbLinetypeTableRecord
  2
BORDERX2
 70
    0
  3
Border (2x) ____  ____  .  ____  ____  .  ___
 72
   65
 73
    6
 40
88.89999999999999
 49
25.4
 74
    0
 49
-12.7
 74
    0
 49
25.4
 74
    0
 49
-12.7
 74
    0
 49
0
 74
    0
 49
-12.7
 74
    0
  0
LTYPE
  5
46
330
5
100
AcDbSymbolTableRecord
100
AcDbLinetypeTableRecord
  2
CENTER
 70
    0
  3
Center ____ _ ____ _ ____ _ ____ _ ____ _ ____
 72
   65
 73
    4
 40
50.8
 49
31.75
 74
    0
 49
-6.35
 74
    0
 49
6.35
 74
    0
 49
-6.35
 74
    0
  0
LTYPE
  5
47
330
5
100
AcDbSymbolTableRecord
100
AcDbLinetypeTableRecord
  2
CENTERTINY
 70
    0
  3
Center (.15x) ___ _ ___ _ ___ _ ___ _ ___ _ ___
 72
   65
 73
    4
 40
7.62
 49
4.7625
 74
    0
 49
-0.9525
 74
    0
 49
0.9525
 74
    0
 49
-0.9525
 74
    0
  0
LTYPE
  5
48
330
5
100
AcDbSymbolTableRecord
100
AcDbLinetypeTableRecord
  2
CENTER2
 70
    0
  3
Center (.5x) ___ _ ___ _ ___ _ ___ _ ___ _ ___
 72
   65
 73
    4
 40
28.575
 49
19.05
 74
    0
 49
-3.175
 74
    0
 49
3.175
 74
    0
 49
-3.175
 74
    0
  0
LTYPE
  5
49
330
5
100
AcDbSymbolTableRecord
100
AcDbLinetypeTableRecord
  2
CENTERX2
 70
    0
  3
Center (2x) ________  __  ________  __  _____
 72
   65
 73
    4
 40
101.6
 49
63.5
 74
    0
 49
-12.7
 74
    0
 49
12.7
 74
    0
 49
-12.7
 74
    0
  0
ENDTAB
  0
TABLE
  2
LAYER
  5
2
330
0
100
AcDbSymbolTable
 70
    1
  0
LAYER
  5
10
330
2
100
AcDbSymbolTableRecord
100
AcDbLayerTableRecord
  2
0
 70
    0
 62
    7
  6
CONTINUOUS
290
0
370
   -3
390
F
1001
LibreCad
1070
    1
  0
LAYER
  5
4A
330
2
100
AcDbSymbolTableRecord
100
AcDbLayerTableRecord
  2
A - Caja
 70
    0
 62
    7
  6
CONTINUOUS
370
   -3
390
F
  0
LAYER
  5
4B
330
2
100
AcDbSymbolTableRecord
100
AcDbLayerTableRecord
  2
A - Cotas
 70
    1
 62
    2
  6
CONTINUOUS
370
    0
390
F
  0
LAYER
  5
4C
330
2
100
AcDbSymbolTableRecord
100
AcDbLayerTableRecord
  2
Defpoints
 70
    1
 62
    7
  6
CONTINUOUS
290
0
370
   -3
390
F
1001
LibreCad
1070
    1
  0
ENDTAB
  0
TABLE
  2
STYLE
  5
3
330
0
100
AcDbSymbolTable
 70
    3
  0
STYLE
  5
4D
330
2
100
AcDbSymbolTableRecord
100
AcDbTextStyleTableRecord
  2
standard
 70
    0
 40
0
 41
1
 50
0
 71
    0
 42
1
  3
standard
  4

  0
ENDTAB
  0
TABLE
  2
VIEW
  5
6
330
0
100
AcDbSymbolTable
 70
    0
  0
ENDTAB
  0
TABLE
  2
UCS
  5
7
330
0
100
AcDbSymbolTable
 70
    0
  0
ENDTAB
  0
TABLE
  2
APPID
  5
9
330
0
100
AcDbSymbolTable
 70
    1
  0
APPID
  5
12
330
9
100
AcDbSymbolTableRecord
100
AcDbRegAppTableRecord
  2
ACAD
 70
    0
  0
APPID
  5
4E
330
9
100
AcDbSymbolTableRecord
100
AcDbRegAppTableRecord
  2
LibreCad
 70
    0
  0
ENDTAB
  0
TABLE
  2
DIMSTYLE
  5
A
330
0
100
AcDbSymbolTable
 70
    1
100
AcDbDimStyleTable
 71
    1
  0
DIMSTYLE
105
4F
330
A
100
AcDbSymbolTableRecord
100
AcDbDimStyleTableRecord
  2
Standard
 70
    0
 40
1
 41
0.18
 42
0.0625
 43
0.38
 44
0.18
 45
0
 46
0
 47
0
 48
0
 49
1
140
0.18
141
0.09
142
0
143
25.4
144
1
145
0
146
1
147
0.09
148
0
 71
    0
 72
    0
 73
    1
 74
    1
 75
    0
 76
    0
 77
    0
 78
    1
 79
    0
170
    0
171
    2
172
    0
173
    0
174
    0
175
    0
176
    0
177
    0
178
    0
179
    0
271
    4
272
    4
273
    2
274
    2
275
    0
276
    0
277
    2
278
    0
279
    0
280
    0
281
    0
282
    0
283
    1
284
    0
285
    0
286
    0
288
    0
289
    3
340
standard
341

371
   -2
372
   -2
  0
ENDTAB
  0
TABLE
  2
BLOCK_RECORD
  5
1
330
0
100
AcDbSymbolTable
 70
    2
  0
BLOCK_RECORD
  5
1F
330
1
100
AcDbSymbolTableRecord
100
AcDbBlockTableRecord
  2
*Model_Space
  0
BLOCK_RECORD
  5
1E
330
1
100
AcDbSymbolTableRecord
100
AcDbBlockTableRecord
  2
*Paper_Space
  0
BLOCK_RECORD
  5
50
330
1
100
AcDbSymbolTableRecord
100
AcDbBlockTableRecord
  2
*D5
  0
BLOCK_RECORD
  5
53
330
1
100
AcDbSymbolTableRecord
100
AcDbBlockTableRecord
  2
*D2
  0
BLOCK_RECORD
  5
56
330
1
100
AcDbSymbolTableRecord
100
AcDbBlockTableRecord
  2
*D11
  0
BLOCK_RECORD
  5
59
330
1
100
AcDbSymbolTableRecord
100
AcDbBlockTableRecord
  2
*D15
  0
BLOCK_RECORD
  5
5C
330
1
100
AcDbSymbolTableRecord
100
AcDbBlockTableRecord
  2
*D21
  0
BLOCK_RECORD
  5
5F
330
1
100
AcDbSymbolTableRecord
100
AcDbBlockTableRecord
  2
*D24
  0
BLOCK_RECORD
  5
62
330
1
100
AcDbSymbolTableRecord
100
AcDbBlockTableRecord
  2
*D3
  0
BLOCK_RECORD
  5
65
330
1
100
AcDbSymbolTableRecord
100
AcDbBlockTableRecord
  2
*D13
  0
BLOCK_RECORD
  5
68
330
1
100
AcDbSymbolTableRecord
100
AcDbBlockTableRecord
  2
*D27
  0
BLOCK_RECORD
  5
6B
330
1
100
AcDbSymbolTableRecord
100
AcDbBlockTableRecord
  2
*D18
  0
BLOCK_RECORD
  5
6E
330
1
100
AcDbSymbolTableRecord
100
AcDbBlockTableRecord
  2
*D10
  0
BLOCK_RECORD
  5
71
330
1
100
AcDbSymbolTableRecord
100
AcDbBlockTableRecord
  2
*D1
  0
BLOCK_RECORD
  5
74
330
1
100
AcDbSymbolTableRecord
100
AcDbBlockTableRecord
  2
*D7
  0
BLOCK_RECORD
  5
77
330
1
100
AcDbSymbolTableRecord
100
AcDbBlockTableRecord
  2
*D12
  0
BLOCK_RECORD
  5
7A
330
1
100
AcDbSymbolTableRecord
100
AcDbBlockTableRecord
  2
*D8
  0
BLOCK_RECORD
  5
7D
330
1
100
AcDbSymbolTableRecord
100
AcDbBlockTableRecord
  2
*D25
  0
BLOCK_RECORD
  5
80
330
1
100
AcDbSymbolTableRecord
100
AcDbBlockTableRecord
  2
*D16
  0
BLOCK_RECORD
  5
83
330
1
100
AcDbSymbolTableRecord
100
AcDbBlockTableRecord
  2
*D26
  0
BLOCK_RECORD
  5
86
330
1
100
AcDbSymbolTableRecord
100
AcDbBlockTableRecord
  2
*D19
  0
BLOCK_RECORD
  5
89
330
1
100
AcDbSymbolTableRecord
100
AcDbBlockTableRecord
  2
*D9
  0
BLOCK_RECORD
  5
8C
330
1
100
AcDbSymbolTableRecord
100
AcDbBlockTableRecord
  2
*D4
  0
BLOCK_RECORD
  5
8F
330
1
100
AcDbSymbolTableRecord
100
AcDbBlockTableRecord
  2
*D23
  0
BLOCK_RECORD
  5
92
330
1
100
AcDbSymbolTableRecord
100
AcDbBlockTableRecord
  2
*D6
  0
BLOCK_RECORD
  5
95
330
1
100
AcDbSymbolTableRecord
100
AcDbBlockTableRecord
  2
*D22
  0
BLOCK_RECORD
  5
98
330
1
100
AcDbSymbolTableRecord
100
AcDbBlockTableRecord
  2
*D14
  0
BLOCK_RECORD
  5
9B
330
1
100
AcDbSymbolTableRecord
100
AcDbBlockTableRecord
  2
*D20
  0
BLOCK_RECORD
  5
9E
330
1
100
AcDbSymbolTableRecord
100
AcDbBlockTableRecord
  2
*D17
  0
BLOCK_RECORD
  5
A1
330
1
100
AcDbSymbolTableRecord
100
AcDbBlockTableRecord
  2
_ArchTick
  0
BLOCK_RECORD
  5
A4
330
1
100
AcDbSymbolTableRecord
100
AcDbBlockTableRecord
  2
_FILLED
  0
BLOCK_RECORD
  5
A7
330
1
100
AcDbSymbolTableRecord
100
AcDbBlockTableRecord
  2
E3E0148
  0
BLOCK_RECORD
  5
AA
330
1
100
AcDbSymbolTableRecord
100
AcDbBlockTableRecord
  2
E3E0168
  0
BLOCK_RECORD
  5
AD
330
1
100
AcDbSymbolTableRecord
100
AcDbBlockTableRecord
  2
E6901C8
  0
BLOCK_RECORD
  5
B0
330
1
100
AcDbSymbolTableRecord
100
AcDbBlockTableRecord
  2
E600128
  0
BLOCK_RECORD
  5
B3
330
1
100
AcDbSymbolTableRecord
100
AcDbBlockTableRecord
  2
E690188
  0
BLOCK_RECORD
  5
B6
330
1
100
AcDbSymbolTableRecord
100
AcDbBlockTableRecord
  2
E740188
  0
BLOCK_RECORD
  5
B9
330
1
100
AcDbSymbolTableRecord
100
AcDbBlockTableRecord
  2
E740198
  0
BLOCK_RECORD
  5
BC
330
1
100
AcDbSymbolTableRecord
100
AcDbBlockTableRecord
  2
E7401D8
  0
BLOCK_RECORD
  5
BF
330
1
100
AcDbSymbolTableRecord
100
AcDbBlockTableRecord
  2
E7401C8
  0
BLOCK_RECORD
  5
C2
330
1
100
AcDbSymbolTableRecord
100
AcDbBlockTableRecord
  2
E7401B8
  0
BLOCK_RECORD
  5
C5
330
1
100
AcDbSymbolTableRecord
100
AcDbBlockTableRecord
  2
E7401A8
  0
BLOCK_RECORD
  5
C8
330
1
100
AcDbSymbolTableRecord
100
AcDbBlockTableRecord
  2
test
  0
BLOCK_RECORD
  5
CB
330
1
100
AcDbSymbolTableRecord
100
AcDbBlockTableRecord
  2
test2
  0
BLOCK_RECORD
  5
CE
330
1
100
AcDbSymbolTableRecord
100
AcDbBlockTableRecord
  2
agujero_Q
  0
BLOCK_RECORD
  5
D1
330
1
100
AcDbSymbolTableRecord
100
AcDbBlockTableRecord
  2
pata1
  0
BLOCK_RECORD
  5
D4
330
1
100
AcDbSymbolTableRecord
100
AcDbBlockTableRecord
  2
pata2
  0
BLOCK_RECORD
  5
D7
330
1
100
AcDbSymbolTableRecord
100
AcDbBlockTableRecord
  2
pata3
  0
BLOCK_RECORD
  5
DA
330
1
100
AcDbSymbolTableRecord
100
AcDbBlockTableRecord
  2
pata4
  0
BLOCK_RECORD
  5
DD
330
1
100
AcDbSymbolTableRecord
100
AcDbBlockTableRecord
  2
suelo
  0
ENDTAB
  0
ENDSEC
  0
SECTION
  2
BLOCKS
  0
BLOCK
  5
20
330
1F
100
AcDbEntity
  8
0
100
AcDbBlockBegin
  2
*Model_Space
 70
    0
 10
0
 20
0
 30
0
  3
*Model_Space
  1

  0
ENDBLK
  5
21
330
1F
100
AcDbEntity
  8
0
100
AcDbBlockEnd
  0
BLOCK
  5
1C
330
1B
100
AcDbEntity
  8
0
100
AcDbBlockBegin
  2
*Paper_Space
 70
    0
 10
0
 20
0
 30
0
  3
*Paper_Space
  1

  0
ENDBLK
  5
1D
330
1F
100
AcDbEntity
  8
0
100
AcDbBlockEnd
  0
BLOCK
  5
51
330
50
100
AcDbEntity
  8
0
100
AcDbBlockBegin
  2
*D5
 70
    1
 10
0
 20
0
  3
*D5
  1

  0
SOLID
  5
E0
100
AcDbEntity
  8
A - Cotas
  6
ByBlock
 62
    0
370
   -2
100
AcDbTrace
 10
360.3501295078163
 20
353.159089116942
 30
0
 11
360.4823676780202
 21
353.0333456605746
 31
0
 12
360.4344861258578
 22
352.9972796256546
 32
0
 13
360.4344861258578
 23
352.9972796256546
 33
0
  0
LINE
  5
E1
100
AcDbEntity
  8
A - Cotas
  6
ByBlock
 62
    0
370
   -2
100
AcDbLine
 10
361.5534338878163
 20
351.561572739942
 11
360.3501295078163
 21
353.159089116942
  0
MTEXT
  5
E2
100
AcDbEntity
  8
A - Cotas
  6
CONTINUOUS
 62
    0
370
   -2
100
AcDbMText
 10
363.0294396778163
 20
351.881076014942
 30
0
 40
0.18
 41
0.7
 71
    5
 72
    1
  1
2.0000
  7
standard
210
0
220
0
230
1
 50
306.988318875975
 73
    2
 44
1
  0
ENDBLK
  5
52
330
50
100
AcDbEntity
  8
0
100
AcDbBlockEnd
  0
BLOCK
  5
54
330
53
100
AcDbEntity
  8
0
100
AcDbBlockBegin
  2
*D2
 70
    1
 10
0
 20
0
  3
*D2
  1

  0
LINE
  5
E3
100
AcDbEntity
  8
A - Cotas
  6
ByBlock
 62
    0
370
   -2
100
AcDbLine
 10
377.8309986278161
 20
281.731566396942
 11
377.8309986278161
 21
268.449066396942
  0
SOLID
  5
E4
100
AcDbEntity
  8
A - Cotas
  6
ByBlock
 62
    0
370
   -2
100
AcDbTrace
 10
377.8309986278161
 20
281.731566396942
 30
0
 11
377.8609711231758
 21
281.551566396942
 31
0
 12
377.8010261324565
 22
281.551566396942
 32
0
 13
377.8010261324565
 23
281.551566396942
 33
0
  0
SOLID
  5
E5
100
AcDbEntity
  8
A - Cotas
  6
ByBlock
 62
    0
370
   -2
100
AcDbTrace
 10
377.8309986278161
 20
254.8065663969419
 30
0
 11
377.8010261324565
 21
254.986566396942
 31
0
 12
377.8609711231758
 22
254.986566396942
 32
0
 13
377.8609711231758
 23
254.986566396942
 33
0
  0
LINE
  5
E6
100
AcDbEntity
  8
A - Cotas
  6
ByBlock
 62
    0
370
   -2
100
AcDbLine
 10
377.8309986278161
 20
268.089066396942
 11
377.8309986278161
 21
254.8065663969419
  0
MTEXT
  5
E7
100
AcDbEntity
  8
A - Cotas
  6
CONTINUOUS
 62
    0
370
   -2
100
AcDbMText
 10
377.8309986278161
 20
268.269066396942
 30
0
 40
0.18
 41
0.8400000000000225
 71
    5
 72
    1
  1
26.9250
  7
standard
210
0
220
0
230
1
 50
0
 73
    2
 44
1
  0
LINE
  5
E8
100
AcDbEntity
  8
A - Cotas
  6
ByBlock
 62
    0
370
   -2
100
AcDbLine
 10
332.0904015078163
 20
281.731566396942
 11
378.0109986278162
 21
281.731566396942
  0
LINE
  5
E9
100
AcDbEntity
  8
A - Cotas
  6
ByBlock
 62
    0
370
   -2
100
AcDbLine
 10
354.0154015078163
 20
254.8065663969419
 11
378.0109986278162
 21
254.8065663969419
  0
ENDBLK
  5
55
330
53
100
AcDbEntity
  8
0
100
AcDbBlockEnd
  0
BLOCK
  5
57
330
56
100
AcDbEntity
  8
0
100
AcDbBlockBegin
  2
*D11
 70
    1
 10
0
 20
0
  3
*D11
  1

  0
LINE
  5
EA
100
AcDbEntity
  8
A - Cotas
  6
ByBlock
 62
    0
370
   -2
100
AcDbLine
 10
383.2819982878161
 20
353.561572739942
 11
383.2819982878161
 21
348.865913824942
  0
SOLID
  5
EB
100
AcDbEntity
  8
A - Cotas
  6
ByBlock
 62
    0
370
   -2
100
AcDbTrace
 10
383.2819982878161
 20
353.561572739942
 30
0
 11
383.3119707831758
 21
353.381572739942
 31
0
 12
383.2520257924565
 22
353.381572739942
 32
0
 13
383.2520257924565
 23
353.381572739942
 33
0
  0
SOLID
  5
EC
100
AcDbEntity
  8
A - Cotas
  6
ByBlock
 62
    0
370
   -2
100
AcDbTrace
 10
383.2819982878161
 20
343.5115727399419
 30
0
 11
383.2520257924565
 21
343.6915727399419
 31
0
 12
383.3119707831758
 22
343.6915727399419
 32
0
 13
383.3119707831758
 23
343.6915727399419
 33
0
  0
LINE
  5
ED
100
AcDbEntity
  8
A - Cotas
  6
ByBlock
 62
    0
370
   -2
100
AcDbLine
 10
383.2819982878161
 20
348.505913824942
 11
383.2819982878161
 21
343.5115727399419
  0
MTEXT
  5
EE
100
AcDbEntity
  8
A - Cotas
  6
CONTINUOUS
 62
    0
370
   -2
100
AcDbMText
 10
383.2819982878161
 20
348.685913824942
 30
0
 40
0.18
 41
0.8000000000000111
 71
    5
 72
    1
  1
10.0500
  7
standard
210
0
220
0
230
1
 50
0
 73
    2
 44
1
  0
LINE
  5
EF
100
AcDbEntity
  8
A - Cotas
  6
ByBlock
 62
    0
370
   -2
100
AcDbLine
 10
374.6159338878163
 20
353.561572739942
 11
383.4619982878161
 21
353.561572739942
  0
LINE
  5
F0
100
AcDbEntity
  8
A - Cotas
  6
ByBlock
 62
    0
370
   -2
100
AcDbLine
 10
374.6159338878163
 20
343.5115727399419
 11
383.4619982878161
 21
343.5115727399419
  0
ENDBLK
  5
58
330
56
100
AcDbEntity
  8
0
100
AcDbBlockEnd
  0
BLOCK
  5
5A
330
59
100
AcDbEntity
  8
0
100
AcDbBlockBegin
  2
*D15
 70
    1
 10
0
 20
0
  3
*D15
  1

  0
LINE
  5
F1
100
AcDbEntity
  8
A - Cotas
  6
ByBlock
 62
    0
370
   -2
100
AcDbLine
 10
-7.243911719999915
 20
370.6
 11
-7.243911719999915
 21
368.28
  0
SOLID
  5
F2
100
AcDbEntity
  8
A - Cotas
  6
ByBlock
 62
    0
370
   -2
100
AcDbTrace
 10
-7.243911719999915
 20
370.6
 30
0
 11
-7.21393922464027
 21
370.42
 31
0
 12
-7.273884215359559
 22
370.42
 32
0
 13
-7.273884215359559
 23
370.42
 33
0
  0
SOLID
  5
F3
100
AcDbEntity
  8
A - Cotas
  6
ByBlock
 62
    0
370
   -2
100
AcDbTrace
 10
-7.243911719999915
 20
365.6
 30
0
 11
-7.273884215359559
 21
365.78
 31
0
 12
-7.21393922464027
 22
365.78
 32
0
 13
-7.21393922464027
 23
365.78
 33
0
  0
LINE
  5
F4
100
AcDbEntity
  8
A - Cotas
  6
ByBlock
 62
    0
370
   -2
100
AcDbLine
 10
-7.243911719999915
 20
367.92
 11
-7.243911719999915
 21
365.6
  0
MTEXT
  5
F5
100
AcDbEntity
  8
A - Cotas
  6
CONTINUOUS
 62
    0
370
   -2
100
AcDbMText
 10
-7.243911719999915
 20
368.1
 30
0
 40
0.18
 41
0.7000000000000112
 71
    5
 72
    1
  1
5.0000
  7
standard
210
0
220
0
230
1
 50
0
 73
    2
 44
1
  0
LINE
  5
F6
100
AcDbEntity
  8
A - Cotas
  6
ByBlock
 62
    0
370
   -2
100
AcDbLine
 10
1.937325729999884
 20
370.6
 11
-7.423911719999914
 21
370.6
  0
LINE
  5
F7
100
AcDbEntity
  8
A - Cotas
  6
ByBlock
 62
    0
370
   -2
100
AcDbLine
 10
1.937325729999884
 20
365.6
 11
-7.423911719999914
 21
365.6
  0
ENDBLK
  5
5B
330
59
100
AcDbEntity
  8
0
100
AcDbBlockEnd
  0
BLOCK
  5
5D
330
5C
100
AcDbEntity
  8
0
100
AcDbBlockBegin
  2
*D21
 70
    1
 10
0
 20
0
  3
*D21
  1

  0
LINE
  5
F8
100
AcDbEntity
  8
A - Cotas
  6
ByBlock
 62
    0
370
   -2
100
AcDbLine
 10
657.0383257299998
 20
360.915
 11
657.0383257299998
 21
347.62
  0
SOLID
  5
F9
100
AcDbEntity
  8
A - Cotas
  6
ByBlock
 62
    0
370
   -2
100
AcDbTrace
 10
657.0383257299998
 20
360.915
 30
0
 11
657.0682982253594
 21
360.735
 31
0
 12
657.0083532346401
 22
360.735
 32
0
 13
657.0083532346401
 23
360.735
 33
0
  0
SOLID
  5
FA
100
AcDbEntity
  8
A - Cotas
  6
ByBlock
 62
    0
370
   -2
100
AcDbTrace
 10
657.0383257299998
 20
333.965
 30
0
 11
657.0083532346401
 21
334.145
 31
0
 12
657.0682982253594
 22
334.145
 32
0
 13
657.0682982253594
 23
334.145
 33
0
  0
LINE
  5
FB
100
AcDbEntity
  8
A - Cotas
  6
ByBlock
 62
    0
370
   -2
100
AcDbLine
 10
657.0383257299998
 20
347.26
 11
657.0383257299998
 21
333.965
  0
MTEXT
  5
FC
100
AcDbEntity
  8
A - Cotas
  6
CONTINUOUS
 62
    0
370
   -2
100
AcDbMText
 10
657.0383257299998
 20
347.44
 30
0
 40
0.18
 41
0.8400000000000225
 71
    5
 72
    1
  1
26.9500
  7
standard
210
0
220
0
230
1
 50
0
 73
    2
 44
1
  0
LINE
  5
FD
100
AcDbEntity
  8
A - Cotas
  6
ByBlock
 62
    0
370
   -2
100
AcDbLine
 10
660.9758257299998
 20
360.915
 11
656.8583257299998
 21
360.915
  0
LINE
  5
FE
100
AcDbEntity
  8
A - Cotas
  6
ByBlock
 62
    0
370
   -2
100
AcDbLine
 10
656.9758257299998
 20
333.965
 11
656.8583257299998
 21
333.965
  0
ENDBLK
  5
5E
330
5C
100
AcDbEntity
  8
0
100
AcDbBlockEnd
  0
BLOCK
  5
60
330
5F
100
AcDbEntity
  8
0
100
AcDbBlockBegin
  2
*D24
 70
    1
 10
0
 20
0
  3
*D24
  1

  0
LINE
  5
FF
100
AcDbEntity
  8
A - Cotas
  6
ByBlock
 62
    0
370
   -2
100
AcDbLine
 10
718.7000030954471
 20
81.2453456987335
 11
720.760003095447
 21
81.2453456987335
  0
SOLID
  5
100
100
AcDbEntity
  8
A - Cotas
  6
ByBlock
 62
    0
370
   -2
100
AcDbTrace
 10
718.7000030954471
 20
81.2453456987335
 30
0
 11
718.880003095447
 21
81.27531819409315
 31
0
 12
718.880003095447
 22
81.21537320337386
 32
0
 13
718.880003095447
 23
81.21537320337386
 33
0
  0
SOLID
  5
101
100
AcDbEntity
  8
A - Cotas
  6
ByBlock
 62
    0
370
   -2
100
AcDbTrace
 10
723.7000030954471
 20
81.2453456987335
 30
0
 11
723.5200030954471
 21
81.21537320337386
 31
0
 12
723.5200030954471
 22
81.27531819409315
 32
0
 13
723.5200030954471
 23
81.27531819409315
 33
0
  0
LINE
  5
102
100
AcDbEntity
  8
A - Cotas
  6
ByBlock
 62
    0
370
   -2
100
AcDbLine
 10
721.6400030954471
 20
81.2453456987335
 11
723.7000030954471
 21
81.2453456987335
  0
MTEXT
  5
103
100
AcDbEntity
  8
A - Cotas
  6
CONTINUOUS
 62
    0
370
   -2
100
AcDbMText
 10
721.2000030954471
 20
81.2453456987335
 30
0
 40
0.18
 41
0.7000000000000112
 71
    5
 72
    1
  1
5.0000
  7
standard
210
0
220
0
230
1
 50
0
 73
    2
 44
1
  0
LINE
  5
104
100
AcDbEntity
  8
A - Cotas
  6
ByBlock
 62
    0
370
   -2
100
AcDbLine
 10
718.7000030954471
 20
89.18474481473351
 11
718.7000030954471
 21
81.06534569873349
  0
LINE
  5
105
100
AcDbEntity
  8
A - Cotas
  6
ByBlock
 62
    0
370
   -2
100
AcDbLine
 10
723.7000030954471
 20
85.18474481473351
 11
723.7000030954471
 21
81.06534569873349
  0
ENDBLK
  5
61
330
5F
100
AcDbEntity
  8
0
100
AcDbBlockEnd
  0
BLOCK
  5
63
330
62
100
AcDbEntity
  8
0
100
AcDbBlockBegin
  2
*D3
 70
    1
 10
0
 20
0
  3
*D3
  1

  0
SOLID
  5
106
100
AcDbEntity
  8
A - Cotas
  6
ByBlock
 62
    0
370
   -2
100
AcDbTrace
 10
378.1229889578162
 20
352.062754906942
 30
0
 11
378.0154728084702
 21
351.9153146542703
 31
0
 12
377.9734971419387
 22
351.9581100434095
 32
0
 13
377.9734971419387
 23
351.9581100434095
 33
0
  0
LINE
  5
107
100
AcDbEntity
  8
A - Cotas
  6
ByBlock
 62
    0
370
   -2
100
AcDbLine
 10
374.5534338878163
 20
348.561572739942
 11
378.1229889578162
 21
352.062754906942
  0
MTEXT
  5
108
100
AcDbEntity
  8
A - Cotas
  6
CONTINUOUS
 62
    0
370
   -2
100
AcDbMText
 10
373.6796770378162
 20
349.8972188089419
 30
0
 40
0.18
 41
0.7000000000000112
 71
    5
 72
    1
  1
5.0000
  7
standard
210
0
220
0
230
1
 50
44.44597620472246
 73
    2
 44
1
  0
ENDBLK
  5
64
330
62
100
AcDbEntity
  8
0
100
AcDbBlockEnd
  0
BLOCK
  5
66
330
65
100
AcDbEntity
  8
0
100
AcDbBlockBegin
  2
*D13
 70
    1
 10
0
 20
0
  3
*D13
  1

  0
LINE
  5
109
100
AcDbEntity
  8
A - Cotas
  6
ByBlock
 62
    0
370
   -2
100
AcDbLine
 10
377.3281585278137
 20
297.6045073240583
 11
377.3281585278137
 21
294.9824081540583
  0
SOLID
  5
10A
100
AcDbEntity
  8
A - Cotas
  6
ByBlock
 62
    0
370
   -2
100
AcDbTrace
 10
377.3281585278137
 20
297.6045073240583
 30
0
 11
377.3581310231733
 21
297.4245073240583
 31
0
 12
377.2981860324541
 22
297.4245073240583
 32
0
 13
377.2981860324541
 23
297.4245073240583
 33
0
  0
SOLID
  5
10B
100
AcDbEntity
  8
A - Cotas
  6
ByBlock
 62
    0
370
   -2
100
AcDbTrace
 10
377.3281585278137
 20
292.0003089850583
 30
0
 11
377.2981860324541
 21
292.1803089850583
 31
0
 12
377.3581310231733
 22
292.1803089850583
 32
0
 13
377.3581310231733
 23
292.1803089850583
 33
0
  0
LINE
  5
10C
100
AcDbEntity
  8
A - Cotas
  6
ByBlock
 62
    0
370
   -2
100
AcDbLine
 10
377.3281585278137
 20
294.6224081540583
 11
377.3281585278137
 21
292.0003089850583
  0
MTEXT
  5
10D
100
AcDbEntity
  8
A - Cotas
  6
CONTINUOUS
 62
    0
370
   -2
100
AcDbMText
 10
377.3281585278137
 20
294.8024081540583
 30
0
 40
0.18
 41
0.7200000000000224
 71
    5
 72
    1
  1
5.6042
  7
standard
210
0
220
0
230
1
 50
0
 73
    2
 44
1
  0
LINE
  5
10E
100
AcDbEntity
  8
A - Cotas
  6
ByBlock
 62
    0
370
   -2
100
AcDbLine
 10
358.0379439878138
 20
297.6045073240583
 11
377.5081585278137
 21
297.6045073240583
  0
LINE
  5
10F
100
AcDbEntity
  8
A - Cotas
  6
ByBlock
 62
    0
370
   -2
100
AcDbLine
 10
362.0629439878137
 20
292.0003089850583
 11
377.5081585278137
 21
292.0003089850583
  0
ENDBLK
  5
67
330
65
100
AcDbEntity
  8
0
100
AcDbBlockEnd
  0
BLOCK
  5
69
330
68
100
AcDbEntity
  8
0
100
AcDbBlockBegin
  2
*D27
 70
    1
 10
0
 20
0
  3
*D27
  1

  0
LINE
  5
110
100
AcDbEntity
  8
A - Cotas
  6
ByBlock
 62
    0
370
   -2
100
AcDbLine
 10
741.2500030954473
 20
371.8254886117335
 11
750.7400030954473
 21
371.8254886117335
  0
SOLID
  5
111
100
AcDbEntity
  8
A - Cotas
  6
ByBlock
 62
    0
370
   -2
100
AcDbTrace
 10
741.2500030954473
 20
371.8254886117335
 30
0
 11
741.4300030954472
 21
371.8554611070931
 31
0
 12
741.4300030954472
 22
371.7955161163738
 32
0
 13
741.4300030954472
 23
371.7955161163738
 33
0
  0
SOLID
  5
112
100
AcDbEntity
  8
A - Cotas
  6
ByBlock
 62
    0
370
   -2
100
AcDbTrace
 10
761.2500030954473
 20
371.8254886117335
 30
0
 11
761.0700030954473
 21
371.7955161163738
 31
0
 12
761.0700030954473
 22
371.8554611070931
 32
0
 13
761.0700030954473
 23
371.8554611070931
 33
0
  0
LINE
  5
113
100
AcDbEntity
  8
A - Cotas
  6
ByBlock
 62
    0
370
   -2
100
AcDbLine
 10
751.7600030954474
 20
371.8254886117335
 11
761.2500030954473
 21
371.8254886117335
  0
MTEXT
  5
114
100
AcDbEntity
  8
A - Cotas
  6
CONTINUOUS
 62
    0
370
   -2
100
AcDbMText
 10
751.2500030954473
 20
371.8254886117335
 30
0
 40
0.18
 41
0.8400000000000001
 71
    5
 72
    1
  1
20.0000
  7
standard
210
0
220
0
230
1
 50
0
 73
    2
 44
1
  0
LINE
  5
115
100
AcDbEntity
  8
A - Cotas
  6
ByBlock
 62
    0
370
   -2
100
AcDbLine
 10
741.2500030954473
 20
365.0124908147335
 11
741.2500030954473
 21
372.0054886117335
  0
LINE
  5
116
100
AcDbEntity
  8
A - Cotas
  6
ByBlock
 62
    0
370
   -2
100
AcDbLine
 10
761.2500030954473
 20
365.0124908147335
 11
761.2500030954473
 21
372.0054886117335
  0
ENDBLK
  5
6A
330
68
100
AcDbEntity
  8
0
100
AcDbBlockEnd
  0
BLOCK
  5
6C
330
6B
100
AcDbEntity
  8
0
100
AcDbBlockBegin
  2
*D18
 70
    1
 10
0
 20
0
  3
*D18
  1

  0
LINE
  5
117
100
AcDbEntity
  8
A - Cotas
  6
ByBlock
 62
    0
370
   -2
100
AcDbLine
 10
398.9828385532883
 20
-39.79878866219227
 11
448.4478385532884
 21
-39.79878866219227
  0
SOLID
  5
118
100
AcDbEntity
  8
A - Cotas
  6
ByBlock
 62
    0
370
   -2
100
AcDbTrace
 10
398.9828385532883
 20
-39.79878866219227
 30
0
 11
399.1628385532883
 21
-39.76881616683262
 31
0
 12
399.1628385532883
 22
-39.82876115755191
 32
0
 13
399.1628385532883
 23
-39.82876115755191
 33
0
  0
SOLID
  5
119
100
AcDbEntity
  8
A - Cotas
  6
ByBlock
 62
    0
370
   -2
100
AcDbTrace
 10
499.0328385532882
 20
-39.79878866219228
 30
0
 11
498.8528385532882
 21
-39.82876115755192
 31
0
 12
498.8528385532882
 22
-39.76881616683264
 32
0
 13
498.8528385532882
 23
-39.76881616683264
 33
0
  0
LINE
  5
11A
100
AcDbEntity
  8
A - Cotas
  6
ByBlock
 62
    0
370
   -2
100
AcDbLine
 10
449.5678385532884
 20
-39.79878866219227
 11
499.0328385532882
 21
-39.79878866219228
  0
MTEXT
  5
11B
100
AcDbEntity
  8
A - Cotas
  6
CONTINUOUS
 62
    0
370
   -2
100
AcDbMText
 10
449.0078385532884
 20
-39.79878866219227
 30
0
 40
0.18
 41
0.9400000000000113
 71
    5
 72
    1
  1
100.0500
  7
standard
210
0
220
0
230
1
 50
0
 73
    2
 44
1
  0
LINE
  5
11C
100
AcDbEntity
  8
A - Cotas
  6
ByBlock
 62
    0
370
   -2
100
AcDbLine
 10
398.9828385532883
 20
13.00744090780788
 11
398.9828385532883
 21
-39.97878866219227
  0
LINE
  5
11D
100
AcDbEntity
  8
A - Cotas
  6
ByBlock
 62
    0
370
   -2
100
AcDbLine
 10
499.0328385532882
 20
13.00744090780786
 11
499.0328385532882
 21
-39.97878866219228
  0
ENDBLK
  5
6D
330
6B
100
AcDbEntity
  8
0
100
AcDbBlockEnd
  0
BLOCK
  5
6F
330
6E
100
AcDbEntity
  8
0
100
AcDbBlockBegin
  2
*D10
 70
    1
 10
0
 20
0
  3
*D10
  1

  0
LINE
  5
11E
100
AcDbEntity
  8
A - Cotas
  6
ByBlock
 62
    0
370
   -2
100
AcDbLine
 10
355.0513077578162
 20
351.561572739942
 11
355.0513077578162
 21
352.3455555069419
  0
SOLID
  5
11F
100
AcDbEntity
  8
A - Cotas
  6
ByBlock
 62
    0
370
   -2
100
AcDbTrace
 10
355.0513077578162
 20
351.561572739942
 30
0
 11
355.0213352624565
 21
351.741572739942
 31
0
 12
355.0812802531758
 22
351.741572739942
 32
0
 13
355.0812802531758
 23
351.741572739942
 33
0
  0
SOLID
  5
120
100
AcDbEntity
  8
A - Cotas
  6
ByBlock
 62
    0
370
   -2
100
AcDbTrace
 10
355.0513077578162
 20
353.561572739942
 30
0
 11
355.0812802531758
 21
353.381572739942
 31
0
 12
355.0213352624565
 22
353.381572739942
 32
0
 13
355.0213352624565
 23
353.381572739942
 33
0
  0
LINE
  5
121
100
AcDbEntity
  8
A - Cotas
  6
ByBlock
 62
    0
370
   -2
100
AcDbLine
 10
355.0513077578162
 20
352.7055555069419
 11
355.0513077578162
 21
353.561572739942
  0
MTEXT
  5
122
100
AcDbEntity
  8
A - Cotas
  6
CONTINUOUS
 62
    0
370
   -2
100
AcDbMText
 10
355.0513077578162
 20
352.5255555069419
 30
0
 40
0.18
 41
0.7
 71
    5
 72
    1
  1
2.0000
  7
standard
210
0
220
0
230
1
 50
0
 73
    2
 44
1
  0
LINE
  5
123
100
AcDbEntity
  8
A - Cotas
  6
ByBlock
 62
    0
370
   -2
100
AcDbLine
 10
359.4909338878163
 20
351.561572739942
 11
354.8713077578162
 21
351.561572739942
  0
LINE
  5
124
100
AcDbEntity
  8
A - Cotas
  6
ByBlock
 62
    0
370
   -2
100
AcDbLine
 10
361.4909338878163
 20
353.561572739942
 11
354.8713077578162
 21
353.561572739942
  0
ENDBLK
  5
70
330
6E
100
AcDbEntity
  8
0
100
AcDbBlockEnd
  0
BLOCK
  5
72
330
71
100
AcDbEntity
  8
0
100
AcDbBlockBegin
  2
*D1
 70
    1
 10
0
 20
0
  3
*D1
  1

  0
LINE
  5
125
100
AcDbEntity
  8
A - Cotas
  6
ByBlock
 62
    0
370
   -2
100
AcDbLine
 10
378.1506861378161
 20
254.8065663969419
 11
378.1506861378161
 21
244.961566396942
  0
SOLID
  5
126
100
AcDbEntity
  8
A - Cotas
  6
ByBlock
 62
    0
370
   -2
100
AcDbTrace
 10
378.1506861378161
 20
254.8065663969419
 30
0
 11
378.1806586331758
 21
254.6265663969419
 31
0
 12
378.1207136424565
 22
254.6265663969419
 32
0
 13
378.1207136424565
 23
254.6265663969419
 33
0
  0
SOLID
  5
127
100
AcDbEntity
  8
A - Cotas
  6
ByBlock
 62
    0
370
   -2
100
AcDbTrace
 10
378.1506861378161
 20
234.756566396942
 30
0
 11
378.1207136424565
 21
234.936566396942
 31
0
 12
378.1806586331758
 22
234.936566396942
 32
0
 13
378.1806586331758
 23
234.936566396942
 33
0
  0
LINE
  5
128
100
AcDbEntity
  8
A - Cotas
  6
ByBlock
 62
    0
370
   -2
100
AcDbLine
 10
378.1506861378161
 20
244.601566396942
 11
378.1506861378161
 21
234.756566396942
  0
MTEXT
  5
129
100
AcDbEntity
  8
A - Cotas
  6
CONTINUOUS
 62
    0
370
   -2
100
AcDbMText
 10
378.1506861378161
 20
244.781566396942
 30
0
 40
0.18
 41
0.8400000000000112
 71
    5
 72
    1
  1
20.0500
  7
standard
210
0
220
0
230
1
 50
0
 73
    2
 44
1
  0
LINE
  5
12A
100
AcDbEntity
  8
A - Cotas
  6
ByBlock
 62
    0
370
   -2
100
AcDbLine
 10
358.0654015078162
 20
254.8065663969419
 11
378.3306861378161
 21
254.8065663969419
  0
LINE
  5
12B
100
AcDbEntity
  8
A - Cotas
  6
ByBlock
 62
    0
370
   -2
100
AcDbLine
 10
358.0654015078162
 20
234.756566396942
 11
378.3306861378161
 21
234.756566396942
  0
ENDBLK
  5
73
330
71
100
AcDbEntity
  8
0
100
AcDbBlockEnd
  0
BLOCK
  5
75
330
74
100
AcDbEntity
  8
0
100
AcDbBlockBegin
  2
*D7
 70
    1
 10
0
 20
0
  3
*D7
  1

  0
LINE
  5
12C
100
AcDbEntity
  8
A - Cotas
  6
ByBlock
 62
    0
370
   -2
100
AcDbLine
 10
359.5534338878163
 20
339.775841208942
 11
369.0434338878163
 21
339.775841208942
  0
SOLID
  5
12D
100
AcDbEntity
  8
A - Cotas
  6
ByBlock
 62
    0
370
   -2
100
AcDbTrace
 10
359.5534338878163
 20
339.775841208942
 30
0
 11
359.7334338878163
 21
339.8058137043016
 31
0
 12
359.7334338878163
 22
339.7458687135824
 32
0
 13
359.7334338878163
 23
339.7458687135824
 33
0
  0
SOLID
  5
12E
100
AcDbEntity
  8
A - Cotas
  6
ByBlock
 62
    0
370
   -2
100
AcDbTrace
 10
379.5534338878163
 20
339.775841208942
 30
0
 11
379.3734338878162
 21
339.7458687135824
 31
0
 12
379.3734338878162
 22
339.8058137043016
 32
0
 13
379.3734338878162
 23
339.8058137043016
 33
0
  0
LINE
  5
12F
100
AcDbEntity
  8
A - Cotas
  6
ByBlock
 62
    0
370
   -2
100
AcDbLine
 10
370.0634338878163
 20
339.775841208942
 11
379.5534338878163
 21
339.775841208942
  0
MTEXT
  5
130
100
AcDbEntity
  8
A - Cotas
  6
CONTINUOUS
 62
    0
370
   -2
100
AcDbMText
 10
369.5534338878163
 20
339.775841208942
 30
0
 40
0.18
 41
0.8400000000000001
 71
    5
 72
    1
  1
20.0000
  7
standard
210
0
220
0
230
1
 50
0
 73
    2
 44
1
  0
LINE
  5
131
100
AcDbEntity
  8
A - Cotas
  6
ByBlock
 62
    0
370
   -2
100
AcDbLine
 10
359.5534338878163
 20
345.4490727399419
 11
359.5534338878163
 21
339.595841208942
  0
LINE
  5
132
100
AcDbEntity
  8
A - Cotas
  6
ByBlock
 62
    0
370
   -2
100
AcDbLine
 10
379.5534338878163
 20
348.4490727399419
 11
379.5534338878163
 21
339.595841208942
  0
ENDBLK
  5
76
330
74
100
AcDbEntity
  8
0
100
AcDbBlockEnd
  0
BLOCK
  5
78
330
77
100
AcDbEntity
  8
0
100
AcDbBlockBegin
  2
*D12
 70
    1
 10
0
 20
0
  3
*D12
  1

  0
LINE
  5
133
100
AcDbEntity
  8
A - Cotas
  6
ByBlock
 62
    0
370
   -2
100
AcDbLine
 10
377.5971648578138
 20
307.6545073240583
 11
377.5971648578138
 21
309.9620073240583
  0
SOLID
  5
134
100
AcDbEntity
  8
A - Cotas
  6
ByBlock
 62
    0
370
   -2
100
AcDbTrace
 10
377.5971648578138
 20
307.6545073240583
 30
0
 11
377.5671923624542
 21
307.8345073240583
 31
0
 12
377.6271373531735
 22
307.8345073240583
 32
0
 13
377.6271373531735
 23
307.8345073240583
 33
0
  0
SOLID
  5
135
100
AcDbEntity
  8
A - Cotas
  6
ByBlock
 62
    0
370
   -2
100
AcDbTrace
 10
377.5971648578138
 20
312.6295073240583
 30
0
 11
377.6271373531735
 21
312.4495073240583
 31
0
 12
377.5671923624542
 22
312.4495073240583
 32
0
 13
377.5671923624542
 23
312.4495073240583
 33
0
  0
LINE
  5
136
100
AcDbEntity
  8
A - Cotas
  6
ByBlock
 62
    0
370
   -2
100
AcDbLine
 10
377.5971648578138
 20
310.3220073240583
 11
377.5971648578138
 21
312.6295073240583
  0
MTEXT
  5
137
100
AcDbEntity
  8
A - Cotas
  6
CONTINUOUS
 62
    0
370
   -2
100
AcDbMText
 10
377.5971648578138
 20
310.1420073240583
 30
0
 40
0.18
 41
0.7200000000000111
 71
    5
 72
    1
  1
4.9750
  7
standard
210
0
220
0
230
1
 50
0
 73
    2
 44
1
  0
LINE
  5
138
100
AcDbEntity
  8
A - Cotas
  6
ByBlock
 62
    0
370
   -2
100
AcDbLine
 10
358.0379439878138
 20
307.6545073240583
 11
377.7771648578138
 21
307.6545073240583
  0
LINE
  5
139
100
AcDbEntity
  8
A - Cotas
  6
ByBlock
 62
    0
370
   -2
100
AcDbLine
 10
362.0629439878137
 20
312.6295073240583
 11
377.7771648578138
 21
312.6295073240583
  0
ENDBLK
  5
79
330
77
100
AcDbEntity
  8
0
100
AcDbBlockEnd
  0
BLOCK
  5
7B
330
7A
100
AcDbEntity
  8
0
100
AcDbBlockBegin
  2
*D8
 70
    1
 10
0
 20
0
  3
*D8
  1

  0
LINE
  5
13A
100
AcDbEntity
  8
A - Cotas
  6
ByBlock
 62
    0
370
   -2
100
AcDbLine
 10
355.0513077578162
 20
343.5115727399419
 11
355.0513077578162
 21
345.0815727399419
  0
SOLID
  5
13B
100
AcDbEntity
  8
A - Cotas
  6
ByBlock
 62
    0
370
   -2
100
AcDbTrace
 10
355.0513077578162
 20
343.5115727399419
 30
0
 11
355.0213352624565
 21
343.6915727399419
 31
0
 12
355.0812802531758
 22
343.6915727399419
 32
0
 13
355.0812802531758
 23
343.6915727399419
 33
0
  0
SOLID
  5
13C
100
AcDbEntity
  8
A - Cotas
  6
ByBlock
 62
    0
370
   -2
100
AcDbTrace
 10
355.0513077578162
 20
347.5115727399419
 30
0
 11
355.0812802531758
 21
347.3315727399419
 31
0
 12
355.0213352624565
 22
347.3315727399419
 32
0
 13
355.0213352624565
 23
347.3315727399419
 33
0
  0
LINE
  5
13D
100
AcDbEntity
  8
A - Cotas
  6
ByBlock
 62
    0
370
   -2
100
AcDbLine
 10
355.0513077578162
 20
345.4415727399419
 11
355.0513077578162
 21
347.5115727399419
  0
MTEXT
  5
13E
100
AcDbEntity
  8
A - Cotas
  6
CONTINUOUS
 62
    0
370
   -2
100
AcDbMText
 10
355.0513077578162
 20
345.2615727399419
 30
0
 40
0.18
 41
0.72
 71
    5
 72
    1
  1
4.0000
  7
standard
210
0
220
0
230
1
 50
0
 73
    2
 44
1
  0
LINE
  5
13F
100
AcDbEntity
  8
A - Cotas
  6
ByBlock
 62
    0
370
   -2
100
AcDbLine
 10
361.4909338878163
 20
343.5115727399419
 11
354.8713077578162
 21
343.5115727399419
  0
LINE
  5
140
100
AcDbEntity
  8
A - Cotas
  6
ByBlock
 62
    0
370
   -2
100
AcDbLine
 10
359.4909338878163
 20
347.5115727399419
 11
354.8713077578162
 21
347.5115727399419
  0
ENDBLK
  5
7C
330
7A
100
AcDbEntity
  8
0
100
AcDbBlockEnd
  0
BLOCK
  5
7E
330
7D
100
AcDbEntity
  8
0
100
AcDbBlockBegin
  2
*D25
 70
    1
 10
0
 20
0
  3
*D25
  1

  0
LINE
  5
141
100
AcDbEntity
  8
A - Cotas
  6
ByBlock
 62
    0
370
   -2
100
AcDbLine
 10
723.7000030954471
 20
78.9876789137335
 11
728.2100030954471
 21
78.9876789137335
  0
SOLID
  5
142
100
AcDbEntity
  8
A - Cotas
  6
ByBlock
 62
    0
370
   -2
100
AcDbTrace
 10
723.7000030954471
 20
78.9876789137335
 30
0
 11
723.880003095447
 21
79.01765140909315
 31
0
 12
723.880003095447
 22
78.95770641837386
 32
0
 13
723.880003095447
 23
78.95770641837386
 33
0
  0
SOLID
  5
143
100
AcDbEntity
  8
A - Cotas
  6
ByBlock
 62
    0
370
   -2
100
AcDbTrace
 10
733.7000030954471
 20
78.9876789137335
 30
0
 11
733.5200030954471
 21
78.95770641837386
 31
0
 12
733.5200030954471
 22
79.01765140909315
 32
0
 13
733.5200030954471
 23
79.01765140909315
 33
0
  0
LINE
  5
144
100
AcDbEntity
  8
A - Cotas
  6
ByBlock
 62
    0
370
   -2
100
AcDbLine
 10
729.1900030954471
 20
78.9876789137335
 11
733.7000030954471
 21
78.9876789137335
  0
MTEXT
  5
145
100
AcDbEntity
  8
A - Cotas
  6
CONTINUOUS
 62
    0
370
   -2
100
AcDbMText
 10
728.7000030954471
 20
78.9876789137335
 30
0
 40
0.18
 41
0.8
 71
    5
 72
    1
  1
10.0000
  7
standard
210
0
220
0
230
1
 50
0
 73
    2
 44
1
  0
LINE
  5
146
100
AcDbEntity
  8
A - Cotas
  6
ByBlock
 62
    0
370
   -2
100
AcDbLine
 10
723.7000030954471
 20
85.18474481473351
 11
723.7000030954471
 21
78.8076789137335
  0
LINE
  5
147
100
AcDbEntity
  8
A - Cotas
  6
ByBlock
 62
    0
370
   -2
100
AcDbLine
 10
733.7000030954471
 20
85.18474481473351
 11
733.7000030954471
 21
78.8076789137335
  0
ENDBLK
  5
7F
330
7D
100
AcDbEntity
  8
0
100
AcDbBlockEnd
  0
BLOCK
  5
81
330
80
100
AcDbEntity
  8
0
100
AcDbBlockBegin
  2
*D16
 70
    1
 10
0
 20
0
  3
*D16
  1

  0
LINE
  5
148
100
AcDbEntity
  8
A - Cotas
  6
ByBlock
 62
    0
370
   -2
100
AcDbLine
 10
384.13417645
 20
365.6
 11
384.13417645
 21
355.755
  0
SOLID
  5
149
100
AcDbEntity
  8
A - Cotas
  6
ByBlock
 62
    0
370
   -2
100
AcDbTrace
 10
384.13417645
 20
365.6
 30
0
 11
384.1641489453597
 21
365.42
 31
0
 12
384.1042039546404
 22
365.42
 32
0
 13
384.1042039546404
 23
365.42
 33
0
  0
SOLID
  5
14A
100
AcDbEntity
  8
A - Cotas
  6
ByBlock
 62
    0
370
   -2
100
AcDbTrace
 10
384.13417645
 20
345.55
 30
0
 11
384.1042039546404
 21
345.73
 31
0
 12
384.1641489453597
 22
345.73
 32
0
 13
384.1641489453597
 23
345.73
 33
0
  0
LINE
  5
14B
100
AcDbEntity
  8
A - Cotas
  6
ByBlock
 62
    0
370
   -2
100
AcDbLine
 10
384.13417645
 20
355.395
 11
384.13417645
 21
345.55
  0
MTEXT
  5
14C
100
AcDbEntity
  8
A - Cotas
  6
CONTINUOUS
 62
    0
370
   -2
100
AcDbMText
 10
384.13417645
 20
355.575
 30
0
 40
0.18
 41
0.8400000000000112
 71
    5
 72
    1
  1
20.0500
  7
standard
210
0
220
0
230
1
 50
0
 73
    2
 44
1
  0
LINE
  5
14D
100
AcDbEntity
  8
A - Cotas
  6
ByBlock
 62
    0
370
   -2
100
AcDbLine
 10
358.0623257299999
 20
365.6
 11
384.31417645
 21
365.6
  0
LINE
  5
14E
100
AcDbEntity
  8
A - Cotas
  6
ByBlock
 62
    0
370
   -2
100
AcDbLine
 10
358.0623257299999
 20
345.55
 11
384.31417645
 21
345.55
  0
ENDBLK
  5
82
330
80
100
AcDbEntity
  8
0
100
AcDbBlockEnd
  0
BLOCK
  5
84
330
83
100
AcDbEntity
  8
0
100
AcDbBlockBegin
  2
*D26
 70
    1
 10
0
 20
0
  3
*D26
  1

  0
LINE
  5
14F
100
AcDbEntity
  8
A - Cotas
  6
ByBlock
 62
    0
370
   -2
100
AcDbLine
 10
733.7000030954471
 20
78.96445530773349
 11
736.4709331254472
 21
78.96445530773349
  0
SOLID
  5
150
100
AcDbEntity
  8
A - Cotas
  6
ByBlock
 62
    0
370
   -2
100
AcDbTrace
 10
733.7000030954471
 20
78.96445530773349
 30
0
 11
733.880003095447
 21
78.99442780309313
 31
0
 12
733.880003095447
 22
78.93448281237384
 32
0
 13
733.880003095447
 23
78.93448281237384
 33
0
  0
SOLID
  5
151
100
AcDbEntity
  8
A - Cotas
  6
ByBlock
 62
    0
370
   -2
100
AcDbTrace
 10
740.1018631554471
 20
78.96445530773349
 30
0
 11
739.9218631554471
 21
78.93448281237384
 31
0
 12
739.9218631554471
 22
78.99442780309313
 32
0
 13
739.9218631554471
 23
78.99442780309313
 33
0
  0
LINE
  5
152
100
AcDbEntity
  8
A - Cotas
  6
ByBlock
 62
    0
370
   -2
100
AcDbLine
 10
737.330933125447
 20
78.96445530773349
 11
740.1018631554471
 21
78.96445530773349
  0
MTEXT
  5
153
100
AcDbEntity
  8
A - Cotas
  6
CONTINUOUS
 62
    0
370
   -2
100
AcDbMText
 10
736.9009331254472
 20
78.96445530773349
 30
0
 40
0.18
 41
0.6800000000000113
 71
    5
 72
    1
  1
6.4019
  7
standard
210
0
220
0
230
1
 50
0
 73
    2
 44
1
  0
LINE
  5
154
100
AcDbEntity
  8
A - Cotas
  6
ByBlock
 62
    0
370
   -2
100
AcDbLine
 10
733.7000030954471
 20
85.18474481473351
 11
733.7000030954471
 21
78.78445530773348
  0
LINE
  5
155
100
AcDbEntity
  8
A - Cotas
  6
ByBlock
 62
    0
370
   -2
100
AcDbLine
 10
740.1018631554471
 20
89.18474481473351
 11
740.1018631554471
 21
78.78445530773348
  0
ENDBLK
  5
85
330
83
100
AcDbEntity
  8
0
100
AcDbBlockEnd
  0
BLOCK
  5
87
330
86
100
AcDbEntity
  8
0
100
AcDbBlockBegin
  2
*D19
 70
    1
 10
0
 20
0
  3
*D19
  1

  0
LINE
  5
156
100
AcDbEntity
  8
A - Cotas
  6
ByBlock
 62
    0
370
   -2
100
AcDbLine
 10
437.3059594664883
 20
48.81244090780771
 11
437.3059594664883
 21
115.9424409078079
  0
SOLID
  5
157
100
AcDbEntity
  8
A - Cotas
  6
ByBlock
 62
    0
370
   -2
100
AcDbTrace
 10
437.3059594664883
 20
48.81244090780771
 30
0
 11
437.2759869711286
 21
48.99244090780771
 31
0
 12
437.3359319618479
 22
48.99244090780771
 32
0
 13
437.3359319618479
 23
48.99244090780771
 33
0
  0
SOLID
  5
158
100
AcDbEntity
  8
A - Cotas
  6
ByBlock
 62
    0
370
   -2
100
AcDbTrace
 10
437.3059594664883
 20
183.4324409078078
 30
0
 11
437.3359319618479
 21
183.2524409078078
 31
0
 12
437.2759869711286
 22
183.2524409078078
 32
0
 13
437.2759869711286
 23
183.2524409078078
 33
0
  0
LINE
  5
159
100
AcDbEntity
  8
A - Cotas
  6
ByBlock
 62
    0
370
   -2
100
AcDbLine
 10
437.3059594664883
 20
116.3024409078079
 11
437.3059594664883
 21
183.4324409078078
  0
MTEXT
  5
15A
100
AcDbEntity
  8
A - Cotas
  6
CONTINUOUS
 62
    0
370
   -2
100
AcDbMText
 10
437.3059594664883
 20
116.1224409078079
 30
0
 40
0.18
 41
0.9600000000000224
 71
    5
 72
    1
  1
134.6200
  7
standard
210
0
220
0
230
1
 50
0
 73
    2
 44
1
  0
LINE
  5
15B
100
AcDbEntity
  8
A - Cotas
  6
ByBlock
 62
    0
370
   -2
100
AcDbLine
 10
410.0271115814883
 20
48.81244090780771
 11
437.4859594664883
 21
48.81244090780771
  0
LINE
  5
15C
100
AcDbEntity
  8
A - Cotas
  6
ByBlock
 62
    0
370
   -2
100
AcDbLine
 10
410.0271115814883
 20
183.4324409078078
 11
437.4859594664883
 21
183.4324409078078
  0
ENDBLK
  5
88
330
86
100
AcDbEntity
  8
0
100
AcDbBlockEnd
  0
BLOCK
  5
8A
330
89
100
AcDbEntity
  8
0
100
AcDbBlockBegin
  2
*D9
 70
    1
 10
0
 20
0
  3
*D9
  1

  0
LINE
  5
15D
100
AcDbEntity
  8
A - Cotas
  6
ByBlock
 62
    0
370
   -2
100
AcDbLine
 10
355.0513077578162
 20
347.5115727399419
 11
355.0513077578162
 21
349.0815727399419
  0
SOLID
  5
15E
100
AcDbEntity
  8
A - Cotas
  6
ByBlock
 62
    0
370
   -2
100
AcDbTrace
 10
355.0513077578162
 20
347.5115727399419
 30
0
 11
355.0213352624565
 21
347.6915727399419
 31
0
 12
355.0812802531758
 22
347.6915727399419
 32
0
 13
355.0812802531758
 23
347.6915727399419
 33
0
  0
SOLID
  5
15F
100
AcDbEntity
  8
A - Cotas
  6
ByBlock
 62
    0
370
   -2
100
AcDbTrace
 10
355.0513077578162
 20
351.561572739942
 30
0
 11
355.0812802531758
 21
351.381572739942
 31
0
 12
355.0213352624565
 22
351.381572739942
 32
0
 13
355.0213352624565
 23
351.381572739942
 33
0
  0
LINE
  5
160
100
AcDbEntity
  8
A - Cotas
  6
ByBlock
 62
    0
370
   -2
100
AcDbLine
 10
355.0513077578162
 20
349.4415727399419
 11
355.0513077578162
 21
351.561572739942
  0
MTEXT
  5
161
100
AcDbEntity
  8
A - Cotas
  6
CONTINUOUS
 62
    0
370
   -2
100
AcDbMText
 10
355.0513077578162
 20
349.2615727399419
 30
0
 40
0.18
 41
0.7200000000000111
 71
    5
 72
    1
  1
4.0500
  7
standard
210
0
220
0
230
1
 50
0
 73
    2
 44
1
  0
LINE
  5
162
100
AcDbEntity
  8
A - Cotas
  6
ByBlock
 62
    0
370
   -2
100
AcDbLine
 10
359.4909338878163
 20
347.5115727399419
 11
354.8713077578162
 21
347.5115727399419
  0
LINE
  5
163
100
AcDbEntity
  8
A - Cotas
  6
ByBlock
 62
    0
370
   -2
100
AcDbLine
 10
359.4909338878163
 20
351.561572739942
 11
354.8713077578162
 21
351.561572739942
  0
ENDBLK
  5
8B
330
89
100
AcDbEntity
  8
0
100
AcDbBlockEnd
  0
BLOCK
  5
8D
330
8C
100
AcDbEntity
  8
0
100
AcDbBlockBegin
  2
*D4
 70
    1
 10
0
 20
0
  3
*D4
  1

  0
SOLID
  5
164
100
AcDbEntity
  8
A - Cotas
  6
ByBlock
 62
    0
370
   -2
100
AcDbTrace
 10
377.7465431978162
 20
344.663969212942
 30
0
 11
377.6085268067922
 21
344.7833418491984
 31
0
 12
377.6546557183665
 22
344.8216240308147
 32
0
 13
377.6546557183665
 23
344.8216240308147
 33
0
  0
LINE
  5
165
100
AcDbEntity
  8
A - Cotas
  6
ByBlock
 62
    0
370
   -2
100
AcDbLine
 10
374.5534338878163
 20
348.5115727399419
 11
377.7465431978162
 21
344.663969212942
  0
MTEXT
  5
166
100
AcDbEntity
  8
A - Cotas
  6
CONTINUOUS
 62
    0
370
   -2
100
AcDbMText
 10
374.4683171878162
 20
346.5456026439419
 30
0
 40
0.18
 41
0.7000000000000112
 71
    5
 72
    1
  1
5.0000
  7
standard
210
0
220
0
230
1
 50
309.6891318468165
 73
    2
 44
1
  0
ENDBLK
  5
8E
330
8C
100
AcDbEntity
  8
0
100
AcDbBlockEnd
  0
BLOCK
  5
90
330
8F
100
AcDbEntity
  8
0
100
AcDbBlockBegin
  2
*D23
 70
    1
 10
0
 20
0
  3
*D23
  1

  0
LINE
  5
167
100
AcDbEntity
  8
A - Cotas
  6
ByBlock
 62
    0
370
   -2
100
AcDbLine
 10
666.0883257299997
 20
364.9775
 11
666.0883257299997
 21
369.873488908
  0
LINE
  5
168
100
AcDbEntity
  8
A - Cotas
  6
ByBlock
 62
    0
370
   -2
100
AcDbLine
 10
686.0883257299997
 20
364.9775
 11
686.0883257299997
 21
369.873488908
  0
LINE
  5
169
100
AcDbEntity
  8
A - Cotas
  6
ByBlock
 62
    0
370
   -2
100
AcDbLine
 10
666.0883257299997
 20
369.693488908
 11
675.5783257299997
 21
369.693488908
  0
SOLID
  5
16A
100
AcDbEntity
  8
A - Cotas
  6
ByBlock
 62
    0
370
   -2
100
AcDbTrace
 10
666.0883257299997
 20
369.693488908
 30
0
 11
666.2683257299997
 21
369.7234614033596
 31
0
 12
666.2683257299997
 22
369.6635164126404
 32
0
 13
666.2683257299997
 23
369.6635164126404
 33
0
  0
SOLID
  5
16B
100
AcDbEntity
  8
A - Cotas
  6
ByBlock
 62
    0
370
   -2
100
AcDbTrace
 10
686.0883257299997
 20
369.693488908
 30
0
 11
685.9083257299998
 21
369.6635164126404
 31
0
 12
685.9083257299998
 22
369.7234614033596
 32
0
 13
685.9083257299998
 23
369.7234614033596
 33
0
  0
LINE
  5
16C
100
AcDbEntity
  8
A - Cotas
  6
ByBlock
 62
    0
370
   -2
100
AcDbLine
 10
676.5983257299997
 20
369.693488908
 11
686.0883257299997
 21
369.693488908
  0
MTEXT
  5
16D
100
AcDbEntity
  8
A - Cotas
  6
CONTINUOUS
 62
    0
370
   -2
100
AcDbMText
 10
676.0883257299997
 20
369.693488908
 30
0
 40
0.18
 41
0.8400000000000001
 71
    5
 72
    1
  1
20.0000
  7
standard
210
0
220
0
230
1
 50
0
 73
    2
 44
1
  0
ENDBLK
  5
91
330
8F
100
AcDbEntity
  8
0
100
AcDbBlockEnd
  0
BLOCK
  5
93
330
92
100
AcDbEntity
  8
0
100
AcDbBlockBegin
  2
*D6
 70
    1
 10
0
 20
0
  3
*D6
  1

  0
SOLID
  5
16E
100
AcDbEntity
  8
A - Cotas
  6
ByBlock
 62
    0
370
   -2
100
AcDbTrace
 10
360.5428383678161
 20
343.785682621942
 30
0
 11
360.6079273478034
 21
343.9561577672339
 31
0
 12
360.6596565813276
 22
343.9258676977171
 32
0
 13
360.6596565813276
 23
343.9258676977171
 33
0
  0
LINE
  5
16F
100
AcDbEntity
  8
A - Cotas
  6
ByBlock
 62
    0
370
   -2
100
AcDbLine
 10
361.5534338878163
 20
345.5115727399419
 11
360.5428383678161
 21
343.785682621942
  0
MTEXT
  5
170
100
AcDbEntity
  8
A - Cotas
  6
CONTINUOUS
 62
    0
370
   -2
100
AcDbMText
 10
363.0679814478162
 20
345.1663947159419
 30
0
 40
0.18
 41
0.7
 71
    5
 72
    1
  1
2.0000
  7
standard
210
0
220
0
230
1
 50
59.64887968947253
 73
    2
 44
1
  0
ENDBLK
  5
94
330
92
100
AcDbEntity
  8
0
100
AcDbBlockEnd
  0
BLOCK
  5
96
330
95
100
AcDbEntity
  8
0
100
AcDbBlockBegin
  2
*D22
 70
    1
 10
0
 20
0
  3
*D22
  1

  0
LINE
  5
171
100
AcDbEntity
  8
A - Cotas
  6
ByBlock
 62
    0
370
   -2
100
AcDbLine
 10
668.9810237499998
 20
233.965
 11
668.98102375
 21
283.785
  0
SOLID
  5
172
100
AcDbEntity
  8
A - Cotas
  6
ByBlock
 62
    0
370
   -2
100
AcDbTrace
 10
668.9810237499998
 20
233.965
 30
0
 11
668.9510512546402
 21
234.145
 31
0
 12
669.0109962453595
 22
234.145
 32
0
 13
669.0109962453595
 23
234.145
 33
0
  0
SOLID
  5
173
100
AcDbEntity
  8
A - Cotas
  6
ByBlock
 62
    0
370
   -2
100
AcDbTrace
 10
668.9810237499998
 20
333.965
 30
0
 11
669.0109962453595
 21
333.785
 31
0
 12
668.9510512546402
 22
333.785
 32
0
 13
668.9510512546402
 23
333.785
 33
0
  0
LINE
  5
174
100
AcDbEntity
  8
A - Cotas
  6
ByBlock
 62
    0
370
   -2
100
AcDbLine
 10
668.98102375
 20
284.145
 11
668.9810237499998
 21
333.965
  0
MTEXT
  5
175
100
AcDbEntity
  8
A - Cotas
  6
CONTINUOUS
 62
    0
370
   -2
100
AcDbMText
 10
668.9810237499998
 20
283.965
 30
0
 40
0.18
 41
0.9399999999999999
 71
    5
 72
    1
  1
100.0000
  7
standard
210
0
220
0
230
1
 50
0
 73
    2
 44
1
  0
LINE
  5
176
100
AcDbEntity
  8
A - Cotas
  6
ByBlock
 62
    0
370
   -2
100
AcDbLine
 10
661.1008257299998
 20
233.965
 11
669.1610237499998
 21
233.965
  0
LINE
  5
177
100
AcDbEntity
  8
A - Cotas
  6
ByBlock
 62
    0
370
   -2
100
AcDbLine
 10
661.1008257299998
 20
333.965
 11
669.1610237499998
 21
333.965
  0
ENDBLK
  5
97
330
95
100
AcDbEntity
  8
0
100
AcDbBlockEnd
  0
BLOCK
  5
99
330
98
100
AcDbEntity
  8
0
100
AcDbBlockBegin
  2
*D14
 70
    1
 10
0
 20
0
  3
*D14
  1

  0
LINE
  5
178
100
AcDbEntity
  8
A - Cotas
  6
ByBlock
 62
    0
370
   -2
100
AcDbLine
 10
377.3711995378137
 20
297.6045073240583
 11
377.3711995378137
 21
302.4495073240583
  0
SOLID
  5
179
100
AcDbEntity
  8
A - Cotas
  6
ByBlock
 62
    0
370
   -2
100
AcDbTrace
 10
377.3711995378137
 20
297.6045073240583
 30
0
 11
377.3412270424541
 21
297.7845073240583
 31
0
 12
377.4011720331733
 22
297.7845073240583
 32
0
 13
377.4011720331733
 23
297.7845073240583
 33
0
  0
SOLID
  5
17A
100
AcDbEntity
  8
A - Cotas
  6
ByBlock
 62
    0
370
   -2
100
AcDbTrace
 10
377.3711995378137
 20
307.6545073240583
 30
0
 11
377.4011720331733
 21
307.4745073240583
 31
0
 12
377.3412270424541
 22
307.4745073240583
 32
0
 13
377.3412270424541
 23
307.4745073240583
 33
0
  0
LINE
  5
17B
100
AcDbEntity
  8
A - Cotas
  6
ByBlock
 62
    0
370
   -2
100
AcDbLine
 10
377.3711995378137
 20
302.8095073240583
 11
377.3711995378137
 21
307.6545073240583
  0
MTEXT
  5
17C
100
AcDbEntity
  8
A - Cotas
  6
CONTINUOUS
 62
    0
370
   -2
100
AcDbMText
 10
377.3711995378137
 20
302.6295073240583
 30
0
 40
0.18
 41
0.8000000000000111
 71
    5
 72
    1
  1
10.0500
  7
standard
210
0
220
0
230
1
 50
0
 73
    2
 44
1
  0
LINE
  5
17D
100
AcDbEntity
  8
A - Cotas
  6
ByBlock
 62
    0
370
   -2
100
AcDbLine
 10
358.0379439878138
 20
297.6045073240583
 11
377.5511995378137
 21
297.6045073240583
  0
LINE
  5
17E
100
AcDbEntity
  8
A - Cotas
  6
ByBlock
 62
    0
370
   -2
100
AcDbLine
 10
358.0379439878138
 20
307.6545073240583
 11
377.5511995378137
 21
307.6545073240583
  0
ENDBLK
  5
9A
330
98
100
AcDbEntity
  8
0
100
AcDbBlockEnd
  0
BLOCK
  5
9C
330
9B
100
AcDbEntity
  8
0
100
AcDbBlockBegin
  2
*D20
 70
    1
 10
0
 20
0
  3
*D20
  1

  0
LINE
  5
17F
100
AcDbEntity
  8
A - Cotas
  6
ByBlock
 62
    0
370
   -2
100
AcDbLine
 10
650.3005224499998
 20
333.965
 11
650.3005224499998
 21
324.145
  0
SOLID
  5
180
100
AcDbEntity
  8
A - Cotas
  6
ByBlock
 62
    0
370
   -2
100
AcDbTrace
 10
650.3005224499998
 20
333.965
 30
0
 11
650.3304949453594
 21
333.785
 31
0
 12
650.2705499546402
 22
333.785
 32
0
 13
650.2705499546402
 23
333.785
 33
0
  0
SOLID
  5
181
100
AcDbEntity
  8
A - Cotas
  6
ByBlock
 62
    0
370
   -2
100
AcDbTrace
 10
650.3005224499998
 20
313.965
 30
0
 11
650.2705499546402
 21
314.145
 31
0
 12
650.3304949453594
 22
314.145
 32
0
 13
650.3304949453594
 23
314.145
 33
0
  0
LINE
  5
182
100
AcDbEntity
  8
A - Cotas
  6
ByBlock
 62
    0
370
   -2
100
AcDbLine
 10
650.3005224499998
 20
323.785
 11
650.3005224499998
 21
313.965
  0
MTEXT
  5
183
100
AcDbEntity
  8
A - Cotas
  6
CONTINUOUS
 62
    0
370
   -2
100
AcDbMText
 10
650.3005224499998
 20
323.965
 30
0
 40
0.18
 41
0.8400000000000001
 71
    5
 72
    1
  1
20.0000
  7
standard
210
0
220
0
230
1
 50
0
 73
    2
 44
1
  0
LINE
  5
184
100
AcDbEntity
  8
A - Cotas
  6
ByBlock
 62
    0
370
   -2
100
AcDbLine
 10
656.9758257299998
 20
333.965
 11
650.1205224499998
 21
333.965
  0
LINE
  5
185
100
AcDbEntity
  8
A - Cotas
  6
ByBlock
 62
    0
370
   -2
100
AcDbLine
 10
656.9758257299998
 20
313.965
 11
650.1205224499998
 21
313.965
  0
ENDBLK
  5
9D
330
9B
100
AcDbEntity
  8
0
100
AcDbBlockEnd
  0
BLOCK
  5
9F
330
9E
100
AcDbEntity
  8
0
100
AcDbBlockBegin
  2
*D17
 70
    1
 10
0
 20
0
  3
*D17
  1

  0
LINE
  5
186
100
AcDbEntity
  8
A - Cotas
  6
ByBlock
 62
    0
370
   -2
100
AcDbLine
 10
1.937325729999884
 20
345.55
 11
-7.423819710000025
 21
345.55
  0
LINE
  5
187
100
AcDbEntity
  8
A - Cotas
  6
ByBlock
 62
    0
370
   -2
100
AcDbLine
 10
1.937325729999884
 20
365.6
 11
-7.423819710000025
 21
365.6
  0
LINE
  5
188
100
AcDbEntity
  8
A - Cotas
  6
ByBlock
 62
    0
370
   -2
100
AcDbLine
 10
-7.243819710000025
 20
345.55
 11
-7.243819710000025
 21
355.395
  0
SOLID
  5
189
100
AcDbEntity
  8
A - Cotas
  6
ByBlock
 62
    0
370
   -2
100
AcDbTrace
 10
-7.243819710000025
 20
345.55
 30
0
 11
-7.27379220535967
 21
345.73
 31
0
 12
-7.21384721464038
 22
345.73
 32
0
 13
-7.21384721464038
 23
345.73
 33
0
  0
SOLID
  5
18A
100
AcDbEntity
  8
A - Cotas
  6
ByBlock
 62
    0
370
   -2
100
AcDbTrace
 10
-7.243819710000025
 20
365.6
 30
0
 11
-7.21384721464038
 21
365.42
 31
0
 12
-7.27379220535967
 22
365.42
 32
0
 13
-7.27379220535967
 23
365.42
 33
0
  0
LINE
  5
18B
100
AcDbEntity
  8
A - Cotas
  6
ByBlock
 62
    0
370
   -2
100
AcDbLine
 10
-7.243819710000025
 20
355.755
 11
-7.243819710000025
 21
365.6
  0
MTEXT
  5
18C
100
AcDbEntity
  8
A - Cotas
  6
CONTINUOUS
 62
    0
370
   -2
100
AcDbMText
 10
-7.243819710000025
 20
355.575
 30
0
 40
0.18
 41
0.8400000000000112
 71
    5
 72
    1
  1
20.0500
  7
standard
210
0
220
0
230
1
 50
0
 73
    2
 44
1
  0
ENDBLK
  5
A0
330
9E
100
AcDbEntity
  8
0
100
AcDbBlockEnd
  0
BLOCK
  5
A2
330
A1
100
AcDbEntity
  8
0
100
AcDbBlockBegin
  2
_ArchTick
 70
    0
 10
0
 20
0
  3
_ArchTick
  1

  0
LWPOLYLINE
  5
18D
100
AcDbEntity
  8
0
  6
ByBlock
 62
    0
370
   -1
100
AcDbPolyline
 90
    2
 70
    0
 43
0
 10
-0.5
 20
-0.5
 10
0.5
 20
0.5
  0
ENDBLK
  5
A3
330
A1
100
AcDbEntity
  8
0
100
AcDbBlockEnd
  0
BLOCK
  5
A5
330
A4
100
AcDbEntity
  8
0
100
AcDbBlockBegin
  2
_FILLED
 70
    0
 10
0
 20
0
  3
_FILLED
  1

  0
SOLID
  5
18E
100
AcDbEntity
  8
0
  6
ByBlock
 62
    0
370
   -1
100
AcDbTrace
 10
0
 20
0
 30
0
 11
-1
 21
0.1736111111
 31
0
 12
-1
 22
-0.1736111111
 32
0
 13
-1
 23
-0.1736111111
 33
0
  0
ENDBLK
  5
A6
330
A4
100
AcDbEntity
  8
0
100
AcDbBlockEnd
  0
BLOCK
  5
A8
330
A7
100
AcDbEntity
  8
0
100
AcDbBlockBegin
  2
E3E0148
 70
    0
 10
0
 20
0
  3
E3E0148
  1

  0
LINE
  5
18F
100
AcDbEntity
  8
0
  6
ByBlock
 62
  256
370
   -1
100
AcDbLine
 10
0
 20
7.62
 11
0
 21
0
  0
LINE
  5
190
100
AcDbEntity
  8
0
  6
ByBlock
 62
  256
370
   -1
100
AcDbLine
 10
0
 20
7.62
 11
4
 21
7.62
  0
LINE
  5
191
100
AcDbEntity
  8
0
  6
ByBlock
 62
  256
370
   -1
100
AcDbLine
 10
4
 20
7.62
 11
4
 21
0
  0
LINE
  5
192
100
AcDbEntity
  8
0
  6
ByBlock
 62
  256
370
   -1
100
AcDbLine
 10
4
 20
0
 11
0
 21
0
  0
LINE
  5
193
100
AcDbEntity
  8
0
  6
ByBlock
 62
  256
370
   -1
100
AcDbLine
 10
0
 20
5.3975
 11
4
 21
5.3975
  0
LINE
  5
194
100
AcDbEntity
  8
0
  6
ByBlock
 62
  256
370
   -1
100
AcDbLine
 10
0
 20
2.2225
 11
4
 21
2.2225
  0
ENDBLK
  5
A9
330
A7
100
AcDbEntity
  8
0
100
AcDbBlockEnd
  0
BLOCK
  5
AB
330
AA
100
AcDbEntity
  8
0
100
AcDbBlockBegin
  2
E3E0168
 70
    0
 10
0
 20
0
  3
E3E0168
  1

  0
LINE
  5
195
100
AcDbEntity
  8
0
  6
ByBlock
 62
  256
370
   -1
100
AcDbLine
 10
1
 20
7.62
 11
0
 21
7.62
  0
LINE
  5
196
100
AcDbEntity
  8
0
  6
ByBlock
 62
  256
370
   -1
100
AcDbLine
 10
0
 20
7.62
 11
0
 21
0
  0
LINE
  5
197
100
AcDbEntity
  8
0
  6
ByBlock
 62
  256
370
   -1
100
AcDbLine
 10
0
 20
0
 11
1
 21
0
  0
LINE
  5
198
100
AcDbEntity
  8
0
  6
ByBlock
 62
  256
370
   -1
100
AcDbLine
 10
1
 20
7.62
 11
1
 21
0
  0
LINE
  5
199
100
AcDbEntity
  8
0
  6
ByBlock
 62
  256
370
   -1
100
AcDbLine
 10
1
 20
5.3975
 11
0
 21
5.3975
  0
LINE
  5
19A
100
AcDbEntity
  8
0
  6
ByBlock
 62
  256
370
   -1
100
AcDbLine
 10
1
 20
2.2225
 11
0
 21
2.2225
  0
ENDBLK
  5
AC
330
AA
100
AcDbEntity
  8
0
100
AcDbBlockEnd
  0
BLOCK
  5
AE
330
AD
100
AcDbEntity
  8
0
100
AcDbBlockBegin
  2
E6901C8
 70
    0
 10
0
 20
0
  3
E6901C8
  1

  0
ENDBLK
  5
AF
330
AD
100
AcDbEntity
  8
0
100
AcDbBlockEnd
  0
BLOCK
  5
B1
330
B0
100
AcDbEntity
  8
0
100
AcDbBlockBegin
  2
E600128
 70
    0
 10
0
 20
0
  3
E600128
  1

  0
ENDBLK
  5
B2
330
B0
100
AcDbEntity
  8
0
100
AcDbBlockEnd
  0
BLOCK
  5
B4
330
B3
100
AcDbEntity
  8
0
100
AcDbBlockBegin
  2
E690188
 70
    0
 10
0
 20
0
  3
E690188
  1

  0
ENDBLK
  5
B5
330
B3
100
AcDbEntity
  8
0
100
AcDbBlockEnd
  0
BLOCK
  5
B7
330
B6
100
AcDbEntity
  8
0
100
AcDbBlockBegin
  2
E740188
 70
    0
 10
0
 20
0
  3
E740188
  1

  0
CIRCLE
  5
19B
100
AcDbEntity
  8
A - Caja
  6
ByLayer
 62
  256
370
   -1
100
AcDbCircle
 10
43.7925
 20
130.094519028
 40
1.5875
  0
CIRCLE
  5
19C
100
AcDbEntity
  8
A - Caja
  6
ByLayer
 62
  256
370
   -1
100
AcDbCircle
 10
178.4125
 20
130.094519028
 40
1.5875
  0
ARC
  5
19D
100
AcDbEntity
  8
A - Caja
  6
ByLayer
 62
  256
370
   -1
100
AcDbCircle
 10
2.54
 20
2.54
 40
2.54
100
AcDbArc
 50
180
 51
270
  0
LINE
  5
19E
100
AcDbEntity
  8
A - Caja
  6
CONTINUOUS
 62
  256
370
   -1
100
AcDbLine
 10
0
 20
2.54
 11
0
 21
285.237746
  0
LINE
  5
19F
100
AcDbEntity
  8
A - Caja
  6
CONTINUOUS
 62
  256
370
   -1
100
AcDbLine
 10
357.46
 20
0
 11
2.54
 21
0
  0
CIRCLE
  5
1A0
100
AcDbEntity
  8
A - Caja
  6
ByLayer
 62
  256
370
   -1
100
AcDbCircle
 10
282.5525
 20
130.060972972
 40
1.5875
  0
CIRCLE
  5
1A1
100
AcDbEntity
  8
A - Caja
  6
ByLayer
 62
  256
370
   -1
100
AcDbCircle
 10
43.7925
 20
130.060972972
 40
1.5875
  0
CIRCLE
  5
1A2
100
AcDbEntity
  8
A - Caja
  6
ByLayer
 62
  256
370
   -1
100
AcDbCircle
 10
43.7925
 20
241.820972972
 40
1.5875
  0
CIRCLE
  5
1A3
100
AcDbEntity
  8
A - Caja
  6
ByLayer
 62
  256
370
   -1
100
AcDbCircle
 10
178.4125
 20
241.820972972
 40
1.5875
  0
CIRCLE
  5
1A4
100
AcDbEntity
  8
A - Caja
  6
ByLayer
 62
  256
370
   -1
100
AcDbCircle
 10
304.1425
 20
211.340972972
 40
1.5875
  0
CIRCLE
  5
1A5
100
AcDbEntity
  8
A - Caja
  6
ByLayer
 62
  256
370
   -1
100
AcDbCircle
 10
333.3525
 20
173.875972972
 40
1.5875
  0
CIRCLE
  5
1A6
100
AcDbEntity
  8
A - Caja
  6
ByLayer
 62
  256
370
   -1
100
AcDbCircle
 10
333.0345
 20
239.280972972
 40
1.5875
  0
CIRCLE
  5
1A7
100
AcDbEntity
  8
A - Caja
  6
ByLayer
 62
  256
370
   -1
100
AcDbCircle
 10
333.0345
 20
262.140972972
 40
1.5875
  0
CIRCLE
  5
1A8
100
AcDbEntity
  8
A - Caja
  6
ByLayer
 62
  256
370
   -1
100
AcDbCircle
 10
254.9295
 20
262.140972972
 40
1.5875
  0
CIRCLE
  5
1A9
100
AcDbEntity
  8
A - Caja
  6
ByLayer
 62
  256
370
   -1
100
AcDbCircle
 10
254.9295
 20
239.280972972
 40
1.5875
  0
CIRCLE
  5
1AA
100
AcDbEntity
  8
A - Caja
  6
ByLayer
 62
  256
370
   -1
100
AcDbCircle
 10
178.4125
 20
130.060972972
 40
1.5875
  0
ARC
  5
1AB
100
AcDbEntity
  8
A - Caja
  6
ByLayer
 62
  256
370
   -1
100
AcDbCircle
 10
2.54
 20
285.237746
 40
2.54
100
AcDbArc
 50
90
 51
180
  0
LINE
  5
1AC
100
AcDbEntity
  8
A - Caja
  6
CONTINUOUS
 62
  256
370
   -1
100
AcDbLine
 10
357.46
 20
287.777746
 11
2.54
 21
287.777746
  0
ARC
  5
1AD
100
AcDbEntity
  8
A - Caja
  6
ByLayer
 62
  256
370
   -1
100
AcDbCircle
 10
357.46
 20
2.54
 40
2.54
100
AcDbArc
 50
270
 51
0
  0
LINE
  5
1AE
100
AcDbEntity
  8
A - Caja
  6
CONTINUOUS
 62
  256
370
   -1
100
AcDbLine
 10
360
 20
2.54
 11
360
 21
285.237746
  0
ARC
  5
1AF
100
AcDbEntity
  8
A - Caja
  6
ByLayer
 62
  256
370
   -1
100
AcDbCircle
 10
357.46
 20
285.237746
 40
2.54
100
AcDbArc
 50
0
 51
90
  0
LWPOLYLINE
  5
1B0
100
AcDbEntity
  8
A - Caja
  6
ByBlock
 62
  256
370
   -1
100
AcDbPolyline
 90
    4
 70
    1
 43
0
 10
29.975
 20
4
 10
50.025
 20
4
 10
50.025
 20
8.050000000000001
 10
29.975
 20
8.050000000000001
  0
LWPOLYLINE
  5
1B1
100
AcDbEntity
  8
A - Caja
  6
ByBlock
 62
  256
370
   -1
100
AcDbPolyline
 90
    4
 70
    1
 43
0
 10
69.97499999999999
 20
4
 10
90.02500000000001
 20
4
 10
90.02500000000001
 20
8.050000000000001
 10
69.97499999999999
 20
8.050000000000001
  0
LWPOLYLINE
  5
1B2
100
AcDbEntity
  8
A - Caja
  6
ByBlock
 62
  256
370
   -1
100
AcDbPolyline
 90
    4
 70
    1
 43
0
 10
109.975
 20
4
 10
130.025
 20
4
 10
130.025
 20
8.050000000000001
 10
109.975
 20
8.050000000000001
  0
LWPOLYLINE
  5
1B3
100
AcDbEntity
  8
A - Caja
  6
ByBlock
 62
  256
370
   -1
100
AcDbPolyline
 90
    4
 70
    1
 43
0
 10
149.975
 20
4
 10
170.025
 20
4
 10
170.025
 20
8.050000000000001
 10
149.975
 20
8.050000000000001
  0
LWPOLYLINE
  5
1B4
100
AcDbEntity
  8
A - Caja
  6
ByBlock
 62
  256
370
   -1
100
AcDbPolyline
 90
    4
 70
    1
 43
0
 10
189.975
 20
4
 10
210.025
 20
4
 10
210.025
 20
8.050000000000001
 10
189.975
 20
8.050000000000001
  0
LWPOLYLINE
  5
1B5
100
AcDbEntity
  8
A - Caja
  6
ByBlock
 62
  256
370
   -1
100
AcDbPolyline
 90
    4
 70
    1
 43
0
 10
229.975
 20
4
 10
250.025
 20
4
 10
250.025
 20
8.050000000000001
 10
229.975
 20
8.050000000000001
  0
LWPOLYLINE
  5
1B6
100
AcDbEntity
  8
A - Caja
  6
ByBlock
 62
  256
370
   -1
100
AcDbPolyline
 90
    4
 70
    1
 43
0
 10
269.975
 20
4
 10
290.025
 20
4
 10
290.025
 20
8.050000000000001
 10
269.975
 20
8.050000000000001
  0
LWPOLYLINE
  5
1B7
100
AcDbEntity
  8
A - Caja
  6
ByBlock
 62
  256
370
   -1
100
AcDbPolyline
 90
    4
 70
    1
 43
0
 10
309.975
 20
4
 10
330.025
 20
4
 10
330.025
 20
8.050000000000001
 10
309.975
 20
8.050000000000001
  0
LWPOLYLINE
  5
1B8
100
AcDbEntity
  8
A - Caja
  6
ByBlock
 62
  256
370
   -1
100
AcDbPolyline
 90
    4
 70
    1
 43
0
 10
8.050000000000001
 20
232.752746
 10
8.050000000000001
 20
252.802746
 10
4
 20
252.802746
 10
4
 20
232.752746
  0
LWPOLYLINE
  5
1B9
100
AcDbEntity
  8
A - Caja
  6
ByBlock
 62
  256
370
   -1
100
AcDbPolyline
 90
    4
 70
    1
 43
0
 10
8.050000000000001
 20
192.752746
 10
8.050000000000001
 20
212.802746
 10
4
 20
212.802746
 10
4
 20
192.752746
  0
LWPOLYLINE
  5
1BA
100
AcDbEntity
  8
A - Caja
  6
ByBlock
 62
  256
370
   -1
100
AcDbPolyline
 90
    4
 70
    1
 43
0
 10
8.050000000000001
 20
152.752746
 10
8.050000000000001
 20
172.802746
 10
4
 20
172.802746
 10
4
 20
152.752746
  0
LWPOLYLINE
  5
1BB
100
AcDbEntity
  8
A - Caja
  6
ByBlock
 62
  256
370
   -1
100
AcDbPolyline
 90
    4
 70
    1
 43
0
 10
8.050000000000001
 20
112.752746
 10
8.050000000000001
 20
132.802746
 10
4
 20
132.802746
 10
4
 20
112.752746
  0
LWPOLYLINE
  5
1BC
100
AcDbEntity
  8
A - Caja
  6
ByBlock
 62
  256
370
   -1
100
AcDbPolyline
 90
    4
 70
    1
 43
0
 10
8.050000000000001
 20
72.752746
 10
8.050000000000001
 20
92.802746
 10
4
 20
92.802746
 10
4
 20
72.752746
  0
LWPOLYLINE
  5
1BD
100
AcDbEntity
  8
A - Caja
  6
ByBlock
 62
  256
370
   -1
100
AcDbPolyline
 90
    4
 70
    1
 43
0
 10
8.050000000000001
 20
32.752746
 10
8.050000000000001
 20
52.802746
 10
4
 20
52.802746
 10
4
 20
32.752746
  0
LWPOLYLINE
  5
1BE
100
AcDbEntity
  8
A - Caja
  6
ByBlock
 62
  256
370
   -1
100
AcDbPolyline
 90
    4
 70
    1
 43
0
 10
356
 20
232.752746
 10
356
 20
252.802746
 10
351.95
 20
252.802746
 10
351.95
 20
232.752746
  0
LWPOLYLINE
  5
1BF
100
AcDbEntity
  8
A - Caja
  6
ByBlock
 62
  256
370
   -1
100
AcDbPolyline
 90
    4
 70
    1
 43
0
 10
356
 20
192.752746
 10
356
 20
212.802746
 10
351.95
 20
212.802746
 10
351.95
 20
192.752746
  0
LWPOLYLINE
  5
1C0
100
AcDbEntity
  8
A - Caja
  6
ByBlock
 62
  256
370
   -1
100
AcDbPolyline
 90
    4
 70
    1
 43
0
 10
356
 20
152.752746
 10
356
 20
172.802746
 10
351.95
 20
172.802746
 10
351.95
 20
152.752746
  0
LWPOLYLINE
  5
1C1
100
AcDbEntity
  8
A - Caja
  6
ByBlock
 62
  256
370
   -1
100
AcDbPolyline
 90
    4
 70
    1
 43
0
 10
356
 20
112.752746
 10
356
 20
132.802746
 10
351.95
 20
132.802746
 10
351.95
 20
112.752746
  0
LWPOLYLINE
  5
1C2
100
AcDbEntity
  8
A - Caja
  6
ByBlock
 62
  256
370
   -1
100
AcDbPolyline
 90
    4
 70
    1
 43
0
 10
356
 20
72.752746
 10
356
 20
92.802746
 10
351.95
 20
92.802746
 10
351.95
 20
72.752746
  0
LWPOLYLINE
  5
1C3
100
AcDbEntity
  8
A - Caja
  6
ByBlock
 62
  256
370
   -1
100
AcDbPolyline
 90
    4
 70
    1
 43
0
 10
356
 20
32.752746
 10
356
 20
52.802746
 10
351.95
 20
52.802746
 10
351.95
 20
32.752746
  0
LWPOLYLINE
  5
1C4
100
AcDbEntity
  8
A - Caja
  6
ByBlock
 62
  256
370
   -1
100
AcDbPolyline
 90
    4
 70
    1
 43
0
 10
29.975
 20
279.727746
 10
50.025
 20
279.727746
 10
50.025
 20
283.777746
 10
29.975
 20
283.777746
  0
LWPOLYLINE
  5
1C5
100
AcDbEntity
  8
A - Caja
  6
ByBlock
 62
  256
370
   -1
100
AcDbPolyline
 90
    4
 70
    1
 43
0
 10
69.97499999999999
 20
279.727746
 10
90.02500000000001
 20
279.727746
 10
90.02500000000001
 20
283.777746
 10
69.97499999999999
 20
283.777746
  0
LWPOLYLINE
  5
1C6
100
AcDbEntity
  8
A - Caja
  6
ByBlock
 62
  256
370
   -1
100
AcDbPolyline
 90
    4
 70
    1
 43
0
 10
109.975
 20
279.727746
 10
130.025
 20
279.727746
 10
130.025
 20
283.777746
 10
109.975
 20
283.777746
  0
LWPOLYLINE
  5
1C7
100
AcDbEntity
  8
A - Caja
  6
ByBlock
 62
  256
370
   -1
100
AcDbPolyline
 90
    4
 70
    1
 43
0
 10
149.975
 20
279.727746
 10
170.025
 20
279.727746
 10
170.025
 20
283.777746
 10
149.975
 20
283.777746
  0
LWPOLYLINE
  5
1C8
100
AcDbEntity
  8
A - Caja
  6
ByBlock
 62
  256
370
   -1
100
AcDbPolyline
 90
    4
 70
    1
 43
0
 10
189.975
 20
279.727746
 10
210.025
 20
279.727746
 10
210.025
 20
283.777746
 10
189.975
 20
283.777746
  0
LWPOLYLINE
  5
1C9
100
AcDbEntity
  8
A - Caja
  6
ByBlock
 62
  256
370
   -1
100
AcDbPolyline
 90
    4
 70
    1
 43
0
 10
229.975
 20
279.727746
 10
250.025
 20
279.727746
 10
250.025
 20
283.777746
 10
229.975
 20
283.777746
  0
LWPOLYLINE
  5
1CA
100
AcDbEntity
  8
A - Caja
  6
ByBlock
 62
  256
370
   -1
100
AcDbPolyline
 90
    4
 70
    1
 43
0
 10
269.975
 20
279.727746
 10
290.025
 20
279.727746
 10
290.025
 20
283.777746
 10
269.975
 20
283.777746
  0
LWPOLYLINE
  5
1CB
100
AcDbEntity
  8
A - Caja
  6
ByBlock
 62
  256
370
   -1
100
AcDbPolyline
 90
    4
 70
    1
 43
0
 10
309.975
 20
279.727746
 10
330.025
 20
279.727746
 10
330.025
 20
283.777746
 10
309.975
 20
283.777746
  0
ENDBLK
  5
B8
330
B6
100
AcDbEntity
  8
0
100
AcDbBlockEnd
  0
BLOCK
  5
BA
330
B9
100
AcDbEntity
  8
0
100
AcDbBlockBegin
  2
E740198
 70
    0
 10
0
 20
0
  3
E740198
  1

  0
LINE
  5
1CC
100
AcDbEntity
  8
A - Caja
  6
CONTINUOUS
 62
  256
370
   -1
100
AcDbLine
 10
330
 20
20.629198339
 11
360
 21
20.629198339
  0
LWPOLYLINE
  5
1CD
100
AcDbEntity
  8
A - Caja
  6
ByBlock
 62
  256
370
   -1
100
AcDbPolyline
 90
    6
 70
    0
 43
0
 10
0
 20
20.629198339
 10
30
 20
20.629198339
 10
30
 20
24.629198339
 10
50
 20
24.629198339
 10
50
 20
20.629198339
 10
70
 20
20.629198339
  0
LWPOLYLINE
  5
1CE
100
AcDbEntity
  8
A - Caja
  6
ByBlock
 62
  256
370
   -1
100
AcDbPolyline
 90
    6
 70
    0
 43
0
 10
70
 20
20.629198339
 10
70
 20
24.629198339
 10
90
 20
24.629198339
 10
90
 20
20.629198339
 10
90.25
 20
20.629198339
 10
90.25
 20
11.129198339
  0
LWPOLYLINE
  5
1CF
100
AcDbEntity
  8
A - Caja
  6
ByBlock
 62
  256
370
   -1
100
AcDbPolyline
 90
    4
 70
    0
 43
0
 10
110
 20
20.629198339
 10
110
 20
24.629198339
 10
130
 20
24.629198339
 10
130
 20
20.629198339
  0
LWPOLYLINE
  5
1D0
100
AcDbEntity
  8
A - Caja
  6
ByBlock
 62
  256
370
   -1
100
AcDbPolyline
 90
    4
 70
    0
 43
0
 10
150
 20
20.629198339
 10
150
 20
24.629198339
 10
170
 20
24.629198339
 10
170
 20
20.629198339
  0
LWPOLYLINE
  5
1D1
100
AcDbEntity
  8
A - Caja
  6
ByBlock
 62
  256
370
   -1
100
AcDbPolyline
 90
    4
 70
    0
 43
0
 10
190
 20
20.629198339
 10
190
 20
24.629198339
 10
210
 20
24.629198339
 10
210
 20
20.629198339
  0
LWPOLYLINE
  5
1D2
100
AcDbEntity
  8
A - Caja
  6
ByBlock
 62
  256
370
   -1
100
AcDbPolyline
 90
    4
 70
    0
 43
0
 10
230
 20
20.629198339
 10
230
 20
24.629198339
 10
250
 20
24.629198339
 10
250
 20
20.629198339
  0
LWPOLYLINE
  5
1D3
100
AcDbEntity
  8
A - Caja
  6
ByBlock
 62
  256
370
   -1
100
AcDbPolyline
 90
    4
 70
    0
 43
0
 10
270
 20
20.629198339
 10
270
 20
24.629198339
 10
290
 20
24.629198339
 10
290
 20
20.629198339
  0
LWPOLYLINE
  5
1D4
100
AcDbEntity
  8
A - Caja
  6
ByBlock
 62
  256
370
   -1
100
AcDbPolyline
 90
    4
 70
    0
 43
0
 10
310
 20
20.629198339
 10
310
 20
24.629198339
 10
330
 20
24.629198339
 10
330
 20
20.629198339
  0
LINE
  5
1D5
100
AcDbEntity
  8
A - Caja
  6
ByBlock
 62
  256
370
   -1
100
AcDbLine
 10
170
 20
20.629198339
 11
190
 21
20.629198339
  0
LINE
  5
1D6
100
AcDbEntity
  8
A - Caja
  6
ByBlock
 62
  256
370
   -1
100
AcDbLine
 10
210
 20
20.629198339
 11
230
 21
20.629198339
  0
LINE
  5
1D7
100
AcDbEntity
  8
A - Caja
  6
ByBlock
 62
  256
370
   -1
100
AcDbLine
 10
250
 20
20.629198339
 11
270
 21
20.629198339
  0
LINE
  5
1D8
100
AcDbEntity
  8
A - Caja
  6
ByBlock
 62
  256
370
   -1
100
AcDbLine
 10
290
 20
20.629198339
 11
310
 21
20.629198339
  0
LINE
  5
1D9
100
AcDbEntity
  8
A - Caja
  6
ByBlock
 62
  256
370
   -1
100
AcDbLine
 10
330
 20
20.629198339
 11
360
 21
20.629198339
  0
CIRCLE
  5
1DA
100
AcDbEntity
  8
A - Caja
  6
CONTINUOUS
 62
  256
370
   -1
100
AcDbCircle
 10
87.5
 20
14.379198339
 40
1.5
  0
CIRCLE
  5
1DB
100
AcDbEntity
  8
A - Caja
  6
CONTINUOUS
 62
  256
370
   -1
100
AcDbCircle
 10
112.5
 20
14.379198339
 40
1.5
  0
LINE
  5
1DC
100
AcDbEntity
  8
A - Caja
  6
CONTINUOUS
 62
  256
370
   -1
100
AcDbLine
 10
109.75
 20
20.629198339
 11
110
 21
20.629198339
  0
LINE
  5
1DD
100
AcDbEntity
  8
A - Caja
  6
ByBlock
 62
  256
370
   -1
100
AcDbLine
 10
0
 20
20.629198339
 11
0
 21
0
  0
LINE
  5
1DE
100
AcDbEntity
  8
A - Caja
  6
ByBlock
 62
  256
370
   -1
100
AcDbLine
 10
0
 20
0
 11
360
 21
0
  0
LWPOLYLINE
  5
1DF
100
AcDbEntity
  8
A - Caja
  6
ByBlock
 62
  256
370
   -1
100
AcDbPolyline
 90
    4
 70
    1
 43
0
 10
351.925
 20
15.654198339
 10
351.925
 20
5.604198339
 10
355.975
 20
5.604198339
 10
355.975
 20
15.654198339
  0
LWPOLYLINE
  5
1E0
100
AcDbEntity
  8
A - Caja
  6
ByBlock
 62
  256
370
   -1
100
AcDbPolyline
 90
    4
 70
    1
 43
0
 10
8.074999999999999
 20
15.654198339
 10
8.074999999999999
 20
5.604198339
 10
4.025
 20
5.604198339
 10
4.025
 20
15.654198339
  0
LINE
  5
1E1
100
AcDbEntity
  8
A - Caja
  6
ByBlock
 62
  256
370
   -1
100
AcDbLine
 10
360
 20
20.629198339
 11
360
 21
0
  0
LINE
  5
1E2
100
AcDbEntity
  8
A - Caja
  6
CONTINUOUS
 62
  256
370
   -1
100
AcDbLine
 10
92.25
 20
9.129198339
 11
107.75
 21
9.129198339
  0
LINE
  5
1E3
100
AcDbEntity
  8
A - Caja
  6
CONTINUOUS
 62
  256
370
   -1
100
AcDbLine
 10
109.75
 20
11.129198339
 11
109.75
 21
20.629198339
  0
ARC
  5
1E4
100
AcDbEntity
  8
A - Caja
  6
CONTINUOUS
 62
  256
370
   -1
100
AcDbCircle
 10
92.25
 20
11.129198339
 40
2
100
AcDbArc
 50
180
 51
270
  0
ARC
  5
1E5
100
AcDbEntity
  8
A - Caja
  6
CONTINUOUS
 62
  256
370
   -1
100
AcDbCircle
 10
107.75
 20
11.129198339
 40
2
100
AcDbArc
 50
270
 51
0
  0
LINE
  5
1E6
100
AcDbEntity
  8
A - Caja
  6
CONTINUOUS
 62
  256
370
   -1
100
AcDbLine
 10
130
 20
20.629198339
 11
130.25
 21
20.629198339
  0
CIRCLE
  5
1E7
100
AcDbEntity
  8
A - Caja
  6
CONTINUOUS
 62
  256
370
   -1
100
AcDbCircle
 10
127.5
 20
14.379198339
 40
1.5
  0
CIRCLE
  5
1E8
100
AcDbEntity
  8
A - Caja
  6
CONTINUOUS
 62
  256
370
   -1
100
AcDbCircle
 10
152.5
 20
14.379198339
 40
1.5
  0
LINE
  5
1E9
100
AcDbEntity
  8
A - Caja
  6
CONTINUOUS
 62
  256
370
   -1
100
AcDbLine
 10
149.75
 20
20.629198339
 11
150
 21
20.629198339
  0
LINE
  5
1EA
100
AcDbEntity
  8
A - Caja
  6
CONTINUOUS
 62
  256
370
   -1
100
AcDbLine
 10
130.25
 20
20.629198339
 11
130.25
 21
11.129198339
  0
LINE
  5
1EB
100
AcDbEntity
  8
A - Caja
  6
CONTINUOUS
 62
  256
370
   -1
100
AcDbLine
 10
132.25
 20
9.129198339
 11
147.75
 21
9.129198339
  0
LINE
  5
1EC
100
AcDbEntity
  8
A - Caja
  6
CONTINUOUS
 62
  256
370
   -1
100
AcDbLine
 10
149.75
 20
11.129198339
 11
149.75
 21
20.629198339
  0
ARC
  5
1ED
100
AcDbEntity
  8
A - Caja
  6
CONTINUOUS
 62
  256
370
   -1
100
AcDbCircle
 10
132.25
 20
11.129198339
 40
2
100
AcDbArc
 50
180
 51
270
  0
ARC
  5
1EE
100
AcDbEntity
  8
A - Caja
  6
CONTINUOUS
 62
  256
370
   -1
100
AcDbCircle
 10
147.75
 20
11.129198339
 40
2
100
AcDbArc
 50
270
 51
0
  0
ENDBLK
  5
BB
330
B9
100
AcDbEntity
  8
0
100
AcDbBlockEnd
  0
BLOCK
  5
BD
330
BC
100
AcDbEntity
  8
0
100
AcDbBlockBegin
  2
E7401D8
 70
    0
 10
0
 20
0
  3
E7401D8
  1

  0
LINE
  5
1EF
100
AcDbEntity
  8
A - Caja
  6
ByBlock
 62
  256
370
   -1
100
AcDbLine
 10
15
 20
0
 11
2
 21
0
  0
LINE
  5
1F0
100
AcDbEntity
  8
A - Caja
  6
ByBlock
 62
  256
370
   -1
100
AcDbLine
 10
0
 20
2
 11
0
 21
4
  0
LINE
  5
1F1
100
AcDbEntity
  8
A - Caja
  6
ByBlock
 62
  256
370
   -1
100
AcDbLine
 10
0
 20
8.050000000000001
 11
0
 21
8.050000000000001
  0
LINE
  5
1F2
100
AcDbEntity
  8
A - Caja
  6
ByBlock
 62
  256
370
   -1
100
AcDbLine
 10
2
 20
10.05
 11
15
 21
10.05
  0
LINE
  5
1F3
100
AcDbEntity
  8
A - Caja
  6
ByBlock
 62
  256
370
   -1
100
AcDbLine
 10
0
 20
4
 11
10
 21
4
  0
LINE
  5
1F4
100
AcDbEntity
  8
A - Caja
  6
ByBlock
 62
  256
370
   -1
100
AcDbLine
 10
10
 20
4
 11
10
 21
8.050000000000001
  0
LINE
  5
1F5
100
AcDbEntity
  8
A - Caja
  6
ByBlock
 62
  256
370
   -1
100
AcDbLine
 10
10
 20
8.050000000000001
 11
0
 21
8.050000000000001
  0
LINE
  5
1F6
100
AcDbEntity
  8
A - Caja
  6
ByBlock
 62
  256
370
   -1
100
AcDbLine
 10
20
 20
5.05
 11
20
 21
5
  0
ARC
  5
1F7
100
AcDbEntity
  8
A - Caja
  6
ByBlock
 62
  256
370
   -1
100
AcDbCircle
 10
2
 20
8.050000000000001
 40
2
100
AcDbArc
 50
90
 51
180
  0
ARC
  5
1F8
100
AcDbEntity
  8
A - Caja
  6
ByBlock
 62
  256
370
   -1
100
AcDbCircle
 10
2
 20
2
 40
2
100
AcDbArc
 50
180
 51
270
  0
ARC
  5
1F9
100
AcDbEntity
  8
A - Caja
  6
ByBlock
 62
  256
370
   -1
100
AcDbCircle
 10
15
 20
5.05
 40
5
100
AcDbArc
 50
0
 51
90
  0
ARC
  5
1FA
100
AcDbEntity
  8
A - Caja
  6
ByBlock
 62
  256
370
   -1
100
AcDbCircle
 10
15
 20
5
 40
5
100
AcDbArc
 50
270
 51
0
  0
ENDBLK
  5
BE
330
BC
100
AcDbEntity
  8
0
100
AcDbBlockEnd
  0
BLOCK
  5
C0
330
BF
100
AcDbEntity
  8
0
100
AcDbBlockBegin
  2
E7401C8
 70
    0
 10
0
 20
0
  3
E7401C8
  1

  0
CIRCLE
  5
1FB
100
AcDbEntity
  8
A - Caja
  6
ByLayer
 62
  256
370
   -1
100
AcDbCircle
 10
3.81
 20
3.81
 40
3.81
  0
CIRCLE
  5
1FC
100
AcDbEntity
  8
A - Caja
  6
ByLayer
 62
  256
370
   -1
100
AcDbCircle
 10
3.81
 20
3.81
 40
1.5875
  0
ENDBLK
  5
C1
330
BF
100
AcDbEntity
  8
0
100
AcDbBlockEnd
  0
BLOCK
  5
C3
330
C2
100
AcDbEntity
  8
0
100
AcDbBlockBegin
  2
E7401B8
 70
    0
 10
0
 20
0
  3
E7401B8
  1

  0
LINE
  5
1FD
100
AcDbEntity
  8
A - Caja
  6
CONTINUOUS
 62
  256
370
   -1
100
AcDbLine
 10
233.0225
 20
7.71475
 11
233.0225
 21
25.49475
  0
LINE
  5
1FE
100
AcDbEntity
  8
A - Caja
  6
CONTINUOUS
 62
  256
370
   -1
100
AcDbLine
 10
344.7825
 20
7.71475
 11
233.0225
 21
7.71475
  0
LINE
  5
1FF
100
AcDbEntity
  8
A - Caja
  6
CONTINUOUS
 62
  256
370
   -1
100
AcDbLine
 10
344.7825
 20
25.49475
 11
344.7825
 21
7.71475
  0
LINE
  5
200
100
AcDbEntity
  8
A - Caja
  6
CONTINUOUS
 62
  256
370
   -1
100
AcDbLine
 10
233.0225
 20
25.49475
 11
344.7825
 21
25.49475
  0
CIRCLE
  5
201
100
AcDbEntity
  8
A - Caja
  6
ByLayer
 62
  256
370
   -1
100
AcDbCircle
 10
172.0625
 20
25.336
 40
3.6195
  0
CIRCLE
  5
202
100
AcDbEntity
  8
A - Caja
  6
ByLayer
 62
  256
370
   -1
100
AcDbCircle
 10
76.8125
 20
15.4935
 40
6
  0
CIRCLE
  5
203
100
AcDbEntity
  8
A - Caja
  6
ByLayer
 62
  256
370
   -1
100
AcDbCircle
 10
127.6125
 20
15.4935
 40
6
  0
CIRCLE
  5
204
100
AcDbEntity
  8
A - Caja
  6
ByLayer
 62
  256
370
   -1
100
AcDbCircle
 10
102.2125
 20
15.176
 40
7.1
  0
CIRCLE
  5
205
100
AcDbEntity
  8
A - Caja
  6
ByLayer
 62
  256
370
   -1
100
AcDbCircle
 10
26.0125
 20
15.176
 40
5.6
  0
CIRCLE
  5
206
100
AcDbEntity
  8
A - Caja
  6
ByLayer
 62
  256
370
   -1
100
AcDbCircle
 10
51.4125
 20
18.986
 40
10.16
  0
CIRCLE
  5
207
100
AcDbEntity
  8
A - Caja
  6
ByLayer
 62
  256
370
   -1
100
AcDbCircle
 10
153.0125
 20
18.986
 40
10.165
  0
LINE
  5
208
100
AcDbEntity
  8
A - Caja
  6
CONTINUOUS
 62
  256
370
   -1
100
AcDbLine
 10
226.0375
 20
6.921
 11
181.5875
 21
6.921
  0
LINE
  5
209
100
AcDbEntity
  8
A - Caja
  6
CONTINUOUS
 62
  256
370
   -1
100
AcDbLine
 10
227.9425
 20
24.3835
 11
227.9425
 21
8.826000000000001
  0
LINE
  5
20A
100
AcDbEntity
  8
A - Caja
  6
CONTINUOUS
 62
  256
370
   -1
100
AcDbLine
 10
181.5875
 20
26.2885
 11
226.0375
 21
26.2885
  0
LINE
  5
20B
100
AcDbEntity
  8
A - Caja
  6
CONTINUOUS
 62
  256
370
   -1
100
AcDbLine
 10
179.6825
 20
8.826000000000001
 11
179.6825
 21
24.3835
  0
ARC
  5
20C
100
AcDbEntity
  8
A - Caja
  6
ByLayer
 62
  256
370
   -1
100
AcDbCircle
 10
181.5875
 20
24.3835
 40
1.905
100
AcDbArc
 50
90
 51
180
  0
ARC
  5
20D
100
AcDbEntity
  8
A - Caja
  6
ByLayer
 62
  256
370
   -1
100
AcDbCircle
 10
226.0375
 20
24.3835
 40
1.905
100
AcDbArc
 50
0
 51
90
  0
ARC
  5
20E
100
AcDbEntity
  8
A - Caja
  6
ByLayer
 62
  256
370
   -1
100
AcDbCircle
 10
226.0375
 20
8.826000000000001
 40
1.905
100
AcDbArc
 50
270
 51
0
  0
ARC
  5
20F
100
AcDbEntity
  8
A - Caja
  6
ByLayer
 62
  256
370
   -1
100
AcDbCircle
 10
181.5875
 20
8.826000000000001
 40
1.905
100
AcDbArc
 50
180
 51
270
  0
LWPOLYLINE
  5
210
100
AcDbEntity
  8
A - Caja
  6
ByBlock
 62
  256
370
   -1
100
AcDbPolyline
 90
    4
 70
    0
 43
0
 10
30
 20
4
 10
30
 20
0
 10
50
 20
0
 10
50
 20
4
  0
LWPOLYLINE
  5
211
100
AcDbEntity
  8
A - Caja
  6
ByBlock
 62
  256
370
   -1
100
AcDbPolyline
 90
    4
 70
    0
 43
0
 10
70
 20
4
 10
70
 20
0
 10
90
 20
0
 10
90
 20
4
  0
LWPOLYLINE
  5
212
100
AcDbEntity
  8
A - Caja
  6
ByBlock
 62
  256
370
   -1
100
AcDbPolyline
 90
    4
 70
    0
 43
0
 10
110
 20
4
 10
110
 20
0
 10
130
 20
0
 10
130
 20
4
  0
LWPOLYLINE
  5
213
100
AcDbEntity
  8
A - Caja
  6
ByBlock
 62
  256
370
   -1
100
AcDbPolyline
 90
    4
 70
    0
 43
0
 10
150
 20
4
 10
150
 20
0
 10
170
 20
0
 10
170
 20
4
  0
LWPOLYLINE
  5
214
100
AcDbEntity
  8
A - Caja
  6
ByBlock
 62
  256
370
   -1
100
AcDbPolyline
 90
    4
 70
    0
 43
0
 10
190
 20
4
 10
190
 20
0
 10
210
 20
0
 10
210
 20
4
  0
LWPOLYLINE
  5
215
100
AcDbEntity
  8
A - Caja
  6
ByBlock
 62
  256
370
   -1
100
AcDbPolyline
 90
    4
 70
    0
 43
0
 10
230
 20
4
 10
230
 20
0
 10
250
 20
0
 10
250
 20
4
  0
LWPOLYLINE
  5
216
100
AcDbEntity
  8
A - Caja
  6
ByBlock
 62
  256
370
   -1
100
AcDbPolyline
 90
    4
 70
    0
 43
0
 10
270
 20
4
 10
270
 20
0
 10
290
 20
0
 10
290
 20
4
  0
LWPOLYLINE
  5
217
100
AcDbEntity
  8
A - Caja
  6
ByBlock
 62
  256
370
   -1
100
AcDbPolyline
 90
    4
 70
    0
 43
0
 10
310
 20
4
 10
310
 20
0
 10
330
 20
0
 10
330
 20
4
  0
LINE
  5
218
100
AcDbEntity
  8
A - Caja
  6
ByBlock
 62
  256
370
   -1
100
AcDbLine
 10
50
 20
4
 11
70
 21
4
  0
LINE
  5
219
100
AcDbEntity
  8
A - Caja
  6
ByBlock
 62
  256
370
   -1
100
AcDbLine
 10
90
 20
4
 11
110
 21
4
  0
LINE
  5
21A
100
AcDbEntity
  8
A - Caja
  6
ByBlock
 62
  256
370
   -1
100
AcDbLine
 10
130
 20
4
 11
150
 21
4
  0
LINE
  5
21B
100
AcDbEntity
  8
A - Caja
  6
ByBlock
 62
  256
370
   -1
100
AcDbLine
 10
170
 20
4
 11
190
 21
4
  0
LINE
  5
21C
100
AcDbEntity
  8
A - Caja
  6
ByBlock
 62
  256
370
   -1
100
AcDbLine
 10
210
 20
4
 11
230
 21
4
  0
LINE
  5
21D
100
AcDbEntity
  8
A - Caja
  6
ByBlock
 62
  256
370
   -1
100
AcDbLine
 10
250
 20
4
 11
270
 21
4
  0
LINE
  5
21E
100
AcDbEntity
  8
A - Caja
  6
ByBlock
 62
  256
370
   -1
100
AcDbLine
 10
290
 20
4
 11
310
 21
4
  0
LINE
  5
21F
100
AcDbEntity
  8
A - Caja
  6
ByBlock
 62
  256
370
   -1
100
AcDbLine
 10
330
 20
4
 11
360
 21
4
  0
LINE
  5
220
100
AcDbEntity
  8
A - Caja
  6
ByBlock
 62
  256
370
   -1
100
AcDbLine
 10
360
 20
51.6
 11
360
 21
4
  0
LWPOLYLINE
  5
221
100
AcDbEntity
  8
A - Caja
  6
ByBlock
 62
  256
370
   -1
100
AcDbPolyline
 90
    4
 70
    0
 43
0
 10
30
 20
51.6
 10
30
 20
55.6
 10
50
 20
55.6
 10
50
 20
51.6
  0
LINE
  5
222
100
AcDbEntity
  8
A - Caja
  6
ByBlock
 62
  256
370
   -1
100
AcDbLine
 10
0
 20
51.6
 11
30
 21
51.6
  0
LWPOLYLINE
  5
223
100
AcDbEntity
  8
A - Caja
  6
ByBlock
 62
  256
370
   -1
100
AcDbPolyline
 90
    4
 70
    0
 43
0
 10
70
 20
51.6
 10
70
 20
55.6
 10
90
 20
55.6
 10
90
 20
51.6
  0
LWPOLYLINE
  5
224
100
AcDbEntity
  8
A - Caja
  6
ByBlock
 62
  256
370
   -1
100
AcDbPolyline
 90
    4
 70
    0
 43
0
 10
110
 20
51.6
 10
110
 20
55.6
 10
130
 20
55.6
 10
130
 20
51.6
  0
LWPOLYLINE
  5
225
100
AcDbEntity
  8
A - Caja
  6
ByBlock
 62
  256
370
   -1
100
AcDbPolyline
 90
    4
 70
    0
 43
0
 10
150
 20
51.6
 10
150
 20
55.6
 10
170
 20
55.6
 10
170
 20
51.6
  0
LWPOLYLINE
  5
226
100
AcDbEntity
  8
A - Caja
  6
ByBlock
 62
  256
370
   -1
100
AcDbPolyline
 90
    4
 70
    0
 43
0
 10
190
 20
51.6
 10
190
 20
55.6
 10
210
 20
55.6
 10
210
 20
51.6
  0
LWPOLYLINE
  5
227
100
AcDbEntity
  8
A - Caja
  6
ByBlock
 62
  256
370
   -1
100
AcDbPolyline
 90
    4
 70
    0
 43
0
 10
230
 20
51.6
 10
230
 20
55.6
 10
250
 20
55.6
 10
250
 20
51.6
  0
LWPOLYLINE
  5
228
100
AcDbEntity
  8
A - Caja
  6
ByBlock
 62
  256
370
   -1
100
AcDbPolyline
 90
    4
 70
    0
 43
0
 10
270
 20
51.6
 10
270
 20
55.6
 10
290
 20
55.6
 10
290
 20
51.6
  0
LWPOLYLINE
  5
229
100
AcDbEntity
  8
A - Caja
  6
ByBlock
 62
  256
370
   -1
100
AcDbPolyline
 90
    4
 70
    0
 43
0
 10
310
 20
51.6
 10
310
 20
55.6
 10
330
 20
55.6
 10
330
 20
51.6
  0
LINE
  5
22A
100
AcDbEntity
  8
A - Caja
  6
ByBlock
 62
  256
370
   -1
100
AcDbLine
 10
50
 20
51.6
 11
70
 21
51.6
  0
LINE
  5
22B
100
AcDbEntity
  8
A - Caja
  6
ByBlock
 62
  256
370
   -1
100
AcDbLine
 10
90
 20
51.6
 11
110
 21
51.6
  0
LINE
  5
22C
100
AcDbEntity
  8
A - Caja
  6
ByBlock
 62
  256
370
   -1
100
AcDbLine
 10
130
 20
51.6
 11
150
 21
51.6
  0
LINE
  5
22D
100
AcDbEntity
  8
A - Caja
  6
ByBlock
 62
  256
370
   -1
100
AcDbLine
 10
170
 20
51.6
 11
190
 21
51.6
  0
LINE
  5
22E
100
AcDbEntity
  8
A - Caja
  6
ByBlock
 62
  256
370
   -1
100
AcDbLine
 10
210
 20
51.6
 11
230
 21
51.6
  0
LINE
  5
22F
100
AcDbEntity
  8
A - Caja
  6
ByBlock
 62
  256
370
   -1
100
AcDbLine
 10
250
 20
51.6
 11
270
 21
51.6
  0
LINE
  5
230
100
AcDbEntity
  8
A - Caja
  6
ByBlock
 62
  256
370
   -1
100
AcDbLine
 10
290
 20
51.6
 11
310
 21
51.6
  0
LINE
  5
231
100
AcDbEntity
  8
A - Caja
  6
ByBlock
 62
  256
370
   -1
100
AcDbLine
 10
330
 20
51.6
 11
360
 21
51.6
  0
LINE
  5
232
100
AcDbEntity
  8
A - Caja
  6
ByBlock
 62
  256
370
   -1
100
AcDbLine
 10
0
 20
46.6
 11
22
 21
46.6
  0
LINE
  5
233
100
AcDbEntity
  8
A - Caja
  6
ByBlock
 62
  256
370
   -1
100
AcDbLine
 10
0
 20
51.6
 11
0
 21
46.6
  0
LINE
  5
234
100
AcDbEntity
  8
A - Caja
  6
ByBlock
 62
  256
370
   -1
100
AcDbLine
 10
0
 20
4
 11
30
 21
4
  0
LINE
  5
235
100
AcDbEntity
  8
A - Caja
  6
ByBlock
 62
  256
370
   -1
100
AcDbLine
 10
22
 20
46.6
 11
22
 21
26.55
  0
LINE
  5
236
100
AcDbEntity
  8
A - Caja
  6
ByBlock
 62
  256
370
   -1
100
AcDbLine
 10
0
 20
26.55
 11
22
 21
26.55
  0
LWPOLYLINE
  5
237
100
AcDbEntity
  8
A - Caja
  6
ByBlock
 62
  256
370
   -1
100
AcDbPolyline
 90
    4
 70
    1
 43
0
 10
356
 20
26.55
 10
356
 20
46.6
 10
351.95
 20
46.6
 10
351.95
 20
26.55
  0
LINE
  5
238
100
AcDbEntity
  8
A - Caja
  6
ByBlock
 62
  256
370
   -1
100
AcDbLine
 10
0
 20
26.55
 11
0
 21
4
  0
ENDBLK
  5
C4
330
C2
100
AcDbEntity
  8
0
100
AcDbBlockEnd
  0
BLOCK
  5
C6
330
C5
100
AcDbEntity
  8
0
100
AcDbBlockBegin
  2
E7401A8
 70
    0
 10
0
 20
0
  3
E7401A8
  1

  0
LINE
  5
239
100
AcDbEntity
  8
A - Caja
  6
CONTINUOUS
 62
  256
370
   -1
100
AcDbLine
 10
0
 20
0
 11
0
 21
17.78
  0
LINE
  5
23A
100
AcDbEntity
  8
A - Caja
  6
CONTINUOUS
 62
  256
370
   -1
100
AcDbLine
 10
111.76
 20
0
 11
0
 21
0
  0
LINE
  5
23B
100
AcDbEntity
  8
A - Caja
  6
CONTINUOUS
 62
  256
370
   -1
100
AcDbLine
 10
0
 20
17.78
 11
111.76
 21
17.78
  0
LINE
  5
23C
100
AcDbEntity
  8
A - Caja
  6
CONTINUOUS
 62
  256
370
   -1
100
AcDbLine
 10
0
 20
22.86
 11
0
 21
40.64
  0
LINE
  5
23D
100
AcDbEntity
  8
A - Caja
  6
CONTINUOUS
 62
  256
370
   -1
100
AcDbLine
 10
111.76
 20
22.86
 11
0
 21
22.86
  0
LINE
  5
23E
100
AcDbEntity
  8
A - Caja
  6
CONTINUOUS
 62
  256
370
   -1
100
AcDbLine
 10
111.76
 20
40.64
 11
111.76
 21
22.86
  0
LINE
  5
23F
100
AcDbEntity
  8
A - Caja
  6
CONTINUOUS
 62
  256
370
   -1
100
AcDbLine
 10
0
 20
40.64
 11
111.76
 21
40.64
  0
LINE
  5
240
100
AcDbEntity
  8
A - Caja
  6
CONTINUOUS
 62
  256
370
   -1
100
AcDbLine
 10
111.76
 20
17.78
 11
111.76
 21
0
  0
ENDBLK
  5
C7
330
C5
100
AcDbEntity
  8
0
100
AcDbBlockEnd
  0
BLOCK
  5
C9
330
C8
100
AcDbEntity
  8
0
100
AcDbBlockBegin
  2
test
 70
    0
 10
0
 20
0
  3
test
  1

  0
ENDBLK
  5
CA
330
C8
100
AcDbEntity
  8
0
100
AcDbBlockEnd
  0
BLOCK
  5
CC
330
CB
100
AcDbEntity
  8
0
100
AcDbBlockBegin
  2
test2
 70
    0
 10
0
 20
0
  3
test2
  1

  0
ENDBLK
  5
CD
330
CB
100
AcDbEntity
  8
0
100
AcDbBlockEnd
  0
BLOCK
  5
CF
330
CE
100
AcDbEntity
  8
0
100
AcDbBlockBegin
  2
agujero_Q
 70
    0
 10
0
 20
0
  3
agujero_Q
  1

  0
LINE
  5
241
100
AcDbEntity
  8
A - Caja
  6
ByLayer
 62
  256
370
   -1
100
AcDbLine
 10
0
 20
0
 11
4.05
 21
0
  0
LINE
  5
242
100
AcDbEntity
  8
A - Caja
  6
ByLayer
 62
  256
370
   -1
100
AcDbLine
 10
4.05
 20
0
 11
4.05
 21
20.05
  0
LINE
  5
243
100
AcDbEntity
  8
A - Caja
  6
ByLayer
 62
  256
370
   -1
100
AcDbLine
 10
4.05
 20
20.05
 11
0
 21
20.05
  0
LINE
  5
244
100
AcDbEntity
  8
A - Caja
  6
ByLayer
 62
  256
370
   -1
100
AcDbLine
 10
0
 20
20.05
 11
0
 21
0
  0
ENDBLK
  5
D0
330
CE
100
AcDbEntity
  8
0
100
AcDbBlockEnd
  0
BLOCK
  5
D2
330
D1
100
AcDbEntity
  8
0
100
AcDbBlockBegin
  2
pata1
 70
    0
 10
0
 20
0
  3
pata1
  1

  0
LINE
  5
245
100
AcDbEntity
  8
A - Caja
  6
ByLayer
 62
  256
370
   -1
100
AcDbLine
 10
0
 20
0
 11
4.05
 21
0
  0
LINE
  5
246
100
AcDbEntity
  8
A - Caja
  6
ByLayer
 62
  256
370
   -1
100
AcDbLine
 10
4.05
 20
0
 11
4.05
 21
20.05
  0
LINE
  5
247
100
AcDbEntity
  8
A - Caja
  6
ByBlock
 62
  256
370
   -1
100
AcDbLine
 10
0
 20
30.075
 11
-4.05
 21
30.075
  0
LINE
  5
248
100
AcDbEntity
  8
A - Caja
  6
ByBlock
 62
  256
370
   -1
100
AcDbLine
 10
-4.05
 20
30.075
 11
-4.05
 21
10.025
  0
LINE
  5
249
100
AcDbEntity
  8
A - Caja
  6
ByBlock
 62
  256
370
   -1
100
AcDbLine
 10
-4.05
 20
10.025
 11
0
 21
10.025
  0
LINE
  5
24A
100
AcDbEntity
  8
A - Caja
  6
ByLayer
 62
  256
370
   -1
100
AcDbLine
 10
0
 20
10.025
 11
0
 21
0
  0
LINE
  5
24B
100
AcDbEntity
  8
A - Caja
  6
ByBlock
 62
  256
370
   -1
100
AcDbLine
 10
0
 20
20.05
 11
0
 21
30.075
  0
LINE
  5
24C
100
AcDbEntity
  8
A - Caja
  6
ByLayer
 62
  256
370
   -1
100
AcDbLine
 10
4.05
 20
20.05
 11
0
 21
20.05
  0
ENDBLK
  5
D3
330
D1
100
AcDbEntity
  8
0
100
AcDbBlockEnd
  0
BLOCK
  5
D5
330
D4
100
AcDbEntity
  8
0
100
AcDbBlockBegin
  2
pata2
 70
    0
 10
0
 20
0
  3
pata2
  1

  0
LINE
  5
24D
100
AcDbEntity
  8
A - Caja
  6
ByLayer
 62
  256
370
   -1
100
AcDbLine
 10
0
 20
0
 11
4.05
 21
0
  0
LINE
  5
24E
100
AcDbEntity
  8
A - Caja
  6
ByLayer
 62
  256
370
   -1
100
AcDbLine
 10
0
 20
20.05
 11
0
 21
0
  0
LINE
  5
24F
100
AcDbEntity
  8
A - Caja
  6
ByBlock
 62
  256
370
   -1
100
AcDbLine
 10
8.1
 20
10.025
 11
8.1
 21
30.075
  0
LINE
  5
250
100
AcDbEntity
  8
A - Caja
  6
ByBlock
 62
  256
370
   -1
100
AcDbLine
 10
8.1
 20
30.075
 11
4.05
 21
30.075
  0
LINE
  5
251
100
AcDbEntity
  8
A - Caja
  6
ByBlock
 62
  256
370
   -1
100
AcDbLine
 10
4.05
 20
10.025
 11
8.1
 21
10.025
  0
LINE
  5
252
100
AcDbEntity
  8
A - Caja
  6
ByLayer
 62
  256
370
   -1
100
AcDbLine
 10
4.05
 20
0
 11
4.05
 21
10.025
  0
LINE
  5
253
100
AcDbEntity
  8
A - Caja
  6
ByBlock
 62
  256
370
   -1
100
AcDbLine
 10
4.05
 20
30.075
 11
4.05
 21
20.05
  0
LINE
  5
254
100
AcDbEntity
  8
A - Caja
  6
ByLayer
 62
  256
370
   -1
100
AcDbLine
 10
4.05
 20
20.05
 11
0
 21
20.05
  0
ENDBLK
  5
D6
330
D4
100
AcDbEntity
  8
0
100
AcDbBlockEnd
  0
BLOCK
  5
D8
330
D7
100
AcDbEntity
  8
0
100
AcDbBlockBegin
  2
pata3
 70
    0
 10
0
 20
0
  3
pata3
  1

  0
LINE
  5
255
100
AcDbEntity
  8
A - Caja
  6
ByLayer
 62
  256
370
   -1
100
AcDbLine
 10
4.05
 20
0
 11
0
 21
0
  0
LINE
  5
256
100
AcDbEntity
  8
A - Caja
  6
ByLayer
 62
  256
370
   -1
100
AcDbLine
 10
0
 20
0
 11
0
 21
-20.05
  0
LINE
  5
257
100
AcDbEntity
  8
A - Caja
  6
ByBlock
 62
  256
370
   -1
100
AcDbLine
 10
8.1
 20
-30.075
 11
8.1
 21
-10.025
  0
LINE
  5
258
100
AcDbEntity
  8
A - Caja
  6
ByBlock
 62
  256
370
   -1
100
AcDbLine
 10
4.05
 20
-30.075
 11
8.1
 21
-30.075
  0
LINE
  5
259
100
AcDbEntity
  8
A - Caja
  6
ByBlock
 62
  256
370
   -1
100
AcDbLine
 10
4.05
 20
-20.05
 11
4.05
 21
-30.075
  0
LINE
  5
25A
100
AcDbEntity
  8
A - Caja
  6
ByLayer
 62
  256
370
   -1
100
AcDbLine
 10
0
 20
-20.05
 11
4.05
 21
-20.05
  0
LINE
  5
25B
100
AcDbEntity
  8
A - Caja
  6
ByLayer
 62
  256
370
   -1
100
AcDbLine
 10
4.05
 20
-10.025
 11
4.05
 21
0
  0
LINE
  5
25C
100
AcDbEntity
  8
A - Caja
  6
ByBlock
 62
  256
370
   -1
100
AcDbLine
 10
8.1
 20
-10.025
 11
4.05
 21
-10.025
  0
ENDBLK
  5
D9
330
D7
100
AcDbEntity
  8
0
100
AcDbBlockEnd
  0
BLOCK
  5
DB
330
DA
100
AcDbEntity
  8
0
100
AcDbBlockBegin
  2
pata4
 70
    0
 10
0
 20
0
  3
pata4
  1

  0
LINE
  5
25D
100
AcDbEntity
  8
A - Caja
  6
ByLayer
 62
  256
370
   -1
100
AcDbLine
 10
0
 20
-20.05
 11
0
 21
0
  0
LINE
  5
25E
100
AcDbEntity
  8
A - Caja
  6
ByLayer
 62
  256
370
   -1
100
AcDbLine
 10
0
 20
0
 11
-4.05
 21
0
  0
LINE
  5
25F
100
AcDbEntity
  8
A - Caja
  6
ByBlock
 62
  256
370
   -1
100
AcDbLine
 10
-8.1
 20
-10.025
 11
-8.1
 21
-30.075
  0
LINE
  5
260
100
AcDbEntity
  8
A - Caja
  6
ByBlock
 62
  256
370
   -1
100
AcDbLine
 10
-8.1
 20
-30.075
 11
-4.05
 21
-30.075
  0
LINE
  5
261
100
AcDbEntity
  8
A - Caja
  6
ByLayer
 62
  256
370
   -1
100
AcDbLine
 10
-4.05
 20
0
 11
-4.05
 21
-10.025
  0
LINE
  5
262
100
AcDbEntity
  8
A - Caja
  6
ByBlock
 62
  256
370
   -1
100
AcDbLine
 10
-4.05
 20
-10.025
 11
-8.1
 21
-10.025
  0
LINE
  5
263
100
AcDbEntity
  8
A - Caja
  6
ByBlock
 62
  256
370
   -1
100
AcDbLine
 10
-4.05
 20
-30.075
 11
-4.05
 21
-20.05
  0
LINE
  5
264
100
AcDbEntity
  8
A - Caja
  6
ByLayer
 62
  256
370
   -1
100
AcDbLine
 10
-4.05
 20
-20.05
 11
0
 21
-20.05
  0
ENDBLK
  5
DC
330
DA
100
AcDbEntity
  8
0
100
AcDbBlockEnd
  0
BLOCK
  5
DE
330
DD
100
AcDbEntity
  8
0
100
AcDbBlockBegin
  2
suelo
 70
    0
 10
0
 20
0
  3
suelo
  1

  0
CIRCLE
  5
265
100
AcDbEntity
  8
A - Caja
  6
ByBlock
 62
  256
370
   -1
100
AcDbCircle
 10
41.2525
 20
130.094519028
 40
1.5875
  0
CIRCLE
  5
266
100
AcDbEntity
  8
A - Caja
  6
ByBlock
 62
  256
370
   -1
100
AcDbCircle
 10
175.8725
 20
130.094519028
 40
1.5875
  0
ARC
  5
267
100
AcDbEntity
  8
A - Caja
  6
ByBlock
 62
  256
370
   -1
100
AcDbCircle
 10
0
 20
2.54
 40
2.54
100
AcDbArc
 50
180
 51
270
  0
LINE
  5
268
100
AcDbEntity
  8
A - Caja
  6
ByBlock
 62
  256
370
   -1
100
AcDbLine
 10
-2.54
 20
2.54
 11
-2.54
 21
285.237746
  0
LINE
  5
269
100
AcDbEntity
  8
A - Caja
  6
ByBlock
 62
  256
370
   -1
100
AcDbLine
 10
354.92
 20
0
 11
0
 21
0
  0
CIRCLE
  5
26A
100
AcDbEntity
  8
A - Caja
  6
ByBlock
 62
  256
370
   -1
100
AcDbCircle
 10
280.0125
 20
130.060972972
 40
1.5875
  0
CIRCLE
  5
26B
100
AcDbEntity
  8
A - Caja
  6
ByBlock
 62
  256
370
   -1
100
AcDbCircle
 10
41.2525
 20
130.060972972
 40
1.5875
  0
CIRCLE
  5
26C
100
AcDbEntity
  8
A - Caja
  6
ByBlock
 62
  256
370
   -1
100
AcDbCircle
 10
41.2525
 20
241.820972972
 40
1.5875
  0
CIRCLE
  5
26D
100
AcDbEntity
  8
A - Caja
  6
ByBlock
 62
  256
370
   -1
100
AcDbCircle
 10
175.8725
 20
241.820972972
 40
1.5875
  0
CIRCLE
  5
26E
100
AcDbEntity
  8
A - Caja
  6
ByBlock
 62
  256
370
   -1
100
AcDbCircle
 10
301.6025
 20
211.340972972
 40
1.5875
  0
CIRCLE
  5
26F
100
AcDbEntity
  8
A - Caja
  6
ByBlock
 62
  256
370
   -1
100
AcDbCircle
 10
330.8125
 20
173.875972972
 40
1.5875
  0
CIRCLE
  5
270
100
AcDbEntity
  8
A - Caja
  6
ByBlock
 62
  256
370
   -1
100
AcDbCircle
 10
330.4945
 20
239.280972972
 40
1.5875
  0
CIRCLE
  5
271
100
AcDbEntity
  8
A - Caja
  6
ByBlock
 62
  256
370
   -1
100
AcDbCircle
 10
330.4945
 20
262.140972972
 40
1.5875
  0
CIRCLE
  5
272
100
AcDbEntity
  8
A - Caja
  6
ByBlock
 62
  256
370
   -1
100
AcDbCircle
 10
252.3895
 20
262.140972972
 40
1.5875
  0
CIRCLE
  5
273
100
AcDbEntity
  8
A - Caja
  6
ByBlock
 62
  256
370
   -1
100
AcDbCircle
 10
252.3895
 20
239.280972972
 40
1.5875
  0
CIRCLE
  5
274
100
AcDbEntity
  8
A - Caja
  6
ByBlock
 62
  256
370
   -1
100
AcDbCircle
 10
175.8725
 20
130.060972972
 40
1.5875
  0
ARC
  5
275
100
AcDbEntity
  8
A - Caja
  6
ByBlock
 62
  256
370
   -1
100
AcDbCircle
 10
0
 20
285.237746
 40
2.54
100
AcDbArc
 50
90
 51
180
  0
LINE
  5
276
100
AcDbEntity
  8
A - Caja
  6
ByBlock
 62
  256
370
   -1
100
AcDbLine
 10
354.92
 20
287.777746
 11
0
 21
287.777746
  0
ARC
  5
277
100
AcDbEntity
  8
A - Caja
  6
ByBlock
 62
  256
370
   -1
100
AcDbCircle
 10
354.92
 20
2.54
 40
2.54
100
AcDbArc
 50
270
 51
0
  0
LINE
  5
278
100
AcDbEntity
  8
A - Caja
  6
ByBlock
 62
  256
370
   -1
100
AcDbLine
 10
357.46
 20
2.54
 11
357.46
 21
285.237746
  0
ARC
  5
279
100
AcDbEntity
  8
A - Caja
  6
ByBlock
 62
  256
370
   -1
100
AcDbCircle
 10
354.92
 20
285.237746
 40
2.54
100
AcDbArc
 50
0
 51
90
  0
LWPOLYLINE
  5
27A
100
AcDbEntity
  8
A - Caja
  6
ByBlock
 62
  256
370
   -1
100
AcDbPolyline
 90
    4
 70
    1
 43
0
 10
27.435
 20
4
 10
47.485
 20
4
 10
47.485
 20
8.050000000000001
 10
27.435
 20
8.050000000000001
  0
LWPOLYLINE
  5
27B
100
AcDbEntity
  8
A - Caja
  6
ByBlock
 62
  256
370
   -1
100
AcDbPolyline
 90
    4
 70
    1
 43
0
 10
67.435
 20
4
 10
87.485
 20
4
 10
87.485
 20
8.050000000000001
 10
67.435
 20
8.050000000000001
  0
LWPOLYLINE
  5
27C
100
AcDbEntity
  8
A - Caja
  6
ByBlock
 62
  256
370
   -1
100
AcDbPolyline
 90
    4
 70
    1
 43
0
 10
107.435
 20
4
 10
127.485
 20
4
 10
127.485
 20
8.050000000000001
 10
107.435
 20
8.050000000000001
  0
LWPOLYLINE
  5
27D
100
AcDbEntity
  8
A - Caja
  6
ByBlock
 62
  256
370
   -1
100
AcDbPolyline
 90
    4
 70
    1
 43
0
 10
147.435
 20
4
 10
167.485
 20
4
 10
167.485
 20
8.050000000000001
 10
147.435
 20
8.050000000000001
  0
LWPOLYLINE
  5
27E
100
AcDbEntity
  8
A - Caja
  6
ByBlock
 62
  256
370
   -1
100
AcDbPolyline
 90
    4
 70
    1
 43
0
 10
187.435
 20
4
 10
207.485
 20
4
 10
207.485
 20
8.050000000000001
 10
187.435
 20
8.050000000000001
  0
LWPOLYLINE
  5
27F
100
AcDbEntity
  8
A - Caja
  6
ByBlock
 62
  256
370
   -1
100
AcDbPolyline
 90
    4
 70
    1
 43
0
 10
227.435
 20
4
 10
247.485
 20
4
 10
247.485
 20
8.050000000000001
 10
227.435
 20
8.050000000000001
  0
LWPOLYLINE
  5
280
100
AcDbEntity
  8
A - Caja
  6
ByBlock
 62
  256
370
   -1
100
AcDbPolyline
 90
    4
 70
    1
 43
0
 10
267.435
 20
4
 10
287.485
 20
4
 10
287.485
 20
8.050000000000001
 10
267.435
 20
8.050000000000001
  0
LWPOLYLINE
  5
281
100
AcDbEntity
  8
A - Caja
  6
ByBlock
 62
  256
370
   -1
100
AcDbPolyline
 90
    4
 70
    1
 43
0
 10
307.435
 20
4
 10
327.485
 20
4
 10
327.485
 20
8.050000000000001
 10
307.435
 20
8.050000000000001
  0
LWPOLYLINE
  5
282
100
AcDbEntity
  8
A - Caja
  6
ByBlock
 62
  256
370
   -1
100
AcDbPolyline
 90
    4
 70
    1
 43
0
 10
5.51
 20
192.752746
 10
5.51
 20
212.802746
 10
1.46
 20
212.802746
 10
1.46
 20
192.752746
  0
LWPOLYLINE
  5
283
100
AcDbEntity
  8
A - Caja
  6
ByBlock
 62
  256
370
   -1
100
AcDbPolyline
 90
    4
 70
    1
 43
0
 10
5.51
 20
152.752746
 10
5.51
 20
172.802746
 10
1.46
 20
172.802746
 10
1.46
 20
152.752746
  0
LWPOLYLINE
  5
284
100
AcDbEntity
  8
A - Caja
  6
ByBlock
 62
  256
370
   -1
100
AcDbPolyline
 90
    4
 70
    1
 43
0
 10
5.51
 20
112.752746
 10
5.51
 20
132.802746
 10
1.46
 20
132.802746
 10
1.46
 20
112.752746
  0
LWPOLYLINE
  5
285
100
AcDbEntity
  8
A - Caja
  6
ByBlock
 62
  256
370
   -1
100
AcDbPolyline
 90
    4
 70
    1
 43
0
 10
5.51
 20
72.752746
 10
5.51
 20
92.802746
 10
1.46
 20
92.802746
 10
1.46
 20
72.752746
  0
LWPOLYLINE
  5
286
100
AcDbEntity
  8
A - Caja
  6
ByBlock
 62
  256
370
   -1
100
AcDbPolyline
 90
    4
 70
    1
 43
0
 10
353.46
 20
192.752746
 10
353.46
 20
212.802746
 10
349.41
 20
212.802746
 10
349.41
 20
192.752746
  0
LWPOLYLINE
  5
287
100
AcDbEntity
  8
A - Caja
  6
ByBlock
 62
  256
370
   -1
100
AcDbPolyline
 90
    4
 70
    1
 43
0
 10
353.46
 20
152.752746
 10
353.46
 20
172.802746
 10
349.41
 20
172.802746
 10
349.41
 20
152.752746
  0
LWPOLYLINE
  5
288
100
AcDbEntity
  8
A - Caja
  6
ByBlock
 62
  256
370
   -1
100
AcDbPolyline
 90
    4
 70
    1
 43
0
 10
353.46
 20
112.752746
 10
353.46
 20
132.802746
 10
349.41
 20
132.802746
 10
349.41
 20
112.752746
  0
LWPOLYLINE
  5
289
100
AcDbEntity
  8
A - Caja
  6
ByBlock
 62
  256
370
   -1
100
AcDbPolyline
 90
    4
 70
    1
 43
0
 10
353.46
 20
72.752746
 10
353.46
 20
92.802746
 10
349.41
 20
92.802746
 10
349.41
 20
72.752746
  0
LWPOLYLINE
  5
28A
100
AcDbEntity
  8
A - Caja
  6
ByBlock
 62
  256
370
   -1
100
AcDbPolyline
 90
    4
 70
    1
 43
0
 10
27.435
 20
279.727746
 10
47.485
 20
279.727746
 10
47.485
 20
283.777746
 10
27.435
 20
283.777746
  0
LWPOLYLINE
  5
28B
100
AcDbEntity
  8
A - Caja
  6
ByBlock
 62
  256
370
   -1
100
AcDbPolyline
 90
    4
 70
    1
 43
0
 10
67.435
 20
279.727746
 10
87.485
 20
279.727746
 10
87.485
 20
283.777746
 10
67.435
 20
283.777746
  0
LWPOLYLINE
  5
28C
100
AcDbEntity
  8
A - Caja
  6
ByBlock
 62
  256
370
   -1
100
AcDbPolyline
 90
    4
 70
    1
 43
0
 10
107.435
 20
279.727746
 10
127.485
 20
279.727746
 10
127.485
 20
283.777746
 10
107.435
 20
283.777746
  0
LWPOLYLINE
  5
28D
100
AcDbEntity
  8
A - Caja
  6
ByBlock
 62
  256
370
   -1
100
AcDbPolyline
 90
    4
 70
    1
 43
0
 10
147.435
 20
279.727746
 10
167.485
 20
279.727746
 10
167.485
 20
283.777746
 10
147.435
 20
283.777746
  0
LWPOLYLINE
  5
28E
100
AcDbEntity
  8
A - Caja
  6
ByBlock
 62
  256
370
   -1
100
AcDbPolyline
 90
    4
 70
    1
 43
0
 10
187.435
 20
279.727746
 10
207.485
 20
279.727746
 10
207.485
 20
283.777746
 10
187.435
 20
283.777746
  0
LWPOLYLINE
  5
28F
100
AcDbEntity
  8
A - Caja
  6
ByBlock
 62
  256
370
   -1
100
AcDbPolyline
 90
    4
 70
    1
 43
0
 10
227.435
 20
279.727746
 10
247.485
 20
279.727746
 10
247.485
 20
283.777746
 10
227.435
 20
283.777746
  0
LWPOLYLINE
  5
290
100
AcDbEntity
  8
A - Caja
  6
ByBlock
 62
  256
370
   -1
100
AcDbPolyline
 90
    4
 70
    1
 43
0
 10
267.435
 20
279.727746
 10
287.485
 20
279.727746
 10
287.485
 20
283.777746
 10
267.435
 20
283.777746
  0
LWPOLYLINE
  5
291
100
AcDbEntity
  8
A - Caja
  6
ByBlock
 62
  256
370
   -1
100
AcDbPolyline
 90
    4
 70
    1
 43
0
 10
307.435
 20
279.727746
 10
327.485
 20
279.727746
 10
327.485
 20
283.777746
 10
307.435
 20
283.777746
  0
INSERT
  5
292
100
AcDbEntity
  8
A - Caja
  6
ByLayer
 62
  256
370
   -1
100
AcDbBlockReference
  2
pata1
 10
5.51
 20
22.727746
 30
0
 41
1
 42
1
 43
0
 50
0
 70
    1
 71
    1
 44
0
 45
0
  0
INSERT
  5
293
100
AcDbEntity
  8
A - Caja
  6
ByLayer
 62
  256
370
   -1
100
AcDbBlockReference
  2
pata2
 10
345.36
 20
22.727746
 30
0
 41
1
 42
1
 43
0
 50
0
 70
    1
 71
    1
 44
0
 45
0
  0
INSERT
  5
294
100
AcDbEntity
  8
A - Caja
  6
ByLayer
 62
  256
370
   -1
100
AcDbBlockReference
  2
pata3
 10
345.36
 20
262.827746
 30
0
 41
1
 42
1
 43
0
 50
0
 70
    1
 71
    1
 44
0
 45
0
  0
INSERT
  5
295
100
AcDbEntity
  8
A - Caja
  6
ByLayer
 62
  256
370
   -1
100
AcDbBlockReference
  2
pata4
 10
9.56
 20
262.827746
 30
0
 41
1
 42
1
 43
0
 50
0
 70
    1
 71
    1
 44
0
 45
0
  0
ENDBLK
  5
DF
330
DD
100
AcDbEntity
  8
0
100
AcDbBlockEnd
  0
ENDSEC
  0
SECTION
  2
ENTITIES
  0
LWPOLYLINE
  5
296
100
AcDbEntity
  8
0
  6
ByLayer
 62
  256
370
   -1
100
AcDbPolyline
 90
    4
 70
    1
 43
0
 10
0
 20
0
 10
790
 20
0
 10
790
 20
384
 10
0
 20
384
  0
DIMENSION
  5
297
100
AcDbEntity
  8
A - Cotas
  6
ByLayer
 62
  256
370
   -1
100
AcDbDimension
  2
*D1
 10
378.1506861378161
 20
234.756566396942
 30
0
 11
378.1506861378161
 21
244.781566396942
 31
0
 70
   32
 71
    5
  3
Standard
 53
0
210
0
220
0
230
1
100
AcDbAlignedDimension
 13
358.0029015078162
 23
254.8065663969419
 33
0
 14
358.0029015078162
 24
234.756566396942
 34
0
 50
90
100
AcDbRotatedDimension
  0
DIMENSION
  5
298
100
AcDbEntity
  8
A - Cotas
  6
ByLayer
 62
  256
370
   -1
100
AcDbDimension
  2
*D2
 10
377.8309986278161
 20
254.8065663969419
 30
0
 11
377.8309986278161
 21
268.269066396942
 31
0
 70
   32
 71
    5
  3
Standard
 53
0
210
0
220
0
230
1
100
AcDbAlignedDimension
 13
332.0279015078163
 23
281.731566396942
 33
0
 14
353.9529015078163
 24
254.8065663969419
 34
0
 50
90
100
AcDbRotatedDimension
  0
DIMENSION
  5
299
100
AcDbEntity
  8
A - Cotas
  6
ByBlock
 62
    1
370
   -1
100
AcDbDimension
  2
*D3
 10
374.5534338878163
 20
348.561572739942
 30
0
 11
373.6796770378162
 21
349.8972188089419
 31
0
 70
   36
 71
    5
 72
    0
  3
Standard
 53
0
210
0
220
0
230
1
100
AcDbRadialDimension
 15
378.1229889578162
 25
352.062754906942
 35
0
 40
0
  0
DIMENSION
  5
29A
100
AcDbEntity
  8
A - Cotas
  6
ByBlock
 62
    1
370
   -1
100
AcDbDimension
  2
*D4
 10
374.5534338878163
 20
348.5115727399419
 30
0
 11
374.4683171878162
 21
346.5456026439419
 31
0
 70
   36
 71
    5
 72
    0
  3
Standard
 53
0
210
0
220
0
230
1
100
AcDbRadialDimension
 15
377.7465431978162
 25
344.663969212942
 35
0
 40
0
  0
DIMENSION
  5
29B
100
AcDbEntity
  8
A - Cotas
  6
ByBlock
 62
    1
370
   -1
100
AcDbDimension
  2
*D5
 10
361.5534338878163
 20
351.561572739942
 30
0
 11
363.0294396778163
 21
351.881076014942
 31
0
 70
   36
 71
    5
 72
    0
  3
Standard
 53
0
210
0
220
0
230
1
100
AcDbRadialDimension
 15
360.3501295078163
 25
353.159089116942
 35
0
 40
0
  0
DIMENSION
  5
29C
100
AcDbEntity
  8
A - Cotas
  6
ByBlock
 62
    1
370
   -1
100
AcDbDimension
  2
*D6
 10
361.5534338878163
 20
345.5115727399419
 30
0
 11
363.0679814478162
 21
345.1663947159419
 31
0
 70
   36
 71
    5
 72
    0
  3
Standard
 53
0
210
0
220
0
230
1
100
AcDbRadialDimension
 15
360.5428383678161
 25
343.785682621942
 35
0
 40
0
  0
DIMENSION
  5
29D
100
AcDbEntity
  8
A - Cotas
  6
ByBlock
 62
    1
370
   -1
100
AcDbDimension
  2
*D7
 10
379.5534338878163
 20
339.775841208942
 30
0
 11
369.5534338878163
 21
339.775841208942
 31
0
 70
   32
 71
    5
 72
    0
  3
Standard
 53
0
210
0
220
0
230
1
100
AcDbAlignedDimension
 13
359.5534338878163
 23
345.5115727399419
 33
0
 14
379.5534338878163
 24
348.5115727399419
 34
0
100
AcDbRotatedDimension
  0
DIMENSION
  5
29E
100
AcDbEntity
  8
A - Cotas
  6
ByBlock
 62
    1
370
   -1
100
AcDbDimension
  2
*D8
 10
355.0513077578162
 20
347.5115727399419
 30
0
 11
355.0513077578162
 21
345.2615727399419
 31
0
 70
   32
 71
    5
 72
    0
  3
Standard
 53
0
210
0
220
0
230
1
100
AcDbAlignedDimension
 13
361.5534338878163
 23
343.5115727399419
 33
0
 14
359.5534338878163
 24
347.5115727399419
 34
0
 50
90
100
AcDbRotatedDimension
  0
DIMENSION
  5
29F
100
AcDbEntity
  8
A - Cotas
  6
ByBlock
 62
    1
370
   -1
100
AcDbDimension
  2
*D9
 10
355.0513077578162
 20
351.561572739942
 30
0
 11
355.0513077578162
 21
349.2615727399419
 31
0
 70
   32
 71
    5
 72
    0
  3
Standard
 53
0
210
0
220
0
230
1
100
AcDbAlignedDimension
 13
359.5534338878163
 23
347.5115727399419
 33
0
 14
359.5534338878163
 24
351.561572739942
 34
0
 50
90
100
AcDbRotatedDimension
  0
DIMENSION
  5
2A0
100
AcDbEntity
  8
A - Cotas
  6
ByBlock
 62
    1
370
   -1
100
AcDbDimension
  2
*D10
 10
355.0513077578162
 20
353.561572739942
 30
0
 11
355.0513077578162
 21
352.5255555069419
 31
0
 70
   32
 71
    5
 72
    0
  3
Standard
 53
0
210
0
220
0
230
1
100
AcDbAlignedDimension
 13
359.5534338878163
 23
351.561572739942
 33
0
 14
361.5534338878163
 24
353.561572739942
 34
0
 50
90
100
AcDbRotatedDimension
  0
DIMENSION
  5
2A1
100
AcDbEntity
  8
A - Cotas
  6
ByBlock
 62
    1
370
   -1
100
AcDbDimension
  2
*D11
 10
383.2819982878161
 20
343.5115727399419
 30
0
 11
383.2819982878161
 21
348.685913824942
 31
0
 70
   32
 71
    5
 72
    0
  3
Standard
 53
0
210
0
220
0
230
1
100
AcDbAlignedDimension
 13
374.5534338878163
 23
353.561572739942
 33
0
 14
374.5534338878163
 24
343.5115727399419
 34
0
 50
90
100
AcDbRotatedDimension
  0
INSERT
  5
2A2
100
AcDbEntity
  8
A - Caja
  6
ByLayer
 62
  256
370
   -1
100
AcDbBlockReference
  2
suelo
 10
4.542901507816168
 20
2.003820396941961
 30
0
 41
1
 42
1
 43
0
 50
0
 70
    1
 71
    1
 44
0
 45
0
  0
DIMENSION
  5
2A3
100
AcDbEntity
  8
A - Cotas
  6
ByLayer
 62
  256
370
   -1
100
AcDbDimension
  2
*D12
 10
377.5971648578138
 20
312.6295073240583
 30
0
 11
377.5971648578138
 21
310.1420073240583
 31
0
 70
   32
 71
    5
  3
Standard
 53
0
210
0
220
0
230
1
100
AcDbAlignedDimension
 13
357.9754439878138
 23
307.6545073240583
 33
0
 14
362.0004439878137
 24
312.6295073240583
 34
0
 50
90
100
AcDbRotatedDimension
  0
DIMENSION
  5
2A4
100
AcDbEntity
  8
A - Cotas
  6
ByLayer
 62
  256
370
   -1
100
AcDbDimension
  2
*D13
 10
377.3281585278137
 20
292.0003089850583
 30
0
 11
377.3281585278137
 21
294.8024081540583
 31
0
 70
   32
 71
    5
  3
Standard
 53
0
210
0
220
0
230
1
100
AcDbAlignedDimension
 13
357.9754439878138
 23
297.6045073240583
 33
0
 14
362.0004439878137
 24
292.0003089850583
 34
0
 50
90
100
AcDbRotatedDimension
  0
DIMENSION
  5
2A5
100
AcDbEntity
  8
A - Cotas
  6
ByLayer
 62
  256
370
   -1
100
AcDbDimension
  2
*D14
 10
377.3711995378137
 20
307.6545073240583
 30
0
 11
377.3711995378137
 21
302.6295073240583
 31
0
 70
   32
 71
    5
 72
    0
  3
Standard
 53
0
210
0
220
0
230
1
100
AcDbAlignedDimension
 13
357.9754439878138
 23
297.6045073240583
 33
0
 14
357.9754439878138
 24
307.6545073240583
 34
0
 50
90
100
AcDbRotatedDimension
  0
INSERT
  5
2A6
100
AcDbEntity
  8
A - Caja
  6
ByBlock
 62
  256
370
   -1
100
AcDbBlockReference
  2
E740198
 10
2.000443987813696
 20
292.0003089850583
 30
0
 41
1
 42
1
 43
0
 50
0
 70
    1
 71
    1
 44
0
 45
0
  0
DIMENSION
  5
2A7
100
AcDbEntity
  8
A - Cotas
  6
ByLayer
 62
  256
370
   -1
100
AcDbDimension
  2
*D15
 10
-7.243911719999915
 20
365.6
 30
0
 11
-7.243911719999915
 21
368.1
 31
0
 70
   32
 71
    5
  3
Standard
 53
0
210
0
220
0
230
1
100
AcDbAlignedDimension
 13
1.999825729999884
 23
370.6
 33
0
 14
1.999825729999884
 24
365.6
 34
0
 50
90
100
AcDbRotatedDimension
  0
DIMENSION
  5
2A8
100
AcDbEntity
  8
A - Cotas
  6
ByLayer
 62
  256
370
   -1
100
AcDbDimension
  2
*D16
 10
384.13417645
 20
345.55
 30
0
 11
384.13417645
 21
355.575
 31
0
 70
   32
 71
    5
  3
Standard
 53
0
210
0
220
0
230
1
100
AcDbAlignedDimension
 13
357.9998257299999
 23
365.6
 33
0
 14
357.9998257299999
 24
345.55
 34
0
 50
90
100
AcDbRotatedDimension
  0
DIMENSION
  5
2A9
100
AcDbEntity
  8
A - Cotas
  6
ByLayer
 62
  256
370
   -1
100
AcDbDimension
  2
*D17
 10
-7.243819710000025
 20
365.6
 30
0
 11
-7.243819710000025
 21
355.575
 31
0
 70
   33
 71
    5
  3
Standard
 53
0
210
0
220
0
230
1
100
AcDbAlignedDimension
 13
1.999825729999884
 23
345.55
 33
0
 14
1.999825729999884
 24
365.6
 34
0
  0
INSERT
  5
2AA
100
AcDbEntity
  8
A - Caja
  6
ByBlock
 62
  256
370
   -1
100
AcDbBlockReference
  2
E7401B8
 10
1.999825729999884
 20
319
 30
0
 41
1
 42
1
 43
0
 50
0
 70
    1
 71
    1
 44
0
 45
0
  0
TEXT
  5
2AB
100
AcDbEntity
  8
0
  6
ByBlock
 62
  256
370
   -1
100
AcDbText
 10
9.04359378213212
 20
-59.58956136255242
 30
0
 40
30
  1
PROTOTIPO
 50
0
 41
1
 51
0
  7
standard
 71
    0
210
0
220
0
230
1
100
AcDbText
  0
TEXT
  5
2AC
100
AcDbEntity
  8
0
  6
ByBlock
 62
  256
370
   -1
100
AcDbText
 10
270.0267546521322
 20
-59.58956136255242
 30
0
 40
30
  1
r09d 21/10/2020
 50
0
 41
1
 51
0
  7
standard
 71
    0
210
0
220
0
230
1
100
AcDbText
  0
LINE
  5
2AD
100
AcDbEntity
  8
A - Caja
  6
CONTINUOUS
 62
  256
370
   -1
100
AcDbLine
 10
543.9160655250882
 20
313.6074409078078
 11
582.0160655252882
 21
313.6074409078078
  0
LINE
  5
2AE
100
AcDbEntity
  8
A - Caja
  6
CONTINUOUS
 62
  256
370
   -1
100
AcDbLine
 10
543.9160655250882
 20
351.7074409078077
 11
543.9160655250882
 21
313.6074409078078
  0
LINE
  5
2AF
100
AcDbEntity
  8
A - Caja
  6
CONTINUOUS
 62
  256
370
   -1
100
AcDbLine
 10
582.0160655252882
 20
351.7074409078077
 11
543.9160655250882
 21
351.7074409078077
  0
LINE
  5
2B0
100
AcDbEntity
  8
A - Caja
  6
CONTINUOUS
 62
  256
370
   -1
100
AcDbLine
 10
582.0160655252882
 20
313.6074409078078
 11
582.0160655252882
 21
351.7074409078077
  0
LINE
  5
2B1
100
AcDbEntity
  8
A - Caja
  6
CONTINUOUS
 62
  256
370
   -1
100
AcDbLine
 10
639.1660655252883
 20
280.2694409078078
 11
639.1660655252883
 21
65.95744090780767
  0
LINE
  5
2B2
100
AcDbEntity
  8
A - Caja
  6
CONTINUOUS
 62
  256
370
   -1
100
AcDbLine
 10
620.1160655252884
 20
280.2694409078078
 11
639.1660655252883
 21
280.2694409078078
  0
LINE
  5
2B3
100
AcDbEntity
  8
A - Caja
  6
CONTINUOUS
 62
  256
370
   -1
100
AcDbLine
 10
620.1160655252884
 20
294.5574409078078
 11
620.1160655252884
 21
280.2694409078078
  0
LINE
  5
2B4
100
AcDbEntity
  8
A - Caja
  6
CONTINUOUS
 62
  256
370
   -1
100
AcDbLine
 10
639.1660655252883
 20
294.5574409078078
 11
620.1160655252884
 21
294.5574409078078
  0
LINE
  5
2B5
100
AcDbEntity
  8
A - Caja
  6
CONTINUOUS
 62
  256
370
   -1
100
AcDbLine
 10
639.1660655252883
 20
351.7074409078077
 11
639.1660655252883
 21
294.5574409078078
  0
CIRCLE
  5
2B6
100
AcDbEntity
  8
A - Caja
  6
ByLayer
 62
  256
370
   -1
100
AcDbCircle
 10
590.3046115812883
 20
338.3724409078079
 40
1.5875
  0
CIRCLE
  5
2B7
100
AcDbEntity
  8
A - Caja
  6
ByLayer
 62
  256
370
   -1
100
AcDbCircle
 10
633.4510655252882
 20
287.5724409078077
 40
1.5875
  0
CIRCLE
  5
2B8
100
AcDbEntity
  8
A - Caja
  6
ByLayer
 62
  256
370
   -1
100
AcDbCircle
 10
633.4510655252882
 20
48.81244090780768
 40
1.5875
  0
CIRCLE
  5
2B9
100
AcDbEntity
  8
A - Caja
  6
ByLayer
 62
  256
370
   -1
100
AcDbCircle
 10
552.1710655250884
 20
309.1624409078078
 40
1.5875
  0
CIRCLE
  5
2BA
100
AcDbEntity
  8
A - Caja
  6
ByLayer
 62
  256
370
   -1
100
AcDbCircle
 10
521.6910655250883
 20
183.4324409078078
 40
1.5875
  0
CIRCLE
  5
2BB
100
AcDbEntity
  8
A - Caja
  6
ByLayer
 62
  256
370
   -1
100
AcDbCircle
 10
521.6910655250883
 20
48.81244090780771
 40
1.5875
  0
LINE
  5
2BC
100
AcDbEntity
  8
A - Caja
  6
CONTINUOUS
 62
  256
370
   -1
100
AcDbLine
 10
639.1660655252883
 20
18.33244090780767
 11
543.9160655250882
 21
18.33244090780769
  0
LINE
  5
2BD
100
AcDbEntity
  8
A - Caja
  6
CONTINUOUS
 62
  256
370
   -1
100
AcDbLine
 10
639.1660655252883
 20
42.14494090780767
 11
639.1660655252883
 21
18.33244090780767
  0
LINE
  5
2BE
100
AcDbEntity
  8
A - Caja
  6
CONTINUOUS
 62
  256
370
   -1
100
AcDbLine
 10
620.1160655252884
 20
42.14494090780767
 11
639.1660655252883
 21
42.14494090780767
  0
LINE
  5
2BF
100
AcDbEntity
  8
A - Caja
  6
CONTINUOUS
 62
  256
370
   -1
100
AcDbLine
 10
620.1160655252884
 20
65.95744090780767
 11
620.1160655252884
 21
42.14494090780767
  0
LINE
  5
2C0
100
AcDbEntity
  8
A - Caja
  6
CONTINUOUS
 62
  256
370
   -1
100
AcDbLine
 10
639.1660655252883
 20
65.95744090780767
 11
620.1160655252884
 21
65.95744090780767
  0
LINE
  5
2C1
100
AcDbEntity
  8
A - Caja
  6
CONTINUOUS
 62
  256
370
   -1
100
AcDbLine
 10
620.1160655252884
 20
351.7074409078077
 11
639.1660655252883
 21
351.7074409078077
  0
LINE
  5
2C2
100
AcDbEntity
  8
A - Caja
  6
CONTINUOUS
 62
  256
370
   -1
100
AcDbLine
 10
620.1160655252884
 20
332.6574409078077
 11
620.1160655252884
 21
351.7074409078077
  0
LINE
  5
2C3
100
AcDbEntity
  8
A - Caja
  6
CONTINUOUS
 62
  256
370
   -1
100
AcDbLine
 10
601.0660655252884
 20
332.6574409078077
 11
620.1160655252884
 21
332.6574409078077
  0
LINE
  5
2C4
100
AcDbEntity
  8
A - Caja
  6
CONTINUOUS
 62
  256
370
   -1
100
AcDbLine
 10
601.0660655252884
 20
313.6074409078078
 11
601.0660655252884
 21
332.6574409078077
  0
LINE
  5
2C5
100
AcDbEntity
  8
A - Caja
  6
CONTINUOUS
 62
  256
370
   -1
100
AcDbLine
 10
620.1160655252884
 20
313.6074409078078
 11
601.0660655252884
 21
313.6074409078078
  0
LINE
  5
2C6
100
AcDbEntity
  8
A - Caja
  6
CONTINUOUS
 62
  256
370
   -1
100
AcDbLine
 10
620.1160655252884
 20
304.0824409078077
 11
620.1160655252884
 21
313.6074409078078
  0
LINE
  5
2C7
100
AcDbEntity
  8
A - Caja
  6
CONTINUOUS
 62
  256
370
   -1
100
AcDbLine
 10
543.9160655250882
 20
304.0824409078077
 11
620.1160655252884
 21
304.0824409078077
  0
LINE
  5
2C8
100
AcDbEntity
  8
A - Caja
  6
CONTINUOUS
 62
  256
370
   -1
100
AcDbLine
 10
543.9160655250882
 20
18.33244090780769
 11
543.9160655250882
 21
304.0824409078077
  0
LINE
  5
2C9
100
AcDbEntity
  8
A - Caja
  6
CONTINUOUS
 62
  256
370
   -1
100
AcDbLine
 10
534.3910655250884
 20
18.33244090780769
 11
534.3910655250884
 21
37.38244090780788
  0
LINE
  5
2CA
100
AcDbEntity
  8
A - Caja
  6
CONTINUOUS
 62
  256
370
   -1
100
AcDbLine
 10
534.3910655250884
 20
56.43244090780783
 11
515.3410655250882
 21
56.43244090780783
  0
LINE
  5
2CB
100
AcDbEntity
  8
A - Caja
  6
CONTINUOUS
 62
  256
370
   -1
100
AcDbLine
 10
534.3910655250884
 20
151.6824409078078
 11
534.3910655250884
 21
56.43244090780783
  0
LINE
  5
2CC
100
AcDbEntity
  8
A - Caja
  6
CONTINUOUS
 62
  256
370
   -1
100
AcDbLine
 10
515.3410655250882
 20
151.6824409078078
 11
534.3910655250884
 21
151.6824409078078
  0
LINE
  5
2CD
100
AcDbEntity
  8
A - Caja
  6
CONTINUOUS
 62
  256
370
   -1
100
AcDbLine
 10
515.3410655250882
 20
56.43244090780783
 11
515.3410655250882
 21
151.6824409078078
  0
LINE
  5
2CE
100
AcDbEntity
  8
A - Caja
  6
CONTINUOUS
 62
  256
370
   -1
100
AcDbLine
 10
515.3410655250882
 20
18.33244090780769
 11
534.3910655250884
 21
18.33244090780769
  0
LINE
  5
2CF
100
AcDbEntity
  8
A - Caja
  6
CONTINUOUS
 62
  256
370
   -1
100
AcDbLine
 10
515.3410655250882
 20
37.38244090780788
 11
515.3410655250882
 21
18.33244090780769
  0
LINE
  5
2D0
100
AcDbEntity
  8
A - Caja
  6
CONTINUOUS
 62
  256
370
   -1
100
AcDbLine
 10
534.3910655250884
 20
37.38244090780788
 11
515.3410655250882
 21
37.38244090780788
  0
CIRCLE
  5
2D1
100
AcDbEntity
  8
A - Caja
  6
ByLayer
 62
  256
370
   -1
100
AcDbCircle
 10
409.9646115814883
 20
48.81244090780771
 40
1.5875
  0
CIRCLE
  5
2D2
100
AcDbEntity
  8
A - Caja
  6
ByLayer
 62
  256
370
   -1
100
AcDbCircle
 10
409.9646115814883
 20
183.4324409078078
 40
1.5875
  0
CIRCLE
  5
2D3
100
AcDbEntity
  8
A - Caja
  6
ByLayer
 62
  256
370
   -1
100
AcDbCircle
 10
440.4446115814883
 20
309.1624409078078
 40
1.5875
  0
CIRCLE
  5
2D4
100
AcDbEntity
  8
A - Caja
  6
ByLayer
 62
  256
370
   -1
100
AcDbCircle
 10
477.9096115814484
 20
338.3724409078079
 40
1.5875
  0
ARC
  5
2D5
100
AcDbEntity
  8
A - Caja
  6
ByLayer
 62
  256
370
   -1
100
AcDbCircle
 10
651.4678385532882
 20
7.559940907807871
 40
2.54
100
AcDbArc
 50
270
 51
360
  0
LINE
  5
2D6
100
AcDbEntity
  8
A - Caja
  6
CONTINUOUS
 62
  256
370
   -1
100
AcDbLine
 10
651.4678385532882
 20
5.01994090780768
 11
366.5478385532883
 21
5.019940907807694
  0
LINE
  5
2D7
100
AcDbEntity
  8
A - Caja
  6
CONTINUOUS
 62
  256
370
   -1
100
AcDbLine
 10
654.0078385532884
 20
362.4799409078077
 11
654.0078385532884
 21
7.559940907807871
  0
ARC
  5
2D8
100
AcDbEntity
  8
A - Caja
  6
ByLayer
 62
  256
370
   -1
100
AcDbCircle
 10
366.5478385532883
 20
7.559940907807885
 40
2.54
100
AcDbArc
 50
180
 51
270
  0
LINE
  5
2D9
100
AcDbEntity
  8
A - Caja
  6
CONTINUOUS
 62
  256
370
   -1
100
AcDbLine
 10
364.0078385532884
 20
362.4799409078077
 11
364.0078385532884
 21
7.559940907807885
  0
ARC
  5
2DA
100
AcDbEntity
  8
A - Caja
  6
ByLayer
 62
  256
370
   -1
100
AcDbCircle
 10
651.4678385532882
 20
362.4799409078077
 40
2.54
100
AcDbArc
 50
360
 51
90
  0
LINE
  5
2DB
100
AcDbEntity
  8
A - Caja
  6
CONTINUOUS
 62
  256
370
   -1
100
AcDbLine
 10
651.4678385532884
 20
365.0199409078077
 11
366.5478385532883
 21
365.0199409078077
  0
ARC
  5
2DC
100
AcDbEntity
  8
A - Caja
  6
ByLayer
 62
  256
370
   -1
100
AcDbCircle
 10
366.5478385532883
 20
362.4799409078077
 40
2.54
100
AcDbArc
 50
90
 51
180
  0
LINE
  5
2DD
100
AcDbEntity
  8
A - Caja
  6
ByBlock
 62
  256
370
   -1
100
AcDbLine
 10
509.0078385532884
 20
365.0199409078077
 11
509.0078385532884
 21
5.01994090780768
  0
LWPOLYLINE
  5
2DE
100
AcDbEntity
  8
A - Caja
  6
ByBlock
 62
  256
370
   -1
100
AcDbPolyline
 90
    4
 70
    1
 43
0
 10
372.0578385532883
 20
34.99494090780783
 10
372.0578385532883
 20
55.04494090780778
 10
368.0078385532884
 20
55.04494090780778
 10
368.0078385532884
 20
34.99494090780783
  0
LWPOLYLINE
  5
2DF
100
AcDbEntity
  8
A - Caja
  6
ByBlock
 62
  256
370
   -1
100
AcDbPolyline
 90
    4
 70
    1
 43
0
 10
372.0578385532883
 20
74.99494090780783
 10
372.0578385532883
 20
95.04494090780778
 10
368.0078385532884
 20
95.04494090780778
 10
368.0078385532884
 20
74.99494090780783
  0
LWPOLYLINE
  5
2E0
100
AcDbEntity
  8
A - Caja
  6
ByBlock
 62
  256
370
   -1
100
AcDbPolyline
 90
    4
 70
    1
 43
0
 10
372.0578385532883
 20
114.9949409078078
 10
372.0578385532883
 20
135.0449409078078
 10
368.0078385532884
 20
135.0449409078078
 10
368.0078385532884
 20
114.9949409078078
  0
LWPOLYLINE
  5
2E1
100
AcDbEntity
  8
A - Caja
  6
ByBlock
 62
  256
370
   -1
100
AcDbPolyline
 90
    4
 70
    1
 43
0
 10
372.0578385532883
 20
154.9949409078078
 10
372.0578385532883
 20
175.0449409078078
 10
368.0078385532884
 20
175.0449409078078
 10
368.0078385532884
 20
154.9949409078078
  0
LWPOLYLINE
  5
2E2
100
AcDbEntity
  8
A - Caja
  6
ByBlock
 62
  256
370
   -1
100
AcDbPolyline
 90
    4
 70
    1
 43
0
 10
372.0578385532883
 20
194.9949409078078
 10
372.0578385532883
 20
215.0449409078078
 10
368.0078385532884
 20
215.0449409078078
 10
368.0078385532884
 20
194.9949409078078
  0
LWPOLYLINE
  5
2E3
100
AcDbEntity
  8
A - Caja
  6
ByBlock
 62
  256
370
   -1
100
AcDbPolyline
 90
    4
 70
    1
 43
0
 10
372.0578385532883
 20
234.9949409078078
 10
372.0578385532883
 20
255.0449409078078
 10
368.0078385532884
 20
255.0449409078078
 10
368.0078385532884
 20
234.9949409078078
  0
LWPOLYLINE
  5
2E4
100
AcDbEntity
  8
A - Caja
  6
ByBlock
 62
  256
370
   -1
100
AcDbPolyline
 90
    4
 70
    1
 43
0
 10
372.0578385532883
 20
274.9949409078078
 10
372.0578385532883
 20
295.0449409078078
 10
368.0078385532884
 20
295.0449409078078
 10
368.0078385532884
 20
274.9949409078078
  0
LWPOLYLINE
  5
2E5
100
AcDbEntity
  8
A - Caja
  6
ByBlock
 62
  256
370
   -1
100
AcDbPolyline
 90
    4
 70
    1
 43
0
 10
372.0578385532883
 20
314.9949409078078
 10
372.0578385532883
 20
335.0449409078078
 10
368.0078385532884
 20
335.0449409078078
 10
368.0078385532884
 20
314.9949409078078
  0
LWPOLYLINE
  5
2E6
100
AcDbEntity
  8
A - Caja
  6
ByBlock
 62
  256
370
   -1
100
AcDbPolyline
 90
    4
 70
    1
 43
0
 10
419.0328385532882
 20
13.06994090780788
 10
398.9828385532883
 20
13.06994090780788
 10
398.9828385532883
 20
9.019940907807694
 10
419.0328385532882
 20
9.019940907807694
  0
LWPOLYLINE
  5
2E7
100
AcDbEntity
  8
A - Caja
  6
ByBlock
 62
  256
370
   -1
100
AcDbPolyline
 90
    4
 70
    1
 43
0
 10
459.0328385532882
 20
13.06994090780788
 10
438.9828385532883
 20
13.06994090780788
 10
438.9828385532883
 20
9.019940907807694
 10
459.0328385532882
 20
9.019940907807694
  0
LWPOLYLINE
  5
2E8
100
AcDbEntity
  8
A - Caja
  6
ByBlock
 62
  256
370
   -1
100
AcDbPolyline
 90
    4
 70
    1
 43
0
 10
499.0328385532882
 20
13.06994090780786
 10
478.9828385532883
 20
13.06994090780788
 10
478.9828385532883
 20
9.019940907807694
 10
499.0328385532882
 20
9.01994090780768
  0
LWPOLYLINE
  5
2E9
100
AcDbEntity
  8
A - Caja
  6
ByBlock
 62
  256
370
   -1
100
AcDbPolyline
 90
    4
 70
    1
 43
0
 10
539.0328385532882
 20
13.06994090780786
 10
518.9828385532883
 20
13.06994090780786
 10
518.9828385532883
 20
9.01994090780768
 10
539.0328385532882
 20
9.01994090780768
  0
LWPOLYLINE
  5
2EA
100
AcDbEntity
  8
A - Caja
  6
ByBlock
 62
  256
370
   -1
100
AcDbPolyline
 90
    4
 70
    1
 43
0
 10
579.0328385532882
 20
13.06994090780786
 10
558.9828385532883
 20
13.06994090780786
 10
558.9828385532883
 20
9.01994090780768
 10
579.0328385532882
 20
9.01994090780768
  0
LWPOLYLINE
  5
2EB
100
AcDbEntity
  8
A - Caja
  6
ByBlock
 62
  256
370
   -1
100
AcDbPolyline
 90
    4
 70
    1
 43
0
 10
619.0328385532882
 20
13.06994090780786
 10
598.9828385532883
 20
13.06994090780786
 10
598.9828385532883
 20
9.01994090780768
 10
619.0328385532882
 20
9.01994090780768
  0
LWPOLYLINE
  5
2EC
100
AcDbEntity
  8
A - Caja
  6
ByBlock
 62
  256
370
   -1
100
AcDbPolyline
 90
    4
 70
    1
 43
0
 10
419.0328385532882
 20
361.0199409078077
 10
398.9828385532883
 20
361.0199409078077
 10
398.9828385532883
 20
356.9699409078077
 10
419.0328385532882
 20
356.9699409078077
  0
LWPOLYLINE
  5
2ED
100
AcDbEntity
  8
A - Caja
  6
ByBlock
 62
  256
370
   -1
100
AcDbPolyline
 90
    4
 70
    1
 43
0
 10
459.0328385532882
 20
361.0199409078077
 10
438.9828385532883
 20
361.0199409078077
 10
438.9828385532883
 20
356.9699409078077
 10
459.0328385532882
 20
356.9699409078077
  0
LWPOLYLINE
  5
2EE
100
AcDbEntity
  8
A - Caja
  6
ByBlock
 62
  256
370
   -1
100
AcDbPolyline
 90
    4
 70
    1
 43
0
 10
499.0328385532882
 20
361.0199409078077
 10
478.9828385532883
 20
361.0199409078077
 10
478.9828385532883
 20
356.9699409078077
 10
499.0328385532882
 20
356.9699409078077
  0
LWPOLYLINE
  5
2EF
100
AcDbEntity
  8
A - Caja
  6
ByBlock
 62
  256
370
   -1
100
AcDbPolyline
 90
    4
 70
    1
 43
0
 10
539.0328385532882
 20
361.0199409078077
 10
518.9828385532883
 20
361.0199409078077
 10
518.9828385532883
 20
356.9699409078077
 10
539.0328385532882
 20
356.9699409078077
  0
LWPOLYLINE
  5
2F0
100
AcDbEntity
  8
A - Caja
  6
ByBlock
 62
  256
370
   -1
100
AcDbPolyline
 90
    4
 70
    1
 43
0
 10
579.0328385532882
 20
361.0199409078077
 10
558.9828385532883
 20
361.0199409078077
 10
558.9828385532883
 20
356.9699409078077
 10
579.0328385532882
 20
356.9699409078077
  0
LWPOLYLINE
  5
2F1
100
AcDbEntity
  8
A - Caja
  6
ByBlock
 62
  256
370
   -1
100
AcDbPolyline
 90
    4
 70
    1
 43
0
 10
619.0328385532882
 20
361.0199409078077
 10
598.9828385532883
 20
361.0199409078077
 10
598.9828385532883
 20
356.9699409078077
 10
619.0328385532882
 20
356.9699409078077
  0
DIMENSION
  5
2F2
100
AcDbEntity
  8
A - Cotas
  6
ByLayer
 62
  256
370
   -1
100
AcDbDimension
  2
*D18
 10
499.0328385532882
 20
-39.79878866219228
 30
0
 11
449.0078385532884
 21
-39.79878866219227
 31
0
 70
   32
 71
    5
  3
Standard
 53
0
210
0
220
0
230
1
100
AcDbAlignedDimension
 13
398.9828385532883
 23
13.06994090780788
 33
0
 14
499.0328385532882
 24
13.06994090780786
 34
0
 50
180
100
AcDbRotatedDimension
  0
CIRCLE
  5
2F3
100
AcDbEntity
  8
A - Caja
  6
ByLayer
 62
  256
370
   -1
100
AcDbCircle
 10
525.5210655250883
 20
229.1424409078078
 40
1.5875
  0
DIMENSION
  5
2F4
100
AcDbEntity
  8
A - Cotas
  6
ByLayer
 62
  256
370
   -1
100
AcDbDimension
  2
*D19
 10
437.3059594664883
 20
183.4324409078078
 30
0
 11
437.3059594664883
 21
116.1224409078079
 31
0
 70
   32
 71
    5
 72
    0
  3
Standard
 53
0
210
0
220
0
230
1
100
AcDbAlignedDimension
 13
409.9646115814883
 23
48.81244090780771
 33
0
 14
409.9646115814883
 24
183.4324409078078
 34
0
 50
90
100
AcDbRotatedDimension
  0
INSERT
  5
2F5
100
AcDbEntity
  8
A - Caja
  6
ByBlock
 62
  256
370
   -1
100
AcDbBlockReference
  2
E7401D8
 10
570.8166380778882
 20
213.6312039278077
 30
0
 41
1
 42
1
 43
0
 50
90
 70
    1
 71
    1
 44
0
 45
0
  0
INSERT
  5
2F6
100
AcDbEntity
  8
A - Caja
  6
ByBlock
 62
  256
370
   -1
100
AcDbBlockReference
  2
E7401C8
 10
571.1180258845882
 20
130.2802616078079
 30
0
 41
1
 42
1
 43
0
 50
90
 70
    1
 71
    1
 44
0
 45
0
  0
INSERT
  5
2F7
100
AcDbEntity
  8
A - Caja
  6
ByBlock
 62
  256
370
   -1
100
AcDbBlockReference
  2
E7401C8
 10
583.8180258842883
 20
130.2802616078079
 30
0
 41
1
 42
1
 43
0
 50
90
 70
    1
 71
    1
 44
0
 45
0
  0
INSERT
  5
2F8
100
AcDbEntity
  8
A - Caja
  6
ByBlock
 62
  256
370
   -1
100
AcDbBlockReference
  2
E7401C8
 10
596.5180258842884
 20
130.2802616078079
 30
0
 41
1
 42
1
 43
0
 50
90
 70
    1
 71
    1
 44
0
 45
0
  0
INSERT
  5
2F9
100
AcDbEntity
  8
A - Caja
  6
ByBlock
 62
  256
370
   -1
100
AcDbBlockReference
  2
E7401C8
 10
609.2180258842884
 20
130.2802616078079
 30
0
 41
1
 42
1
 43
0
 50
90
 70
    1
 71
    1
 44
0
 45
0
  0
INSERT
  5
2FA
100
AcDbEntity
  8
A - Caja
  6
ByBlock
 62
  256
370
   -1
100
AcDbBlockReference
  2
E7401C8
 10
571.1180258845882
 20
142.9802616078077
 30
0
 41
1
 42
1
 43
0
 50
90
 70
    1
 71
    1
 44
0
 45
0
  0
INSERT
  5
2FB
100
AcDbEntity
  8
A - Caja
  6
ByBlock
 62
  256
370
   -1
100
AcDbBlockReference
  2
E7401C8
 10
583.8180258842883
 20
142.9802616078077
 30
0
 41
1
 42
1
 43
0
 50
90
 70
    1
 71
    1
 44
0
 45
0
  0
INSERT
  5
2FC
100
AcDbEntity
  8
A - Caja
  6
ByBlock
 62
  256
370
   -1
100
AcDbBlockReference
  2
E7401C8
 10
596.5180258842884
 20
142.9802616078077
 30
0
 41
1
 42
1
 43
0
 50
90
 70
    1
 71
    1
 44
0
 45
0
  0
INSERT
  5
2FD
100
AcDbEntity
  8
A - Caja
  6
ByBlock
 62
  256
370
   -1
100
AcDbBlockReference
  2
E7401C8
 10
609.2180258842884
 20
142.9802616078077
 30
0
 41
1
 42
1
 43
0
 50
90
 70
    1
 71
    1
 44
0
 45
0
  0
INSERT
  5
2FE
100
AcDbEntity
  8
A - Caja
  6
ByBlock
 62
  256
370
   -1
100
AcDbBlockReference
  2
E7401C8
 10
571.1180258845882
 20
155.6802616078077
 30
0
 41
1
 42
1
 43
0
 50
90
 70
    1
 71
    1
 44
0
 45
0
  0
INSERT
  5
2FF
100
AcDbEntity
  8
A - Caja
  6
ByBlock
 62
  256
370
   -1
100
AcDbBlockReference
  2
E7401C8
 10
583.8180258842883
 20
155.6802616078077
 30
0
 41
1
 42
1
 43
0
 50
90
 70
    1
 71
    1
 44
0
 45
0
  0
INSERT
  5
300
100
AcDbEntity
  8
A - Caja
  6
ByBlock
 62
  256
370
   -1
100
AcDbBlockReference
  2
E7401C8
 10
596.5180258842884
 20
155.6802616078077
 30
0
 41
1
 42
1
 43
0
 50
90
 70
    1
 71
    1
 44
0
 45
0
  0
INSERT
  5
301
100
AcDbEntity
  8
A - Caja
  6
ByBlock
 62
  256
370
   -1
100
AcDbBlockReference
  2
E7401C8
 10
609.2180258842884
 20
155.6802616078077
 30
0
 41
1
 42
1
 43
0
 50
90
 70
    1
 71
    1
 44
0
 45
0
  0
INSERT
  5
302
100
AcDbEntity
  8
A - Caja
  6
ByBlock
 62
  256
370
   -1
100
AcDbBlockReference
  2
E7401C8
 10
571.1180258845882
 20
168.3802616078078
 30
0
 41
1
 42
1
 43
0
 50
90
 70
    1
 71
    1
 44
0
 45
0
  0
INSERT
  5
303
100
AcDbEntity
  8
A - Caja
  6
ByBlock
 62
  256
370
   -1
100
AcDbBlockReference
  2
E7401C8
 10
583.8180258842883
 20
168.3802616078078
 30
0
 41
1
 42
1
 43
0
 50
90
 70
    1
 71
    1
 44
0
 45
0
  0
INSERT
  5
304
100
AcDbEntity
  8
A - Caja
  6
ByBlock
 62
  256
370
   -1
100
AcDbBlockReference
  2
E7401C8
 10
596.5180258842884
 20
168.3802616078078
 30
0
 41
1
 42
1
 43
0
 50
90
 70
    1
 71
    1
 44
0
 45
0
  0
INSERT
  5
305
100
AcDbEntity
  8
A - Caja
  6
ByBlock
 62
  256
370
   -1
100
AcDbBlockReference
  2
E7401C8
 10
609.2180258842884
 20
168.3802616078078
 30
0
 41
1
 42
1
 43
0
 50
90
 70
    1
 71
    1
 44
0
 45
0
  0
INSERT
  5
306
100
AcDbEntity
  8
A - Caja
  6
ByBlock
 62
  256
370
   -1
100
AcDbBlockReference
  2
E7401C8
 10
571.1180258845882
 20
181.0802616078078
 30
0
 41
1
 42
1
 43
0
 50
90
 70
    1
 71
    1
 44
0
 45
0
  0
INSERT
  5
307
100
AcDbEntity
  8
A - Caja
  6
ByBlock
 62
  256
370
   -1
100
AcDbBlockReference
  2
E7401C8
 10
583.8180258842883
 20
181.0802616078078
 30
0
 41
1
 42
1
 43
0
 50
90
 70
    1
 71
    1
 44
0
 45
0
  0
INSERT
  5
308
100
AcDbEntity
  8
A - Caja
  6
ByBlock
 62
  256
370
   -1
100
AcDbBlockReference
  2
E7401C8
 10
596.5180258842884
 20
181.0802616078078
 30
0
 41
1
 42
1
 43
0
 50
90
 70
    1
 71
    1
 44
0
 45
0
  0
INSERT
  5
309
100
AcDbEntity
  8
A - Caja
  6
ByBlock
 62
  256
370
   -1
100
AcDbBlockReference
  2
E7401C8
 10
609.2180258842884
 20
181.0802616078078
 30
0
 41
1
 42
1
 43
0
 50
90
 70
    1
 71
    1
 44
0
 45
0
  0
INSERT
  5
30A
100
AcDbEntity
  8
A - Caja
  6
ByBlock
 62
  256
370
   -1
100
AcDbBlockReference
  2
E7401D8
 10
586.2745095122882
 20
213.6312039278077
 30
0
 41
1
 42
1
 43
0
 50
90
 70
    1
 71
    1
 44
0
 45
0
  0
INSERT
  5
30B
100
AcDbEntity
  8
A - Caja
  6
ByBlock
 62
  256
370
   -1
100
AcDbBlockReference
  2
E7401D8
 10
601.7323809462882
 20
213.6312039278077
 30
0
 41
1
 42
1
 43
0
 50
90
 70
    1
 71
    1
 44
0
 45
0
  0
INSERT
  5
30C
100
AcDbEntity
  8
A - Caja
  6
ByBlock
 62
  256
370
   -1
100
AcDbBlockReference
  2
E7401D8
 10
570.8166380778882
 20
240.7767342478077
 30
0
 41
1
 42
1
 43
0
 50
90
 70
    1
 71
    1
 44
0
 45
0
  0
INSERT
  5
30D
100
AcDbEntity
  8
A - Caja
  6
ByBlock
 62
  256
370
   -1
100
AcDbBlockReference
  2
E7401D8
 10
586.2745095122884
 20
240.7767342478077
 30
0
 41
1
 42
1
 43
0
 50
90
 70
    1
 71
    1
 44
0
 45
0
  0
INSERT
  5
30E
100
AcDbEntity
  8
A - Caja
  6
ByBlock
 62
  256
370
   -1
100
AcDbBlockReference
  2
E7401D8
 10
601.7323809462882
 20
240.7767342478077
 30
0
 41
1
 42
1
 43
0
 50
90
 70
    1
 71
    1
 44
0
 45
0
  0
INSERT
  5
30F
100
AcDbEntity
  8
A - Caja
  6
ByBlock
 62
  256
370
   -1
100
AcDbBlockReference
  2
E7401A8
 10
421.3946115814883
 20
238.0424409078077
 30
0
 41
1
 42
1
 43
0
 50
90
 70
    1
 71
    1
 44
0
 45
0
  0
LWPOLYLINE
  5
310
100
AcDbEntity
  8
A - Caja
  6
ByBlock
 62
  256
370
   -1
100
AcDbPolyline
 90
    4
 70
    0
 43
0
 10
708.6383257299997
 20
333.965
 10
712.6383257299997
 20
333.965
 10
712.6383257299997
 20
313.965
 10
708.6383257299997
 20
313.965
  0
LINE
  5
311
100
AcDbEntity
  8
A - Caja
  6
ByBlock
 62
  256
370
   -1
100
AcDbLine
 10
708.6383257299997
 20
313.965
 11
708.6383257299997
 21
293.965
  0
LWPOLYLINE
  5
312
100
AcDbEntity
  8
A - Caja
  6
ByBlock
 62
  256
370
   -1
100
AcDbPolyline
 90
    4
 70
    0
 43
0
 10
708.6383257299997
 20
293.965
 10
712.6383257299997
 20
293.965
 10
712.6383257299997
 20
273.965
 10
708.6383257299997
 20
273.965
  0
LWPOLYLINE
  5
313
100
AcDbEntity
  8
A - Caja
  6
ByBlock
 62
  256
370
   -1
100
AcDbPolyline
 90
    4
 70
    0
 43
0
 10
708.6383257299997
 20
253.965
 10
712.6383257299997
 20
253.965
 10
712.6383257299997
 20
233.965
 10
708.6383257299997
 20
233.965
  0
LWPOLYLINE
  5
314
100
AcDbEntity
  8
A - Caja
  6
ByBlock
 62
  256
370
   -1
100
AcDbPolyline
 90
    4
 70
    0
 43
0
 10
708.6383257299997
 20
213.965
 10
712.6383257299997
 20
213.965
 10
712.6383257299997
 20
193.965
 10
708.6383257299997
 20
193.965
  0
LWPOLYLINE
  5
315
100
AcDbEntity
  8
A - Caja
  6
ByBlock
 62
  256
370
   -1
100
AcDbPolyline
 90
    4
 70
    0
 43
0
 10
708.6383257299997
 20
173.965
 10
712.6383257299997
 20
173.965
 10
712.6383257299997
 20
153.965
 10
708.6383257299997
 20
153.965
  0
LWPOLYLINE
  5
316
100
AcDbEntity
  8
A - Caja
  6
ByBlock
 62
  256
370
   -1
100
AcDbPolyline
 90
    4
 70
    0
 43
0
 10
708.6383257299997
 20
133.965
 10
712.6383257299997
 20
133.965
 10
712.6383257299997
 20
113.965
 10
708.6383257299997
 20
113.965
  0
LINE
  5
317
100
AcDbEntity
  8
A - Caja
  6
ByBlock
 62
  256
370
   -1
100
AcDbLine
 10
661.0383257299998
 20
360.915
 11
661.0383257299998
 21
333.965
  0
LWPOLYLINE
  5
318
100
AcDbEntity
  8
A - Caja
  6
ByBlock
 62
  256
370
   -1
100
AcDbPolyline
 90
    4
 70
    0
 43
0
 10
661.0383257299998
 20
313.965
 10
657.0383257299998
 20
313.965
 10
657.0383257299998
 20
333.965
 10
661.0383257299998
 20
333.965
  0
LWPOLYLINE
  5
319
100
AcDbEntity
  8
A - Caja
  6
ByBlock
 62
  256
370
   -1
100
AcDbPolyline
 90
    4
 70
    0
 43
0
 10
661.0383257299998
 20
273.965
 10
657.0383257299998
 20
273.965
 10
657.0383257299998
 20
293.965
 10
661.0383257299998
 20
293.965
  0
LWPOLYLINE
  5
31A
100
AcDbEntity
  8
A - Caja
  6
ByBlock
 62
  256
370
   -1
100
AcDbPolyline
 90
    4
 70
    0
 43
0
 10
661.0383257299998
 20
233.965
 10
657.0383257299998
 20
233.965
 10
657.0383257299998
 20
253.965
 10
661.0383257299998
 20
253.965
  0
LINE
  5
31B
100
AcDbEntity
  8
A - Caja
  6
ByBlock
 62
  256
370
   -1
100
AcDbLine
 10
708.6383257299997
 20
273.965
 11
708.6383257299997
 21
253.965
  0
LINE
  5
31C
100
AcDbEntity
  8
A - Caja
  6
ByBlock
 62
  256
370
   -1
100
AcDbLine
 10
708.6383257299997
 20
233.965
 11
708.6383257299997
 21
213.965
  0
LINE
  5
31D
100
AcDbEntity
  8
A - Caja
  6
ByBlock
 62
  256
370
   -1
100
AcDbLine
 10
708.6383257299997
 20
193.965
 11
708.6383257299997
 21
173.965
  0
LINE
  5
31E
100
AcDbEntity
  8
A - Caja
  6
ByBlock
 62
  256
370
   -1
100
AcDbLine
 10
708.6383257299997
 20
153.965
 11
708.6383257299997
 21
133.965
  0
LINE
  5
31F
100
AcDbEntity
  8
A - Caja
  6
ByBlock
 62
  256
370
   -1
100
AcDbLine
 10
708.6383257299997
 20
113.965
 11
708.6383257299997
 21
89.212254
  0
LINE
  5
320
100
AcDbEntity
  8
A - Caja
  6
ByBlock
 62
  256
370
   -1
100
AcDbLine
 10
661.0383257299998
 20
273.965
 11
661.0383257299998
 21
253.965
  0
LINE
  5
321
100
AcDbEntity
  8
A - Caja
  6
ByBlock
 62
  256
370
   -1
100
AcDbLine
 10
661.0383257299998
 20
313.965
 11
661.0383257299998
 21
293.965
  0
LINE
  5
322
100
AcDbEntity
  8
A - Caja
  6
ByBlock
 62
  256
370
   -1
100
AcDbLine
 10
661.0383257299998
 20
233.965
 11
661.0383257299998
 21
223.965
  0
LINE
  5
323
100
AcDbEntity
  8
A - Caja
  6
ByBlock
 62
  256
370
   -1
100
AcDbLine
 10
692.9287943599998
 20
89.212254
 11
687.2364656599998
 21
89.212254
  0
LWPOLYLINE
  5
324
100
AcDbEntity
  8
A - Caja
  6
ByBlock
 62
  256
370
   -1
100
AcDbPolyline
 90
    4
 70
    0
 43
0
 10
666.7625955899998
 20
194.5161844966
 10
662.8360868499997
 20
193.7529485151
 10
659.0199069499997
 20
213.385492184
 10
662.9464156799997
 20
214.1487281655
  0
LWPOLYLINE
  5
325
100
AcDbEntity
  8
A - Caja
  6
ByBlock
 62
  256
370
   -1
100
AcDbPolyline
 90
    4
 70
    0
 43
0
 10
674.3949553999998
 20
155.2510971587
 10
670.4684466699998
 20
154.4878611772
 10
666.6522667599997
 20
174.1204048461
 10
670.5787754899998
 20
174.8836408276
  0
LINE
  5
326
100
AcDbEntity
  8
A - Caja
  6
ByBlock
 62
  256
370
   -1
100
AcDbLine
 10
666.7625955899998
 20
194.5161844966
 11
670.5787754899998
 21
174.8836408276
  0
LINE
  5
327
100
AcDbEntity
  8
A - Caja
  6
ByBlock
 62
  256
370
   -1
100
AcDbLine
 10
661.0383257299998
 20
223.965
 11
662.9464156799997
 21
214.1487281655
  0
LWPOLYLINE
  5
328
100
AcDbEntity
  8
A - Caja
  6
ByBlock
 62
  256
370
   -1
100
AcDbPolyline
 90
    4
 70
    0
 43
0
 10
681.8866720799997
 20
115.958671564
 10
677.9601633399998
 20
115.195435583
 10
674.1439834399998
 20
134.827979252
 10
678.0704921699999
 20
135.591215233
  0
LINE
  5
329
100
AcDbEntity
  8
A - Caja
  6
ByBlock
 62
  256
370
   -1
100
AcDbLine
 10
674.2543122599998
 20
155.223758902
 11
678.0704921699999
 21
135.591215233
  0
LINE
  5
32A
100
AcDbEntity
  8
A - Caja
  6
ByBlock
 62
  256
370
   -1
100
AcDbLine
 10
681.8866720799997
 20
115.958671564
 11
687.2314698499997
 21
89.212254
  0
LINE
  5
32B
100
AcDbEntity
  8
A - Caja
  6
ByBlock
 62
  256
370
   -1
100
AcDbLine
 10
703.6383257299997
 20
85.212254
 11
693.6383257299997
 21
85.212254
  0
LINE
  5
32C
100
AcDbEntity
  8
A - Caja
  6
ByBlock
 62
  256
370
   -1
100
AcDbLine
 10
693.6383257299997
 20
89.212254
 11
687.2364656699997
 21
89.212254
  0
LINE
  5
32D
100
AcDbEntity
  8
A - Caja
  6
ByBlock
 62
  256
370
   -1
100
AcDbLine
 10
693.6383257299997
 20
89.212254
 11
693.6383257299997
 21
85.212254
  0
LINE
  5
32E
100
AcDbEntity
  8
A - Caja
  6
ByBlock
 62
  256
370
   -1
100
AcDbLine
 10
708.6383257299997
 20
89.212254
 11
703.6383257299997
 21
89.212254
  0
LINE
  5
32F
100
AcDbEntity
  8
A - Caja
  6
ByBlock
 62
  256
370
   -1
100
AcDbLine
 10
703.6383257299997
 20
89.212254
 11
703.6383257299997
 21
85.212254
  0
LINE
  5
330
100
AcDbEntity
  8
A - Caja
  6
ByBlock
 62
  256
370
   -1
100
AcDbLine
 10
708.6383257299997
 20
89.212254
 11
703.6383257299997
 21
89.212254
  0
DIMENSION
  5
331
100
AcDbEntity
  8
A - Cotas
  6
ByLayer
 62
  256
370
   -1
100
AcDbDimension
  2
*D20
 10
650.3005224499998
 20
313.965
 30
0
 11
650.3005224499998
 21
323.965
 31
0
 70
   32
 71
    5
  3
Standard
 53
0
210
0
220
0
230
1
100
AcDbAlignedDimension
 13
657.0383257299998
 23
333.965
 33
0
 14
657.0383257299998
 24
313.965
 34
0
 50
90
100
AcDbRotatedDimension
  0
DIMENSION
  5
332
100
AcDbEntity
  8
A - Cotas
  6
ByLayer
 62
  256
370
   -1
100
AcDbDimension
  2
*D21
 10
657.0383257299998
 20
333.965
 30
0
 11
657.0383257299998
 21
347.44
 31
0
 70
   32
 71
    5
  3
Standard
 53
0
210
0
220
0
230
1
100
AcDbAlignedDimension
 13
661.0383257299998
 23
360.915
 33
0
 14
657.0383257299998
 24
333.965
 34
0
 50
90
100
AcDbRotatedDimension
  0
DIMENSION
  5
333
100
AcDbEntity
  8
A - Cotas
  6
ByLayer
 62
  256
370
   -1
100
AcDbDimension
  2
*D22
 10
668.9810237499998
 20
333.965
 30
0
 11
668.9810237499998
 21
283.965
 31
0
 70
   32
 71
    5
  3
Standard
 53
0
210
0
220
0
230
1
100
AcDbAlignedDimension
 13
661.0383257299998
 23
233.965
 33
0
 14
661.0383257299998
 24
333.965
 34
0
 50
90
100
AcDbRotatedDimension
  0
LINE
  5
334
100
AcDbEntity
  8
A - Caja
  6
ByBlock
 62
  256
370
   -1
100
AcDbLine
 10
666.0883257299997
 20
360.915
 11
661.0383257299998
 21
360.915
  0
LINE
  5
335
100
AcDbEntity
  8
A - Caja
  6
ByBlock
 62
  256
370
   -1
100
AcDbLine
 10
666.0883257299997
 20
364.915
 11
666.0883257299997
 21
360.915
  0
LINE
  5
336
100
AcDbEntity
  8
A - Caja
  6
CONTINUOUS
 62
  256
370
   -1
100
AcDbLine
 10
708.6383257299997
 20
333.965
 11
708.6383257299997
 21
360.915
  0
LINE
  5
337
100
AcDbEntity
  8
A - Cotas
  6
ByLayer
 62
  256
370
   -1
100
AcDbLine
 10
666.0883257299997
 20
364.915
 11
686.0883257299997
 21
364.915
  0
LINE
  5
338
100
AcDbEntity
  8
A - Caja
  6
ByBlock
 62
  256
370
   -1
100
AcDbLine
 10
686.0883257299997
 20
364.915
 11
666.0883257299997
 21
364.915
  0
LINE
  5
339
100
AcDbEntity
  8
A - Caja
  6
ByBlock
 62
  256
370
   -1
100
AcDbLine
 10
708.6383257299997
 20
360.915
 11
686.0883257299997
 21
360.915
  0
LINE
  5
33A
100
AcDbEntity
  8
A - Caja
  6
ByBlock
 62
  256
370
   -1
100
AcDbLine
 10
686.0883257299997
 20
364.915
 11
686.0883257299997
 21
360.915
  0
DIMENSION
  5
33B
100
AcDbEntity
  8
A - Cotas
  6
ByLayer
 62
  256
370
   -1
100
AcDbDimension
  2
*D23
 10
686.0883257299997
 20
369.693488908
 30
0
 11
676.0883257299997
 21
369.693488908
 31
0
 70
   33
 71
    5
  3
Standard
 53
0
210
0
220
0
230
1
100
AcDbAlignedDimension
 13
666.0883257299997
 23
364.915
 33
0
 14
686.0883257299997
 24
364.915
 34
0
  0
LINE
  5
33C
100
AcDbEntity
  8
A - Caja
  6
CONTINUOUS
 62
  256
370
   -1
100
AcDbLine
 10
718.7000030954471
 20
333.9999908147335
 11
718.7000030954471
 21
360.9499908147335
  0
LWPOLYLINE
  5
33D
100
AcDbEntity
  8
A - Caja
  6
ByBlock
 62
  256
370
   -1
100
AcDbPolyline
 90
    4
 70
    0
 43
0
 10
718.7000030954471
 20
333.9999908147335
 10
714.7000030954471
 20
333.9999908147335
 10
714.7000030954471
 20
313.9999908147335
 10
718.7000030954471
 20
313.9999908147335
  0
LINE
  5
33E
100
AcDbEntity
  8
A - Caja
  6
ByBlock
 62
  256
370
   -1
100
AcDbLine
 10
718.7000030954471
 20
313.9999908147335
 11
718.7000030954471
 21
293.9999908147335
  0
LWPOLYLINE
  5
33F
100
AcDbEntity
  8
A - Caja
  6
ByBlock
 62
  256
370
   -1
100
AcDbPolyline
 90
    4
 70
    0
 43
0
 10
718.7000030954471
 20
293.9999908147335
 10
714.7000030954471
 20
293.9999908147335
 10
714.7000030954471
 20
273.9999908147335
 10
718.7000030954471
 20
273.9999908147335
  0
LWPOLYLINE
  5
340
100
AcDbEntity
  8
A - Caja
  6
ByBlock
 62
  256
370
   -1
100
AcDbPolyline
 90
    4
 70
    0
 43
0
 10
718.7000030954471
 20
253.9999908147335
 10
714.7000030954471
 20
253.9999908147335
 10
714.7000030954471
 20
233.9999908147335
 10
718.7000030954471
 20
233.9999908147335
  0
LWPOLYLINE
  5
341
100
AcDbEntity
  8
A - Caja
  6
ByBlock
 62
  256
370
   -1
100
AcDbPolyline
 90
    4
 70
    0
 43
0
 10
718.7000030954471
 20
213.9999908147335
 10
714.7000030954471
 20
213.9999908147335
 10
714.7000030954471
 20
193.9999908147335
 10
718.7000030954471
 20
193.9999908147335
  0
LWPOLYLINE
  5
342
100
AcDbEntity
  8
A - Caja
  6
ByBlock
 62
  256
370
   -1
100
AcDbPolyline
 90
    4
 70
    0
 43
0
 10
718.7000030954471
 20
173.9999908147335
 10
714.7000030954471
 20
173.9999908147335
 10
714.7000030954471
 20
153.9999908147335
 10
718.7000030954471
 20
153.9999908147335
  0
LWPOLYLINE
  5
343
100
AcDbEntity
  8
A - Caja
  6
ByBlock
 62
  256
370
   -1
100
AcDbPolyline
 90
    4
 70
    0
 43
0
 10
718.7000030954471
 20
133.9999908147335
 10
714.7000030954471
 20
133.9999908147335
 10
714.7000030954471
 20
113.9999908147335
 10
718.7000030954471
 20
113.9999908147335
  0
LINE
  5
344
100
AcDbEntity
  8
A - Caja
  6
ByBlock
 62
  256
370
   -1
100
AcDbLine
 10
766.300003095447
 20
360.9499908147335
 11
766.300003095447
 21
333.9999908147335
  0
LWPOLYLINE
  5
345
100
AcDbEntity
  8
A - Caja
  6
ByBlock
 62
  256
370
   -1
100
AcDbPolyline
 90
    4
 70
    0
 43
0
 10
766.300003095447
 20
313.9999908147335
 10
770.300003095447
 20
313.9999908147335
 10
770.300003095447
 20
333.9999908147335
 10
766.300003095447
 20
333.9999908147335
  0
LWPOLYLINE
  5
346
100
AcDbEntity
  8
A - Caja
  6
ByBlock
 62
  256
370
   -1
100
AcDbPolyline
 90
    4
 70
    0
 43
0
 10
766.300003095447
 20
273.9999908147335
 10
770.300003095447
 20
273.9999908147335
 10
770.300003095447
 20
293.9999908147335
 10
766.300003095447
 20
293.9999908147335
  0
LWPOLYLINE
  5
347
100
AcDbEntity
  8
A - Caja
  6
ByBlock
 62
  256
370
   -1
100
AcDbPolyline
 90
    4
 70
    0
 43
0
 10
766.300003095447
 20
233.9999908147335
 10
770.300003095447
 20
233.9999908147335
 10
770.300003095447
 20
253.9999908147335
 10
766.300003095447
 20
253.9999908147335
  0
LINE
  5
348
100
AcDbEntity
  8
A - Caja
  6
ByBlock
 62
  256
370
   -1
100
AcDbLine
 10
718.7000030954471
 20
273.9999908147335
 11
718.7000030954471
 21
253.9999908147335
  0
LINE
  5
349
100
AcDbEntity
  8
A - Caja
  6
ByBlock
 62
  256
370
   -1
100
AcDbLine
 10
718.7000030954471
 20
233.9999908147335
 11
718.7000030954471
 21
213.9999908147335
  0
LINE
  5
34A
100
AcDbEntity
  8
A - Caja
  6
ByBlock
 62
  256
370
   -1
100
AcDbLine
 10
718.7000030954471
 20
193.9999908147335
 11
718.7000030954471
 21
173.9999908147335
  0
LINE
  5
34B
100
AcDbEntity
  8
A - Caja
  6
ByBlock
 62
  256
370
   -1
100
AcDbLine
 10
718.7000030954471
 20
153.9999908147335
 11
718.7000030954471
 21
133.9999908147335
  0
LINE
  5
34C
100
AcDbEntity
  8
A - Caja
  6
ByBlock
 62
  256
370
   -1
100
AcDbLine
 10
718.7000030954471
 20
113.9999908147335
 11
718.7000030954471
 21
89.24724481473351
  0
LINE
  5
34D
100
AcDbEntity
  8
A - Caja
  6
ByBlock
 62
  256
370
   -1
100
AcDbLine
 10
766.300003095447
 20
273.9999908147335
 11
766.300003095447
 21
253.9999908147335
  0
LINE
  5
34E
100
AcDbEntity
  8
A - Caja
  6
ByBlock
 62
  256
370
   -1
100
AcDbLine
 10
766.300003095447
 20
313.9999908147335
 11
766.300003095447
 21
293.9999908147335
  0
LINE
  5
34F
100
AcDbEntity
  8
A - Caja
  6
ByBlock
 62
  256
370
   -1
100
AcDbLine
 10
766.300003095447
 20
233.9999908147335
 11
766.300003095447
 21
223.9999908147335
  0
LWPOLYLINE
  5
350
100
AcDbEntity
  8
A - Caja
  6
ByBlock
 62
  256
370
   -1
100
AcDbPolyline
 90
    4
 70
    0
 43
0
 10
760.5757332254473
 20
194.5511753113335
 10
764.5022419654472
 20
193.7879393298335
 10
768.318421875447
 20
213.4204829987335
 10
764.3919131354471
 20
214.1837189802335
  0
LWPOLYLINE
  5
351
100
AcDbEntity
  8
A - Caja
  6
ByBlock
 62
  256
370
   -1
100
AcDbPolyline
 90
    4
 70
    0
 43
0
 10
752.9433734154472
 20
155.2860879734335
 10
756.869882145447
 20
154.5228519919335
 10
760.6860620554473
 20
174.1553956608335
 10
756.7595533254473
 20
174.9186316423335
  0
LINE
  5
352
100
AcDbEntity
  8
A - Caja
  6
ByBlock
 62
  256
370
   -1
100
AcDbLine
 10
760.5757332254473
 20
194.5511753113335
 11
756.7595533254473
 21
174.9186316423335
  0
LINE
  5
353
100
AcDbEntity
  8
A - Caja
  6
ByBlock
 62
  256
370
   -1
100
AcDbLine
 10
766.300003095447
 20
223.9999908147335
 11
764.3919131354471
 21
214.1837189802335
  0
LWPOLYLINE
  5
354
100
AcDbEntity
  8
A - Caja
  6
ByBlock
 62
  256
370
   -1
100
AcDbPolyline
 90
    4
 70
    0
 43
0
 10
745.4516567354472
 20
115.9936623787335
 10
749.3781654754471
 20
115.2304263977335
 10
753.1943453754473
 20
134.8629700667335
 10
749.2678366454472
 20
135.6262060477335
  0
LINE
  5
355
100
AcDbEntity
  8
A - Caja
  6
ByBlock
 62
  256
370
   -1
100
AcDbLine
 10
753.0840165554471
 20
155.2587497167335
 11
749.2678366454472
 21
135.6262060477335
  0
LINE
  5
356
100
AcDbEntity
  8
A - Caja
  6
ByBlock
 62
  256
370
   -1
100
AcDbLine
 10
745.4516567354472
 20
115.9936623787335
 11
740.1068589654471
 21
89.24724481473351
  0
LINE
  5
357
100
AcDbEntity
  8
A - Caja
  6
ByBlock
 62
  256
370
   -1
100
AcDbLine
 10
723.7000030954471
 20
89.24724481473351
 11
723.7000030954471
 21
85.24724481473351
  0
LINE
  5
358
100
AcDbEntity
  8
A - Caja
  6
ByBlock
 62
  256
370
   -1
100
AcDbLine
 10
723.7000030954471
 20
85.24724481473351
 11
733.7000030954471
 21
85.24724481473351
  0
LINE
  5
359
100
AcDbEntity
  8
A - Caja
  6
ByBlock
 62
  256
370
   -1
100
AcDbLine
 10
733.7000030954471
 20
89.24724481473351
 11
740.1018631554471
 21
89.24724481473351
  0
LINE
  5
35A
100
AcDbEntity
  8
A - Caja
  6
ByBlock
 62
  256
370
   -1
100
AcDbLine
 10
733.7000030954471
 20
89.24724481473351
 11
733.7000030954471
 21
85.24724481473351
  0
LINE
  5
35B
100
AcDbEntity
  8
A - Caja
  6
ByBlock
 62
  256
370
   -1
100
AcDbLine
 10
723.7000030954471
 20
89.24724481473351
 11
718.7000030954471
 21
89.24724481473351
  0
DIMENSION
  5
35C
100
AcDbEntity
  8
A - Cotas
  6
ByLayer
 62
  256
370
   -1
100
AcDbDimension
  2
*D24
 10
723.7000030954471
 20
81.2453456987335
 30
0
 11
721.2000030954471
 21
81.2453456987335
 31
0
 70
   32
 71
    5
 72
    0
  3
Standard
 53
0
210
0
220
0
230
1
100
AcDbAlignedDimension
 13
718.7000030954471
 23
89.24724481473351
 33
0
 14
723.7000030954471
 24
85.24724481473351
 34
0
100
AcDbRotatedDimension
  0
DIMENSION
  5
35D
100
AcDbEntity
  8
A - Cotas
  6
ByLayer
 62
  256
370
   -1
100
AcDbDimension
  2
*D25
 10
733.7000030954471
 20
78.9876789137335
 30
0
 11
728.7000030954471
 21
78.9876789137335
 31
0
 70
   32
 71
    5
 72
    0
  3
Standard
 53
0
210
0
220
0
230
1
100
AcDbAlignedDimension
 13
723.7000030954471
 23
85.24724481473351
 33
0
 14
733.7000030954471
 24
85.24724481473351
 34
0
100
AcDbRotatedDimension
  0
DIMENSION
  5
35E
100
AcDbEntity
  8
A - Cotas
  6
ByLayer
 62
  256
370
   -1
100
AcDbDimension
  2
*D26
 10
740.1018631554471
 20
78.96445530773349
 30
0
 11
736.9009331254472
 21
78.96445530773349
 31
0
 70
   32
 71
    5
 72
    0
  3
Standard
 53
0
210
0
220
0
230
1
100
AcDbAlignedDimension
 13
733.7000030954471
 23
85.24724481473351
 33
0
 14
740.1018631554471
 24
89.24724481473351
 34
0
100
AcDbRotatedDimension
  0
LINE
  5
35F
100
AcDbEntity
  8
A - Caja
  6
ByBlock
 62
  256
370
   -1
100
AcDbLine
 10
761.2500030954473
 20
360.9499908147335
 11
766.300003095447
 21
360.9499908147335
  0
LINE
  5
360
100
AcDbEntity
  8
A - Caja
  6
ByBlock
 62
  256
370
   -1
100
AcDbLine
 10
761.2500030954473
 20
364.9499908147335
 11
761.2500030954473
 21
360.9499908147335
  0
LINE
  5
361
100
AcDbEntity
  8
A - Caja
  6
ByBlock
 62
  256
370
   -1
100
AcDbLine
 10
741.2500030954473
 20
364.9499908147335
 11
761.2500030954473
 21
364.9499908147335
  0
LINE
  5
362
100
AcDbEntity
  8
A - Caja
  6
ByBlock
 62
  256
370
   -1
100
AcDbLine
 10
718.7000030954471
 20
360.9499908147335
 11
741.2500030954473
 21
360.9499908147335
  0
LINE
  5
363
100
AcDbEntity
  8
A - Caja
  6
ByBlock
 62
  256
370
   -1
100
AcDbLine
 10
741.2500030954473
 20
364.9499908147335
 11
741.2500030954473
 21
360.9499908147335
  0
DIMENSION
  5
364
100
AcDbEntity
  8
A - Cotas
  6
ByLayer
 62
  256
370
   -1
100
AcDbDimension
  2
*D27
 10
761.2500030954473
 20
371.8254886117335
 30
0
 11
751.2500030954473
 21
371.8254886117335
 31
0
 70
   32
 71
    5
  3
Standard
 53
0
210
0
220
0
230
1
100
AcDbAlignedDimension
 13
741.2500030954473
 23
364.9499908147335
 33
0
 14
761.2500030954473
 24
364.9499908147335
 34
0
100
AcDbRotatedDimension
  0
ENDSEC
  0
SECTION
  2
OBJECTS
  0
DICTIONARY
  5
C
330
0
100
AcDbDictionary
281
    1
  3
ACAD_GROUP
350
D
  0
DICTIONARY
  5
D
330
C
100
AcDbDictionary
281
    1
  0
ENDSEC
  0
EOF
