999
dxfrw 0.6.3
  0
SECTION
  2
HEADER
  9
$ACADVER
  1
AC1021
  9
$DWGCODEPAGE
  3
ANSI_1252
  9
$INSBASE
 10
0
 20
0
 30
0
  9
$EXTMIN
 10
0
 20
-374.6327763390013
 30
0
  9
$EXTMAX
 10
2061.67132573
 20
116.365
 30
0
  9
$LIMMIN
 10
0
 20
0
  9
$LIMMAX
 10
12
 20
9
  9
$ORTHOMODE
 70
    1
  9
$REGENMODE
 70
    1
  9
$FILLMODE
 70
    1
  9
$QTEXTMODE
 70
    0
  9
$MIRRTEXT
 70
    0
  9
$LTSCALE
 40
1
  9
$ATTMODE
 70
    0
  9
$TEXTSIZE
 40
2.5
  9
$TRACEWID
 40
15.68
  9
$TEXTSTYLE
  7
Standard
  9
$CLAYER
  8
A - Caja
  9
$CELTYPE
  6
BYLAYER
  9
$CECOLOR
 62
  256
  9
$CELTSCALE
 40
1
  9
$DISPSILH
 70
    0
  9
$DIMSCALE
 40
1
  9
$DIMASZ
 40
0.18
  9
$DIMEXO
 40
0.0625
  9
$DIMDLI
 40
3.75
  9
$DIMRND
 40
0
  9
$DIMDLE
 40
0
  9
$DIMEXE
 40
0.18
  9
$DIMTP
 40
0
  9
$DIMTM
 40
0
  9
$DIMTXT
 40
0.18
  9
$DIMCEN
 40
2.5
  9
$DIMTSZ
 40
0
  9
$DIMTOL
 70
    0
  9
$DIMLIM
 70
    0
  9
$DIMTIH
 70
    1
  9
$DIMTOH
 70
    0
  9
$DIMSE1
 70
    0
  9
$DIMSE2
 70
    0
  9
$DIMTAD
 70
    1
  9
$DIMZIN
 70
    8
  9
$DIMBLK
  1

  9
$DIMASO
 70
    1
  9
$DIMSHO
 70
    1
  9
$DIMPOST
  1

  9
$DIMAPOST
  1

  9
$DIMALT
 70
    0
  9
$DIMALTD
 70
    3
  9
$DIMALTF
 40
0.03937
  9
$DIMLFAC
 40
1
  9
$DIMTOFL
 70
    1
  9
$DIMTVP
 40
0
  9
$DIMTIX
 70
    0
  9
$DIMSOXD
 70
    0
  9
$DIMSAH
 70
    0
  9
$DIMBLK1
  1

  9
$DIMBLK2
  1

  9
$DIMSTYLE
  2
Standard
  9
$DIMCLRD
 70
    0
  9
$DIMCLRE
 70
    0
  9
$DIMCLRT
 70
    0
  9
$DIMTFAC
 40
1
  9
$DIMGAP
 40
0.09
  9
$DIMJUST
 70
    0
  9
$DIMSD1
 70
    0
  9
$DIMSD2
 70
    0
  9
$DIMTOLJ
 70
    0
  9
$DIMTZIN
 70
    8
  9
$DIMALTZ
 70
    0
  9
$DIMALTTZ
 70
    0
  9
$DIMUPT
 70
    0
  9
$DIMDEC
 70
    4
  9
$DIMTDEC
 70
    2
  9
$DIMALTU
 70
    2
  9
$DIMALTTD
 70
    3
  9
$DIMTXSTY
  7
STANDARD
  9
$DIMAUNIT
 70
    0
  9
$DIMADEC
 70
    0
  9
$DIMALTRND
 40
0
  9
$DIMAZIN
 70
    0
  9
$DIMDSEP
 70
   44
  9
$DIMATFIT
 70
    3
  9
$DIMFRAC
 70
    0
  9
$DIMLDRBLK
  1
STANDARD
  9
$DIMLUNIT
 70
    2
  9
$DIMLWD
 70
   -2
  9
$DIMLWE
 70
   -2
  9
$DIMTMOVE
 70
    0
  9
$DIMFXL
 40
1
  9
$DIMFXLON
 70
    0
  9
$DIMJOGANG
 40
0.7854
  9
$DIMTFILL
 70
    0
  9
$DIMTFILLCLR
 70
    0
  9
$DIMARCSYM
 70
    0
  9
$DIMLTYPE
  6

  9
$DIMLTEX1
  6

  9
$DIMLTEX2
  6

  9
$LUNITS
 70
    2
  9
$LUPREC
 70
    4
  9
$SKETCHINC
 40
1
  9
$FILLETRAD
 40
0
  9
$AUNITS
 70
    0
  9
$AUPREC
 70
    0
  9
$MENU
  1
.
  9
$ELEVATION
 40
0
  9
$PELEVATION
 40
0
  9
$THICKNESS
 40
0
  9
$LIMCHECK
 70
    0
  9
$CHAMFERA
 40
0
  9
$CHAMFERB
 40
0
  9
$CHAMFERC
 40
0
  9
$CHAMFERD
 40
0
  9
$SKPOLY
 70
    0
  9
$USRTIMER
 70
    1
  9
$ANGBASE
 50
0
  9
$ANGDIR
 70
    0
  9
$PDMODE
 70
   34
  9
$PDSIZE
 40
0
  9
$PLINEWID
 40
0
  9
$SPLFRAME
 70
    0
  9
$SPLINETYPE
 70
    2
  9
$SPLINESEGS
 70
    8
  9
$HANDSEED
  5
20000
  9
$SURFTAB1
 70
    6
  9
$SURFTAB2
 70
    6
  9
$SURFTYPE
 70
    6
  9
$SURFU
 70
    6
  9
$SURFV
 70
    6
  9
$UCSBASE
  2

  9
$UCSNAME
  2

  9
$UCSORG
 10
0
 20
0
 30
0
  9
$UCSXDIR
 10
1
 20
0
 30
0
  9
$UCSYDIR
 10
0
 20
1
 30
0
  9
$UCSORTHOREF
  2

  9
$UCSORTHOVIEW
 70
    0
  9
$UCSORGTOP
 10
0
 20
0
 30
0
  9
$UCSORGBOTTOM
 10
0
 20
0
 30
0
  9
$UCSORGLEFT
 10
0
 20
0
 30
0
  9
$UCSORGRIGHT
 10
0
 20
0
 30
0
  9
$UCSORGFRONT
 10
0
 20
0
 30
0
  9
$UCSORGBACK
 10
0
 20
0
 30
0
  9
$PUCSBASE
  2

  9
$PUCSNAME
  2

  9
$PUCSORG
 10
0
 20
0
 30
0
  9
$PUCSXDIR
 10
1
 20
0
 30
0
  9
$PUCSYDIR
 10
0
 20
1
 30
0
  9
$PUCSORTHOREF
  2

  9
$PUCSORTHOVIEW
 70
    0
  9
$PUCSORGTOP
 10
0
 20
0
 30
0
  9
$PUCSORGBOTTOM
 10
0
 20
0
 30
0
  9
$PUCSORGLEFT
 10
0
 20
0
 30
0
  9
$PUCSORGRIGHT
 10
0
 20
0
 30
0
  9
$PUCSORGFRONT
 10
0
 20
0
 30
0
  9
$PUCSORGBACK
 10
0
 20
0
 30
0
  9
$USERI1
 70
    0
  9
$USERI2
 70
    0
  9
$USERI3
 70
    0
  9
$USERI4
 70
    0
  9
$USERI5
 70
    0
  9
$USERR1
 40
0
  9
$USERR2
 40
0
  9
$USERR3
 40
0
  9
$USERR4
 40
0
  9
$USERR5
 40
0
  9
$WORLDVIEW
 70
    1
  9
$SHADEDGE
 70
    3
  9
$SHADEDIF
 70
   70
  9
$TILEMODE
 70
    1
  9
$MAXACTVP
 70
   64
  9
$PINSBASE
 10
-745.38892782
 20
213.758358272
 30
0
  9
$PLIMCHECK
 70
    0
  9
$PEXTMIN
 10
0
 20
0
 30
0
  9
$PEXTMAX
 10
0
 20
0
 30
0
  9
$GRIDMODE
 70
    0
  9
$SNAPSTYLE
 70
    0
  9
$GRIDUNIT
 10
0
 20
0
  9
$PLIMMIN
 10
0
 20
0
  9
$PLIMMAX
 10
594
 20
420
  9
$UNITMODE
 70
    0
  9
$VISRETAIN
 70
    1
  9
$PLINEGEN
 70
    0
  9
$PSLTSCALE
 70
    1
  9
$TREEDEPTH
 70
 3020
  9
$CMLSTYLE
  2
Standard
  9
$CMLJUST
 70
    0
  9
$CMLSCALE
 40
20
  9
$PROXYGRAPHICS
 70
    1
  9
$MEASUREMENT
 70
    1
  9
$CELWEIGHT
370
   -1
  9
$ENDCAPS
280
    0
  9
$JOINSTYLE
280
    0
  9
$LWDISPLAY
290
    0
  9
$INSUNITS
 70
    4
  9
$HYPERLINKBASE
  1

  9
$STYLESHEET
  1

  9
$XEDIT
290
    1
  9
$CEPSNTYPE
380
    0
  9
$PSTYLEMODE
290
    1
  9
$EXTNAMES
290
    1
  9
$PSVPSCALE
 40
0.64360004119
  9
$OLESTARTUP
290
    0
  9
$SORTENTS
280
  127
  9
$INDEXCTL
280
    0
  9
$HIDETEXT
280
    1
  9
$XCLIPFRAME
290
    0
  9
$HALOGAP
280
    0
  9
$OBSCOLOR
 70
  257
  9
$OBSLTYPE
280
    0
  9
$INTERSECTIONDISPLAY
280
    0
  9
$INTERSECTIONCOLOR
 70
  257
  9
$DIMASSOC
280
    1
  9
$PROJECTNAME
  1

  9
$CAMERADISPLAY
290
    0
  9
$LENSLENGTH
 40
50
  9
$CAMERAHEIGHT
 40
0
  9
$STEPSPERSEC
 40
2
  9
$STEPSIZE
 40
50
  9
$3DDWFPREC
 40
2
  9
$PSOLWIDTH
 40
5
  9
$PSOLHEIGHT
 40
80
  9
$LOFTANG1
 40
1.570796326794897
  9
$LOFTANG2
 40
1.570796326794897
  9
$LOFTMAG1
 40
0
  9
$LOFTMAG2
 40
0
  9
$LOFTPARAM
 70
    7
  9
$LOFTNORMALS
280
    1
  9
$LATITUDE
 40
1
  9
$LONGITUDE
 40
1
  9
$NORTHDIRECTION
 40
0
  9
$TIMEZONE
 70
-8000
  9
$LIGHTGLYPHDISPLAY
280
    1
  9
$TILEMODELIGHTSYNCH
280
    1
  9
$SOLIDHIST
280
    1
  9
$SHOWHIST
280
    1
  9
$DWFFRAME
280
    2
  9
$DGNFRAME
280
    0
  9
$REALWORLDSCALE
290
    1
  9
$INTERFERECOLOR
 62
    1
  9
$CSHADOW
280
    0
  9
$SHADOWPLANELOCATION
 40
0
  0
ENDSEC
  0
SECTION
  2
CLASSES
  0
ENDSEC
  0
SECTION
  2
TABLES
  0
TABLE
  2
VPORT
  5
8
330
0
100
AcDbSymbolTable
 70
    1
  0
VPORT
  5
31
330
2
100
AcDbSymbolTableRecord
100
AcDbViewportTableRecord
  2
*ACTIVE
 70
    0
 10
0
 20
0
 11
1
 21
1
 12
1047.820464837318
 22
121.1371711878777
 13
0
 23
0
 14
10
 24
10
 15
10
 25
10
 16
0
 26
0
 36
1
 17
0
 27
0
 37
0
 40
483.2634097256446
 41
2
 42
50
 43
0
 44
0
 50
0
 51
0
 71
    0
 72
  100
 73
    1
 74
    3
 75
    0
 76
    0
 77
    0
 78
    0
281
    0
 65
    1
110
0
120
0
130
0
111
1
121
0
131
0
112
0
122
1
132
0
 79
    0
146
0
348
10020
 60
    7
 61
    5
292
1
282
    1
141
0
142
0
 63
  250
421
3358443
  0
ENDTAB
  0
TABLE
  2
LTYPE
  5
5
330
0
100
AcDbSymbolTable
 70
    4
  0
LTYPE
  5
14
330
5
100
AcDbSymbolTableRecord
100
AcDbLinetypeTableRecord
  2
ByBlock
 70
    0
  3

 72
   65
 73
    0
 40
0
  0
LTYPE
  5
15
330
5
100
AcDbSymbolTableRecord
100
AcDbLinetypeTableRecord
  2
ByLayer
 70
    0
  3

 72
   65
 73
    0
 40
0
  0
LTYPE
  5
16
330
5
100
AcDbSymbolTableRecord
100
AcDbLinetypeTableRecord
  2
Continuous
 70
    0
  3
Solid line
 72
   65
 73
    0
 40
0
  0
LTYPE
  5
32
330
5
100
AcDbSymbolTableRecord
100
AcDbLinetypeTableRecord
  2
DOT
 70
    0
  3
Dot . . . . . . . . . . . . . . . . . . . . . .
 72
   65
 73
    2
 40
6.35
 49
0
 74
    0
 49
-6.35
 74
    0
  0
LTYPE
  5
33
330
5
100
AcDbSymbolTableRecord
100
AcDbLinetypeTableRecord
  2
DOTTINY
 70
    0
  3
Dot (.15x) .....................................
 72
   65
 73
    2
 40
0.9525
 49
0
 74
    0
 49
-0.9525
 74
    0
  0
LTYPE
  5
34
330
5
100
AcDbSymbolTableRecord
100
AcDbLinetypeTableRecord
  2
DOT2
 70
    0
  3
Dot (.5x) .....................................
 72
   65
 73
    2
 40
3.175
 49
0
 74
    0
 49
-3.175
 74
    0
  0
LTYPE
  5
35
330
5
100
AcDbSymbolTableRecord
100
AcDbLinetypeTableRecord
  2
DOTX2
 70
    0
  3
Dot (2x) .  .  .  .  .  .  .  .  .  .  .  .  .
 72
   65
 73
    2
 40
12.7
 49
0
 74
    0
 49
-12.7
 74
    0
  0
LTYPE
  5
36
330
5
100
AcDbSymbolTableRecord
100
AcDbLinetypeTableRecord
  2
DASHED
 70
    0
  3
Dashed _ _ _ _ _ _ _ _ _ _ _ _ _ _ _ _ _
 72
   65
 73
    2
 40
19.05
 49
12.7
 74
    0
 49
-6.35
 74
    0
  0
LTYPE
  5
37
330
5
100
AcDbSymbolTableRecord
100
AcDbLinetypeTableRecord
  2
DASHEDTINY
 70
    0
  3
Dashed (.15x) _ _ _ _ _ _ _ _ _ _ _ _ _ _ _ _ _
 72
   65
 73
    2
 40
2.8575
 49
1.905
 74
    0
 49
-0.9525
 74
    0
  0
LTYPE
  5
38
330
5
100
AcDbSymbolTableRecord
100
AcDbLinetypeTableRecord
  2
DASHED2
 70
    0
  3
Dashed (.5x) _ _ _ _ _ _ _ _ _ _ _ _ _ _ _ _ _
 72
   65
 73
    2
 40
9.524999999999999
 49
6.35
 74
    0
 49
-3.175
 74
    0
  0
LTYPE
  5
39
330
5
100
AcDbSymbolTableRecord
100
AcDbLinetypeTableRecord
  2
DASHEDX2
 70
    0
  3
Dashed (2x) ____  ____  ____  ____  ____  ___
 72
   65
 73
    2
 40
38.09999999999999
 49
25.4
 74
    0
 49
-12.7
 74
    0
  0
LTYPE
  5
3A
330
5
100
AcDbSymbolTableRecord
100
AcDbLinetypeTableRecord
  2
DASHDOT
 70
    0
  3
Dash dot __ . __ . __ . __ . __ . __ . __ . __
 72
   65
 73
    4
 40
25.4
 49
12.7
 74
    0
 49
-6.35
 74
    0
 49
0
 74
    0
 49
-6.35
 74
    0
  0
LTYPE
  5
3B
330
5
100
AcDbSymbolTableRecord
100
AcDbLinetypeTableRecord
  2
DASHDOTTINY
 70
    0
  3
Dash dot (.15x) _._._._._._._._._._._._._._._.
 72
   65
 73
    4
 40
3.81
 49
1.905
 74
    0
 49
-0.9525
 74
    0
 49
0
 74
    0
 49
-0.9525
 74
    0
  0
LTYPE
  5
3C
330
5
100
AcDbSymbolTableRecord
100
AcDbLinetypeTableRecord
  2
DASHDOT2
 70
    0
  3
Dash dot (.5x) _._._._._._._._._._._._._._._.
 72
   65
 73
    4
 40
12.7
 49
6.35
 74
    0
 49
-3.175
 74
    0
 49
0
 74
    0
 49
-3.175
 74
    0
  0
LTYPE
  5
3D
330
5
100
AcDbSymbolTableRecord
100
AcDbLinetypeTableRecord
  2
DASHDOTX2
 70
    0
  3
Dash dot (2x) ____  .  ____  .  ____  .  ___
 72
   65
 73
    4
 40
50.8
 49
25.4
 74
    0
 49
-12.7
 74
    0
 49
0
 74
    0
 49
-12.7
 74
    0
  0
LTYPE
  5
3E
330
5
100
AcDbSymbolTableRecord
100
AcDbLinetypeTableRecord
  2
DIVIDE
 70
    0
  3
Divide ____ . . ____ . . ____ . . ____ . . ____
 72
   65
 73
    6
 40
31.75
 49
12.7
 74
    0
 49
-6.35
 74
    0
 49
0
 74
    0
 49
-6.35
 74
    0
 49
0
 74
    0
 49
-6.35
 74
    0
  0
LTYPE
  5
3F
330
5
100
AcDbSymbolTableRecord
100
AcDbLinetypeTableRecord
  2
DIVIDETINY
 70
    0
  3
Divide (.15x) __..__..__..__..__..__..__..__.._
 72
   65
 73
    6
 40
4.7625
 49
1.905
 74
    0
 49
-0.9525
 74
    0
 49
0
 74
    0
 49
-0.9525
 74
    0
 49
0
 74
    0
 49
-0.9525
 74
    0
  0
LTYPE
  5
40
330
5
100
AcDbSymbolTableRecord
100
AcDbLinetypeTableRecord
  2
DIVIDE2
 70
    0
  3
Divide (.5x) __..__..__..__..__..__..__..__.._
 72
   65
 73
    6
 40
15.875
 49
6.35
 74
    0
 49
-3.175
 74
    0
 49
0
 74
    0
 49
-3.175
 74
    0
 49
0
 74
    0
 49
-3.175
 74
    0
  0
LTYPE
  5
41
330
5
100
AcDbSymbolTableRecord
100
AcDbLinetypeTableRecord
  2
DIVIDEX2
 70
    0
  3
Divide (2x) ________  .  .  ________  .  .  _
 72
   65
 73
    6
 40
63.5
 49
25.4
 74
    0
 49
-12.7
 74
    0
 49
0
 74
    0
 49
-12.7
 74
    0
 49
0
 74
    0
 49
-12.7
 74
    0
  0
LTYPE
  5
42
330
5
100
AcDbSymbolTableRecord
100
AcDbLinetypeTableRecord
  2
BORDER
 70
    0
  3
Border __ __ . __ __ . __ __ . __ __ . __ __ .
 72
   65
 73
    6
 40
44.45
 49
12.7
 74
    0
 49
-6.35
 74
    0
 49
12.7
 74
    0
 49
-6.35
 74
    0
 49
0
 74
    0
 49
-6.35
 74
    0
  0
LTYPE
  5
43
330
5
100
AcDbSymbolTableRecord
100
AcDbLinetypeTableRecord
  2
BORDERTINY
 70
    0
  3
Border (.15x) __.__.__.__.__.__.__.__.__.__.__.
 72
   65
 73
    6
 40
6.6675
 49
1.905
 74
    0
 49
-0.9525
 74
    0
 49
1.905
 74
    0
 49
-0.9525
 74
    0
 49
0
 74
    0
 49
-0.9525
 74
    0
  0
LTYPE
  5
44
330
5
100
AcDbSymbolTableRecord
100
AcDbLinetypeTableRecord
  2
BORDER2
 70
    0
  3
Border (.5x) __.__.__.__.__.__.__.__.__.__.__.
 72
   65
 73
    6
 40
22.225
 49
6.35
 74
    0
 49
-3.175
 74
    0
 49
6.35
 74
    0
 49
-3.175
 74
    0
 49
0
 74
    0
 49
-3.175
 74
    0
  0
LTYPE
  5
45
330
5
100
AcDbSymbolTableRecord
100
AcDbLinetypeTableRecord
  2
BORDERX2
 70
    0
  3
Border (2x) ____  ____  .  ____  ____  .  ___
 72
   65
 73
    6
 40
88.89999999999999
 49
25.4
 74
    0
 49
-12.7
 74
    0
 49
25.4
 74
    0
 49
-12.7
 74
    0
 49
0
 74
    0
 49
-12.7
 74
    0
  0
LTYPE
  5
46
330
5
100
AcDbSymbolTableRecord
100
AcDbLinetypeTableRecord
  2
CENTER
 70
    0
  3
Center ____ _ ____ _ ____ _ ____ _ ____ _ ____
 72
   65
 73
    4
 40
50.8
 49
31.75
 74
    0
 49
-6.35
 74
    0
 49
6.35
 74
    0
 49
-6.35
 74
    0
  0
LTYPE
  5
47
330
5
100
AcDbSymbolTableRecord
100
AcDbLinetypeTableRecord
  2
CENTERTINY
 70
    0
  3
Center (.15x) ___ _ ___ _ ___ _ ___ _ ___ _ ___
 72
   65
 73
    4
 40
7.619999999999999
 49
4.7625
 74
    0
 49
-0.9525
 74
    0
 49
0.9525
 74
    0
 49
-0.9525
 74
    0
  0
LTYPE
  5
48
330
5
100
AcDbSymbolTableRecord
100
AcDbLinetypeTableRecord
  2
CENTER2
 70
    0
  3
Center (.5x) ___ _ ___ _ ___ _ ___ _ ___ _ ___
 72
   65
 73
    4
 40
28.575
 49
19.05
 74
    0
 49
-3.175
 74
    0
 49
3.175
 74
    0
 49
-3.175
 74
    0
  0
LTYPE
  5
49
330
5
100
AcDbSymbolTableRecord
100
AcDbLinetypeTableRecord
  2
CENTERX2
 70
    0
  3
Center (2x) ________  __  ________  __  _____
 72
   65
 73
    4
 40
101.6
 49
63.5
 74
    0
 49
-12.7
 74
    0
 49
12.7
 74
    0
 49
-12.7
 74
    0
  0
ENDTAB
  0
TABLE
  2
LAYER
  5
2
330
0
100
AcDbSymbolTable
 70
    1
  0
LAYER
  5
10
330
2
100
AcDbSymbolTableRecord
100
AcDbLayerTableRecord
  2
0
 70
    1
 62
    7
  6
CONTINUOUS
290
0
370
   -3
390
F
1001
LibreCad
1070
    1
  0
LAYER
  5
4A
330
2
100
AcDbSymbolTableRecord
100
AcDbLayerTableRecord
  2
A - Caja
 70
    0
 62
    7
  6
CONTINUOUS
370
   -3
390
F
  0
LAYER
  5
4B
330
2
100
AcDbSymbolTableRecord
100
AcDbLayerTableRecord
  2
A - Cotas
 70
    1
 62
    2
  6
CONTINUOUS
370
    0
390
F
  0
LAYER
  5
4C
330
2
100
AcDbSymbolTableRecord
100
AcDbLayerTableRecord
  2
Defpoints
 70
    1
 62
    7
  6
CONTINUOUS
290
0
370
   -3
390
F
1001
LibreCad
1070
    1
  0
ENDTAB
  0
TABLE
  2
STYLE
  5
3
330
0
100
AcDbSymbolTable
 70
    3
  0
STYLE
  5
4D
330
2
100
AcDbSymbolTableRecord
100
AcDbTextStyleTableRecord
  2
standard
 70
    0
 40
0
 41
1
 50
0
 71
    0
 42
1
  3
standard
  4

  0
ENDTAB
  0
TABLE
  2
VIEW
  5
6
330
0
100
AcDbSymbolTable
 70
    0
  0
ENDTAB
  0
TABLE
  2
UCS
  5
7
330
0
100
AcDbSymbolTable
 70
    0
  0
ENDTAB
  0
TABLE
  2
APPID
  5
9
330
0
100
AcDbSymbolTable
 70
    1
  0
APPID
  5
12
330
9
100
AcDbSymbolTableRecord
100
AcDbRegAppTableRecord
  2
ACAD
 70
    0
  0
APPID
  5
4E
330
9
100
AcDbSymbolTableRecord
100
AcDbRegAppTableRecord
  2
LibreCad
 70
    0
  0
ENDTAB
  0
TABLE
  2
DIMSTYLE
  5
A
330
0
100
AcDbSymbolTable
 70
    1
100
AcDbDimStyleTable
 71
    1
  0
DIMSTYLE
105
4F
330
A
100
AcDbSymbolTableRecord
100
AcDbDimStyleTableRecord
  2
Standard
 70
    0
 40
1
 41
0.18
 42
0.0625
 43
0.38
 44
0.18
 45
0
 46
0
 47
0
 48
0
 49
1
140
0.18
141
0.09
142
0
143
25.4
144
1
145
0
146
1
147
0.09
148
0
 71
    0
 72
    0
 73
    1
 74
    1
 75
    0
 76
    0
 77
    0
 78
    8
 79
    0
170
    0
171
    2
172
    0
173
    0
174
    0
175
    0
176
    0
177
    0
178
    0
179
    0
271
    4
272
    4
273
    2
274
    2
275
    0
276
    0
277
    2
278
   44
279
    0
280
    0
281
    0
282
    0
283
    1
284
    0
285
    0
286
    0
288
    0
289
    3
340
STANDARD
341

371
   -2
372
   -2
  0
ENDTAB
  0
TABLE
  2
BLOCK_RECORD
  5
1
330
0
100
AcDbSymbolTable
 70
    2
  0
BLOCK_RECORD
  5
1F
330
1
100
AcDbSymbolTableRecord
100
AcDbBlockTableRecord
  2
*Model_Space
 70
    0
280
    1
281
    0
  0
BLOCK_RECORD
  5
1E
330
1
100
AcDbSymbolTableRecord
100
AcDbBlockTableRecord
  2
*Paper_Space
 70
    0
280
    1
281
    0
  0
BLOCK_RECORD
  5
50
330
1
100
AcDbSymbolTableRecord
100
AcDbBlockTableRecord
  2
*D6
 70
    0
280
    1
281
    0
  0
BLOCK_RECORD
  5
53
330
1
100
AcDbSymbolTableRecord
100
AcDbBlockTableRecord
  2
*D5
 70
    0
280
    1
281
    0
  0
BLOCK_RECORD
  5
56
330
1
100
AcDbSymbolTableRecord
100
AcDbBlockTableRecord
  2
*D2
 70
    0
280
    1
281
    0
  0
BLOCK_RECORD
  5
59
330
1
100
AcDbSymbolTableRecord
100
AcDbBlockTableRecord
  2
*D18
 70
    0
280
    1
281
    0
  0
BLOCK_RECORD
  5
5C
330
1
100
AcDbSymbolTableRecord
100
AcDbBlockTableRecord
  2
*D21
 70
    0
280
    1
281
    0
  0
BLOCK_RECORD
  5
5F
330
1
100
AcDbSymbolTableRecord
100
AcDbBlockTableRecord
  2
*D24
 70
    0
280
    1
281
    0
  0
BLOCK_RECORD
  5
62
330
1
100
AcDbSymbolTableRecord
100
AcDbBlockTableRecord
  2
*D20
 70
    0
280
    1
281
    0
  0
BLOCK_RECORD
  5
65
330
1
100
AcDbSymbolTableRecord
100
AcDbBlockTableRecord
  2
*D9
 70
    0
280
    1
281
    0
  0
BLOCK_RECORD
  5
68
330
1
100
AcDbSymbolTableRecord
100
AcDbBlockTableRecord
  2
*D16
 70
    0
280
    1
281
    0
  0
BLOCK_RECORD
  5
6B
330
1
100
AcDbSymbolTableRecord
100
AcDbBlockTableRecord
  2
*D27
 70
    0
280
    1
281
    0
  0
BLOCK_RECORD
  5
6E
330
1
100
AcDbSymbolTableRecord
100
AcDbBlockTableRecord
  2
*D15
 70
    0
280
    1
281
    0
  0
BLOCK_RECORD
  5
71
330
1
100
AcDbSymbolTableRecord
100
AcDbBlockTableRecord
  2
*D22
 70
    0
280
    1
281
    0
  0
BLOCK_RECORD
  5
74
330
1
100
AcDbSymbolTableRecord
100
AcDbBlockTableRecord
  2
*D14
 70
    0
280
    1
281
    0
  0
BLOCK_RECORD
  5
77
330
1
100
AcDbSymbolTableRecord
100
AcDbBlockTableRecord
  2
*D1
 70
    0
280
    1
281
    0
  0
BLOCK_RECORD
  5
7A
330
1
100
AcDbSymbolTableRecord
100
AcDbBlockTableRecord
  2
*D10
 70
    0
280
    1
281
    0
  0
BLOCK_RECORD
  5
7D
330
1
100
AcDbSymbolTableRecord
100
AcDbBlockTableRecord
  2
*D13
 70
    0
280
    1
281
    0
  0
BLOCK_RECORD
  5
80
330
1
100
AcDbSymbolTableRecord
100
AcDbBlockTableRecord
  2
*D3
 70
    0
280
    1
281
    0
  0
BLOCK_RECORD
  5
83
330
1
100
AcDbSymbolTableRecord
100
AcDbBlockTableRecord
  2
*D4
 70
    0
280
    1
281
    0
  0
BLOCK_RECORD
  5
86
330
1
100
AcDbSymbolTableRecord
100
AcDbBlockTableRecord
  2
*D8
 70
    0
280
    1
281
    0
  0
BLOCK_RECORD
  5
89
330
1
100
AcDbSymbolTableRecord
100
AcDbBlockTableRecord
  2
*D17
 70
    0
280
    1
281
    0
  0
BLOCK_RECORD
  5
8C
330
1
100
AcDbSymbolTableRecord
100
AcDbBlockTableRecord
  2
*D23
 70
    0
280
    1
281
    0
  0
BLOCK_RECORD
  5
8F
330
1
100
AcDbSymbolTableRecord
100
AcDbBlockTableRecord
  2
*D25
 70
    0
280
    1
281
    0
  0
BLOCK_RECORD
  5
92
330
1
100
AcDbSymbolTableRecord
100
AcDbBlockTableRecord
  2
*D7
 70
    0
280
    1
281
    0
  0
BLOCK_RECORD
  5
95
330
1
100
AcDbSymbolTableRecord
100
AcDbBlockTableRecord
  2
*D19
 70
    0
280
    1
281
    0
  0
BLOCK_RECORD
  5
98
330
1
100
AcDbSymbolTableRecord
100
AcDbBlockTableRecord
  2
*D11
 70
    0
280
    1
281
    0
  0
BLOCK_RECORD
  5
9B
330
1
100
AcDbSymbolTableRecord
100
AcDbBlockTableRecord
  2
*D12
 70
    0
280
    1
281
    0
  0
BLOCK_RECORD
  5
9E
330
1
100
AcDbSymbolTableRecord
100
AcDbBlockTableRecord
  2
*D26
 70
    0
280
    1
281
    0
  0
BLOCK_RECORD
  5
A1
330
1
100
AcDbSymbolTableRecord
100
AcDbBlockTableRecord
  2
_ArchTick
 70
    0
280
    1
281
    0
  0
BLOCK_RECORD
  5
A4
330
1
100
AcDbSymbolTableRecord
100
AcDbBlockTableRecord
  2
_FILLED
 70
    0
280
    1
281
    0
  0
BLOCK_RECORD
  5
A7
330
1
100
AcDbSymbolTableRecord
100
AcDbBlockTableRecord
  2
E3E0148
 70
    0
280
    1
281
    0
  0
BLOCK_RECORD
  5
AA
330
1
100
AcDbSymbolTableRecord
100
AcDbBlockTableRecord
  2
E3E0168
 70
    0
280
    1
281
    0
  0
BLOCK_RECORD
  5
AD
330
1
100
AcDbSymbolTableRecord
100
AcDbBlockTableRecord
  2
E6901C8
 70
    0
280
    1
281
    0
  0
BLOCK_RECORD
  5
B0
330
1
100
AcDbSymbolTableRecord
100
AcDbBlockTableRecord
  2
E600128
 70
    0
280
    1
281
    0
  0
BLOCK_RECORD
  5
B3
330
1
100
AcDbSymbolTableRecord
100
AcDbBlockTableRecord
  2
E690188
 70
    0
280
    1
281
    0
  0
BLOCK_RECORD
  5
B6
330
1
100
AcDbSymbolTableRecord
100
AcDbBlockTableRecord
  2
E740188
 70
    0
280
    1
281
    0
  0
BLOCK_RECORD
  5
B9
330
1
100
AcDbSymbolTableRecord
100
AcDbBlockTableRecord
  2
E740198
 70
    0
280
    1
281
    0
  0
BLOCK_RECORD
  5
BC
330
1
100
AcDbSymbolTableRecord
100
AcDbBlockTableRecord
  2
E7401D8
 70
    0
280
    1
281
    0
  0
BLOCK_RECORD
  5
BF
330
1
100
AcDbSymbolTableRecord
100
AcDbBlockTableRecord
  2
E7401C8
 70
    0
280
    1
281
    0
  0
BLOCK_RECORD
  5
C2
330
1
100
AcDbSymbolTableRecord
100
AcDbBlockTableRecord
  2
E7401B8
 70
    0
280
    1
281
    0
  0
BLOCK_RECORD
  5
C5
330
1
100
AcDbSymbolTableRecord
100
AcDbBlockTableRecord
  2
E7401A8
 70
    0
280
    1
281
    0
  0
BLOCK_RECORD
  5
C8
330
1
100
AcDbSymbolTableRecord
100
AcDbBlockTableRecord
  2
test
 70
    0
280
    1
281
    0
  0
BLOCK_RECORD
  5
CB
330
1
100
AcDbSymbolTableRecord
100
AcDbBlockTableRecord
  2
test2
 70
    0
280
    1
281
    0
  0
BLOCK_RECORD
  5
CE
330
1
100
AcDbSymbolTableRecord
100
AcDbBlockTableRecord
  2
agujero_Q
 70
    0
280
    1
281
    0
  0
BLOCK_RECORD
  5
D1
330
1
100
AcDbSymbolTableRecord
100
AcDbBlockTableRecord
  2
pata1
 70
    0
280
    1
281
    0
  0
BLOCK_RECORD
  5
D4
330
1
100
AcDbSymbolTableRecord
100
AcDbBlockTableRecord
  2
pata2
 70
    0
280
    1
281
    0
  0
BLOCK_RECORD
  5
D7
330
1
100
AcDbSymbolTableRecord
100
AcDbBlockTableRecord
  2
pata3
 70
    0
280
    1
281
    0
  0
BLOCK_RECORD
  5
DA
330
1
100
AcDbSymbolTableRecord
100
AcDbBlockTableRecord
  2
pata4
 70
    0
280
    1
281
    0
  0
BLOCK_RECORD
  5
DD
330
1
100
AcDbSymbolTableRecord
100
AcDbBlockTableRecord
  2
suelo
 70
    0
280
    1
281
    0
  0
ENDTAB
  0
ENDSEC
  0
SECTION
  2
BLOCKS
  0
BLOCK
  5
20
330
1F
100
AcDbEntity
  8
0
100
AcDbBlockBegin
  2
*Model_Space
 70
    0
 10
0
 20
0
 30
0
  3
*Model_Space
  1

  0
ENDBLK
  5
21
330
1F
100
AcDbEntity
  8
0
100
AcDbBlockEnd
  0
BLOCK
  5
1C
330
1B
100
AcDbEntity
  8
0
100
AcDbBlockBegin
  2
*Paper_Space
 70
    0
 10
0
 20
0
 30
0
  3
*Paper_Space
  1

  0
ENDBLK
  5
1D
330
1F
100
AcDbEntity
  8
0
100
AcDbBlockEnd
  0
BLOCK
  5
51
330
50
100
AcDbEntity
  8
0
100
AcDbBlockBegin
  2
*D6
 70
    1
 10
0
 20
0
  3
*D6
  1

  0
LINE
  5
E0
100
AcDbEntity
  8
A - Cotas
  6
ByBlock
 62
    0
370
   -2
100
AcDbLine
 10
2009.93254027
 20
-195.365
 11
2009.93254027
 21
-197.98709917
  0
SOLID
  5
E1
100
AcDbEntity
  8
A - Cotas
  6
ByBlock
 62
    0
370
   -2
100
AcDbTrace
 10
2009.93254027
 20
-195.365
 30
0
 11
2009.96251276536
 21
-195.545
 31
0
 12
2009.90256777464
 22
-195.545
 32
0
 13
2009.90256777464
 23
-195.545
 33
0
  0
SOLID
  5
E2
100
AcDbEntity
  8
A - Cotas
  6
ByBlock
 62
    0
370
   -2
100
AcDbTrace
 10
2009.93254027
 20
-200.969198339
 30
0
 11
2009.90256777464
 21
-200.789198339
 31
0
 12
2009.96251276536
 22
-200.789198339
 32
0
 13
2009.96251276536
 23
-200.789198339
 33
0
  0
LINE
  5
E3
100
AcDbEntity
  8
A - Cotas
  6
ByBlock
 62
    0
370
   -2
100
AcDbLine
 10
2009.93254027
 20
-198.34709917
 11
2009.93254027
 21
-200.969198339
  0
MTEXT
  5
E4
100
AcDbEntity
  8
A - Cotas
  6
CONTINUOUS
 62
    0
370
   -2
100
AcDbMText
 10
2009.93254027
 20
-198.16709917
 30
0
 40
0.18
 41
0.7300000000000224
 71
    5
 72
    1
  1
5,6042
  7
STANDARD
210
0
220
0
230
1
 50
0
 73
    2
 44
1
  0
LINE
  5
E5
100
AcDbEntity
  8
A - Cotas
  6
ByBlock
 62
    0
370
   -2
100
AcDbLine
 10
1990.64232573
 20
-195.365
 11
2010.11254027
 21
-195.365
  0
LINE
  5
E6
100
AcDbEntity
  8
A - Cotas
  6
ByBlock
 62
    0
370
   -2
100
AcDbLine
 10
1994.66732573
 20
-200.969198339
 11
2010.11254027
 21
-200.969198339
  0
ENDBLK
  5
52
330
50
100
AcDbEntity
  8
0
100
AcDbBlockEnd
  0
BLOCK
  5
54
330
53
100
AcDbEntity
  8
0
100
AcDbBlockBegin
  2
*D5
 70
    1
 10
0
 20
0
  3
*D5
  1

  0
LINE
  5
E7
100
AcDbEntity
  8
A - Cotas
  6
ByBlock
 62
    0
370
   -2
100
AcDbLine
 10
2010.2015466
 20
-185.315
 11
2010.2015466
 21
-183.0075
  0
SOLID
  5
E8
100
AcDbEntity
  8
A - Cotas
  6
ByBlock
 62
    0
370
   -2
100
AcDbTrace
 10
2010.2015466
 20
-185.315
 30
0
 11
2010.17157410464
 21
-185.135
 31
0
 12
2010.23151909536
 22
-185.135
 32
0
 13
2010.23151909536
 23
-185.135
 33
0
  0
SOLID
  5
E9
100
AcDbEntity
  8
A - Cotas
  6
ByBlock
 62
    0
370
   -2
100
AcDbTrace
 10
2010.2015466
 20
-180.34
 30
0
 11
2010.23151909536
 21
-180.52
 31
0
 12
2010.17157410464
 22
-180.52
 32
0
 13
2010.17157410464
 23
-180.52
 33
0
  0
LINE
  5
EA
100
AcDbEntity
  8
A - Cotas
  6
ByBlock
 62
    0
370
   -2
100
AcDbLine
 10
2010.2015466
 20
-182.6475
 11
2010.2015466
 21
-180.34
  0
MTEXT
  5
EB
100
AcDbEntity
  8
A - Cotas
  6
CONTINUOUS
 62
    0
370
   -2
100
AcDbMText
 10
2010.2015466
 20
-182.8275
 30
0
 40
0.18
 41
0.5900000000000112
 71
    5
 72
    1
  1
4,975
  7
STANDARD
210
0
220
0
230
1
 50
0
 73
    2
 44
1
  0
LINE
  5
EC
100
AcDbEntity
  8
A - Cotas
  6
ByBlock
 62
    0
370
   -2
100
AcDbLine
 10
1990.64232573
 20
-185.315
 11
2010.3815466
 21
-185.315
  0
LINE
  5
ED
100
AcDbEntity
  8
A - Cotas
  6
ByBlock
 62
    0
370
   -2
100
AcDbLine
 10
1994.66732573
 20
-180.34
 11
2010.3815466
 21
-180.34
  0
ENDBLK
  5
55
330
53
100
AcDbEntity
  8
0
100
AcDbBlockEnd
  0
BLOCK
  5
57
330
56
100
AcDbEntity
  8
0
100
AcDbBlockBegin
  2
*D2
 70
    1
 10
0
 20
0
  3
*D2
  1

  0
LINE
  5
EE
100
AcDbEntity
  8
A - Cotas
  6
ByBlock
 62
    0
370
   -2
100
AcDbLine
 10
1553.72778987
 20
81.39
 11
1553.72778987
 21
71.545
  0
SOLID
  5
EF
100
AcDbEntity
  8
A - Cotas
  6
ByBlock
 62
    0
370
   -2
100
AcDbTrace
 10
1553.72778987
 20
81.39
 30
0
 11
1553.75776236536
 21
81.20999999999999
 31
0
 12
1553.69781737464
 22
81.20999999999999
 32
0
 13
1553.69781737464
 23
81.20999999999999
 33
0
  0
SOLID
  5
F0
100
AcDbEntity
  8
A - Cotas
  6
ByBlock
 62
    0
370
   -2
100
AcDbTrace
 10
1553.72778987
 20
61.34
 30
0
 11
1553.69781737464
 21
61.52
 31
0
 12
1553.75776236536
 22
61.52
 32
0
 13
1553.75776236536
 23
61.52
 33
0
  0
LINE
  5
F1
100
AcDbEntity
  8
A - Cotas
  6
ByBlock
 62
    0
370
   -2
100
AcDbLine
 10
1553.72778987
 20
71.18499999999999
 11
1553.72778987
 21
61.34
  0
MTEXT
  5
F2
100
AcDbEntity
  8
A - Cotas
  6
CONTINUOUS
 62
    0
370
   -2
100
AcDbMText
 10
1553.72778987
 20
71.36499999999999
 30
0
 40
0.18
 41
0.5700000000000112
 71
    5
 72
    1
  1
20,05
  7
STANDARD
210
0
220
0
230
1
 50
0
 73
    2
 44
1
  0
LINE
  5
F3
100
AcDbEntity
  8
A - Cotas
  6
ByBlock
 62
    0
370
   -2
100
AcDbLine
 10
1533.64250524
 20
81.39
 11
1553.90778987
 21
81.39
  0
LINE
  5
F4
100
AcDbEntity
  8
A - Cotas
  6
ByBlock
 62
    0
370
   -2
100
AcDbLine
 10
1533.64250524
 20
61.34
 11
1553.90778987
 21
61.34
  0
ENDBLK
  5
58
330
56
100
AcDbEntity
  8
0
100
AcDbBlockEnd
  0
BLOCK
  5
5A
330
59
100
AcDbEntity
  8
0
100
AcDbBlockBegin
  2
*D18
 70
    1
 10
0
 20
0
  3
*D18
  1

  0
LINE
  5
F5
100
AcDbEntity
  8
A - Cotas
  6
ByBlock
 62
    0
370
   -2
100
AcDbLine
 10
1576.58832573
 20
112.3775
 11
1576.58832573
 21
117.273488908
  0
LINE
  5
F6
100
AcDbEntity
  8
A - Cotas
  6
ByBlock
 62
    0
370
   -2
100
AcDbLine
 10
1596.58832573
 20
112.3775
 11
1596.58832573
 21
117.273488908
  0
LINE
  5
F7
100
AcDbEntity
  8
A - Cotas
  6
ByBlock
 62
    0
370
   -2
100
AcDbLine
 10
1576.58832573
 20
117.093488908
 11
1586.38832573
 21
117.093488908
  0
SOLID
  5
F8
100
AcDbEntity
  8
A - Cotas
  6
ByBlock
 62
    0
370
   -2
100
AcDbTrace
 10
1576.58832573
 20
117.093488908
 30
0
 11
1576.76832573
 21
117.1234614033596
 31
0
 12
1576.76832573
 22
117.0635164126404
 32
0
 13
1576.76832573
 23
117.0635164126404
 33
0
  0
SOLID
  5
F9
100
AcDbEntity
  8
A - Cotas
  6
ByBlock
 62
    0
370
   -2
100
AcDbTrace
 10
1596.58832573
 20
117.093488908
 30
0
 11
1596.40832573
 21
117.0635164126404
 31
0
 12
1596.40832573
 22
117.1234614033596
 32
0
 13
1596.40832573
 23
117.1234614033596
 33
0
  0
LINE
  5
FA
100
AcDbEntity
  8
A - Cotas
  6
ByBlock
 62
    0
370
   -2
100
AcDbLine
 10
1586.78832573
 20
117.093488908
 11
1596.58832573
 21
117.093488908
  0
MTEXT
  5
FB
100
AcDbEntity
  8
A - Cotas
  6
CONTINUOUS
 62
    0
370
   -2
100
AcDbMText
 10
1586.58832573
 20
117.093488908
 30
0
 40
0.18
 41
0.22
 71
    5
 72
    1
  1
20
  7
STANDARD
210
0
220
0
230
1
 50
0
 73
    2
 44
1
  0
ENDBLK
  5
5B
330
59
100
AcDbEntity
  8
0
100
AcDbBlockEnd
  0
BLOCK
  5
5D
330
5C
100
AcDbEntity
  8
0
100
AcDbBlockBegin
  2
*D21
 70
    1
 10
0
 20
0
  3
*D21
  1

  0
SOLID
  5
FC
100
AcDbEntity
  8
A - Cotas
  6
ByBlock
 62
    0
370
   -2
100
AcDbTrace
 10
1535.92723324
 20
179.74252272
 30
0
 11
1536.059471410204
 21
179.6167792636327
 31
0
 12
1536.011589858042
 22
179.5807132287126
 32
0
 13
1536.011589858042
 23
179.5807132287126
 33
0
  0
LINE
  5
FD
100
AcDbEntity
  8
A - Cotas
  6
ByBlock
 62
    0
370
   -2
100
AcDbLine
 10
1537.13053762
 20
178.145006343
 11
1535.92723324
 21
179.74252272
  0
MTEXT
  5
FE
100
AcDbEntity
  8
A - Cotas
  6
CONTINUOUS
 62
    0
370
   -2
100
AcDbMText
 10
1538.60654341
 20
178.464509618
 30
0
 40
0.18
 41
0.08
 71
    5
 72
    1
  1
2
  7
STANDARD
210
0
220
0
230
1
 50
306.9883188759745
 73
    2
 44
1
  0
ENDBLK
  5
5E
330
5C
100
AcDbEntity
  8
0
100
AcDbBlockEnd
  0
BLOCK
  5
60
330
5F
100
AcDbEntity
  8
0
100
AcDbBlockBegin
  2
*D24
 70
    1
 10
0
 20
0
  3
*D24
  1

  0
LINE
  5
FF
100
AcDbEntity
  8
A - Cotas
  6
ByBlock
 62
    0
370
   -2
100
AcDbLine
 10
1530.62841149
 20
170.095006343
 11
1530.62841149
 21
171.665006343
  0
SOLID
  5
100
100
AcDbEntity
  8
A - Cotas
  6
ByBlock
 62
    0
370
   -2
100
AcDbTrace
 10
1530.62841149
 20
170.095006343
 30
0
 11
1530.59843899464
 21
170.275006343
 31
0
 12
1530.65838398536
 22
170.275006343
 32
0
 13
1530.65838398536
 23
170.275006343
 33
0
  0
SOLID
  5
101
100
AcDbEntity
  8
A - Cotas
  6
ByBlock
 62
    0
370
   -2
100
AcDbTrace
 10
1530.62841149
 20
174.095006343
 30
0
 11
1530.65838398536
 21
173.915006343
 31
0
 12
1530.59843899464
 22
173.915006343
 32
0
 13
1530.59843899464
 23
173.915006343
 33
0
  0
LINE
  5
102
100
AcDbEntity
  8
A - Cotas
  6
ByBlock
 62
    0
370
   -2
100
AcDbLine
 10
1530.62841149
 20
172.025006343
 11
1530.62841149
 21
174.095006343
  0
MTEXT
  5
103
100
AcDbEntity
  8
A - Cotas
  6
CONTINUOUS
 62
    0
370
   -2
100
AcDbMText
 10
1530.62841149
 20
171.845006343
 30
0
 40
0.18
 41
0.1
 71
    5
 72
    1
  1
4
  7
STANDARD
210
0
220
0
230
1
 50
0
 73
    2
 44
1
  0
LINE
  5
104
100
AcDbEntity
  8
A - Cotas
  6
ByBlock
 62
    0
370
   -2
100
AcDbLine
 10
1537.06803762
 20
170.095006343
 11
1530.44841149
 21
170.095006343
  0
LINE
  5
105
100
AcDbEntity
  8
A - Cotas
  6
ByBlock
 62
    0
370
   -2
100
AcDbLine
 10
1535.06803762
 20
174.095006343
 11
1530.44841149
 21
174.095006343
  0
ENDBLK
  5
61
330
5F
100
AcDbEntity
  8
0
100
AcDbBlockEnd
  0
BLOCK
  5
63
330
62
100
AcDbEntity
  8
0
100
AcDbBlockBegin
  2
*D20
 70
    1
 10
0
 20
0
  3
*D20
  1

  0
SOLID
  5
106
100
AcDbEntity
  8
A - Cotas
  6
ByBlock
 62
    0
370
   -2
100
AcDbTrace
 10
1553.32364693
 20
171.247402816
 30
0
 11
1553.185630538976
 21
171.3667754522564
 31
0
 12
1553.23175945055
 22
171.4050576338727
 32
0
 13
1553.23175945055
 23
171.4050576338727
 33
0
  0
LINE
  5
107
100
AcDbEntity
  8
A - Cotas
  6
ByBlock
 62
    0
370
   -2
100
AcDbLine
 10
1550.13053762
 20
175.095006343
 11
1553.32364693
 21
171.247402816
  0
MTEXT
  5
108
100
AcDbEntity
  8
A - Cotas
  6
CONTINUOUS
 62
    0
370
   -2
100
AcDbMText
 10
1550.04542092
 20
173.129036247
 30
0
 40
0.18
 41
0.08000000000001117
 71
    5
 72
    1
  1
5
  7
STANDARD
210
0
220
0
230
1
 50
309.689131846816
 73
    2
 44
1
  0
ENDBLK
  5
64
330
62
100
AcDbEntity
  8
0
100
AcDbBlockEnd
  0
BLOCK
  5
66
330
65
100
AcDbEntity
  8
0
100
AcDbBlockBegin
  2
*D9
 70
    1
 10
0
 20
0
  3
*D9
  1

  0
LINE
  5
109
100
AcDbEntity
  8
A - Cotas
  6
ByBlock
 62
    0
370
   -2
100
AcDbLine
 10
2010.07132573
 20
-171.389645116
 11
2012.44132573
 21
-171.389645116
  0
SOLID
  5
10A
100
AcDbEntity
  8
A - Cotas
  6
ByBlock
 62
    0
370
   -2
100
AcDbTrace
 10
2010.07132573
 20
-171.389645116
 30
0
 11
2010.25132573
 21
-171.3596726206403
 31
0
 12
2010.25132573
 22
-171.4196176113597
 32
0
 13
2010.25132573
 23
-171.4196176113597
 33
0
  0
SOLID
  5
10B
100
AcDbEntity
  8
A - Cotas
  6
ByBlock
 62
    0
370
   -2
100
AcDbTrace
 10
2015.07132573
 20
-171.389645116
 30
0
 11
2014.89132573
 21
-171.4196176113597
 31
0
 12
2014.89132573
 22
-171.3596726206403
 32
0
 13
2014.89132573
 23
-171.3596726206403
 33
0
  0
LINE
  5
10C
100
AcDbEntity
  8
A - Cotas
  6
ByBlock
 62
    0
370
   -2
100
AcDbLine
 10
2012.70132573
 20
-171.389645116
 11
2015.07132573
 21
-171.389645116
  0
MTEXT
  5
10D
100
AcDbEntity
  8
A - Cotas
  6
CONTINUOUS
 62
    0
370
   -2
100
AcDbMText
 10
2012.57132573
 20
-171.389645116
 30
0
 40
0.18
 41
0.08000000000001117
 71
    5
 72
    1
  1
5
  7
STANDARD
210
0
220
0
230
1
 50
0
 73
    2
 44
1
  0
LINE
  5
10E
100
AcDbEntity
  8
A - Cotas
  6
ByBlock
 62
    0
370
   -2
100
AcDbLine
 10
2010.07132573
 20
-163.450246
 11
2010.07132573
 21
-171.569645116
  0
LINE
  5
10F
100
AcDbEntity
  8
A - Cotas
  6
ByBlock
 62
    0
370
   -2
100
AcDbLine
 10
2015.07132573
 20
-167.450246
 11
2015.07132573
 21
-171.569645116
  0
ENDBLK
  5
67
330
65
100
AcDbEntity
  8
0
100
AcDbBlockEnd
  0
BLOCK
  5
69
330
68
100
AcDbEntity
  8
0
100
AcDbBlockBegin
  2
*D16
 70
    1
 10
0
 20
0
  3
*D16
  1

  0
LINE
  5
110
100
AcDbEntity
  8
A - Cotas
  6
ByBlock
 62
    0
370
   -2
100
AcDbLine
 10
1678.39732573
 20
43.0668790868
 11
1745.27232573
 21
43.0668790868
  0
SOLID
  5
111
100
AcDbEntity
  8
A - Cotas
  6
ByBlock
 62
    0
370
   -2
100
AcDbTrace
 10
1678.39732573
 20
43.0668790868
 30
0
 11
1678.57732573
 21
43.09685158215964
 31
0
 12
1678.57732573
 22
43.03690659144036
 32
0
 13
1678.57732573
 23
43.03690659144036
 33
0
  0
SOLID
  5
112
100
AcDbEntity
  8
A - Cotas
  6
ByBlock
 62
    0
370
   -2
100
AcDbTrace
 10
1813.01732573
 20
43.0668790868
 30
0
 11
1812.83732573
 21
43.03690659144036
 31
0
 12
1812.83732573
 22
43.09685158215964
 32
0
 13
1812.83732573
 23
43.09685158215964
 33
0
  0
LINE
  5
113
100
AcDbEntity
  8
A - Cotas
  6
ByBlock
 62
    0
370
   -2
100
AcDbLine
 10
1746.14232573
 20
43.0668790868
 11
1813.01732573
 21
43.0668790868
  0
MTEXT
  5
114
100
AcDbEntity
  8
A - Cotas
  6
CONTINUOUS
 62
    0
370
   -2
100
AcDbMText
 10
1745.70732573
 20
43.0668790868
 30
0
 40
0.18
 41
0.6900000000000224
 71
    5
 72
    1
  1
134,62
  7
STANDARD
210
0
220
0
230
1
 50
0
 73
    2
 44
1
  0
LINE
  5
115
100
AcDbEntity
  8
A - Cotas
  6
ByBlock
 62
    0
370
   -2
100
AcDbLine
 10
1678.39732573
 20
70.3457269718
 11
1678.39732573
 21
42.8868790868
  0
LINE
  5
116
100
AcDbEntity
  8
A - Cotas
  6
ByBlock
 62
    0
370
   -2
100
AcDbLine
 10
1813.01732573
 20
70.3457269718
 11
1813.01732573
 21
42.8868790868
  0
ENDBLK
  5
6A
330
68
100
AcDbEntity
  8
0
100
AcDbBlockEnd
  0
BLOCK
  5
6C
330
6B
100
AcDbEntity
  8
0
100
AcDbBlockBegin
  2
*D27
 70
    1
 10
0
 20
0
  3
*D27
  1

  0
LINE
  5
117
100
AcDbEntity
  8
A - Cotas
  6
ByBlock
 62
    0
370
   -2
100
AcDbLine
 10
1558.85910202
 20
180.145006343
 11
1558.85910202
 21
175.449347428
  0
SOLID
  5
118
100
AcDbEntity
  8
A - Cotas
  6
ByBlock
 62
    0
370
   -2
100
AcDbTrace
 10
1558.85910202
 20
180.145006343
 30
0
 11
1558.88907451536
 21
179.965006343
 31
0
 12
1558.82912952464
 22
179.965006343
 32
0
 13
1558.82912952464
 23
179.965006343
 33
0
  0
SOLID
  5
119
100
AcDbEntity
  8
A - Cotas
  6
ByBlock
 62
    0
370
   -2
100
AcDbTrace
 10
1558.85910202
 20
170.095006343
 30
0
 11
1558.82912952464
 21
170.275006343
 31
0
 12
1558.88907451536
 22
170.275006343
 32
0
 13
1558.88907451536
 23
170.275006343
 33
0
  0
LINE
  5
11A
100
AcDbEntity
  8
A - Cotas
  6
ByBlock
 62
    0
370
   -2
100
AcDbLine
 10
1558.85910202
 20
175.089347428
 11
1558.85910202
 21
170.095006343
  0
MTEXT
  5
11B
100
AcDbEntity
  8
A - Cotas
  6
CONTINUOUS
 62
    0
370
   -2
100
AcDbMText
 10
1558.85910202
 20
175.269347428
 30
0
 40
0.18
 41
0.5300000000000111
 71
    5
 72
    1
  1
10,05
  7
STANDARD
210
0
220
0
230
1
 50
0
 73
    2
 44
1
  0
LINE
  5
11C
100
AcDbEntity
  8
A - Cotas
  6
ByBlock
 62
    0
370
   -2
100
AcDbLine
 10
1550.19303762
 20
180.145006343
 11
1559.03910202
 21
180.145006343
  0
LINE
  5
11D
100
AcDbEntity
  8
A - Cotas
  6
ByBlock
 62
    0
370
   -2
100
AcDbLine
 10
1550.19303762
 20
170.095006343
 11
1559.03910202
 21
170.095006343
  0
ENDBLK
  5
6D
330
6B
100
AcDbEntity
  8
0
100
AcDbBlockEnd
  0
BLOCK
  5
6F
330
6E
100
AcDbEntity
  8
0
100
AcDbBlockBegin
  2
*D15
 70
    1
 10
0
 20
0
  3
*D15
  1

  0
LINE
  5
11E
100
AcDbEntity
  8
A - Cotas
  6
ByBlock
 62
    0
370
   -2
100
AcDbLine
 10
2016.73917645
 20
180.29
 11
2016.73917645
 21
170.445
  0
SOLID
  5
11F
100
AcDbEntity
  8
A - Cotas
  6
ByBlock
 62
    0
370
   -2
100
AcDbTrace
 10
2016.73917645
 20
180.29
 30
0
 11
2016.76914894536
 21
180.11
 31
0
 12
2016.70920395464
 22
180.11
 32
0
 13
2016.70920395464
 23
180.11
 33
0
  0
SOLID
  5
120
100
AcDbEntity
  8
A - Cotas
  6
ByBlock
 62
    0
370
   -2
100
AcDbTrace
 10
2016.73917645
 20
160.24
 30
0
 11
2016.70920395464
 21
160.42
 31
0
 12
2016.76914894536
 22
160.42
 32
0
 13
2016.76914894536
 23
160.42
 33
0
  0
LINE
  5
121
100
AcDbEntity
  8
A - Cotas
  6
ByBlock
 62
    0
370
   -2
100
AcDbLine
 10
2016.73917645
 20
170.085
 11
2016.73917645
 21
160.24
  0
MTEXT
  5
122
100
AcDbEntity
  8
A - Cotas
  6
CONTINUOUS
 62
    0
370
   -2
100
AcDbMText
 10
2016.73917645
 20
170.265
 30
0
 40
0.18
 41
0.5700000000000112
 71
    5
 72
    1
  1
20,05
  7
STANDARD
210
0
220
0
230
1
 50
0
 73
    2
 44
1
  0
LINE
  5
123
100
AcDbEntity
  8
A - Cotas
  6
ByBlock
 62
    0
370
   -2
100
AcDbLine
 10
1990.66732573
 20
180.29
 11
2016.91917645
 21
180.29
  0
LINE
  5
124
100
AcDbEntity
  8
A - Cotas
  6
ByBlock
 62
    0
370
   -2
100
AcDbLine
 10
1990.66732573
 20
160.24
 11
2016.91917645
 21
160.24
  0
ENDBLK
  5
70
330
6E
100
AcDbEntity
  8
0
100
AcDbBlockEnd
  0
BLOCK
  5
72
330
71
100
AcDbEntity
  8
0
100
AcDbBlockBegin
  2
*D22
 70
    1
 10
0
 20
0
  3
*D22
  1

  0
SOLID
  5
125
100
AcDbEntity
  8
A - Cotas
  6
ByBlock
 62
    0
370
   -2
100
AcDbTrace
 10
1536.1199421
 20
170.369116225
 30
0
 11
1536.185031079987
 21
170.5395913702919
 31
0
 12
1536.236760313511
 22
170.5093013007751
 32
0
 13
1536.236760313511
 23
170.5093013007751
 33
0
  0
LINE
  5
126
100
AcDbEntity
  8
A - Cotas
  6
ByBlock
 62
    0
370
   -2
100
AcDbLine
 10
1537.13053762
 20
172.095006343
 11
1536.1199421
 21
170.369116225
  0
MTEXT
  5
127
100
AcDbEntity
  8
A - Cotas
  6
CONTINUOUS
 62
    0
370
   -2
100
AcDbMText
 10
1538.64508518
 20
171.749828319
 30
0
 40
0.18
 41
0.08
 71
    5
 72
    1
  1
2
  7
STANDARD
210
0
220
0
230
1
 50
59.64887968947334
 73
    2
 44
1
  0
ENDBLK
  5
73
330
71
100
AcDbEntity
  8
0
100
AcDbBlockEnd
  0
BLOCK
  5
75
330
74
100
AcDbEntity
  8
0
100
AcDbBlockBegin
  2
*D14
 70
    1
 10
0
 20
0
  3
*D14
  1

  0
LINE
  5
128
100
AcDbEntity
  8
A - Cotas
  6
ByBlock
 62
    0
370
   -2
100
AcDbLine
 10
2032.62132573
 20
119.190497797
 11
2042.42132573
 21
119.190497797
  0
SOLID
  5
129
100
AcDbEntity
  8
A - Cotas
  6
ByBlock
 62
    0
370
   -2
100
AcDbTrace
 10
2032.62132573
 20
119.190497797
 30
0
 11
2032.80132573
 21
119.2204702923596
 31
0
 12
2032.80132573
 22
119.1605253016404
 32
0
 13
2032.80132573
 23
119.1605253016404
 33
0
  0
SOLID
  5
12A
100
AcDbEntity
  8
A - Cotas
  6
ByBlock
 62
    0
370
   -2
100
AcDbTrace
 10
2052.62132573
 20
119.190497797
 30
0
 11
2052.44132573
 21
119.1605253016404
 31
0
 12
2052.44132573
 22
119.2204702923596
 32
0
 13
2052.44132573
 23
119.2204702923596
 33
0
  0
LINE
  5
12B
100
AcDbEntity
  8
A - Cotas
  6
ByBlock
 62
    0
370
   -2
100
AcDbLine
 10
2042.82132573
 20
119.190497797
 11
2052.62132573
 21
119.190497797
  0
MTEXT
  5
12C
100
AcDbEntity
  8
A - Cotas
  6
CONTINUOUS
 62
    0
370
   -2
100
AcDbMText
 10
2042.62132573
 20
119.190497797
 30
0
 40
0.18
 41
0.22
 71
    5
 72
    1
  1
20
  7
STANDARD
210
0
220
0
230
1
 50
0
 73
    2
 44
1
  0
LINE
  5
12D
100
AcDbEntity
  8
A - Cotas
  6
ByBlock
 62
    0
370
   -2
100
AcDbLine
 10
2032.62132573
 20
112.3775
 11
2032.62132573
 21
119.370497797
  0
LINE
  5
12E
100
AcDbEntity
  8
A - Cotas
  6
ByBlock
 62
    0
370
   -2
100
AcDbLine
 10
2052.62132573
 20
112.3775
 11
2052.62132573
 21
119.370497797
  0
ENDBLK
  5
76
330
74
100
AcDbEntity
  8
0
100
AcDbBlockEnd
  0
BLOCK
  5
78
330
77
100
AcDbEntity
  8
0
100
AcDbBlockBegin
  2
*D1
 70
    1
 10
0
 20
0
  3
*D1
  1

  0
LINE
  5
12F
100
AcDbEntity
  8
A - Cotas
  6
ByBlock
 62
    0
370
   -2
100
AcDbLine
 10
1560.80052245
 20
81.36499999999999
 11
1560.80052245
 21
71.545
  0
SOLID
  5
130
100
AcDbEntity
  8
A - Cotas
  6
ByBlock
 62
    0
370
   -2
100
AcDbTrace
 10
1560.80052245
 20
81.36499999999999
 30
0
 11
1560.83049494536
 21
81.18499999999999
 31
0
 12
1560.77054995464
 22
81.18499999999999
 32
0
 13
1560.77054995464
 23
81.18499999999999
 33
0
  0
SOLID
  5
131
100
AcDbEntity
  8
A - Cotas
  6
ByBlock
 62
    0
370
   -2
100
AcDbTrace
 10
1560.80052245
 20
61.365
 30
0
 11
1560.77054995464
 21
61.545
 31
0
 12
1560.83049494536
 22
61.545
 32
0
 13
1560.83049494536
 23
61.545
 33
0
  0
LINE
  5
132
100
AcDbEntity
  8
A - Cotas
  6
ByBlock
 62
    0
370
   -2
100
AcDbLine
 10
1560.80052245
 20
71.18499999999999
 11
1560.80052245
 21
61.365
  0
MTEXT
  5
133
100
AcDbEntity
  8
A - Cotas
  6
CONTINUOUS
 62
    0
370
   -2
100
AcDbMText
 10
1560.80052245
 20
71.36499999999999
 30
0
 40
0.18
 41
0.22
 71
    5
 72
    1
  1
20
  7
STANDARD
210
0
220
0
230
1
 50
0
 73
    2
 44
1
  0
LINE
  5
134
100
AcDbEntity
  8
A - Cotas
  6
ByBlock
 62
    0
370
   -2
100
AcDbLine
 10
1567.47582573
 20
81.36499999999999
 11
1560.62052245
 21
81.36499999999999
  0
LINE
  5
135
100
AcDbEntity
  8
A - Cotas
  6
ByBlock
 62
    0
370
   -2
100
AcDbLine
 10
1567.47582573
 20
61.365
 11
1560.62052245
 21
61.365
  0
ENDBLK
  5
79
330
77
100
AcDbEntity
  8
0
100
AcDbBlockEnd
  0
BLOCK
  5
7B
330
7A
100
AcDbEntity
  8
0
100
AcDbBlockBegin
  2
*D10
 70
    1
 10
0
 20
0
  3
*D10
  1

  0
LINE
  5
136
100
AcDbEntity
  8
A - Cotas
  6
ByBlock
 62
    0
370
   -2
100
AcDbLine
 10
2009.97558128
 20
-195.365
 11
2009.97558128
 21
-190.52
  0
SOLID
  5
137
100
AcDbEntity
  8
A - Cotas
  6
ByBlock
 62
    0
370
   -2
100
AcDbTrace
 10
2009.97558128
 20
-195.365
 30
0
 11
2009.94560878464
 21
-195.185
 31
0
 12
2010.00555377536
 22
-195.185
 32
0
 13
2010.00555377536
 23
-195.185
 33
0
  0
SOLID
  5
138
100
AcDbEntity
  8
A - Cotas
  6
ByBlock
 62
    0
370
   -2
100
AcDbTrace
 10
2009.97558128
 20
-185.315
 30
0
 11
2010.00555377536
 21
-185.495
 31
0
 12
2009.94560878464
 22
-185.495
 32
0
 13
2009.94560878464
 23
-185.495
 33
0
  0
LINE
  5
139
100
AcDbEntity
  8
A - Cotas
  6
ByBlock
 62
    0
370
   -2
100
AcDbLine
 10
2009.97558128
 20
-190.16
 11
2009.97558128
 21
-185.315
  0
MTEXT
  5
13A
100
AcDbEntity
  8
A - Cotas
  6
CONTINUOUS
 62
    0
370
   -2
100
AcDbMText
 10
2009.97558128
 20
-190.34
 30
0
 40
0.18
 41
0.5300000000000111
 71
    5
 72
    1
  1
10,05
  7
STANDARD
210
0
220
0
230
1
 50
0
 73
    2
 44
1
  0
LINE
  5
13B
100
AcDbEntity
  8
A - Cotas
  6
ByBlock
 62
    0
370
   -2
100
AcDbLine
 10
1990.64232573
 20
-195.365
 11
2010.15558128
 21
-195.365
  0
LINE
  5
13C
100
AcDbEntity
  8
A - Cotas
  6
ByBlock
 62
    0
370
   -2
100
AcDbLine
 10
1990.64232573
 20
-185.315
 11
2010.15558128
 21
-185.315
  0
ENDBLK
  5
7C
330
7A
100
AcDbEntity
  8
0
100
AcDbBlockEnd
  0
BLOCK
  5
7E
330
7D
100
AcDbEntity
  8
0
100
AcDbBlockBegin
  2
*D13
 70
    1
 10
0
 20
0
  3
*D13
  1

  0
LINE
  5
13D
100
AcDbEntity
  8
A - Cotas
  6
ByBlock
 62
    0
370
   -2
100
AcDbLine
 10
1625.36108828
 20
185.29
 11
1625.36108828
 21
182.97
  0
SOLID
  5
13E
100
AcDbEntity
  8
A - Cotas
  6
ByBlock
 62
    0
370
   -2
100
AcDbTrace
 10
1625.36108828
 20
185.29
 30
0
 11
1625.39106077536
 21
185.11
 31
0
 12
1625.33111578464
 22
185.11
 32
0
 13
1625.33111578464
 23
185.11
 33
0
  0
SOLID
  5
13F
100
AcDbEntity
  8
A - Cotas
  6
ByBlock
 62
    0
370
   -2
100
AcDbTrace
 10
1625.36108828
 20
180.29
 30
0
 11
1625.33111578464
 21
180.47
 31
0
 12
1625.39106077536
 22
180.47
 32
0
 13
1625.39106077536
 23
180.47
 33
0
  0
LINE
  5
140
100
AcDbEntity
  8
A - Cotas
  6
ByBlock
 62
    0
370
   -2
100
AcDbLine
 10
1625.36108828
 20
182.61
 11
1625.36108828
 21
180.29
  0
MTEXT
  5
141
100
AcDbEntity
  8
A - Cotas
  6
CONTINUOUS
 62
    0
370
   -2
100
AcDbMText
 10
1625.36108828
 20
182.79
 30
0
 40
0.18
 41
0.08000000000001117
 71
    5
 72
    1
  1
5
  7
STANDARD
210
0
220
0
230
1
 50
0
 73
    2
 44
1
  0
LINE
  5
142
100
AcDbEntity
  8
A - Cotas
  6
ByBlock
 62
    0
370
   -2
100
AcDbLine
 10
1634.54232573
 20
185.29
 11
1625.18108828
 21
185.29
  0
LINE
  5
143
100
AcDbEntity
  8
A - Cotas
  6
ByBlock
 62
    0
370
   -2
100
AcDbLine
 10
1634.54232573
 20
180.29
 11
1625.18108828
 21
180.29
  0
ENDBLK
  5
7F
330
7D
100
AcDbEntity
  8
0
100
AcDbBlockEnd
  0
BLOCK
  5
81
330
80
100
AcDbEntity
  8
0
100
AcDbBlockBegin
  2
*D3
 70
    1
 10
0
 20
0
  3
*D3
  1

  0
LINE
  5
144
100
AcDbEntity
  8
A - Cotas
  6
ByBlock
 62
    0
370
   -2
100
AcDbLine
 10
1553.40810236
 20
108.315
 11
1553.40810236
 21
95.0325
  0
SOLID
  5
145
100
AcDbEntity
  8
A - Cotas
  6
ByBlock
 62
    0
370
   -2
100
AcDbTrace
 10
1553.40810236
 20
108.315
 30
0
 11
1553.43807485536
 21
108.135
 31
0
 12
1553.37812986464
 22
108.135
 32
0
 13
1553.37812986464
 23
108.135
 33
0
  0
SOLID
  5
146
100
AcDbEntity
  8
A - Cotas
  6
ByBlock
 62
    0
370
   -2
100
AcDbTrace
 10
1553.40810236
 20
81.39
 30
0
 11
1553.37812986464
 21
81.57000000000001
 31
0
 12
1553.43807485536
 22
81.57000000000001
 32
0
 13
1553.43807485536
 23
81.57000000000001
 33
0
  0
LINE
  5
147
100
AcDbEntity
  8
A - Cotas
  6
ByBlock
 62
    0
370
   -2
100
AcDbLine
 10
1553.40810236
 20
94.6725
 11
1553.40810236
 21
81.39
  0
MTEXT
  5
148
100
AcDbEntity
  8
A - Cotas
  6
CONTINUOUS
 62
    0
370
   -2
100
AcDbMText
 10
1553.40810236
 20
94.85250000000001
 30
0
 40
0.18
 41
0.7100000000000224
 71
    5
 72
    1
  1
26,925
  7
STANDARD
210
0
220
0
230
1
 50
0
 73
    2
 44
1
  0
LINE
  5
149
100
AcDbEntity
  8
A - Cotas
  6
ByBlock
 62
    0
370
   -2
100
AcDbLine
 10
1507.66750524
 20
108.315
 11
1553.58810236
 21
108.315
  0
LINE
  5
14A
100
AcDbEntity
  8
A - Cotas
  6
ByBlock
 62
    0
370
   -2
100
AcDbLine
 10
1529.59250524
 20
81.39
 11
1553.58810236
 21
81.39
  0
ENDBLK
  5
82
330
80
100
AcDbEntity
  8
0
100
AcDbBlockEnd
  0
BLOCK
  5
84
330
83
100
AcDbEntity
  8
0
100
AcDbBlockBegin
  2
*D4
 70
    1
 10
0
 20
0
  3
*D4
  1

  0
LINE
  5
14B
100
AcDbEntity
  8
A - Cotas
  6
ByBlock
 62
    0
370
   -2
100
AcDbLine
 10
1567.53832573
 20
108.315
 11
1567.53832573
 21
95.02000000000002
  0
SOLID
  5
14C
100
AcDbEntity
  8
A - Cotas
  6
ByBlock
 62
    0
370
   -2
100
AcDbTrace
 10
1567.53832573
 20
108.315
 30
0
 11
1567.56829822536
 21
108.135
 31
0
 12
1567.50835323464
 22
108.135
 32
0
 13
1567.50835323464
 23
108.135
 33
0
  0
SOLID
  5
14D
100
AcDbEntity
  8
A - Cotas
  6
ByBlock
 62
    0
370
   -2
100
AcDbTrace
 10
1567.53832573
 20
81.36499999999999
 30
0
 11
1567.50835323464
 21
81.545
 31
0
 12
1567.56829822536
 22
81.545
 32
0
 13
1567.56829822536
 23
81.545
 33
0
  0
LINE
  5
14E
100
AcDbEntity
  8
A - Cotas
  6
ByBlock
 62
    0
370
   -2
100
AcDbLine
 10
1567.53832573
 20
94.66000000000001
 11
1567.53832573
 21
81.36499999999999
  0
MTEXT
  5
14F
100
AcDbEntity
  8
A - Cotas
  6
CONTINUOUS
 62
    0
370
   -2
100
AcDbMText
 10
1567.53832573
 20
94.84
 30
0
 40
0.18
 41
0.5700000000000225
 71
    5
 72
    1
  1
26,95
  7
STANDARD
210
0
220
0
230
1
 50
0
 73
    2
 44
1
  0
LINE
  5
150
100
AcDbEntity
  8
A - Cotas
  6
ByBlock
 62
    0
370
   -2
100
AcDbLine
 10
1571.47582573
 20
108.315
 11
1567.35832573
 21
108.315
  0
LINE
  5
151
100
AcDbEntity
  8
A - Cotas
  6
ByBlock
 62
    0
370
   -2
100
AcDbLine
 10
1567.47582573
 20
81.36499999999999
 11
1567.35832573
 21
81.36499999999999
  0
ENDBLK
  5
85
330
83
100
AcDbEntity
  8
0
100
AcDbBlockEnd
  0
BLOCK
  5
87
330
86
100
AcDbEntity
  8
0
100
AcDbBlockBegin
  2
*D8
 70
    1
 10
0
 20
0
  3
*D8
  1

  0
LINE
  5
152
100
AcDbEntity
  8
A - Cotas
  6
ByBlock
 62
    0
370
   -2
100
AcDbLine
 10
1589.78609616
 20
81.39
 11
1589.78609616
 21
31.545
  0
SOLID
  5
153
100
AcDbEntity
  8
A - Cotas
  6
ByBlock
 62
    0
370
   -2
100
AcDbTrace
 10
1589.78609616
 20
81.39
 30
0
 11
1589.81606865536
 21
81.20999999999999
 31
0
 12
1589.75612366464
 22
81.20999999999999
 32
0
 13
1589.75612366464
 23
81.20999999999999
 33
0
  0
SOLID
  5
154
100
AcDbEntity
  8
A - Cotas
  6
ByBlock
 62
    0
370
   -2
100
AcDbTrace
 10
1589.78609616
 20
-18.66
 30
0
 11
1589.75612366464
 21
-18.48
 31
0
 12
1589.81606865536
 22
-18.48
 32
0
 13
1589.81606865536
 23
-18.48
 33
0
  0
LINE
  5
155
100
AcDbEntity
  8
A - Cotas
  6
ByBlock
 62
    0
370
   -2
100
AcDbLine
 10
1589.78609616
 20
31.185
 11
1589.78609616
 21
-18.66
  0
MTEXT
  5
156
100
AcDbEntity
  8
A - Cotas
  6
CONTINUOUS
 62
    0
370
   -2
100
AcDbMText
 10
1589.78609616
 20
31.365
 30
0
 40
0.18
 41
0.6700000000000113
 71
    5
 72
    1
  1
100,05
  7
STANDARD
210
0
220
0
230
1
 50
0
 73
    2
 44
1
  0
LINE
  5
157
100
AcDbEntity
  8
A - Cotas
  6
ByBlock
 62
    0
370
   -2
100
AcDbLine
 10
1642.59232573
 20
81.39
 11
1589.60609616
 21
81.39
  0
LINE
  5
158
100
AcDbEntity
  8
A - Cotas
  6
ByBlock
 62
    0
370
   -2
100
AcDbLine
 10
1642.59232573
 20
-18.66
 11
1589.60609616
 21
-18.66
  0
ENDBLK
  5
88
330
86
100
AcDbEntity
  8
0
100
AcDbBlockEnd
  0
BLOCK
  5
8A
330
89
100
AcDbEntity
  8
0
100
AcDbBlockBegin
  2
*D17
 70
    1
 10
0
 20
0
  3
*D17
  1

  0
LINE
  5
159
100
AcDbEntity
  8
A - Cotas
  6
ByBlock
 62
    0
370
   -2
100
AcDbLine
 10
1634.54232573
 20
160.24
 11
1625.18118029
 21
160.24
  0
LINE
  5
15A
100
AcDbEntity
  8
A - Cotas
  6
ByBlock
 62
    0
370
   -2
100
AcDbLine
 10
1634.54232573
 20
180.29
 11
1625.18118029
 21
180.29
  0
LINE
  5
15B
100
AcDbEntity
  8
A - Cotas
  6
ByBlock
 62
    0
370
   -2
100
AcDbLine
 10
1625.36118029
 20
160.24
 11
1625.36118029
 21
170.085
  0
SOLID
  5
15C
100
AcDbEntity
  8
A - Cotas
  6
ByBlock
 62
    0
370
   -2
100
AcDbTrace
 10
1625.36118029
 20
160.24
 30
0
 11
1625.33120779464
 21
160.42
 31
0
 12
1625.39115278536
 22
160.42
 32
0
 13
1625.39115278536
 23
160.42
 33
0
  0
SOLID
  5
15D
100
AcDbEntity
  8
A - Cotas
  6
ByBlock
 62
    0
370
   -2
100
AcDbTrace
 10
1625.36118029
 20
180.29
 30
0
 11
1625.39115278536
 21
180.11
 31
0
 12
1625.33120779464
 22
180.11
 32
0
 13
1625.33120779464
 23
180.11
 33
0
  0
LINE
  5
15E
100
AcDbEntity
  8
A - Cotas
  6
ByBlock
 62
    0
370
   -2
100
AcDbLine
 10
1625.36118029
 20
170.445
 11
1625.36118029
 21
180.29
  0
MTEXT
  5
15F
100
AcDbEntity
  8
A - Cotas
  6
CONTINUOUS
 62
    0
370
   -2
100
AcDbMText
 10
1625.36118029
 20
170.265
 30
0
 40
0.18
 41
0.5700000000000112
 71
    5
 72
    1
  1
20,05
  7
STANDARD
210
0
220
0
230
1
 50
0
 73
    2
 44
1
  0
ENDBLK
  5
8B
330
89
100
AcDbEntity
  8
0
100
AcDbBlockEnd
  0
BLOCK
  5
8D
330
8C
100
AcDbEntity
  8
0
100
AcDbBlockBegin
  2
*D23
 70
    1
 10
0
 20
0
  3
*D23
  1

  0
LINE
  5
160
100
AcDbEntity
  8
A - Cotas
  6
ByBlock
 62
    0
370
   -2
100
AcDbLine
 10
1535.13053762
 20
166.359274812
 11
1544.93053762
 21
166.359274812
  0
SOLID
  5
161
100
AcDbEntity
  8
A - Cotas
  6
ByBlock
 62
    0
370
   -2
100
AcDbTrace
 10
1535.13053762
 20
166.359274812
 30
0
 11
1535.31053762
 21
166.3892473073597
 31
0
 12
1535.31053762
 22
166.3293023166403
 32
0
 13
1535.31053762
 23
166.3293023166403
 33
0
  0
SOLID
  5
162
100
AcDbEntity
  8
A - Cotas
  6
ByBlock
 62
    0
370
   -2
100
AcDbTrace
 10
1555.13053762
 20
166.359274812
 30
0
 11
1554.95053762
 21
166.3293023166403
 31
0
 12
1554.95053762
 22
166.3892473073597
 32
0
 13
1554.95053762
 23
166.3892473073597
 33
0
  0
LINE
  5
163
100
AcDbEntity
  8
A - Cotas
  6
ByBlock
 62
    0
370
   -2
100
AcDbLine
 10
1545.33053762
 20
166.359274812
 11
1555.13053762
 21
166.359274812
  0
MTEXT
  5
164
100
AcDbEntity
  8
A - Cotas
  6
CONTINUOUS
 62
    0
370
   -2
100
AcDbMText
 10
1545.13053762
 20
166.359274812
 30
0
 40
0.18
 41
0.22
 71
    5
 72
    1
  1
20
  7
STANDARD
210
0
220
0
230
1
 50
0
 73
    2
 44
1
  0
LINE
  5
165
100
AcDbEntity
  8
A - Cotas
  6
ByBlock
 62
    0
370
   -2
100
AcDbLine
 10
1535.13053762
 20
172.032506343
 11
1535.13053762
 21
166.179274812
  0
LINE
  5
166
100
AcDbEntity
  8
A - Cotas
  6
ByBlock
 62
    0
370
   -2
100
AcDbLine
 10
1555.13053762
 20
175.032506343
 11
1555.13053762
 21
166.179274812
  0
ENDBLK
  5
8E
330
8C
100
AcDbEntity
  8
0
100
AcDbBlockEnd
  0
BLOCK
  5
90
330
8F
100
AcDbEntity
  8
0
100
AcDbBlockBegin
  2
*D25
 70
    1
 10
0
 20
0
  3
*D25
  1

  0
LINE
  5
167
100
AcDbEntity
  8
A - Cotas
  6
ByBlock
 62
    0
370
   -2
100
AcDbLine
 10
1530.62841149
 20
174.095006343
 11
1530.62841149
 21
175.665006343
  0
SOLID
  5
168
100
AcDbEntity
  8
A - Cotas
  6
ByBlock
 62
    0
370
   -2
100
AcDbTrace
 10
1530.62841149
 20
174.095006343
 30
0
 11
1530.59843899464
 21
174.275006343
 31
0
 12
1530.65838398536
 22
174.275006343
 32
0
 13
1530.65838398536
 23
174.275006343
 33
0
  0
SOLID
  5
169
100
AcDbEntity
  8
A - Cotas
  6
ByBlock
 62
    0
370
   -2
100
AcDbTrace
 10
1530.62841149
 20
178.145006343
 30
0
 11
1530.65838398536
 21
177.965006343
 31
0
 12
1530.59843899464
 22
177.965006343
 32
0
 13
1530.59843899464
 23
177.965006343
 33
0
  0
LINE
  5
16A
100
AcDbEntity
  8
A - Cotas
  6
ByBlock
 62
    0
370
   -2
100
AcDbLine
 10
1530.62841149
 20
176.025006343
 11
1530.62841149
 21
178.145006343
  0
MTEXT
  5
16B
100
AcDbEntity
  8
A - Cotas
  6
CONTINUOUS
 62
    0
370
   -2
100
AcDbMText
 10
1530.62841149
 20
175.845006343
 30
0
 40
0.18
 41
0.4500000000000112
 71
    5
 72
    1
  1
4,05
  7
STANDARD
210
0
220
0
230
1
 50
0
 73
    2
 44
1
  0
LINE
  5
16C
100
AcDbEntity
  8
A - Cotas
  6
ByBlock
 62
    0
370
   -2
100
AcDbLine
 10
1535.06803762
 20
174.095006343
 11
1530.44841149
 21
174.095006343
  0
LINE
  5
16D
100
AcDbEntity
  8
A - Cotas
  6
ByBlock
 62
    0
370
   -2
100
AcDbLine
 10
1535.06803762
 20
178.145006343
 11
1530.44841149
 21
178.145006343
  0
ENDBLK
  5
91
330
8F
100
AcDbEntity
  8
0
100
AcDbBlockEnd
  0
BLOCK
  5
93
330
92
100
AcDbEntity
  8
0
100
AcDbBlockBegin
  2
*D7
 70
    1
 10
0
 20
0
  3
*D7
  1

  0
LINE
  5
16E
100
AcDbEntity
  8
A - Cotas
  6
ByBlock
 62
    0
370
   -2
100
AcDbLine
 10
1579.48102375
 20
-18.63500000000001
 11
1579.48102375
 21
31.185
  0
SOLID
  5
16F
100
AcDbEntity
  8
A - Cotas
  6
ByBlock
 62
    0
370
   -2
100
AcDbTrace
 10
1579.48102375
 20
-18.63500000000001
 30
0
 11
1579.45105125464
 21
-18.45500000000001
 31
0
 12
1579.51099624536
 22
-18.45500000000001
 32
0
 13
1579.51099624536
 23
-18.45500000000001
 33
0
  0
SOLID
  5
170
100
AcDbEntity
  8
A - Cotas
  6
ByBlock
 62
    0
370
   -2
100
AcDbTrace
 10
1579.48102375
 20
81.36499999999999
 30
0
 11
1579.51099624536
 21
81.18499999999999
 31
0
 12
1579.45105125464
 22
81.18499999999999
 32
0
 13
1579.45105125464
 23
81.18499999999999
 33
0
  0
LINE
  5
171
100
AcDbEntity
  8
A - Cotas
  6
ByBlock
 62
    0
370
   -2
100
AcDbLine
 10
1579.48102375
 20
31.545
 11
1579.48102375
 21
81.36499999999999
  0
MTEXT
  5
172
100
AcDbEntity
  8
A - Cotas
  6
CONTINUOUS
 62
    0
370
   -2
100
AcDbMText
 10
1579.48102375
 20
31.365
 30
0
 40
0.18
 41
0.3200000000000001
 71
    5
 72
    1
  1
100
  7
STANDARD
210
0
220
0
230
1
 50
0
 73
    2
 44
1
  0
LINE
  5
173
100
AcDbEntity
  8
A - Cotas
  6
ByBlock
 62
    0
370
   -2
100
AcDbLine
 10
1571.60082573
 20
-18.635
 11
1579.66102375
 21
-18.63500000000001
  0
LINE
  5
174
100
AcDbEntity
  8
A - Cotas
  6
ByBlock
 62
    0
370
   -2
100
AcDbLine
 10
1571.60082573
 20
81.36499999999999
 11
1579.66102375
 21
81.36499999999999
  0
ENDBLK
  5
94
330
92
100
AcDbEntity
  8
0
100
AcDbBlockEnd
  0
BLOCK
  5
96
330
95
100
AcDbEntity
  8
0
100
AcDbBlockBegin
  2
*D19
 70
    1
 10
0
 20
0
  3
*D19
  1

  0
SOLID
  5
175
100
AcDbEntity
  8
A - Cotas
  6
ByBlock
 62
    0
370
   -2
100
AcDbTrace
 10
1553.70009269
 20
178.64618851
 30
0
 11
1553.592576540654
 21
178.4987482573284
 31
0
 12
1553.550600874122
 22
178.5415436464676
 32
0
 13
1553.550600874122
 23
178.5415436464676
 33
0
  0
LINE
  5
176
100
AcDbEntity
  8
A - Cotas
  6
ByBlock
 62
    0
370
   -2
100
AcDbLine
 10
1550.13053762
 20
175.145006343
 11
1553.70009269
 21
178.64618851
  0
MTEXT
  5
177
100
AcDbEntity
  8
A - Cotas
  6
CONTINUOUS
 62
    0
370
   -2
100
AcDbMText
 10
1549.25678077
 20
176.480652412
 30
0
 40
0.18
 41
0.08000000000001117
 71
    5
 72
    1
  1
5
  7
STANDARD
210
0
220
0
230
1
 50
44.44597620472269
 73
    2
 44
1
  0
ENDBLK
  5
97
330
95
100
AcDbEntity
  8
0
100
AcDbBlockEnd
  0
BLOCK
  5
99
330
98
100
AcDbEntity
  8
0
100
AcDbBlockBegin
  2
*D11
 70
    1
 10
0
 20
0
  3
*D11
  1

  0
LINE
  5
178
100
AcDbEntity
  8
A - Cotas
  6
ByBlock
 62
    0
370
   -2
100
AcDbLine
 10
2015.07132573
 20
-173.647311901
 11
2019.89132573
 21
-173.647311901
  0
SOLID
  5
179
100
AcDbEntity
  8
A - Cotas
  6
ByBlock
 62
    0
370
   -2
100
AcDbTrace
 10
2015.07132573
 20
-173.647311901
 30
0
 11
2015.25132573
 21
-173.6173394056403
 31
0
 12
2015.25132573
 22
-173.6772843963597
 32
0
 13
2015.25132573
 23
-173.6772843963597
 33
0
  0
SOLID
  5
17A
100
AcDbEntity
  8
A - Cotas
  6
ByBlock
 62
    0
370
   -2
100
AcDbTrace
 10
2025.07132573
 20
-173.647311901
 30
0
 11
2024.89132573
 21
-173.6772843963597
 31
0
 12
2024.89132573
 22
-173.6173394056403
 32
0
 13
2024.89132573
 23
-173.6173394056403
 33
0
  0
LINE
  5
17B
100
AcDbEntity
  8
A - Cotas
  6
ByBlock
 62
    0
370
   -2
100
AcDbLine
 10
2020.25132573
 20
-173.647311901
 11
2025.07132573
 21
-173.647311901
  0
MTEXT
  5
17C
100
AcDbEntity
  8
A - Cotas
  6
CONTINUOUS
 62
    0
370
   -2
100
AcDbMText
 10
2020.07132573
 20
-173.647311901
 30
0
 40
0.18
 41
0.18
 71
    5
 72
    1
  1
10
  7
STANDARD
210
0
220
0
230
1
 50
0
 73
    2
 44
1
  0
LINE
  5
17D
100
AcDbEntity
  8
A - Cotas
  6
ByBlock
 62
    0
370
   -2
100
AcDbLine
 10
2015.07132573
 20
-167.450246
 11
2015.07132573
 21
-173.827311901
  0
LINE
  5
17E
100
AcDbEntity
  8
A - Cotas
  6
ByBlock
 62
    0
370
   -2
100
AcDbLine
 10
2025.07132573
 20
-167.450246
 11
2025.07132573
 21
-173.827311901
  0
ENDBLK
  5
9A
330
98
100
AcDbEntity
  8
0
100
AcDbBlockEnd
  0
BLOCK
  5
9C
330
9B
100
AcDbEntity
  8
0
100
AcDbBlockBegin
  2
*D12
 70
    1
 10
0
 20
0
  3
*D12
  1

  0
LINE
  5
17F
100
AcDbEntity
  8
A - Cotas
  6
ByBlock
 62
    0
370
   -2
100
AcDbLine
 10
2025.07132573
 20
-173.670535507
 11
2027.83725576
 21
-173.670535507
  0
SOLID
  5
180
100
AcDbEntity
  8
A - Cotas
  6
ByBlock
 62
    0
370
   -2
100
AcDbTrace
 10
2025.07132573
 20
-173.670535507
 30
0
 11
2025.25132573
 21
-173.6405630116404
 31
0
 12
2025.25132573
 22
-173.7005080023597
 32
0
 13
2025.25132573
 23
-173.7005080023597
 33
0
  0
SOLID
  5
181
100
AcDbEntity
  8
A - Cotas
  6
ByBlock
 62
    0
370
   -2
100
AcDbTrace
 10
2031.47318579
 20
-173.670535507
 30
0
 11
2031.29318579
 21
-173.7005080023597
 31
0
 12
2031.29318579
 22
-173.6405630116404
 32
0
 13
2031.29318579
 23
-173.6405630116404
 33
0
  0
LINE
  5
182
100
AcDbEntity
  8
A - Cotas
  6
ByBlock
 62
    0
370
   -2
100
AcDbLine
 10
2028.70725576
 20
-173.670535507
 11
2031.47318579
 21
-173.670535507
  0
MTEXT
  5
183
100
AcDbEntity
  8
A - Cotas
  6
CONTINUOUS
 62
    0
370
   -2
100
AcDbMText
 10
2028.27225576
 20
-173.670535507
 30
0
 40
0.18
 41
0.6900000000000113
 71
    5
 72
    1
  1
6,4019
  7
STANDARD
210
0
220
0
230
1
 50
0
 73
    2
 44
1
  0
LINE
  5
184
100
AcDbEntity
  8
A - Cotas
  6
ByBlock
 62
    0
370
   -2
100
AcDbLine
 10
2025.07132573
 20
-167.450246
 11
2025.07132573
 21
-173.850535507
  0
LINE
  5
185
100
AcDbEntity
  8
A - Cotas
  6
ByBlock
 62
    0
370
   -2
100
AcDbLine
 10
2031.47318579
 20
-163.450246
 11
2031.47318579
 21
-173.850535507
  0
ENDBLK
  5
9D
330
9B
100
AcDbEntity
  8
0
100
AcDbBlockEnd
  0
BLOCK
  5
9F
330
9E
100
AcDbEntity
  8
0
100
AcDbBlockBegin
  2
*D26
 70
    1
 10
0
 20
0
  3
*D26
  1

  0
LINE
  5
186
100
AcDbEntity
  8
A - Cotas
  6
ByBlock
 62
    0
370
   -2
100
AcDbLine
 10
1530.62841149
 20
178.145006343
 11
1530.62841149
 21
178.92898911
  0
SOLID
  5
187
100
AcDbEntity
  8
A - Cotas
  6
ByBlock
 62
    0
370
   -2
100
AcDbTrace
 10
1530.62841149
 20
178.145006343
 30
0
 11
1530.59843899464
 21
178.325006343
 31
0
 12
1530.65838398536
 22
178.325006343
 32
0
 13
1530.65838398536
 23
178.325006343
 33
0
  0
SOLID
  5
188
100
AcDbEntity
  8
A - Cotas
  6
ByBlock
 62
    0
370
   -2
100
AcDbTrace
 10
1530.62841149
 20
180.145006343
 30
0
 11
1530.65838398536
 21
179.965006343
 31
0
 12
1530.59843899464
 22
179.965006343
 32
0
 13
1530.59843899464
 23
179.965006343
 33
0
  0
LINE
  5
189
100
AcDbEntity
  8
A - Cotas
  6
ByBlock
 62
    0
370
   -2
100
AcDbLine
 10
1530.62841149
 20
179.28898911
 11
1530.62841149
 21
180.145006343
  0
MTEXT
  5
18A
100
AcDbEntity
  8
A - Cotas
  6
CONTINUOUS
 62
    0
370
   -2
100
AcDbMText
 10
1530.62841149
 20
179.10898911
 30
0
 40
0.18
 41
0.08
 71
    5
 72
    1
  1
2
  7
STANDARD
210
0
220
0
230
1
 50
0
 73
    2
 44
1
  0
LINE
  5
18B
100
AcDbEntity
  8
A - Cotas
  6
ByBlock
 62
    0
370
   -2
100
AcDbLine
 10
1535.06803762
 20
178.145006343
 11
1530.44841149
 21
178.145006343
  0
LINE
  5
18C
100
AcDbEntity
  8
A - Cotas
  6
ByBlock
 62
    0
370
   -2
100
AcDbLine
 10
1537.06803762
 20
180.145006343
 11
1530.44841149
 21
180.145006343
  0
ENDBLK
  5
A0
330
9E
100
AcDbEntity
  8
0
100
AcDbBlockEnd
  0
BLOCK
  5
A2
330
A1
100
AcDbEntity
  8
0
100
AcDbBlockBegin
  2
_ArchTick
 70
    0
 10
0
 20
0
  3
_ArchTick
  1

  0
LWPOLYLINE
  5
18D
100
AcDbEntity
  8
0
  6
ByBlock
 62
    0
370
   -1
100
AcDbPolyline
 90
    2
 70
    0
 43
0
 10
-0.5
 20
-0.5
 10
0.5
 20
0.5
  0
ENDBLK
  5
A3
330
A1
100
AcDbEntity
  8
0
100
AcDbBlockEnd
  0
BLOCK
  5
A5
330
A4
100
AcDbEntity
  8
0
100
AcDbBlockBegin
  2
_FILLED
 70
    0
 10
0
 20
0
  3
_FILLED
  1

  0
SOLID
  5
18E
100
AcDbEntity
  8
0
  6
ByBlock
 62
    0
370
   -1
100
AcDbTrace
 10
0
 20
0
 30
0
 11
-1
 21
0.1736111111
 31
0
 12
-1
 22
-0.1736111111
 32
0
 13
-1
 23
-0.1736111111
 33
0
  0
ENDBLK
  5
A6
330
A4
100
AcDbEntity
  8
0
100
AcDbBlockEnd
  0
BLOCK
  5
A8
330
A7
100
AcDbEntity
  8
0
100
AcDbBlockBegin
  2
E3E0148
 70
    0
 10
0
 20
0
  3
E3E0148
  1

  0
LINE
  5
18F
100
AcDbEntity
  8
0
  6
ByBlock
 62
  256
370
   -1
100
AcDbLine
 10
0
 20
7.62
 11
0
 21
0
  0
LINE
  5
190
100
AcDbEntity
  8
0
  6
ByBlock
 62
  256
370
   -1
100
AcDbLine
 10
0
 20
7.62
 11
4
 21
7.62
  0
LINE
  5
191
100
AcDbEntity
  8
0
  6
ByBlock
 62
  256
370
   -1
100
AcDbLine
 10
4
 20
7.62
 11
4
 21
0
  0
LINE
  5
192
100
AcDbEntity
  8
0
  6
ByBlock
 62
  256
370
   -1
100
AcDbLine
 10
4
 20
0
 11
0
 21
0
  0
LINE
  5
193
100
AcDbEntity
  8
0
  6
ByBlock
 62
  256
370
   -1
100
AcDbLine
 10
0
 20
5.3975
 11
4
 21
5.3975
  0
LINE
  5
194
100
AcDbEntity
  8
0
  6
ByBlock
 62
  256
370
   -1
100
AcDbLine
 10
0
 20
2.2225
 11
4
 21
2.2225
  0
ENDBLK
  5
A9
330
A7
100
AcDbEntity
  8
0
100
AcDbBlockEnd
  0
BLOCK
  5
AB
330
AA
100
AcDbEntity
  8
0
100
AcDbBlockBegin
  2
E3E0168
 70
    0
 10
0
 20
0
  3
E3E0168
  1

  0
LINE
  5
195
100
AcDbEntity
  8
0
  6
ByBlock
 62
  256
370
   -1
100
AcDbLine
 10
1
 20
7.62
 11
0
 21
7.62
  0
LINE
  5
196
100
AcDbEntity
  8
0
  6
ByBlock
 62
  256
370
   -1
100
AcDbLine
 10
0
 20
7.62
 11
0
 21
0
  0
LINE
  5
197
100
AcDbEntity
  8
0
  6
ByBlock
 62
  256
370
   -1
100
AcDbLine
 10
0
 20
0
 11
1
 21
0
  0
LINE
  5
198
100
AcDbEntity
  8
0
  6
ByBlock
 62
  256
370
   -1
100
AcDbLine
 10
1
 20
7.62
 11
1
 21
0
  0
LINE
  5
199
100
AcDbEntity
  8
0
  6
ByBlock
 62
  256
370
   -1
100
AcDbLine
 10
1
 20
5.3975
 11
0
 21
5.3975
  0
LINE
  5
19A
100
AcDbEntity
  8
0
  6
ByBlock
 62
  256
370
   -1
100
AcDbLine
 10
1
 20
2.2225
 11
0
 21
2.2225
  0
ENDBLK
  5
AC
330
AA
100
AcDbEntity
  8
0
100
AcDbBlockEnd
  0
BLOCK
  5
AE
330
AD
100
AcDbEntity
  8
0
100
AcDbBlockBegin
  2
E6901C8
 70
    0
 10
0
 20
0
  3
E6901C8
  1

  0
ENDBLK
  5
AF
330
AD
100
AcDbEntity
  8
0
100
AcDbBlockEnd
  0
BLOCK
  5
B1
330
B0
100
AcDbEntity
  8
0
100
AcDbBlockBegin
  2
E600128
 70
    0
 10
0
 20
0
  3
E600128
  1

  0
ENDBLK
  5
B2
330
B0
100
AcDbEntity
  8
0
100
AcDbBlockEnd
  0
BLOCK
  5
B4
330
B3
100
AcDbEntity
  8
0
100
AcDbBlockBegin
  2
E690188
 70
    0
 10
0
 20
0
  3
E690188
  1

  0
ENDBLK
  5
B5
330
B3
100
AcDbEntity
  8
0
100
AcDbBlockEnd
  0
BLOCK
  5
B7
330
B6
100
AcDbEntity
  8
0
100
AcDbBlockBegin
  2
E740188
 70
    0
 10
0
 20
0
  3
E740188
  1

  0
CIRCLE
  5
19B
100
AcDbEntity
  8
A - Caja
  6
ByLayer
 62
  256
370
   -1
100
AcDbCircle
 10
43.7925
 20
130.094519028
 40
1.5875
  0
CIRCLE
  5
19C
100
AcDbEntity
  8
A - Caja
  6
ByLayer
 62
  256
370
   -1
100
AcDbCircle
 10
178.4125
 20
130.094519028
 40
1.5875
  0
ARC
  5
19D
100
AcDbEntity
  8
A - Caja
  6
ByLayer
 62
  256
370
   -1
100
AcDbCircle
 10
2.54
 20
2.54
 40
2.54
100
AcDbArc
 50
180
 51
270
  0
LINE
  5
19E
100
AcDbEntity
  8
A - Caja
  6
CONTINUOUS
 62
  256
370
   -1
100
AcDbLine
 10
0
 20
2.54
 11
0
 21
285.237746
  0
LINE
  5
19F
100
AcDbEntity
  8
A - Caja
  6
CONTINUOUS
 62
  256
370
   -1
100
AcDbLine
 10
357.46
 20
0
 11
2.54
 21
0
  0
CIRCLE
  5
1A0
100
AcDbEntity
  8
A - Caja
  6
ByLayer
 62
  256
370
   -1
100
AcDbCircle
 10
282.5525
 20
130.060972972
 40
1.5875
  0
CIRCLE
  5
1A1
100
AcDbEntity
  8
A - Caja
  6
ByLayer
 62
  256
370
   -1
100
AcDbCircle
 10
43.7925
 20
130.060972972
 40
1.5875
  0
CIRCLE
  5
1A2
100
AcDbEntity
  8
A - Caja
  6
ByLayer
 62
  256
370
   -1
100
AcDbCircle
 10
43.7925
 20
241.820972972
 40
1.5875
  0
CIRCLE
  5
1A3
100
AcDbEntity
  8
A - Caja
  6
ByLayer
 62
  256
370
   -1
100
AcDbCircle
 10
178.4125
 20
241.820972972
 40
1.5875
  0
CIRCLE
  5
1A4
100
AcDbEntity
  8
A - Caja
  6
ByLayer
 62
  256
370
   -1
100
AcDbCircle
 10
304.1425
 20
211.340972972
 40
1.5875
  0
CIRCLE
  5
1A5
100
AcDbEntity
  8
A - Caja
  6
ByLayer
 62
  256
370
   -1
100
AcDbCircle
 10
333.3525
 20
173.875972972
 40
1.5875
  0
CIRCLE
  5
1A6
100
AcDbEntity
  8
A - Caja
  6
ByLayer
 62
  256
370
   -1
100
AcDbCircle
 10
333.0345
 20
239.280972972
 40
1.5875
  0
CIRCLE
  5
1A7
100
AcDbEntity
  8
A - Caja
  6
ByLayer
 62
  256
370
   -1
100
AcDbCircle
 10
333.0345
 20
262.140972972
 40
1.5875
  0
CIRCLE
  5
1A8
100
AcDbEntity
  8
A - Caja
  6
ByLayer
 62
  256
370
   -1
100
AcDbCircle
 10
254.9295
 20
262.140972972
 40
1.5875
  0
CIRCLE
  5
1A9
100
AcDbEntity
  8
A - Caja
  6
ByLayer
 62
  256
370
   -1
100
AcDbCircle
 10
254.9295
 20
239.280972972
 40
1.5875
  0
CIRCLE
  5
1AA
100
AcDbEntity
  8
A - Caja
  6
ByLayer
 62
  256
370
   -1
100
AcDbCircle
 10
178.4125
 20
130.060972972
 40
1.5875
  0
ARC
  5
1AB
100
AcDbEntity
  8
A - Caja
  6
ByLayer
 62
  256
370
   -1
100
AcDbCircle
 10
2.54
 20
285.237746
 40
2.54
100
AcDbArc
 50
90
 51
180
  0
LINE
  5
1AC
100
AcDbEntity
  8
A - Caja
  6
CONTINUOUS
 62
  256
370
   -1
100
AcDbLine
 10
357.46
 20
287.777746
 11
2.54
 21
287.777746
  0
ARC
  5
1AD
100
AcDbEntity
  8
A - Caja
  6
ByLayer
 62
  256
370
   -1
100
AcDbCircle
 10
357.46
 20
2.54
 40
2.54
100
AcDbArc
 50
270
 51
0
  0
LINE
  5
1AE
100
AcDbEntity
  8
A - Caja
  6
CONTINUOUS
 62
  256
370
   -1
100
AcDbLine
 10
360
 20
2.54
 11
360
 21
285.237746
  0
ARC
  5
1AF
100
AcDbEntity
  8
A - Caja
  6
ByLayer
 62
  256
370
   -1
100
AcDbCircle
 10
357.46
 20
285.237746
 40
2.54
100
AcDbArc
 50
0
 51
90
  0
LWPOLYLINE
  5
1B0
100
AcDbEntity
  8
A - Caja
  6
ByBlock
 62
  256
370
   -1
100
AcDbPolyline
 90
    4
 70
    1
 43
0
 10
29.975
 20
4
 10
50.025
 20
4
 10
50.025
 20
8.050000000000001
 10
29.975
 20
8.050000000000001
  0
LWPOLYLINE
  5
1B1
100
AcDbEntity
  8
A - Caja
  6
ByBlock
 62
  256
370
   -1
100
AcDbPolyline
 90
    4
 70
    1
 43
0
 10
69.97499999999999
 20
4
 10
90.02500000000001
 20
4
 10
90.02500000000001
 20
8.050000000000001
 10
69.97499999999999
 20
8.050000000000001
  0
LWPOLYLINE
  5
1B2
100
AcDbEntity
  8
A - Caja
  6
ByBlock
 62
  256
370
   -1
100
AcDbPolyline
 90
    4
 70
    1
 43
0
 10
109.975
 20
4
 10
130.025
 20
4
 10
130.025
 20
8.050000000000001
 10
109.975
 20
8.050000000000001
  0
LWPOLYLINE
  5
1B3
100
AcDbEntity
  8
A - Caja
  6
ByBlock
 62
  256
370
   -1
100
AcDbPolyline
 90
    4
 70
    1
 43
0
 10
149.975
 20
4
 10
170.025
 20
4
 10
170.025
 20
8.050000000000001
 10
149.975
 20
8.050000000000001
  0
LWPOLYLINE
  5
1B4
100
AcDbEntity
  8
A - Caja
  6
ByBlock
 62
  256
370
   -1
100
AcDbPolyline
 90
    4
 70
    1
 43
0
 10
189.975
 20
4
 10
210.025
 20
4
 10
210.025
 20
8.050000000000001
 10
189.975
 20
8.050000000000001
  0
LWPOLYLINE
  5
1B5
100
AcDbEntity
  8
A - Caja
  6
ByBlock
 62
  256
370
   -1
100
AcDbPolyline
 90
    4
 70
    1
 43
0
 10
229.975
 20
4
 10
250.025
 20
4
 10
250.025
 20
8.050000000000001
 10
229.975
 20
8.050000000000001
  0
LWPOLYLINE
  5
1B6
100
AcDbEntity
  8
A - Caja
  6
ByBlock
 62
  256
370
   -1
100
AcDbPolyline
 90
    4
 70
    1
 43
0
 10
269.975
 20
4
 10
290.025
 20
4
 10
290.025
 20
8.050000000000001
 10
269.975
 20
8.050000000000001
  0
LWPOLYLINE
  5
1B7
100
AcDbEntity
  8
A - Caja
  6
ByBlock
 62
  256
370
   -1
100
AcDbPolyline
 90
    4
 70
    1
 43
0
 10
309.975
 20
4
 10
330.025
 20
4
 10
330.025
 20
8.050000000000001
 10
309.975
 20
8.050000000000001
  0
LWPOLYLINE
  5
1B8
100
AcDbEntity
  8
A - Caja
  6
ByBlock
 62
  256
370
   -1
100
AcDbPolyline
 90
    4
 70
    1
 43
0
 10
8.050000000000001
 20
232.752746
 10
8.050000000000001
 20
252.802746
 10
4
 20
252.802746
 10
4
 20
232.752746
  0
LWPOLYLINE
  5
1B9
100
AcDbEntity
  8
A - Caja
  6
ByBlock
 62
  256
370
   -1
100
AcDbPolyline
 90
    4
 70
    1
 43
0
 10
8.050000000000001
 20
192.752746
 10
8.050000000000001
 20
212.802746
 10
4
 20
212.802746
 10
4
 20
192.752746
  0
LWPOLYLINE
  5
1BA
100
AcDbEntity
  8
A - Caja
  6
ByBlock
 62
  256
370
   -1
100
AcDbPolyline
 90
    4
 70
    1
 43
0
 10
8.050000000000001
 20
152.752746
 10
8.050000000000001
 20
172.802746
 10
4
 20
172.802746
 10
4
 20
152.752746
  0
LWPOLYLINE
  5
1BB
100
AcDbEntity
  8
A - Caja
  6
ByBlock
 62
  256
370
   -1
100
AcDbPolyline
 90
    4
 70
    1
 43
0
 10
8.050000000000001
 20
112.752746
 10
8.050000000000001
 20
132.802746
 10
4
 20
132.802746
 10
4
 20
112.752746
  0
LWPOLYLINE
  5
1BC
100
AcDbEntity
  8
A - Caja
  6
ByBlock
 62
  256
370
   -1
100
AcDbPolyline
 90
    4
 70
    1
 43
0
 10
8.050000000000001
 20
72.752746
 10
8.050000000000001
 20
92.802746
 10
4
 20
92.802746
 10
4
 20
72.752746
  0
LWPOLYLINE
  5
1BD
100
AcDbEntity
  8
A - Caja
  6
ByBlock
 62
  256
370
   -1
100
AcDbPolyline
 90
    4
 70
    1
 43
0
 10
8.050000000000001
 20
32.752746
 10
8.050000000000001
 20
52.802746
 10
4
 20
52.802746
 10
4
 20
32.752746
  0
LWPOLYLINE
  5
1BE
100
AcDbEntity
  8
A - Caja
  6
ByBlock
 62
  256
370
   -1
100
AcDbPolyline
 90
    4
 70
    1
 43
0
 10
356
 20
232.752746
 10
356
 20
252.802746
 10
351.95
 20
252.802746
 10
351.95
 20
232.752746
  0
LWPOLYLINE
  5
1BF
100
AcDbEntity
  8
A - Caja
  6
ByBlock
 62
  256
370
   -1
100
AcDbPolyline
 90
    4
 70
    1
 43
0
 10
356
 20
192.752746
 10
356
 20
212.802746
 10
351.95
 20
212.802746
 10
351.95
 20
192.752746
  0
LWPOLYLINE
  5
1C0
100
AcDbEntity
  8
A - Caja
  6
ByBlock
 62
  256
370
   -1
100
AcDbPolyline
 90
    4
 70
    1
 43
0
 10
356
 20
152.752746
 10
356
 20
172.802746
 10
351.95
 20
172.802746
 10
351.95
 20
152.752746
  0
LWPOLYLINE
  5
1C1
100
AcDbEntity
  8
A - Caja
  6
ByBlock
 62
  256
370
   -1
100
AcDbPolyline
 90
    4
 70
    1
 43
0
 10
356
 20
112.752746
 10
356
 20
132.802746
 10
351.95
 20
132.802746
 10
351.95
 20
112.752746
  0
LWPOLYLINE
  5
1C2
100
AcDbEntity
  8
A - Caja
  6
ByBlock
 62
  256
370
   -1
100
AcDbPolyline
 90
    4
 70
    1
 43
0
 10
356
 20
72.752746
 10
356
 20
92.802746
 10
351.95
 20
92.802746
 10
351.95
 20
72.752746
  0
LWPOLYLINE
  5
1C3
100
AcDbEntity
  8
A - Caja
  6
ByBlock
 62
  256
370
   -1
100
AcDbPolyline
 90
    4
 70
    1
 43
0
 10
356
 20
32.752746
 10
356
 20
52.802746
 10
351.95
 20
52.802746
 10
351.95
 20
32.752746
  0
LWPOLYLINE
  5
1C4
100
AcDbEntity
  8
A - Caja
  6
ByBlock
 62
  256
370
   -1
100
AcDbPolyline
 90
    4
 70
    1
 43
0
 10
29.975
 20
279.727746
 10
50.025
 20
279.727746
 10
50.025
 20
283.777746
 10
29.975
 20
283.777746
  0
LWPOLYLINE
  5
1C5
100
AcDbEntity
  8
A - Caja
  6
ByBlock
 62
  256
370
   -1
100
AcDbPolyline
 90
    4
 70
    1
 43
0
 10
69.97499999999999
 20
279.727746
 10
90.02500000000001
 20
279.727746
 10
90.02500000000001
 20
283.777746
 10
69.97499999999999
 20
283.777746
  0
LWPOLYLINE
  5
1C6
100
AcDbEntity
  8
A - Caja
  6
ByBlock
 62
  256
370
   -1
100
AcDbPolyline
 90
    4
 70
    1
 43
0
 10
109.975
 20
279.727746
 10
130.025
 20
279.727746
 10
130.025
 20
283.777746
 10
109.975
 20
283.777746
  0
LWPOLYLINE
  5
1C7
100
AcDbEntity
  8
A - Caja
  6
ByBlock
 62
  256
370
   -1
100
AcDbPolyline
 90
    4
 70
    1
 43
0
 10
149.975
 20
279.727746
 10
170.025
 20
279.727746
 10
170.025
 20
283.777746
 10
149.975
 20
283.777746
  0
LWPOLYLINE
  5
1C8
100
AcDbEntity
  8
A - Caja
  6
ByBlock
 62
  256
370
   -1
100
AcDbPolyline
 90
    4
 70
    1
 43
0
 10
189.975
 20
279.727746
 10
210.025
 20
279.727746
 10
210.025
 20
283.777746
 10
189.975
 20
283.777746
  0
LWPOLYLINE
  5
1C9
100
AcDbEntity
  8
A - Caja
  6
ByBlock
 62
  256
370
   -1
100
AcDbPolyline
 90
    4
 70
    1
 43
0
 10
229.975
 20
279.727746
 10
250.025
 20
279.727746
 10
250.025
 20
283.777746
 10
229.975
 20
283.777746
  0
LWPOLYLINE
  5
1CA
100
AcDbEntity
  8
A - Caja
  6
ByBlock
 62
  256
370
   -1
100
AcDbPolyline
 90
    4
 70
    1
 43
0
 10
269.975
 20
279.727746
 10
290.025
 20
279.727746
 10
290.025
 20
283.777746
 10
269.975
 20
283.777746
  0
LWPOLYLINE
  5
1CB
100
AcDbEntity
  8
A - Caja
  6
ByBlock
 62
  256
370
   -1
100
AcDbPolyline
 90
    4
 70
    1
 43
0
 10
309.975
 20
279.727746
 10
330.025
 20
279.727746
 10
330.025
 20
283.777746
 10
309.975
 20
283.777746
  0
ENDBLK
  5
B8
330
B6
100
AcDbEntity
  8
0
100
AcDbBlockEnd
  0
BLOCK
  5
BA
330
B9
100
AcDbEntity
  8
0
100
AcDbBlockBegin
  2
E740198
 70
    0
 10
0
 20
0
  3
E740198
  1

  0
LINE
  5
1CC
100
AcDbEntity
  8
A - Caja
  6
CONTINUOUS
 62
  256
370
   -1
100
AcDbLine
 10
330
 20
20.629198339
 11
360
 21
20.629198339
  0
LWPOLYLINE
  5
1CD
100
AcDbEntity
  8
A - Caja
  6
ByBlock
 62
  256
370
   -1
100
AcDbPolyline
 90
    6
 70
    0
 43
0
 10
0
 20
20.629198339
 10
30
 20
20.629198339
 10
30
 20
24.629198339
 10
50
 20
24.629198339
 10
50
 20
20.629198339
 10
70
 20
20.629198339
  0
LWPOLYLINE
  5
1CE
100
AcDbEntity
  8
A - Caja
  6
ByBlock
 62
  256
370
   -1
100
AcDbPolyline
 90
    6
 70
    0
 43
0
 10
70
 20
20.629198339
 10
70
 20
24.629198339
 10
90
 20
24.629198339
 10
90
 20
20.629198339
 10
90.25
 20
20.629198339
 10
90.25
 20
11.129198339
  0
LWPOLYLINE
  5
1CF
100
AcDbEntity
  8
A - Caja
  6
ByBlock
 62
  256
370
   -1
100
AcDbPolyline
 90
    4
 70
    0
 43
0
 10
110
 20
20.629198339
 10
110
 20
24.629198339
 10
130
 20
24.629198339
 10
130
 20
20.629198339
  0
LWPOLYLINE
  5
1D0
100
AcDbEntity
  8
A - Caja
  6
ByBlock
 62
  256
370
   -1
100
AcDbPolyline
 90
    4
 70
    0
 43
0
 10
150
 20
20.629198339
 10
150
 20
24.629198339
 10
170
 20
24.629198339
 10
170
 20
20.629198339
  0
LWPOLYLINE
  5
1D1
100
AcDbEntity
  8
A - Caja
  6
ByBlock
 62
  256
370
   -1
100
AcDbPolyline
 90
    4
 70
    0
 43
0
 10
190
 20
20.629198339
 10
190
 20
24.629198339
 10
210
 20
24.629198339
 10
210
 20
20.629198339
  0
LWPOLYLINE
  5
1D2
100
AcDbEntity
  8
A - Caja
  6
ByBlock
 62
  256
370
   -1
100
AcDbPolyline
 90
    4
 70
    0
 43
0
 10
230
 20
20.629198339
 10
230
 20
24.629198339
 10
250
 20
24.629198339
 10
250
 20
20.629198339
  0
LWPOLYLINE
  5
1D3
100
AcDbEntity
  8
A - Caja
  6
ByBlock
 62
  256
370
   -1
100
AcDbPolyline
 90
    4
 70
    0
 43
0
 10
270
 20
20.629198339
 10
270
 20
24.629198339
 10
290
 20
24.629198339
 10
290
 20
20.629198339
  0
LWPOLYLINE
  5
1D4
100
AcDbEntity
  8
A - Caja
  6
ByBlock
 62
  256
370
   -1
100
AcDbPolyline
 90
    4
 70
    0
 43
0
 10
310
 20
20.629198339
 10
310
 20
24.629198339
 10
330
 20
24.629198339
 10
330
 20
20.629198339
  0
LINE
  5
1D5
100
AcDbEntity
  8
A - Caja
  6
ByBlock
 62
  256
370
   -1
100
AcDbLine
 10
170
 20
20.629198339
 11
190
 21
20.629198339
  0
LINE
  5
1D6
100
AcDbEntity
  8
A - Caja
  6
ByBlock
 62
  256
370
   -1
100
AcDbLine
 10
210
 20
20.629198339
 11
230
 21
20.629198339
  0
LINE
  5
1D7
100
AcDbEntity
  8
A - Caja
  6
ByBlock
 62
  256
370
   -1
100
AcDbLine
 10
250
 20
20.629198339
 11
270
 21
20.629198339
  0
LINE
  5
1D8
100
AcDbEntity
  8
A - Caja
  6
ByBlock
 62
  256
370
   -1
100
AcDbLine
 10
290
 20
20.629198339
 11
310
 21
20.629198339
  0
LINE
  5
1D9
100
AcDbEntity
  8
A - Caja
  6
ByBlock
 62
  256
370
   -1
100
AcDbLine
 10
330
 20
20.629198339
 11
360
 21
20.629198339
  0
CIRCLE
  5
1DA
100
AcDbEntity
  8
A - Caja
  6
CONTINUOUS
 62
  256
370
   -1
100
AcDbCircle
 10
87.5
 20
14.379198339
 40
1.5
  0
CIRCLE
  5
1DB
100
AcDbEntity
  8
A - Caja
  6
CONTINUOUS
 62
  256
370
   -1
100
AcDbCircle
 10
112.5
 20
14.379198339
 40
1.5
  0
LINE
  5
1DC
100
AcDbEntity
  8
A - Caja
  6
CONTINUOUS
 62
  256
370
   -1
100
AcDbLine
 10
109.75
 20
20.629198339
 11
110
 21
20.629198339
  0
LINE
  5
1DD
100
AcDbEntity
  8
A - Caja
  6
ByBlock
 62
  256
370
   -1
100
AcDbLine
 10
0
 20
20.629198339
 11
0
 21
0
  0
LINE
  5
1DE
100
AcDbEntity
  8
A - Caja
  6
ByBlock
 62
  256
370
   -1
100
AcDbLine
 10
0
 20
0
 11
360
 21
0
  0
LWPOLYLINE
  5
1DF
100
AcDbEntity
  8
A - Caja
  6
ByBlock
 62
  256
370
   -1
100
AcDbPolyline
 90
    4
 70
    1
 43
0
 10
351.925
 20
15.654198339
 10
351.925
 20
5.604198339
 10
355.975
 20
5.604198339
 10
355.975
 20
15.654198339
  0
LWPOLYLINE
  5
1E0
100
AcDbEntity
  8
A - Caja
  6
ByBlock
 62
  256
370
   -1
100
AcDbPolyline
 90
    4
 70
    1
 43
0
 10
8.074999999999999
 20
15.654198339
 10
8.074999999999999
 20
5.604198339
 10
4.025
 20
5.604198339
 10
4.025
 20
15.654198339
  0
LINE
  5
1E1
100
AcDbEntity
  8
A - Caja
  6
ByBlock
 62
  256
370
   -1
100
AcDbLine
 10
360
 20
20.629198339
 11
360
 21
0
  0
LINE
  5
1E2
100
AcDbEntity
  8
A - Caja
  6
CONTINUOUS
 62
  256
370
   -1
100
AcDbLine
 10
92.25
 20
9.129198339
 11
107.75
 21
9.129198339
  0
LINE
  5
1E3
100
AcDbEntity
  8
A - Caja
  6
CONTINUOUS
 62
  256
370
   -1
100
AcDbLine
 10
109.75
 20
11.129198339
 11
109.75
 21
20.629198339
  0
ARC
  5
1E4
100
AcDbEntity
  8
A - Caja
  6
CONTINUOUS
 62
  256
370
   -1
100
AcDbCircle
 10
92.25
 20
11.129198339
 40
2
100
AcDbArc
 50
180
 51
270
  0
ARC
  5
1E5
100
AcDbEntity
  8
A - Caja
  6
CONTINUOUS
 62
  256
370
   -1
100
AcDbCircle
 10
107.75
 20
11.129198339
 40
2
100
AcDbArc
 50
270
 51
0
  0
LINE
  5
1E6
100
AcDbEntity
  8
A - Caja
  6
CONTINUOUS
 62
  256
370
   -1
100
AcDbLine
 10
130
 20
20.629198339
 11
130.25
 21
20.629198339
  0
CIRCLE
  5
1E7
100
AcDbEntity
  8
A - Caja
  6
CONTINUOUS
 62
  256
370
   -1
100
AcDbCircle
 10
127.5
 20
14.379198339
 40
1.5
  0
CIRCLE
  5
1E8
100
AcDbEntity
  8
A - Caja
  6
CONTINUOUS
 62
  256
370
   -1
100
AcDbCircle
 10
152.5
 20
14.379198339
 40
1.5
  0
LINE
  5
1E9
100
AcDbEntity
  8
A - Caja
  6
CONTINUOUS
 62
  256
370
   -1
100
AcDbLine
 10
149.75
 20
20.629198339
 11
150
 21
20.629198339
  0
LINE
  5
1EA
100
AcDbEntity
  8
A - Caja
  6
CONTINUOUS
 62
  256
370
   -1
100
AcDbLine
 10
130.25
 20
20.629198339
 11
130.25
 21
11.129198339
  0
LINE
  5
1EB
100
AcDbEntity
  8
A - Caja
  6
CONTINUOUS
 62
  256
370
   -1
100
AcDbLine
 10
132.25
 20
9.129198339
 11
147.75
 21
9.129198339
  0
LINE
  5
1EC
100
AcDbEntity
  8
A - Caja
  6
CONTINUOUS
 62
  256
370
   -1
100
AcDbLine
 10
149.75
 20
11.129198339
 11
149.75
 21
20.629198339
  0
ARC
  5
1ED
100
AcDbEntity
  8
A - Caja
  6
CONTINUOUS
 62
  256
370
   -1
100
AcDbCircle
 10
132.25
 20
11.129198339
 40
2
100
AcDbArc
 50
180
 51
270
  0
ARC
  5
1EE
100
AcDbEntity
  8
A - Caja
  6
CONTINUOUS
 62
  256
370
   -1
100
AcDbCircle
 10
147.75
 20
11.129198339
 40
2
100
AcDbArc
 50
270
 51
0
  0
ENDBLK
  5
BB
330
B9
100
AcDbEntity
  8
0
100
AcDbBlockEnd
  0
BLOCK
  5
BD
330
BC
100
AcDbEntity
  8
0
100
AcDbBlockBegin
  2
E7401D8
 70
    0
 10
0
 20
0
  3
E7401D8
  1

  0
LINE
  5
1EF
100
AcDbEntity
  8
A - Caja
  6
ByBlock
 62
  256
370
   -1
100
AcDbLine
 10
15
 20
0
 11
2
 21
0
  0
LINE
  5
1F0
100
AcDbEntity
  8
A - Caja
  6
ByBlock
 62
  256
370
   -1
100
AcDbLine
 10
0
 20
2
 11
0
 21
4
  0
LINE
  5
1F1
100
AcDbEntity
  8
A - Caja
  6
ByBlock
 62
  256
370
   -1
100
AcDbLine
 10
0
 20
8.050000000000001
 11
0
 21
8.050000000000001
  0
LINE
  5
1F2
100
AcDbEntity
  8
A - Caja
  6
ByBlock
 62
  256
370
   -1
100
AcDbLine
 10
2
 20
10.05
 11
15
 21
10.05
  0
LINE
  5
1F3
100
AcDbEntity
  8
A - Caja
  6
ByBlock
 62
  256
370
   -1
100
AcDbLine
 10
0
 20
4
 11
10
 21
4
  0
LINE
  5
1F4
100
AcDbEntity
  8
A - Caja
  6
ByBlock
 62
  256
370
   -1
100
AcDbLine
 10
10
 20
4
 11
10
 21
8.050000000000001
  0
LINE
  5
1F5
100
AcDbEntity
  8
A - Caja
  6
ByBlock
 62
  256
370
   -1
100
AcDbLine
 10
10
 20
8.050000000000001
 11
0
 21
8.050000000000001
  0
LINE
  5
1F6
100
AcDbEntity
  8
A - Caja
  6
ByBlock
 62
  256
370
   -1
100
AcDbLine
 10
20
 20
5.05
 11
20
 21
5
  0
ARC
  5
1F7
100
AcDbEntity
  8
A - Caja
  6
ByBlock
 62
  256
370
   -1
100
AcDbCircle
 10
2
 20
8.050000000000001
 40
2
100
AcDbArc
 50
90
 51
180
  0
ARC
  5
1F8
100
AcDbEntity
  8
A - Caja
  6
ByBlock
 62
  256
370
   -1
100
AcDbCircle
 10
2
 20
2
 40
2
100
AcDbArc
 50
180
 51
270
  0
ARC
  5
1F9
100
AcDbEntity
  8
A - Caja
  6
ByBlock
 62
  256
370
   -1
100
AcDbCircle
 10
15
 20
5.05
 40
5
100
AcDbArc
 50
0
 51
90
  0
ARC
  5
1FA
100
AcDbEntity
  8
A - Caja
  6
ByBlock
 62
  256
370
   -1
100
AcDbCircle
 10
15
 20
5
 40
5
100
AcDbArc
 50
270
 51
0
  0
ENDBLK
  5
BE
330
BC
100
AcDbEntity
  8
0
100
AcDbBlockEnd
  0
BLOCK
  5
C0
330
BF
100
AcDbEntity
  8
0
100
AcDbBlockBegin
  2
E7401C8
 70
    0
 10
0
 20
0
  3
E7401C8
  1

  0
CIRCLE
  5
1FB
100
AcDbEntity
  8
A - Caja
  6
ByLayer
 62
  256
370
   -1
100
AcDbCircle
 10
3.81
 20
3.81
 40
3.81
  0
CIRCLE
  5
1FC
100
AcDbEntity
  8
A - Caja
  6
ByLayer
 62
  256
370
   -1
100
AcDbCircle
 10
3.81
 20
3.81
 40
1.5875
  0
ENDBLK
  5
C1
330
BF
100
AcDbEntity
  8
0
100
AcDbBlockEnd
  0
BLOCK
  5
C3
330
C2
100
AcDbEntity
  8
0
100
AcDbBlockBegin
  2
E7401B8
 70
    0
 10
0
 20
0
  3
E7401B8
  1

  0
LINE
  5
1FD
100
AcDbEntity
  8
A - Caja
  6
CONTINUOUS
 62
  256
370
   -1
100
AcDbLine
 10
233.0225
 20
7.71475
 11
233.0225
 21
25.49475
  0
LINE
  5
1FE
100
AcDbEntity
  8
A - Caja
  6
CONTINUOUS
 62
  256
370
   -1
100
AcDbLine
 10
344.7825
 20
7.71475
 11
233.0225
 21
7.71475
  0
LINE
  5
1FF
100
AcDbEntity
  8
A - Caja
  6
CONTINUOUS
 62
  256
370
   -1
100
AcDbLine
 10
344.7825
 20
25.49475
 11
344.7825
 21
7.71475
  0
LINE
  5
200
100
AcDbEntity
  8
A - Caja
  6
CONTINUOUS
 62
  256
370
   -1
100
AcDbLine
 10
233.0225
 20
25.49475
 11
344.7825
 21
25.49475
  0
CIRCLE
  5
201
100
AcDbEntity
  8
A - Caja
  6
ByLayer
 62
  256
370
   -1
100
AcDbCircle
 10
172.0625
 20
25.336
 40
3.6195
  0
CIRCLE
  5
202
100
AcDbEntity
  8
A - Caja
  6
ByLayer
 62
  256
370
   -1
100
AcDbCircle
 10
76.8125
 20
15.4935
 40
6
  0
CIRCLE
  5
203
100
AcDbEntity
  8
A - Caja
  6
ByLayer
 62
  256
370
   -1
100
AcDbCircle
 10
127.6125
 20
15.4935
 40
6
  0
CIRCLE
  5
204
100
AcDbEntity
  8
A - Caja
  6
ByLayer
 62
  256
370
   -1
100
AcDbCircle
 10
102.2125
 20
15.176
 40
7.1
  0
CIRCLE
  5
205
100
AcDbEntity
  8
A - Caja
  6
ByLayer
 62
  256
370
   -1
100
AcDbCircle
 10
26.0125
 20
15.176
 40
5.6
  0
CIRCLE
  5
206
100
AcDbEntity
  8
A - Caja
  6
ByLayer
 62
  256
370
   -1
100
AcDbCircle
 10
51.4125
 20
18.986
 40
10.16
  0
CIRCLE
  5
207
100
AcDbEntity
  8
A - Caja
  6
ByLayer
 62
  256
370
   -1
100
AcDbCircle
 10
153.0125
 20
18.986
 40
10.165
  0
LINE
  5
208
100
AcDbEntity
  8
A - Caja
  6
CONTINUOUS
 62
  256
370
   -1
100
AcDbLine
 10
226.0375
 20
6.921
 11
181.5875
 21
6.921
  0
LINE
  5
209
100
AcDbEntity
  8
A - Caja
  6
CONTINUOUS
 62
  256
370
   -1
100
AcDbLine
 10
227.9425
 20
24.3835
 11
227.9425
 21
8.826000000000001
  0
LINE
  5
20A
100
AcDbEntity
  8
A - Caja
  6
CONTINUOUS
 62
  256
370
   -1
100
AcDbLine
 10
181.5875
 20
26.2885
 11
226.0375
 21
26.2885
  0
LINE
  5
20B
100
AcDbEntity
  8
A - Caja
  6
CONTINUOUS
 62
  256
370
   -1
100
AcDbLine
 10
179.6825
 20
8.826000000000001
 11
179.6825
 21
24.3835
  0
ARC
  5
20C
100
AcDbEntity
  8
A - Caja
  6
ByLayer
 62
  256
370
   -1
100
AcDbCircle
 10
181.5875
 20
24.3835
 40
1.905
100
AcDbArc
 50
90
 51
180
  0
ARC
  5
20D
100
AcDbEntity
  8
A - Caja
  6
ByLayer
 62
  256
370
   -1
100
AcDbCircle
 10
226.0375
 20
24.3835
 40
1.905
100
AcDbArc
 50
0
 51
90
  0
ARC
  5
20E
100
AcDbEntity
  8
A - Caja
  6
ByLayer
 62
  256
370
   -1
100
AcDbCircle
 10
226.0375
 20
8.826000000000001
 40
1.905
100
AcDbArc
 50
270
 51
0
  0
ARC
  5
20F
100
AcDbEntity
  8
A - Caja
  6
ByLayer
 62
  256
370
   -1
100
AcDbCircle
 10
181.5875
 20
8.826000000000001
 40
1.905
100
AcDbArc
 50
180
 51
270
  0
LWPOLYLINE
  5
210
100
AcDbEntity
  8
A - Caja
  6
ByBlock
 62
  256
370
   -1
100
AcDbPolyline
 90
    4
 70
    0
 43
0
 10
30
 20
4
 10
30
 20
0
 10
50
 20
0
 10
50
 20
4
  0
LWPOLYLINE
  5
211
100
AcDbEntity
  8
A - Caja
  6
ByBlock
 62
  256
370
   -1
100
AcDbPolyline
 90
    4
 70
    0
 43
0
 10
70
 20
4
 10
70
 20
0
 10
90
 20
0
 10
90
 20
4
  0
LWPOLYLINE
  5
212
100
AcDbEntity
  8
A - Caja
  6
ByBlock
 62
  256
370
   -1
100
AcDbPolyline
 90
    4
 70
    0
 43
0
 10
110
 20
4
 10
110
 20
0
 10
130
 20
0
 10
130
 20
4
  0
LWPOLYLINE
  5
213
100
AcDbEntity
  8
A - Caja
  6
ByBlock
 62
  256
370
   -1
100
AcDbPolyline
 90
    4
 70
    0
 43
0
 10
150
 20
4
 10
150
 20
0
 10
170
 20
0
 10
170
 20
4
  0
LWPOLYLINE
  5
214
100
AcDbEntity
  8
A - Caja
  6
ByBlock
 62
  256
370
   -1
100
AcDbPolyline
 90
    4
 70
    0
 43
0
 10
190
 20
4
 10
190
 20
0
 10
210
 20
0
 10
210
 20
4
  0
LWPOLYLINE
  5
215
100
AcDbEntity
  8
A - Caja
  6
ByBlock
 62
  256
370
   -1
100
AcDbPolyline
 90
    4
 70
    0
 43
0
 10
230
 20
4
 10
230
 20
0
 10
250
 20
0
 10
250
 20
4
  0
LWPOLYLINE
  5
216
100
AcDbEntity
  8
A - Caja
  6
ByBlock
 62
  256
370
   -1
100
AcDbPolyline
 90
    4
 70
    0
 43
0
 10
270
 20
4
 10
270
 20
0
 10
290
 20
0
 10
290
 20
4
  0
LWPOLYLINE
  5
217
100
AcDbEntity
  8
A - Caja
  6
ByBlock
 62
  256
370
   -1
100
AcDbPolyline
 90
    4
 70
    0
 43
0
 10
310
 20
4
 10
310
 20
0
 10
330
 20
0
 10
330
 20
4
  0
LINE
  5
218
100
AcDbEntity
  8
A - Caja
  6
ByBlock
 62
  256
370
   -1
100
AcDbLine
 10
50
 20
4
 11
70
 21
4
  0
LINE
  5
219
100
AcDbEntity
  8
A - Caja
  6
ByBlock
 62
  256
370
   -1
100
AcDbLine
 10
90
 20
4
 11
110
 21
4
  0
LINE
  5
21A
100
AcDbEntity
  8
A - Caja
  6
ByBlock
 62
  256
370
   -1
100
AcDbLine
 10
130
 20
4
 11
150
 21
4
  0
LINE
  5
21B
100
AcDbEntity
  8
A - Caja
  6
ByBlock
 62
  256
370
   -1
100
AcDbLine
 10
170
 20
4
 11
190
 21
4
  0
LINE
  5
21C
100
AcDbEntity
  8
A - Caja
  6
ByBlock
 62
  256
370
   -1
100
AcDbLine
 10
210
 20
4
 11
230
 21
4
  0
LINE
  5
21D
100
AcDbEntity
  8
A - Caja
  6
ByBlock
 62
  256
370
   -1
100
AcDbLine
 10
250
 20
4
 11
270
 21
4
  0
LINE
  5
21E
100
AcDbEntity
  8
A - Caja
  6
ByBlock
 62
  256
370
   -1
100
AcDbLine
 10
290
 20
4
 11
310
 21
4
  0
LINE
  5
21F
100
AcDbEntity
  8
A - Caja
  6
ByBlock
 62
  256
370
   -1
100
AcDbLine
 10
330
 20
4
 11
360
 21
4
  0
LINE
  5
220
100
AcDbEntity
  8
A - Caja
  6
ByBlock
 62
  256
370
   -1
100
AcDbLine
 10
360
 20
51.6
 11
360
 21
4
  0
LWPOLYLINE
  5
221
100
AcDbEntity
  8
A - Caja
  6
ByBlock
 62
  256
370
   -1
100
AcDbPolyline
 90
    4
 70
    0
 43
0
 10
30
 20
51.6
 10
30
 20
55.6
 10
50
 20
55.6
 10
50
 20
51.6
  0
LINE
  5
222
100
AcDbEntity
  8
A - Caja
  6
ByBlock
 62
  256
370
   -1
100
AcDbLine
 10
0
 20
51.6
 11
30
 21
51.6
  0
LWPOLYLINE
  5
223
100
AcDbEntity
  8
A - Caja
  6
ByBlock
 62
  256
370
   -1
100
AcDbPolyline
 90
    4
 70
    0
 43
0
 10
70
 20
51.6
 10
70
 20
55.6
 10
90
 20
55.6
 10
90
 20
51.6
  0
LWPOLYLINE
  5
224
100
AcDbEntity
  8
A - Caja
  6
ByBlock
 62
  256
370
   -1
100
AcDbPolyline
 90
    4
 70
    0
 43
0
 10
110
 20
51.6
 10
110
 20
55.6
 10
130
 20
55.6
 10
130
 20
51.6
  0
LWPOLYLINE
  5
225
100
AcDbEntity
  8
A - Caja
  6
ByBlock
 62
  256
370
   -1
100
AcDbPolyline
 90
    4
 70
    0
 43
0
 10
150
 20
51.6
 10
150
 20
55.6
 10
170
 20
55.6
 10
170
 20
51.6
  0
LWPOLYLINE
  5
226
100
AcDbEntity
  8
A - Caja
  6
ByBlock
 62
  256
370
   -1
100
AcDbPolyline
 90
    4
 70
    0
 43
0
 10
190
 20
51.6
 10
190
 20
55.6
 10
210
 20
55.6
 10
210
 20
51.6
  0
LWPOLYLINE
  5
227
100
AcDbEntity
  8
A - Caja
  6
ByBlock
 62
  256
370
   -1
100
AcDbPolyline
 90
    4
 70
    0
 43
0
 10
230
 20
51.6
 10
230
 20
55.6
 10
250
 20
55.6
 10
250
 20
51.6
  0
LWPOLYLINE
  5
228
100
AcDbEntity
  8
A - Caja
  6
ByBlock
 62
  256
370
   -1
100
AcDbPolyline
 90
    4
 70
    0
 43
0
 10
270
 20
51.6
 10
270
 20
55.6
 10
290
 20
55.6
 10
290
 20
51.6
  0
LWPOLYLINE
  5
229
100
AcDbEntity
  8
A - Caja
  6
ByBlock
 62
  256
370
   -1
100
AcDbPolyline
 90
    4
 70
    0
 43
0
 10
310
 20
51.6
 10
310
 20
55.6
 10
330
 20
55.6
 10
330
 20
51.6
  0
LINE
  5
22A
100
AcDbEntity
  8
A - Caja
  6
ByBlock
 62
  256
370
   -1
100
AcDbLine
 10
50
 20
51.6
 11
70
 21
51.6
  0
LINE
  5
22B
100
AcDbEntity
  8
A - Caja
  6
ByBlock
 62
  256
370
   -1
100
AcDbLine
 10
90
 20
51.6
 11
110
 21
51.6
  0
LINE
  5
22C
100
AcDbEntity
  8
A - Caja
  6
ByBlock
 62
  256
370
   -1
100
AcDbLine
 10
130
 20
51.6
 11
150
 21
51.6
  0
LINE
  5
22D
100
AcDbEntity
  8
A - Caja
  6
ByBlock
 62
  256
370
   -1
100
AcDbLine
 10
170
 20
51.6
 11
190
 21
51.6
  0
LINE
  5
22E
100
AcDbEntity
  8
A - Caja
  6
ByBlock
 62
  256
370
   -1
100
AcDbLine
 10
210
 20
51.6
 11
230
 21
51.6
  0
LINE
  5
22F
100
AcDbEntity
  8
A - Caja
  6
ByBlock
 62
  256
370
   -1
100
AcDbLine
 10
250
 20
51.6
 11
270
 21
51.6
  0
LINE
  5
230
100
AcDbEntity
  8
A - Caja
  6
ByBlock
 62
  256
370
   -1
100
AcDbLine
 10
290
 20
51.6
 11
310
 21
51.6
  0
LINE
  5
231
100
AcDbEntity
  8
A - Caja
  6
ByBlock
 62
  256
370
   -1
100
AcDbLine
 10
330
 20
51.6
 11
360
 21
51.6
  0
LINE
  5
232
100
AcDbEntity
  8
A - Caja
  6
ByBlock
 62
  256
370
   -1
100
AcDbLine
 10
0
 20
46.6
 11
22
 21
46.6
  0
LINE
  5
233
100
AcDbEntity
  8
A - Caja
  6
ByBlock
 62
  256
370
   -1
100
AcDbLine
 10
0
 20
51.6
 11
0
 21
46.6
  0
LINE
  5
234
100
AcDbEntity
  8
A - Caja
  6
ByBlock
 62
  256
370
   -1
100
AcDbLine
 10
0
 20
4
 11
30
 21
4
  0
LINE
  5
235
100
AcDbEntity
  8
A - Caja
  6
ByBlock
 62
  256
370
   -1
100
AcDbLine
 10
22
 20
46.6
 11
22
 21
26.55
  0
LINE
  5
236
100
AcDbEntity
  8
A - Caja
  6
ByBlock
 62
  256
370
   -1
100
AcDbLine
 10
0
 20
26.55
 11
22
 21
26.55
  0
LWPOLYLINE
  5
237
100
AcDbEntity
  8
A - Caja
  6
ByBlock
 62
  256
370
   -1
100
AcDbPolyline
 90
    4
 70
    1
 43
0
 10
356
 20
26.55
 10
356
 20
46.6
 10
351.95
 20
46.6
 10
351.95
 20
26.55
  0
LINE
  5
238
100
AcDbEntity
  8
A - Caja
  6
ByBlock
 62
  256
370
   -1
100
AcDbLine
 10
0
 20
26.55
 11
0
 21
4
  0
ENDBLK
  5
C4
330
C2
100
AcDbEntity
  8
0
100
AcDbBlockEnd
  0
BLOCK
  5
C6
330
C5
100
AcDbEntity
  8
0
100
AcDbBlockBegin
  2
E7401A8
 70
    0
 10
0
 20
0
  3
E7401A8
  1

  0
LINE
  5
239
100
AcDbEntity
  8
A - Caja
  6
CONTINUOUS
 62
  256
370
   -1
100
AcDbLine
 10
0
 20
0
 11
0
 21
17.78
  0
LINE
  5
23A
100
AcDbEntity
  8
A - Caja
  6
CONTINUOUS
 62
  256
370
   -1
100
AcDbLine
 10
111.76
 20
0
 11
0
 21
0
  0
LINE
  5
23B
100
AcDbEntity
  8
A - Caja
  6
CONTINUOUS
 62
  256
370
   -1
100
AcDbLine
 10
0
 20
17.78
 11
111.76
 21
17.78
  0
LINE
  5
23C
100
AcDbEntity
  8
A - Caja
  6
CONTINUOUS
 62
  256
370
   -1
100
AcDbLine
 10
0
 20
22.86
 11
0
 21
40.64
  0
LINE
  5
23D
100
AcDbEntity
  8
A - Caja
  6
CONTINUOUS
 62
  256
370
   -1
100
AcDbLine
 10
111.76
 20
22.86
 11
0
 21
22.86
  0
LINE
  5
23E
100
AcDbEntity
  8
A - Caja
  6
CONTINUOUS
 62
  256
370
   -1
100
AcDbLine
 10
111.76
 20
40.64
 11
111.76
 21
22.86
  0
LINE
  5
23F
100
AcDbEntity
  8
A - Caja
  6
CONTINUOUS
 62
  256
370
   -1
100
AcDbLine
 10
0
 20
40.64
 11
111.76
 21
40.64
  0
LINE
  5
240
100
AcDbEntity
  8
A - Caja
  6
CONTINUOUS
 62
  256
370
   -1
100
AcDbLine
 10
111.76
 20
17.78
 11
111.76
 21
0
  0
ENDBLK
  5
C7
330
C5
100
AcDbEntity
  8
0
100
AcDbBlockEnd
  0
BLOCK
  5
C9
330
C8
100
AcDbEntity
  8
0
100
AcDbBlockBegin
  2
test
 70
    0
 10
0
 20
0
  3
test
  1

  0
ENDBLK
  5
CA
330
C8
100
AcDbEntity
  8
0
100
AcDbBlockEnd
  0
BLOCK
  5
CC
330
CB
100
AcDbEntity
  8
0
100
AcDbBlockBegin
  2
test2
 70
    0
 10
0
 20
0
  3
test2
  1

  0
ENDBLK
  5
CD
330
CB
100
AcDbEntity
  8
0
100
AcDbBlockEnd
  0
BLOCK
  5
CF
330
CE
100
AcDbEntity
  8
0
100
AcDbBlockBegin
  2
agujero_Q
 70
    0
 10
0
 20
0
  3
agujero_Q
  1

  0
LINE
  5
241
100
AcDbEntity
  8
A - Caja
  6
ByLayer
 62
  256
370
   -1
100
AcDbLine
 10
0
 20
0
 11
4.05
 21
0
  0
LINE
  5
242
100
AcDbEntity
  8
A - Caja
  6
ByLayer
 62
  256
370
   -1
100
AcDbLine
 10
4.05
 20
0
 11
4.05
 21
20.05
  0
LINE
  5
243
100
AcDbEntity
  8
A - Caja
  6
ByLayer
 62
  256
370
   -1
100
AcDbLine
 10
4.05
 20
20.05
 11
0
 21
20.05
  0
LINE
  5
244
100
AcDbEntity
  8
A - Caja
  6
ByLayer
 62
  256
370
   -1
100
AcDbLine
 10
0
 20
20.05
 11
0
 21
0
  0
ENDBLK
  5
D0
330
CE
100
AcDbEntity
  8
0
100
AcDbBlockEnd
  0
BLOCK
  5
D2
330
D1
100
AcDbEntity
  8
0
100
AcDbBlockBegin
  2
pata1
 70
    0
 10
0
 20
0
  3
pata1
  1

  0
LINE
  5
245
100
AcDbEntity
  8
A - Caja
  6
ByLayer
 62
  256
370
   -1
100
AcDbLine
 10
0
 20
0
 11
4.05
 21
0
  0
LINE
  5
246
100
AcDbEntity
  8
A - Caja
  6
ByLayer
 62
  256
370
   -1
100
AcDbLine
 10
4.05
 20
0
 11
4.05
 21
20.05
  0
LINE
  5
247
100
AcDbEntity
  8
A - Caja
  6
ByBlock
 62
  256
370
   -1
100
AcDbLine
 10
0
 20
30.075
 11
-4.05
 21
30.075
  0
LINE
  5
248
100
AcDbEntity
  8
A - Caja
  6
ByBlock
 62
  256
370
   -1
100
AcDbLine
 10
-4.05
 20
30.075
 11
-4.05
 21
10.025
  0
LINE
  5
249
100
AcDbEntity
  8
A - Caja
  6
ByBlock
 62
  256
370
   -1
100
AcDbLine
 10
-4.05
 20
10.025
 11
0
 21
10.025
  0
LINE
  5
24A
100
AcDbEntity
  8
A - Caja
  6
ByLayer
 62
  256
370
   -1
100
AcDbLine
 10
0
 20
10.025
 11
0
 21
0
  0
LINE
  5
24B
100
AcDbEntity
  8
A - Caja
  6
ByBlock
 62
  256
370
   -1
100
AcDbLine
 10
0
 20
20.05
 11
0
 21
30.075
  0
LINE
  5
24C
100
AcDbEntity
  8
A - Caja
  6
ByLayer
 62
  256
370
   -1
100
AcDbLine
 10
4.05
 20
20.05
 11
0
 21
20.05
  0
ENDBLK
  5
D3
330
D1
100
AcDbEntity
  8
0
100
AcDbBlockEnd
  0
BLOCK
  5
D5
330
D4
100
AcDbEntity
  8
0
100
AcDbBlockBegin
  2
pata2
 70
    0
 10
0
 20
0
  3
pata2
  1

  0
LINE
  5
24D
100
AcDbEntity
  8
A - Caja
  6
ByLayer
 62
  256
370
   -1
100
AcDbLine
 10
0
 20
0
 11
4.05
 21
0
  0
LINE
  5
24E
100
AcDbEntity
  8
A - Caja
  6
ByLayer
 62
  256
370
   -1
100
AcDbLine
 10
0
 20
20.05
 11
0
 21
0
  0
LINE
  5
24F
100
AcDbEntity
  8
A - Caja
  6
ByBlock
 62
  256
370
   -1
100
AcDbLine
 10
8.1
 20
10.025
 11
8.1
 21
30.075
  0
LINE
  5
250
100
AcDbEntity
  8
A - Caja
  6
ByBlock
 62
  256
370
   -1
100
AcDbLine
 10
8.1
 20
30.075
 11
4.05
 21
30.075
  0
LINE
  5
251
100
AcDbEntity
  8
A - Caja
  6
ByBlock
 62
  256
370
   -1
100
AcDbLine
 10
4.05
 20
10.025
 11
8.1
 21
10.025
  0
LINE
  5
252
100
AcDbEntity
  8
A - Caja
  6
ByLayer
 62
  256
370
   -1
100
AcDbLine
 10
4.05
 20
0
 11
4.05
 21
10.025
  0
LINE
  5
253
100
AcDbEntity
  8
A - Caja
  6
ByBlock
 62
  256
370
   -1
100
AcDbLine
 10
4.05
 20
30.075
 11
4.05
 21
20.05
  0
LINE
  5
254
100
AcDbEntity
  8
A - Caja
  6
ByLayer
 62
  256
370
   -1
100
AcDbLine
 10
4.05
 20
20.05
 11
0
 21
20.05
  0
ENDBLK
  5
D6
330
D4
100
AcDbEntity
  8
0
100
AcDbBlockEnd
  0
BLOCK
  5
D8
330
D7
100
AcDbEntity
  8
0
100
AcDbBlockBegin
  2
pata3
 70
    0
 10
0
 20
0
  3
pata3
  1

  0
LINE
  5
255
100
AcDbEntity
  8
A - Caja
  6
ByLayer
 62
  256
370
   -1
100
AcDbLine
 10
4.05
 20
0
 11
0
 21
0
  0
LINE
  5
256
100
AcDbEntity
  8
A - Caja
  6
ByLayer
 62
  256
370
   -1
100
AcDbLine
 10
0
 20
0
 11
0
 21
-20.05
  0
LINE
  5
257
100
AcDbEntity
  8
A - Caja
  6
ByBlock
 62
  256
370
   -1
100
AcDbLine
 10
8.1
 20
-30.075
 11
8.1
 21
-10.025
  0
LINE
  5
258
100
AcDbEntity
  8
A - Caja
  6
ByBlock
 62
  256
370
   -1
100
AcDbLine
 10
4.05
 20
-30.075
 11
8.1
 21
-30.075
  0
LINE
  5
259
100
AcDbEntity
  8
A - Caja
  6
ByBlock
 62
  256
370
   -1
100
AcDbLine
 10
4.05
 20
-20.05
 11
4.05
 21
-30.075
  0
LINE
  5
25A
100
AcDbEntity
  8
A - Caja
  6
ByLayer
 62
  256
370
   -1
100
AcDbLine
 10
0
 20
-20.05
 11
4.05
 21
-20.05
  0
LINE
  5
25B
100
AcDbEntity
  8
A - Caja
  6
ByLayer
 62
  256
370
   -1
100
AcDbLine
 10
4.05
 20
-10.025
 11
4.05
 21
0
  0
LINE
  5
25C
100
AcDbEntity
  8
A - Caja
  6
ByBlock
 62
  256
370
   -1
100
AcDbLine
 10
8.1
 20
-10.025
 11
4.05
 21
-10.025
  0
ENDBLK
  5
D9
330
D7
100
AcDbEntity
  8
0
100
AcDbBlockEnd
  0
BLOCK
  5
DB
330
DA
100
AcDbEntity
  8
0
100
AcDbBlockBegin
  2
pata4
 70
    0
 10
0
 20
0
  3
pata4
  1

  0
LINE
  5
25D
100
AcDbEntity
  8
A - Caja
  6
ByLayer
 62
  256
370
   -1
100
AcDbLine
 10
0
 20
-20.05
 11
0
 21
0
  0
LINE
  5
25E
100
AcDbEntity
  8
A - Caja
  6
ByLayer
 62
  256
370
   -1
100
AcDbLine
 10
0
 20
0
 11
-4.05
 21
0
  0
LINE
  5
25F
100
AcDbEntity
  8
A - Caja
  6
ByBlock
 62
  256
370
   -1
100
AcDbLine
 10
-8.1
 20
-10.025
 11
-8.1
 21
-30.075
  0
LINE
  5
260
100
AcDbEntity
  8
A - Caja
  6
ByBlock
 62
  256
370
   -1
100
AcDbLine
 10
-8.1
 20
-30.075
 11
-4.05
 21
-30.075
  0
LINE
  5
261
100
AcDbEntity
  8
A - Caja
  6
ByLayer
 62
  256
370
   -1
100
AcDbLine
 10
-4.05
 20
0
 11
-4.05
 21
-10.025
  0
LINE
  5
262
100
AcDbEntity
  8
A - Caja
  6
ByBlock
 62
  256
370
   -1
100
AcDbLine
 10
-4.05
 20
-10.025
 11
-8.1
 21
-10.025
  0
LINE
  5
263
100
AcDbEntity
  8
A - Caja
  6
ByBlock
 62
  256
370
   -1
100
AcDbLine
 10
-4.05
 20
-30.075
 11
-4.05
 21
-20.05
  0
LINE
  5
264
100
AcDbEntity
  8
A - Caja
  6
ByLayer
 62
  256
370
   -1
100
AcDbLine
 10
-4.05
 20
-20.05
 11
0
 21
-20.05
  0
ENDBLK
  5
DC
330
DA
100
AcDbEntity
  8
0
100
AcDbBlockEnd
  0
BLOCK
  5
DE
330
DD
100
AcDbEntity
  8
0
100
AcDbBlockBegin
  2
suelo
 70
    0
 10
0
 20
0
  3
suelo
  1

  0
CIRCLE
  5
265
100
AcDbEntity
  8
A - Caja
  6
ByBlock
 62
  256
370
   -1
100
AcDbCircle
 10
41.2525
 20
130.094519028
 40
1.5875
  0
CIRCLE
  5
266
100
AcDbEntity
  8
A - Caja
  6
ByBlock
 62
  256
370
   -1
100
AcDbCircle
 10
175.8725
 20
130.094519028
 40
1.5875
  0
ARC
  5
267
100
AcDbEntity
  8
A - Caja
  6
ByBlock
 62
  256
370
   -1
100
AcDbCircle
 10
0
 20
2.54
 40
2.54
100
AcDbArc
 50
180
 51
270
  0
LINE
  5
268
100
AcDbEntity
  8
A - Caja
  6
ByBlock
 62
  256
370
   -1
100
AcDbLine
 10
-2.54
 20
2.54
 11
-2.54
 21
285.237746
  0
LINE
  5
269
100
AcDbEntity
  8
A - Caja
  6
ByBlock
 62
  256
370
   -1
100
AcDbLine
 10
354.92
 20
0
 11
0
 21
0
  0
CIRCLE
  5
26A
100
AcDbEntity
  8
A - Caja
  6
ByBlock
 62
  256
370
   -1
100
AcDbCircle
 10
280.0125
 20
130.060972972
 40
1.5875
  0
CIRCLE
  5
26B
100
AcDbEntity
  8
A - Caja
  6
ByBlock
 62
  256
370
   -1
100
AcDbCircle
 10
41.2525
 20
130.060972972
 40
1.5875
  0
CIRCLE
  5
26C
100
AcDbEntity
  8
A - Caja
  6
ByBlock
 62
  256
370
   -1
100
AcDbCircle
 10
41.2525
 20
241.820972972
 40
1.5875
  0
CIRCLE
  5
26D
100
AcDbEntity
  8
A - Caja
  6
ByBlock
 62
  256
370
   -1
100
AcDbCircle
 10
175.8725
 20
241.820972972
 40
1.5875
  0
CIRCLE
  5
26E
100
AcDbEntity
  8
A - Caja
  6
ByBlock
 62
  256
370
   -1
100
AcDbCircle
 10
301.6025
 20
211.340972972
 40
1.5875
  0
CIRCLE
  5
26F
100
AcDbEntity
  8
A - Caja
  6
ByBlock
 62
  256
370
   -1
100
AcDbCircle
 10
330.8125
 20
173.875972972
 40
1.5875
  0
CIRCLE
  5
270
100
AcDbEntity
  8
A - Caja
  6
ByBlock
 62
  256
370
   -1
100
AcDbCircle
 10
330.4945
 20
239.280972972
 40
1.5875
  0
CIRCLE
  5
271
100
AcDbEntity
  8
A - Caja
  6
ByBlock
 62
  256
370
   -1
100
AcDbCircle
 10
330.4945
 20
262.140972972
 40
1.5875
  0
CIRCLE
  5
272
100
AcDbEntity
  8
A - Caja
  6
ByBlock
 62
  256
370
   -1
100
AcDbCircle
 10
252.3895
 20
262.140972972
 40
1.5875
  0
CIRCLE
  5
273
100
AcDbEntity
  8
A - Caja
  6
ByBlock
 62
  256
370
   -1
100
AcDbCircle
 10
252.3895
 20
239.280972972
 40
1.5875
  0
CIRCLE
  5
274
100
AcDbEntity
  8
A - Caja
  6
ByBlock
 62
  256
370
   -1
100
AcDbCircle
 10
175.8725
 20
130.060972972
 40
1.5875
  0
ARC
  5
275
100
AcDbEntity
  8
A - Caja
  6
ByBlock
 62
  256
370
   -1
100
AcDbCircle
 10
0
 20
285.237746
 40
2.54
100
AcDbArc
 50
90
 51
180
  0
LINE
  5
276
100
AcDbEntity
  8
A - Caja
  6
ByBlock
 62
  256
370
   -1
100
AcDbLine
 10
354.92
 20
287.777746
 11
0
 21
287.777746
  0
ARC
  5
277
100
AcDbEntity
  8
A - Caja
  6
ByBlock
 62
  256
370
   -1
100
AcDbCircle
 10
354.92
 20
2.54
 40
2.54
100
AcDbArc
 50
270
 51
0
  0
LINE
  5
278
100
AcDbEntity
  8
A - Caja
  6
ByBlock
 62
  256
370
   -1
100
AcDbLine
 10
357.46
 20
2.54
 11
357.46
 21
285.237746
  0
ARC
  5
279
100
AcDbEntity
  8
A - Caja
  6
ByBlock
 62
  256
370
   -1
100
AcDbCircle
 10
354.92
 20
285.237746
 40
2.54
100
AcDbArc
 50
0
 51
90
  0
LWPOLYLINE
  5
27A
100
AcDbEntity
  8
A - Caja
  6
ByBlock
 62
  256
370
   -1
100
AcDbPolyline
 90
    4
 70
    1
 43
0
 10
27.435
 20
4
 10
47.485
 20
4
 10
47.485
 20
8.050000000000001
 10
27.435
 20
8.050000000000001
  0
LWPOLYLINE
  5
27B
100
AcDbEntity
  8
A - Caja
  6
ByBlock
 62
  256
370
   -1
100
AcDbPolyline
 90
    4
 70
    1
 43
0
 10
67.435
 20
4
 10
87.485
 20
4
 10
87.485
 20
8.050000000000001
 10
67.435
 20
8.050000000000001
  0
LWPOLYLINE
  5
27C
100
AcDbEntity
  8
A - Caja
  6
ByBlock
 62
  256
370
   -1
100
AcDbPolyline
 90
    4
 70
    1
 43
0
 10
107.435
 20
4
 10
127.485
 20
4
 10
127.485
 20
8.050000000000001
 10
107.435
 20
8.050000000000001
  0
LWPOLYLINE
  5
27D
100
AcDbEntity
  8
A - Caja
  6
ByBlock
 62
  256
370
   -1
100
AcDbPolyline
 90
    4
 70
    1
 43
0
 10
147.435
 20
4
 10
167.485
 20
4
 10
167.485
 20
8.050000000000001
 10
147.435
 20
8.050000000000001
  0
LWPOLYLINE
  5
27E
100
AcDbEntity
  8
A - Caja
  6
ByBlock
 62
  256
370
   -1
100
AcDbPolyline
 90
    4
 70
    1
 43
0
 10
187.435
 20
4
 10
207.485
 20
4
 10
207.485
 20
8.050000000000001
 10
187.435
 20
8.050000000000001
  0
LWPOLYLINE
  5
27F
100
AcDbEntity
  8
A - Caja
  6
ByBlock
 62
  256
370
   -1
100
AcDbPolyline
 90
    4
 70
    1
 43
0
 10
227.435
 20
4
 10
247.485
 20
4
 10
247.485
 20
8.050000000000001
 10
227.435
 20
8.050000000000001
  0
LWPOLYLINE
  5
280
100
AcDbEntity
  8
A - Caja
  6
ByBlock
 62
  256
370
   -1
100
AcDbPolyline
 90
    4
 70
    1
 43
0
 10
267.435
 20
4
 10
287.485
 20
4
 10
287.485
 20
8.050000000000001
 10
267.435
 20
8.050000000000001
  0
LWPOLYLINE
  5
281
100
AcDbEntity
  8
A - Caja
  6
ByBlock
 62
  256
370
   -1
100
AcDbPolyline
 90
    4
 70
    1
 43
0
 10
307.435
 20
4
 10
327.485
 20
4
 10
327.485
 20
8.050000000000001
 10
307.435
 20
8.050000000000001
  0
LWPOLYLINE
  5
282
100
AcDbEntity
  8
A - Caja
  6
ByBlock
 62
  256
370
   -1
100
AcDbPolyline
 90
    4
 70
    1
 43
0
 10
5.51
 20
192.752746
 10
5.51
 20
212.802746
 10
1.46
 20
212.802746
 10
1.46
 20
192.752746
  0
LWPOLYLINE
  5
283
100
AcDbEntity
  8
A - Caja
  6
ByBlock
 62
  256
370
   -1
100
AcDbPolyline
 90
    4
 70
    1
 43
0
 10
5.51
 20
152.752746
 10
5.51
 20
172.802746
 10
1.46
 20
172.802746
 10
1.46
 20
152.752746
  0
LWPOLYLINE
  5
284
100
AcDbEntity
  8
A - Caja
  6
ByBlock
 62
  256
370
   -1
100
AcDbPolyline
 90
    4
 70
    1
 43
0
 10
5.51
 20
112.752746
 10
5.51
 20
132.802746
 10
1.46
 20
132.802746
 10
1.46
 20
112.752746
  0
LWPOLYLINE
  5
285
100
AcDbEntity
  8
A - Caja
  6
ByBlock
 62
  256
370
   -1
100
AcDbPolyline
 90
    4
 70
    1
 43
0
 10
5.51
 20
72.752746
 10
5.51
 20
92.802746
 10
1.46
 20
92.802746
 10
1.46
 20
72.752746
  0
LWPOLYLINE
  5
286
100
AcDbEntity
  8
A - Caja
  6
ByBlock
 62
  256
370
   -1
100
AcDbPolyline
 90
    4
 70
    1
 43
0
 10
353.46
 20
192.752746
 10
353.46
 20
212.802746
 10
349.41
 20
212.802746
 10
349.41
 20
192.752746
  0
LWPOLYLINE
  5
287
100
AcDbEntity
  8
A - Caja
  6
ByBlock
 62
  256
370
   -1
100
AcDbPolyline
 90
    4
 70
    1
 43
0
 10
353.46
 20
152.752746
 10
353.46
 20
172.802746
 10
349.41
 20
172.802746
 10
349.41
 20
152.752746
  0
LWPOLYLINE
  5
288
100
AcDbEntity
  8
A - Caja
  6
ByBlock
 62
  256
370
   -1
100
AcDbPolyline
 90
    4
 70
    1
 43
0
 10
353.46
 20
112.752746
 10
353.46
 20
132.802746
 10
349.41
 20
132.802746
 10
349.41
 20
112.752746
  0
LWPOLYLINE
  5
289
100
AcDbEntity
  8
A - Caja
  6
ByBlock
 62
  256
370
   -1
100
AcDbPolyline
 90
    4
 70
    1
 43
0
 10
353.46
 20
72.752746
 10
353.46
 20
92.802746
 10
349.41
 20
92.802746
 10
349.41
 20
72.752746
  0
LWPOLYLINE
  5
28A
100
AcDbEntity
  8
A - Caja
  6
ByBlock
 62
  256
370
   -1
100
AcDbPolyline
 90
    4
 70
    1
 43
0
 10
27.435
 20
279.727746
 10
47.485
 20
279.727746
 10
47.485
 20
283.777746
 10
27.435
 20
283.777746
  0
LWPOLYLINE
  5
28B
100
AcDbEntity
  8
A - Caja
  6
ByBlock
 62
  256
370
   -1
100
AcDbPolyline
 90
    4
 70
    1
 43
0
 10
67.435
 20
279.727746
 10
87.485
 20
279.727746
 10
87.485
 20
283.777746
 10
67.435
 20
283.777746
  0
LWPOLYLINE
  5
28C
100
AcDbEntity
  8
A - Caja
  6
ByBlock
 62
  256
370
   -1
100
AcDbPolyline
 90
    4
 70
    1
 43
0
 10
107.435
 20
279.727746
 10
127.485
 20
279.727746
 10
127.485
 20
283.777746
 10
107.435
 20
283.777746
  0
LWPOLYLINE
  5
28D
100
AcDbEntity
  8
A - Caja
  6
ByBlock
 62
  256
370
   -1
100
AcDbPolyline
 90
    4
 70
    1
 43
0
 10
147.435
 20
279.727746
 10
167.485
 20
279.727746
 10
167.485
 20
283.777746
 10
147.435
 20
283.777746
  0
LWPOLYLINE
  5
28E
100
AcDbEntity
  8
A - Caja
  6
ByBlock
 62
  256
370
   -1
100
AcDbPolyline
 90
    4
 70
    1
 43
0
 10
187.435
 20
279.727746
 10
207.485
 20
279.727746
 10
207.485
 20
283.777746
 10
187.435
 20
283.777746
  0
LWPOLYLINE
  5
28F
100
AcDbEntity
  8
A - Caja
  6
ByBlock
 62
  256
370
   -1
100
AcDbPolyline
 90
    4
 70
    1
 43
0
 10
227.435
 20
279.727746
 10
247.485
 20
279.727746
 10
247.485
 20
283.777746
 10
227.435
 20
283.777746
  0
LWPOLYLINE
  5
290
100
AcDbEntity
  8
A - Caja
  6
ByBlock
 62
  256
370
   -1
100
AcDbPolyline
 90
    4
 70
    1
 43
0
 10
267.435
 20
279.727746
 10
287.485
 20
279.727746
 10
287.485
 20
283.777746
 10
267.435
 20
283.777746
  0
LWPOLYLINE
  5
291
100
AcDbEntity
  8
A - Caja
  6
ByBlock
 62
  256
370
   -1
100
AcDbPolyline
 90
    4
 70
    1
 43
0
 10
307.435
 20
279.727746
 10
327.485
 20
279.727746
 10
327.485
 20
283.777746
 10
307.435
 20
283.777746
  0
INSERT
  5
292
100
AcDbEntity
  8
A - Caja
  6
ByLayer
 62
  256
370
   -1
100
AcDbBlockReference
  2
pata1
 10
5.51
 20
22.727746
 30
0
 41
1
 42
1
 43
0
 50
0
 70
    1
 71
    1
 44
0
 45
0
  0
INSERT
  5
293
100
AcDbEntity
  8
A - Caja
  6
ByLayer
 62
  256
370
   -1
100
AcDbBlockReference
  2
pata2
 10
345.36
 20
22.727746
 30
0
 41
1
 42
1
 43
0
 50
0
 70
    1
 71
    1
 44
0
 45
0
  0
INSERT
  5
294
100
AcDbEntity
  8
A - Caja
  6
ByLayer
 62
  256
370
   -1
100
AcDbBlockReference
  2
pata3
 10
345.36
 20
262.827746
 30
0
 41
1
 42
1
 43
0
 50
0
 70
    1
 71
    1
 44
0
 45
0
  0
INSERT
  5
295
100
AcDbEntity
  8
A - Caja
  6
ByLayer
 62
  256
370
   -1
100
AcDbBlockReference
  2
pata4
 10
9.56
 20
262.827746
 30
0
 41
1
 42
1
 43
0
 50
0
 70
    1
 71
    1
 44
0
 45
0
  0
ENDBLK
  5
DF
330
DD
100
AcDbEntity
  8
0
100
AcDbBlockEnd
  0
ENDSEC
  0
SECTION
  2
ENTITIES
  0
LINE
  5
296
100
AcDbEntity
  8
A - Caja
  6
CONTINUOUS
 62
  256
370
   -1
100
AcDbLine
 10
1943.19232573
 20
-63.5432269718
 11
1943.19232573
 21
-101.643226972
  0
LINE
  5
297
100
AcDbEntity
  8
A - Caja
  6
CONTINUOUS
 62
  256
370
   -1
100
AcDbLine
 10
1981.29232573
 20
-63.5432269718
 11
1943.19232573
 21
-63.5432269718
  0
LINE
  5
298
100
AcDbEntity
  8
A - Caja
  6
CONTINUOUS
 62
  256
370
   -1
100
AcDbLine
 10
1981.29232573
 20
-101.643226972
 11
1981.29232573
 21
-63.5432269718
  0
LINE
  5
299
100
AcDbEntity
  8
A - Caja
  6
CONTINUOUS
 62
  256
370
   -1
100
AcDbLine
 10
1943.19232573
 20
-101.643226972
 11
1981.29232573
 21
-101.643226972
  0
LINE
  5
29A
100
AcDbEntity
  8
A - Caja
  6
CONTINUOUS
 62
  256
370
   -1
100
AcDbLine
 10
1909.85432573
 20
-158.793226972
 11
1695.54232573
 21
-158.793226972
  0
LINE
  5
29B
100
AcDbEntity
  8
A - Caja
  6
CONTINUOUS
 62
  256
370
   -1
100
AcDbLine
 10
1909.85432573
 20
-139.743226972
 11
1909.85432573
 21
-158.793226972
  0
LINE
  5
29C
100
AcDbEntity
  8
A - Caja
  6
CONTINUOUS
 62
  256
370
   -1
100
AcDbLine
 10
1924.14232573
 20
-139.743226972
 11
1909.85432573
 21
-139.743226972
  0
LINE
  5
29D
100
AcDbEntity
  8
A - Caja
  6
CONTINUOUS
 62
  256
370
   -1
100
AcDbLine
 10
1924.14232573
 20
-158.793226972
 11
1924.14232573
 21
-139.743226972
  0
LINE
  5
29E
100
AcDbEntity
  8
A - Caja
  6
CONTINUOUS
 62
  256
370
   -1
100
AcDbLine
 10
1981.29232573
 20
-158.793226972
 11
1924.14232573
 21
-158.793226972
  0
CIRCLE
  5
29F
100
AcDbEntity
  8
A - Caja
  6
ByLayer
 62
  256
370
   -1
100
AcDbCircle
 10
1967.95732573
 20
-109.931773028
 40
1.5875
  0
CIRCLE
  5
2A0
100
AcDbEntity
  8
A - Caja
  6
ByLayer
 62
  256
370
   -1
100
AcDbCircle
 10
1917.15732573
 20
-153.078226972
 40
1.5875
  0
CIRCLE
  5
2A1
100
AcDbEntity
  8
A - Caja
  6
ByLayer
 62
  256
370
   -1
100
AcDbCircle
 10
1678.39732573
 20
-153.078226972
 40
1.5875
  0
CIRCLE
  5
2A2
100
AcDbEntity
  8
A - Caja
  6
ByLayer
 62
  256
370
   -1
100
AcDbCircle
 10
1938.74732573
 20
-71.79822697180001
 40
1.5875
  0
CIRCLE
  5
2A3
100
AcDbEntity
  8
A - Caja
  6
ByLayer
 62
  256
370
   -1
100
AcDbCircle
 10
1813.01732573
 20
-41.3182269718
 40
1.5875
  0
CIRCLE
  5
2A4
100
AcDbEntity
  8
A - Caja
  6
ByLayer
 62
  256
370
   -1
100
AcDbCircle
 10
1678.39732573
 20
-41.3182269718
 40
1.5875
  0
LINE
  5
2A5
100
AcDbEntity
  8
A - Caja
  6
CONTINUOUS
 62
  256
370
   -1
100
AcDbLine
 10
1647.91732573
 20
-158.793226972
 11
1647.91732573
 21
-63.5432269718
  0
LINE
  5
2A6
100
AcDbEntity
  8
A - Caja
  6
CONTINUOUS
 62
  256
370
   -1
100
AcDbLine
 10
1671.72982573
 20
-158.793226972
 11
1647.91732573
 21
-158.793226972
  0
LINE
  5
2A7
100
AcDbEntity
  8
A - Caja
  6
CONTINUOUS
 62
  256
370
   -1
100
AcDbLine
 10
1671.72982573
 20
-139.743226972
 11
1671.72982573
 21
-158.793226972
  0
LINE
  5
2A8
100
AcDbEntity
  8
A - Caja
  6
CONTINUOUS
 62
  256
370
   -1
100
AcDbLine
 10
1695.54232573
 20
-139.743226972
 11
1671.72982573
 21
-139.743226972
  0
LINE
  5
2A9
100
AcDbEntity
  8
A - Caja
  6
CONTINUOUS
 62
  256
370
   -1
100
AcDbLine
 10
1695.54232573
 20
-158.793226972
 11
1695.54232573
 21
-139.743226972
  0
LINE
  5
2AA
100
AcDbEntity
  8
A - Caja
  6
CONTINUOUS
 62
  256
370
   -1
100
AcDbLine
 10
1981.29232573
 20
-139.743226972
 11
1981.29232573
 21
-158.793226972
  0
LINE
  5
2AB
100
AcDbEntity
  8
A - Caja
  6
CONTINUOUS
 62
  256
370
   -1
100
AcDbLine
 10
1962.24232573
 20
-139.743226972
 11
1981.29232573
 21
-139.743226972
  0
LINE
  5
2AC
100
AcDbEntity
  8
A - Caja
  6
CONTINUOUS
 62
  256
370
   -1
100
AcDbLine
 10
1962.24232573
 20
-120.693226972
 11
1962.24232573
 21
-139.743226972
  0
LINE
  5
2AD
100
AcDbEntity
  8
A - Caja
  6
CONTINUOUS
 62
  256
370
   -1
100
AcDbLine
 10
1943.19232573
 20
-120.693226972
 11
1962.24232573
 21
-120.693226972
  0
LINE
  5
2AE
100
AcDbEntity
  8
A - Caja
  6
CONTINUOUS
 62
  256
370
   -1
100
AcDbLine
 10
1943.19232573
 20
-139.743226972
 11
1943.19232573
 21
-120.693226972
  0
LINE
  5
2AF
100
AcDbEntity
  8
A - Caja
  6
CONTINUOUS
 62
  256
370
   -1
100
AcDbLine
 10
1933.66732573
 20
-139.743226972
 11
1943.19232573
 21
-139.743226972
  0
LINE
  5
2B0
100
AcDbEntity
  8
A - Caja
  6
CONTINUOUS
 62
  256
370
   -1
100
AcDbLine
 10
1933.66732573
 20
-63.5432269718
 11
1933.66732573
 21
-139.743226972
  0
LINE
  5
2B1
100
AcDbEntity
  8
A - Caja
  6
CONTINUOUS
 62
  256
370
   -1
100
AcDbLine
 10
1647.91732573
 20
-63.5432269718
 11
1933.66732573
 21
-63.5432269718
  0
LINE
  5
2B2
100
AcDbEntity
  8
A - Caja
  6
CONTINUOUS
 62
  256
370
   -1
100
AcDbLine
 10
1647.91732573
 20
-54.0182269718
 11
1666.96732573
 21
-54.0182269718
  0
LINE
  5
2B3
100
AcDbEntity
  8
A - Caja
  6
CONTINUOUS
 62
  256
370
   -1
100
AcDbLine
 10
1686.01732573
 20
-54.0182269718
 11
1686.01732573
 21
-34.9682269718
  0
LINE
  5
2B4
100
AcDbEntity
  8
A - Caja
  6
CONTINUOUS
 62
  256
370
   -1
100
AcDbLine
 10
1781.26732573
 20
-54.0182269718
 11
1686.01732573
 21
-54.0182269718
  0
LINE
  5
2B5
100
AcDbEntity
  8
A - Caja
  6
CONTINUOUS
 62
  256
370
   -1
100
AcDbLine
 10
1781.26732573
 20
-34.9682269718
 11
1781.26732573
 21
-54.0182269718
  0
LINE
  5
2B6
100
AcDbEntity
  8
A - Caja
  6
CONTINUOUS
 62
  256
370
   -1
100
AcDbLine
 10
1686.01732573
 20
-34.9682269718
 11
1781.26732573
 21
-34.9682269718
  0
LINE
  5
2B7
100
AcDbEntity
  8
A - Caja
  6
CONTINUOUS
 62
  256
370
   -1
100
AcDbLine
 10
1647.91732573
 20
-34.9682269718
 11
1647.91732573
 21
-54.0182269718
  0
LINE
  5
2B8
100
AcDbEntity
  8
A - Caja
  6
CONTINUOUS
 62
  256
370
   -1
100
AcDbLine
 10
1666.96732573
 20
-34.9682269718
 11
1647.91732573
 21
-34.9682269718
  0
LINE
  5
2B9
100
AcDbEntity
  8
A - Caja
  6
CONTINUOUS
 62
  256
370
   -1
100
AcDbLine
 10
1666.96732573
 20
-54.0182269718
 11
1666.96732573
 21
-34.9682269718
  0
CIRCLE
  5
2BA
100
AcDbEntity
  8
A - Caja
  6
ByLayer
 62
  256
370
   -1
100
AcDbCircle
 10
1678.39732573
 20
70.4082269718
 40
1.5875
  0
CIRCLE
  5
2BB
100
AcDbEntity
  8
A - Caja
  6
ByLayer
 62
  256
370
   -1
100
AcDbCircle
 10
1813.01732573
 20
70.4082269718
 40
1.5875
  0
CIRCLE
  5
2BC
100
AcDbEntity
  8
A - Caja
  6
ByLayer
 62
  256
370
   -1
100
AcDbCircle
 10
1938.74732573
 20
39.9282269718
 40
1.5875
  0
CIRCLE
  5
2BD
100
AcDbEntity
  8
A - Caja
  6
ByLayer
 62
  256
370
   -1
100
AcDbCircle
 10
1967.95732573
 20
2.46322697184
 40
1.5875
  0
ARC
  5
2BE
100
AcDbEntity
  8
A - Caja
  6
ByLayer
 62
  256
370
   -1
100
AcDbCircle
 10
1637.14482573
 20
-171.095
 40
2.54
100
AcDbArc
 50
180
 51
270
  0
LINE
  5
2BF
100
AcDbEntity
  8
A - Caja
  6
CONTINUOUS
 62
  256
370
   -1
100
AcDbLine
 10
1634.60482573
 20
-171.095
 11
1634.60482573
 21
113.825
  0
LINE
  5
2C0
100
AcDbEntity
  8
A - Caja
  6
CONTINUOUS
 62
  256
370
   -1
100
AcDbLine
 10
1992.06482573
 20
-173.635
 11
1637.14482573
 21
-173.635
  0
ARC
  5
2C1
100
AcDbEntity
  8
A - Caja
  6
ByLayer
 62
  256
370
   -1
100
AcDbCircle
 10
1637.14482573
 20
113.825
 40
2.54
100
AcDbArc
 50
90
 51
180
  0
LINE
  5
2C2
100
AcDbEntity
  8
A - Caja
  6
CONTINUOUS
 62
  256
370
   -1
100
AcDbLine
 10
1992.06482573
 20
116.365
 11
1637.14482573
 21
116.365
  0
ARC
  5
2C3
100
AcDbEntity
  8
A - Caja
  6
ByLayer
 62
  256
370
   -1
100
AcDbCircle
 10
1992.06482573
 20
-171.095
 40
2.54
100
AcDbArc
 50
270
 51
0
  0
LINE
  5
2C4
100
AcDbEntity
  8
A - Caja
  6
CONTINUOUS
 62
  256
370
   -1
100
AcDbLine
 10
1994.60482573
 20
-171.095
 11
1994.60482573
 21
113.825
  0
ARC
  5
2C5
100
AcDbEntity
  8
A - Caja
  6
ByLayer
 62
  256
370
   -1
100
AcDbCircle
 10
1992.06482573
 20
113.825
 40
2.54
100
AcDbArc
 50
0
 51
90
  0
LINE
  5
2C6
100
AcDbEntity
  8
A - Caja
  6
ByBlock
 62
  256
370
   -1
100
AcDbLine
 10
1994.60482573
 20
-28.635
 11
1634.60482573
 21
-28.635
  0
LINE
  5
2C7
100
AcDbEntity
  8
A - Caja
  6
CONTINUOUS
 62
  256
370
   -1
100
AcDbLine
 10
2010.07132573
 20
81.36499999999999
 11
2010.07132573
 21
108.315
  0
LWPOLYLINE
  5
2C8
100
AcDbEntity
  8
A - Caja
  6
ByBlock
 62
  256
370
   -1
100
AcDbPolyline
 90
    4
 70
    1
 43
0
 10
1664.57982573
 20
108.315
 10
1684.62982573
 20
108.315
 10
1684.62982573
 20
112.365
 10
1664.57982573
 20
112.365
  0
LWPOLYLINE
  5
2C9
100
AcDbEntity
  8
A - Caja
  6
ByBlock
 62
  256
370
   -1
100
AcDbPolyline
 90
    4
 70
    1
 43
0
 10
1704.57982573
 20
108.315
 10
1724.62982573
 20
108.315
 10
1724.62982573
 20
112.365
 10
1704.57982573
 20
112.365
  0
LWPOLYLINE
  5
2CA
100
AcDbEntity
  8
A - Caja
  6
ByBlock
 62
  256
370
   -1
100
AcDbPolyline
 90
    4
 70
    1
 43
0
 10
1744.57982573
 20
108.315
 10
1764.62982573
 20
108.315
 10
1764.62982573
 20
112.365
 10
1744.57982573
 20
112.365
  0
LWPOLYLINE
  5
2CB
100
AcDbEntity
  8
A - Caja
  6
ByBlock
 62
  256
370
   -1
100
AcDbPolyline
 90
    4
 70
    1
 43
0
 10
1784.57982573
 20
108.315
 10
1804.62982573
 20
108.315
 10
1804.62982573
 20
112.365
 10
1784.57982573
 20
112.365
  0
LWPOLYLINE
  5
2CC
100
AcDbEntity
  8
A - Caja
  6
ByBlock
 62
  256
370
   -1
100
AcDbPolyline
 90
    4
 70
    1
 43
0
 10
1824.57982573
 20
108.315
 10
1844.62982573
 20
108.315
 10
1844.62982573
 20
112.365
 10
1824.57982573
 20
112.365
  0
LWPOLYLINE
  5
2CD
100
AcDbEntity
  8
A - Caja
  6
ByBlock
 62
  256
370
   -1
100
AcDbPolyline
 90
    4
 70
    1
 43
0
 10
1864.57982573
 20
108.315
 10
1884.62982573
 20
108.315
 10
1884.62982573
 20
112.365
 10
1864.57982573
 20
112.365
  0
LWPOLYLINE
  5
2CE
100
AcDbEntity
  8
A - Caja
  6
ByBlock
 62
  256
370
   -1
100
AcDbPolyline
 90
    4
 70
    1
 43
0
 10
1904.57982573
 20
108.315
 10
1924.62982573
 20
108.315
 10
1924.62982573
 20
112.365
 10
1904.57982573
 20
112.365
  0
LWPOLYLINE
  5
2CF
100
AcDbEntity
  8
A - Caja
  6
ByBlock
 62
  256
370
   -1
100
AcDbPolyline
 90
    4
 70
    1
 43
0
 10
1944.57982573
 20
108.315
 10
1964.62982573
 20
108.315
 10
1964.62982573
 20
112.365
 10
1944.57982573
 20
112.365
  0
LWPOLYLINE
  5
2D0
100
AcDbEntity
  8
A - Caja
  6
ByBlock
 62
  256
370
   -1
100
AcDbPolyline
 90
    4
 70
    1
 43
0
 10
1642.65482573
 20
61.34
 10
1642.65482573
 20
81.39
 10
1638.60482573
 20
81.39
 10
1638.60482573
 20
61.34
  0
LWPOLYLINE
  5
2D1
100
AcDbEntity
  8
A - Caja
  6
ByBlock
 62
  256
370
   -1
100
AcDbPolyline
 90
    4
 70
    1
 43
0
 10
1642.65482573
 20
21.34
 10
1642.65482573
 20
41.39
 10
1638.60482573
 20
41.39
 10
1638.60482573
 20
21.34
  0
LWPOLYLINE
  5
2D2
100
AcDbEntity
  8
A - Caja
  6
ByBlock
 62
  256
370
   -1
100
AcDbPolyline
 90
    4
 70
    1
 43
0
 10
1642.65482573
 20
-18.66
 10
1642.65482573
 20
1.39
 10
1638.60482573
 20
1.39
 10
1638.60482573
 20
-18.66
  0
LWPOLYLINE
  5
2D3
100
AcDbEntity
  8
A - Caja
  6
ByBlock
 62
  256
370
   -1
100
AcDbPolyline
 90
    4
 70
    1
 43
0
 10
1642.65482573
 20
-58.66
 10
1642.65482573
 20
-38.61
 10
1638.60482573
 20
-38.61
 10
1638.60482573
 20
-58.66
  0
LWPOLYLINE
  5
2D4
100
AcDbEntity
  8
A - Caja
  6
ByBlock
 62
  256
370
   -1
100
AcDbPolyline
 90
    4
 70
    1
 43
0
 10
1642.65482573
 20
-98.66
 10
1642.65482573
 20
-78.61
 10
1638.60482573
 20
-78.61
 10
1638.60482573
 20
-98.66
  0
LWPOLYLINE
  5
2D5
100
AcDbEntity
  8
A - Caja
  6
ByBlock
 62
  256
370
   -1
100
AcDbPolyline
 90
    4
 70
    1
 43
0
 10
1642.65482573
 20
-138.66
 10
1642.65482573
 20
-118.61
 10
1638.60482573
 20
-118.61
 10
1638.60482573
 20
-138.66
  0
LWPOLYLINE
  5
2D6
100
AcDbEntity
  8
A - Caja
  6
ByBlock
 62
  256
370
   -1
100
AcDbPolyline
 90
    4
 70
    1
 43
0
 10
1990.60482573
 20
61.34
 10
1990.60482573
 20
81.39
 10
1986.55482573
 20
81.39
 10
1986.55482573
 20
61.34
  0
LWPOLYLINE
  5
2D7
100
AcDbEntity
  8
A - Caja
  6
ByBlock
 62
  256
370
   -1
100
AcDbPolyline
 90
    4
 70
    1
 43
0
 10
1990.60482573
 20
21.34
 10
1990.60482573
 20
41.39
 10
1986.55482573
 20
41.39
 10
1986.55482573
 20
21.34
  0
LWPOLYLINE
  5
2D8
100
AcDbEntity
  8
A - Caja
  6
ByBlock
 62
  256
370
   -1
100
AcDbPolyline
 90
    4
 70
    1
 43
0
 10
1990.60482573
 20
-18.66
 10
1990.60482573
 20
1.39
 10
1986.55482573
 20
1.39
 10
1986.55482573
 20
-18.66
  0
LWPOLYLINE
  5
2D9
100
AcDbEntity
  8
A - Caja
  6
ByBlock
 62
  256
370
   -1
100
AcDbPolyline
 90
    4
 70
    1
 43
0
 10
1990.60482573
 20
-58.66
 10
1990.60482573
 20
-38.61
 10
1986.55482573
 20
-38.61
 10
1986.55482573
 20
-58.66
  0
LWPOLYLINE
  5
2DA
100
AcDbEntity
  8
A - Caja
  6
ByBlock
 62
  256
370
   -1
100
AcDbPolyline
 90
    4
 70
    1
 43
0
 10
1990.60482573
 20
-98.66
 10
1990.60482573
 20
-78.61
 10
1986.55482573
 20
-78.61
 10
1986.55482573
 20
-98.66
  0
LWPOLYLINE
  5
2DB
100
AcDbEntity
  8
A - Caja
  6
ByBlock
 62
  256
370
   -1
100
AcDbPolyline
 90
    4
 70
    1
 43
0
 10
1990.60482573
 20
-138.66
 10
1990.60482573
 20
-118.61
 10
1986.55482573
 20
-118.61
 10
1986.55482573
 20
-138.66
  0
LWPOLYLINE
  5
2DC
100
AcDbEntity
  8
A - Caja
  6
ByBlock
 62
  256
370
   -1
100
AcDbPolyline
 90
    4
 70
    0
 43
0
 10
2010.07132573
 20
81.36499999999999
 10
2006.07132573
 20
81.36499999999999
 10
2006.07132573
 20
61.365
 10
2010.07132573
 20
61.365
  0
LINE
  5
2DD
100
AcDbEntity
  8
A - Caja
  6
ByBlock
 62
  256
370
   -1
100
AcDbLine
 10
2010.07132573
 20
61.365
 11
2010.07132573
 21
41.365
  0
LWPOLYLINE
  5
2DE
100
AcDbEntity
  8
A - Caja
  6
ByBlock
 62
  256
370
   -1
100
AcDbPolyline
 90
    4
 70
    0
 43
0
 10
2010.07132573
 20
41.365
 10
2006.07132573
 20
41.365
 10
2006.07132573
 20
21.365
 10
2010.07132573
 20
21.365
  0
LWPOLYLINE
  5
2DF
100
AcDbEntity
  8
A - Caja
  6
ByBlock
 62
  256
370
   -1
100
AcDbPolyline
 90
    4
 70
    0
 43
0
 10
2010.07132573
 20
1.365
 10
2006.07132573
 20
1.365
 10
2006.07132573
 20
-18.635
 10
2010.07132573
 20
-18.635
  0
LWPOLYLINE
  5
2E0
100
AcDbEntity
  8
A - Caja
  6
ByBlock
 62
  256
370
   -1
100
AcDbPolyline
 90
    4
 70
    0
 43
0
 10
2010.07132573
 20
-38.635
 10
2006.07132573
 20
-38.635
 10
2006.07132573
 20
-58.635
 10
2010.07132573
 20
-58.635
  0
LWPOLYLINE
  5
2E1
100
AcDbEntity
  8
A - Caja
  6
ByBlock
 62
  256
370
   -1
100
AcDbPolyline
 90
    4
 70
    0
 43
0
 10
2010.07132573
 20
-78.63500000000001
 10
2006.07132573
 20
-78.63500000000001
 10
2006.07132573
 20
-98.63500000000001
 10
2010.07132573
 20
-98.63500000000001
  0
LWPOLYLINE
  5
2E2
100
AcDbEntity
  8
A - Caja
  6
ByBlock
 62
  256
370
   -1
100
AcDbPolyline
 90
    4
 70
    0
 43
0
 10
2010.07132573
 20
-118.635
 10
2006.07132573
 20
-118.635
 10
2006.07132573
 20
-138.635
 10
2010.07132573
 20
-138.635
  0
LINE
  5
2E3
100
AcDbEntity
  8
A - Caja
  6
ByBlock
 62
  256
370
   -1
100
AcDbLine
 10
2057.67132573
 20
108.315
 11
2057.67132573
 21
81.36499999999999
  0
LWPOLYLINE
  5
2E4
100
AcDbEntity
  8
A - Caja
  6
ByBlock
 62
  256
370
   -1
100
AcDbPolyline
 90
    4
 70
    0
 43
0
 10
2057.67132573
 20
61.365
 10
2061.67132573
 20
61.365
 10
2061.67132573
 20
81.36499999999999
 10
2057.67132573
 20
81.36499999999999
  0
LWPOLYLINE
  5
2E5
100
AcDbEntity
  8
A - Caja
  6
ByBlock
 62
  256
370
   -1
100
AcDbPolyline
 90
    4
 70
    0
 43
0
 10
2057.67132573
 20
21.365
 10
2061.67132573
 20
21.365
 10
2061.67132573
 20
41.365
 10
2057.67132573
 20
41.365
  0
LWPOLYLINE
  5
2E6
100
AcDbEntity
  8
A - Caja
  6
ByBlock
 62
  256
370
   -1
100
AcDbPolyline
 90
    4
 70
    0
 43
0
 10
2057.67132573
 20
-18.635
 10
2061.67132573
 20
-18.635
 10
2061.67132573
 20
1.365
 10
2057.67132573
 20
1.365
  0
LINE
  5
2E7
100
AcDbEntity
  8
A - Caja
  6
ByBlock
 62
  256
370
   -1
100
AcDbLine
 10
2010.07132573
 20
21.365
 11
2010.07132573
 21
1.365
  0
LINE
  5
2E8
100
AcDbEntity
  8
A - Caja
  6
ByBlock
 62
  256
370
   -1
100
AcDbLine
 10
2010.07132573
 20
-18.635
 11
2010.07132573
 21
-38.635
  0
LINE
  5
2E9
100
AcDbEntity
  8
A - Caja
  6
ByBlock
 62
  256
370
   -1
100
AcDbLine
 10
2010.07132573
 20
-58.635
 11
2010.07132573
 21
-78.63500000000001
  0
LINE
  5
2EA
100
AcDbEntity
  8
A - Caja
  6
ByBlock
 62
  256
370
   -1
100
AcDbLine
 10
2010.07132573
 20
-98.63500000000001
 11
2010.07132573
 21
-118.635
  0
LINE
  5
2EB
100
AcDbEntity
  8
A - Caja
  6
ByBlock
 62
  256
370
   -1
100
AcDbLine
 10
2010.07132573
 20
-138.635
 11
2010.07132573
 21
-163.387746
  0
LINE
  5
2EC
100
AcDbEntity
  8
A - Caja
  6
ByBlock
 62
  256
370
   -1
100
AcDbLine
 10
2057.67132573
 20
21.365
 11
2057.67132573
 21
1.365
  0
LINE
  5
2ED
100
AcDbEntity
  8
A - Caja
  6
ByBlock
 62
  256
370
   -1
100
AcDbLine
 10
2057.67132573
 20
61.365
 11
2057.67132573
 21
41.365
  0
LINE
  5
2EE
100
AcDbEntity
  8
A - Caja
  6
ByBlock
 62
  256
370
   -1
100
AcDbLine
 10
2057.67132573
 20
-18.635
 11
2057.67132573
 21
-28.635
  0
LWPOLYLINE
  5
2EF
100
AcDbEntity
  8
A - Caja
  6
ByBlock
 62
  256
370
   -1
100
AcDbPolyline
 90
    4
 70
    0
 43
0
 10
2051.94705586
 20
-58.0838155034
 10
2055.8735646
 20
-58.8470514849
 10
2059.68974451
 20
-39.214507816
 10
2055.76323577
 20
-38.4512718345
  0
LWPOLYLINE
  5
2F0
100
AcDbEntity
  8
A - Caja
  6
ByBlock
 62
  256
370
   -1
100
AcDbPolyline
 90
    4
 70
    0
 43
0
 10
2044.31469605
 20
-97.3489028413
 10
2048.24120478
 20
-98.11213882280001
 10
2052.05738469
 20
-78.47959515389999
 10
2048.13087596
 20
-77.7163591724
  0
LINE
  5
2F1
100
AcDbEntity
  8
A - Caja
  6
ByBlock
 62
  256
370
   -1
100
AcDbLine
 10
2051.94705586
 20
-58.0838155034
 11
2048.13087596
 21
-77.7163591724
  0
LINE
  5
2F2
100
AcDbEntity
  8
A - Caja
  6
ByBlock
 62
  256
370
   -1
100
AcDbLine
 10
2057.67132573
 20
-28.635
 11
2055.76323577
 21
-38.4512718345
  0
LWPOLYLINE
  5
2F3
100
AcDbEntity
  8
A - Caja
  6
ByBlock
 62
  256
370
   -1
100
AcDbPolyline
 90
    4
 70
    0
 43
0
 10
2036.82297937
 20
-136.641328436
 10
2040.74948811
 20
-137.404564417
 10
2044.56566801
 20
-117.772020748
 10
2040.63915928
 20
-117.008784767
  0
LINE
  5
2F4
100
AcDbEntity
  8
A - Caja
  6
ByBlock
 62
  256
370
   -1
100
AcDbLine
 10
2044.45533919
 20
-97.37624109799999
 11
2040.63915928
 21
-117.008784767
  0
LINE
  5
2F5
100
AcDbEntity
  8
A - Caja
  6
ByBlock
 62
  256
370
   -1
100
AcDbLine
 10
2036.82297937
 20
-136.641328436
 11
2031.4781816
 21
-163.387746
  0
LWPOLYLINE
  5
2F6
100
AcDbEntity
  8
A - Caja
  6
ByBlock
 62
  256
370
   -1
100
AcDbPolyline
 90
    4
 70
    0
 43
0
 10
1619.13832573
 20
81.36499999999999
 10
1623.13832573
 20
81.36499999999999
 10
1623.13832573
 20
61.365
 10
1619.13832573
 20
61.365
  0
LINE
  5
2F7
100
AcDbEntity
  8
A - Caja
  6
ByBlock
 62
  256
370
   -1
100
AcDbLine
 10
1619.13832573
 20
61.365
 11
1619.13832573
 21
41.365
  0
LWPOLYLINE
  5
2F8
100
AcDbEntity
  8
A - Caja
  6
ByBlock
 62
  256
370
   -1
100
AcDbPolyline
 90
    4
 70
    0
 43
0
 10
1619.13832573
 20
41.365
 10
1623.13832573
 20
41.365
 10
1623.13832573
 20
21.365
 10
1619.13832573
 20
21.365
  0
LWPOLYLINE
  5
2F9
100
AcDbEntity
  8
A - Caja
  6
ByBlock
 62
  256
370
   -1
100
AcDbPolyline
 90
    4
 70
    0
 43
0
 10
1619.13832573
 20
1.365
 10
1623.13832573
 20
1.365
 10
1623.13832573
 20
-18.635
 10
1619.13832573
 20
-18.635
  0
LWPOLYLINE
  5
2FA
100
AcDbEntity
  8
A - Caja
  6
ByBlock
 62
  256
370
   -1
100
AcDbPolyline
 90
    4
 70
    0
 43
0
 10
1619.13832573
 20
-38.635
 10
1623.13832573
 20
-38.635
 10
1623.13832573
 20
-58.635
 10
1619.13832573
 20
-58.635
  0
LWPOLYLINE
  5
2FB
100
AcDbEntity
  8
A - Caja
  6
ByBlock
 62
  256
370
   -1
100
AcDbPolyline
 90
    4
 70
    0
 43
0
 10
1619.13832573
 20
-78.63500000000001
 10
1623.13832573
 20
-78.63500000000001
 10
1623.13832573
 20
-98.63500000000001
 10
1619.13832573
 20
-98.63500000000001
  0
LWPOLYLINE
  5
2FC
100
AcDbEntity
  8
A - Caja
  6
ByBlock
 62
  256
370
   -1
100
AcDbPolyline
 90
    4
 70
    0
 43
0
 10
1619.13832573
 20
-118.635
 10
1623.13832573
 20
-118.635
 10
1623.13832573
 20
-138.635
 10
1619.13832573
 20
-138.635
  0
LINE
  5
2FD
100
AcDbEntity
  8
A - Caja
  6
ByBlock
 62
  256
370
   -1
100
AcDbLine
 10
1571.53832573
 20
108.315
 11
1571.53832573
 21
81.36499999999999
  0
LWPOLYLINE
  5
2FE
100
AcDbEntity
  8
A - Caja
  6
ByBlock
 62
  256
370
   -1
100
AcDbPolyline
 90
    4
 70
    0
 43
0
 10
1571.53832573
 20
61.365
 10
1567.53832573
 20
61.365
 10
1567.53832573
 20
81.36499999999999
 10
1571.53832573
 20
81.36499999999999
  0
LWPOLYLINE
  5
2FF
100
AcDbEntity
  8
A - Caja
  6
ByBlock
 62
  256
370
   -1
100
AcDbPolyline
 90
    4
 70
    0
 43
0
 10
1571.53832573
 20
21.365
 10
1567.53832573
 20
21.365
 10
1567.53832573
 20
41.365
 10
1571.53832573
 20
41.365
  0
LWPOLYLINE
  5
300
100
AcDbEntity
  8
A - Caja
  6
ByBlock
 62
  256
370
   -1
100
AcDbPolyline
 90
    4
 70
    0
 43
0
 10
1571.53832573
 20
-18.635
 10
1567.53832573
 20
-18.635
 10
1567.53832573
 20
1.365
 10
1571.53832573
 20
1.365
  0
LINE
  5
301
100
AcDbEntity
  8
A - Caja
  6
ByBlock
 62
  256
370
   -1
100
AcDbLine
 10
1619.13832573
 20
21.365
 11
1619.13832573
 21
1.365
  0
LINE
  5
302
100
AcDbEntity
  8
A - Caja
  6
ByBlock
 62
  256
370
   -1
100
AcDbLine
 10
1619.13832573
 20
-18.635
 11
1619.13832573
 21
-38.635
  0
LINE
  5
303
100
AcDbEntity
  8
A - Caja
  6
ByBlock
 62
  256
370
   -1
100
AcDbLine
 10
1619.13832573
 20
-58.635
 11
1619.13832573
 21
-78.63500000000001
  0
LINE
  5
304
100
AcDbEntity
  8
A - Caja
  6
ByBlock
 62
  256
370
   -1
100
AcDbLine
 10
1619.13832573
 20
-98.63500000000001
 11
1619.13832573
 21
-118.635
  0
LINE
  5
305
100
AcDbEntity
  8
A - Caja
  6
ByBlock
 62
  256
370
   -1
100
AcDbLine
 10
1619.13832573
 20
-138.635
 11
1619.13832573
 21
-163.387746
  0
LINE
  5
306
100
AcDbEntity
  8
A - Caja
  6
ByBlock
 62
  256
370
   -1
100
AcDbLine
 10
1571.53832573
 20
21.365
 11
1571.53832573
 21
1.365
  0
LINE
  5
307
100
AcDbEntity
  8
A - Caja
  6
ByBlock
 62
  256
370
   -1
100
AcDbLine
 10
1571.53832573
 20
61.365
 11
1571.53832573
 21
41.365
  0
LINE
  5
308
100
AcDbEntity
  8
A - Caja
  6
ByBlock
 62
  256
370
   -1
100
AcDbLine
 10
1571.53832573
 20
-18.635
 11
1571.53832573
 21
-28.635
  0
LINE
  5
309
100
AcDbEntity
  8
A - Caja
  6
ByBlock
 62
  256
370
   -1
100
AcDbLine
 10
1603.42879436
 20
-163.387746
 11
1597.73646566
 21
-163.387746
  0
LWPOLYLINE
  5
30A
100
AcDbEntity
  8
A - Caja
  6
ByBlock
 62
  256
370
   -1
100
AcDbPolyline
 90
    4
 70
    0
 43
0
 10
1577.26259559
 20
-58.0838155034
 10
1573.33608685
 20
-58.8470514849
 10
1569.51990695
 20
-39.214507816
 10
1573.44641568
 20
-38.4512718345
  0
LWPOLYLINE
  5
30B
100
AcDbEntity
  8
A - Caja
  6
ByBlock
 62
  256
370
   -1
100
AcDbPolyline
 90
    4
 70
    0
 43
0
 10
1584.8949554
 20
-97.3489028413
 10
1580.96844667
 20
-98.11213882280001
 10
1577.15226676
 20
-78.47959515389999
 10
1581.07877549
 20
-77.7163591724
  0
LINE
  5
30C
100
AcDbEntity
  8
A - Caja
  6
ByBlock
 62
  256
370
   -1
100
AcDbLine
 10
1577.26259559
 20
-58.0838155034
 11
1581.07877549
 21
-77.7163591724
  0
LINE
  5
30D
100
AcDbEntity
  8
A - Caja
  6
ByBlock
 62
  256
370
   -1
100
AcDbLine
 10
1571.53832573
 20
-28.635
 11
1573.44641568
 21
-38.4512718345
  0
LWPOLYLINE
  5
30E
100
AcDbEntity
  8
A - Caja
  6
ByBlock
 62
  256
370
   -1
100
AcDbPolyline
 90
    4
 70
    0
 43
0
 10
1592.38667208
 20
-136.641328436
 10
1588.46016334
 20
-137.404564417
 10
1584.64398344
 20
-117.772020748
 10
1588.57049217
 20
-117.008784767
  0
LINE
  5
30F
100
AcDbEntity
  8
A - Caja
  6
ByBlock
 62
  256
370
   -1
100
AcDbLine
 10
1584.75431226
 20
-97.37624109799999
 11
1588.57049217
 21
-117.008784767
  0
LINE
  5
310
100
AcDbEntity
  8
A - Caja
  6
ByBlock
 62
  256
370
   -1
100
AcDbLine
 10
1592.38667208
 20
-136.641328436
 11
1597.73146985
 21
-163.387746
  0
LWPOLYLINE
  5
311
100
AcDbEntity
  8
0
  6
ByBlock
 62
  256
370
   -1
100
AcDbPolyline
 90
    4
 70
    1
 43
0
 10
1046.98874211
 20
294.892734897
 10
2405.78977966
 20
294.892734897
 10
2405.78977966
 20
-325.257738637
 10
1046.98874211
 20
-325.257738637
  0
TEXT
  5
312
100
AcDbEntity
  8
0
  6
ByBlock
 62
  256
370
   -1
100
AcDbText
 10
1053.90124739
 20
-374.632776339
 30
0
 40
30
  1
PROTOTIPO
 50
0
 41
1
 51
0
  7
standard
 71
    0
210
0
220
0
230
1
100
AcDbText
  0
LINE
  5
313
100
AcDbEntity
  8
A - Caja
  6
ByBlock
 62
  256
370
   -1
100
AcDbLine
 10
2015.07132573
 20
-163.387746
 11
2015.07132573
 21
-167.387746
  0
LINE
  5
314
100
AcDbEntity
  8
A - Caja
  6
ByBlock
 62
  256
370
   -1
100
AcDbLine
 10
2015.07132573
 20
-167.387746
 11
2025.07132573
 21
-167.387746
  0
LINE
  5
315
100
AcDbEntity
  8
A - Caja
  6
ByBlock
 62
  256
370
   -1
100
AcDbLine
 10
2025.07132573
 20
-163.387746
 11
2031.47318579
 21
-163.387746
  0
LINE
  5
316
100
AcDbEntity
  8
A - Caja
  6
ByBlock
 62
  256
370
   -1
100
AcDbLine
 10
2025.07132573
 20
-163.387746
 11
2025.07132573
 21
-167.387746
  0
LINE
  5
317
100
AcDbEntity
  8
A - Caja
  6
ByBlock
 62
  256
370
   -1
100
AcDbLine
 10
1614.13832573
 20
-167.387746
 11
1604.13832573
 21
-167.387746
  0
LINE
  5
318
100
AcDbEntity
  8
A - Caja
  6
ByBlock
 62
  256
370
   -1
100
AcDbLine
 10
1604.13832573
 20
-163.387746
 11
1597.73646567
 21
-163.387746
  0
LINE
  5
319
100
AcDbEntity
  8
A - Caja
  6
ByBlock
 62
  256
370
   -1
100
AcDbLine
 10
1604.13832573
 20
-163.387746
 11
1604.13832573
 21
-167.387746
  0
LINE
  5
31A
100
AcDbEntity
  8
A - Caja
  6
ByBlock
 62
  256
370
   -1
100
AcDbLine
 10
1619.13832573
 20
-163.387746
 11
1614.13832573
 21
-163.387746
  0
LINE
  5
31B
100
AcDbEntity
  8
A - Caja
  6
ByBlock
 62
  256
370
   -1
100
AcDbLine
 10
1614.13832573
 20
-163.387746
 11
1614.13832573
 21
-167.387746
  0
LINE
  5
31C
100
AcDbEntity
  8
A - Caja
  6
ByBlock
 62
  256
370
   -1
100
AcDbLine
 10
1619.13832573
 20
-163.387746
 11
1614.13832573
 21
-163.387746
  0
LINE
  5
31D
100
AcDbEntity
  8
A - Caja
  6
ByBlock
 62
  256
370
   -1
100
AcDbLine
 10
1613.42879436
 20
-167.387746
 11
1604.13832573
 21
-167.387746
  0
LINE
  5
31E
100
AcDbEntity
  8
A - Caja
  6
ByBlock
 62
  256
370
   -1
100
AcDbLine
 10
2015.07132573
 20
-163.387746
 11
2010.07132573
 21
-163.387746
  0
DIMENSION
  5
31F
100
AcDbEntity
  8
A - Cotas
  6
ByLayer
 62
  256
370
   -1
100
AcDbDimension
  2
*D1
 10
1560.80052245
 20
61.365
 30
0
 11
1560.80052245
 21
71.36499999999999
 31
0
 70
   32
 71
    5
 72
    0
  3
Standard
 53
0
210
0
220
0
230
1
100
AcDbAlignedDimension
 13
1567.53832573
 23
81.36499999999999
 33
0
 14
1567.53832573
 24
61.365
 34
0
 50
90
100
AcDbRotatedDimension
  0
DIMENSION
  5
320
100
AcDbEntity
  8
A - Cotas
  6
ByLayer
 62
  256
370
   -1
100
AcDbDimension
  2
*D2
 10
1553.72778987
 20
61.34
 30
0
 11
1553.72778987
 21
71.36499999999999
 31
0
 70
   32
 71
    5
 72
    0
  3
Standard
 53
0
210
0
220
0
230
1
100
AcDbAlignedDimension
 13
1533.58000524
 23
81.39
 33
0
 14
1533.58000524
 24
61.34
 34
0
 50
90
100
AcDbRotatedDimension
  0
DIMENSION
  5
321
100
AcDbEntity
  8
A - Cotas
  6
ByLayer
 62
  256
370
   -1
100
AcDbDimension
  2
*D3
 10
1553.40810236
 20
81.39
 30
0
 11
1553.40810236
 21
94.85250000000001
 31
0
 70
   32
 71
    5
 72
    0
  3
Standard
 53
0
210
0
220
0
230
1
100
AcDbAlignedDimension
 13
1507.60500524
 23
108.315
 33
0
 14
1529.53000524
 24
81.39
 34
0
 50
90
100
AcDbRotatedDimension
  0
DIMENSION
  5
322
100
AcDbEntity
  8
A - Cotas
  6
ByLayer
 62
  256
370
   -1
100
AcDbDimension
  2
*D4
 10
1567.53832573
 20
81.36499999999999
 30
0
 11
1567.53832573
 21
94.84
 31
0
 70
   32
 71
    5
 72
    0
  3
Standard
 53
0
210
0
220
0
230
1
100
AcDbAlignedDimension
 13
1571.53832573
 23
108.315
 33
0
 14
1567.53832573
 24
81.36499999999999
 34
0
 50
90
100
AcDbRotatedDimension
  0
DIMENSION
  5
323
100
AcDbEntity
  8
A - Cotas
  6
ByLayer
 62
  256
370
   -1
100
AcDbDimension
  2
*D5
 10
2010.2015466
 20
-180.34
 30
0
 11
2010.2015466
 21
-182.8275
 31
0
 70
   32
 71
    5
 72
    0
  3
Standard
 53
0
210
0
220
0
230
1
100
AcDbAlignedDimension
 13
1990.57982573
 23
-185.315
 33
0
 14
1994.60482573
 24
-180.34
 34
0
 50
90
100
AcDbRotatedDimension
  0
DIMENSION
  5
324
100
AcDbEntity
  8
A - Cotas
  6
ByLayer
 62
  256
370
   -1
100
AcDbDimension
  2
*D6
 10
2009.93254027
 20
-200.969198339
 30
0
 11
2009.93254027
 21
-198.16709917
 31
0
 70
   32
 71
    5
 72
    0
  3
Standard
 53
0
210
0
220
0
230
1
100
AcDbAlignedDimension
 13
1990.57982573
 23
-195.365
 33
0
 14
1994.60482573
 24
-200.969198339
 34
0
 50
90
100
AcDbRotatedDimension
  0
DIMENSION
  5
325
100
AcDbEntity
  8
A - Cotas
  6
ByLayer
 62
  256
370
   -1
100
AcDbDimension
  2
*D7
 10
1579.48102375
 20
81.36499999999999
 30
0
 11
1579.48102375
 21
31.365
 31
0
 70
   32
 71
    5
 72
    0
  3
Standard
 53
0
210
0
220
0
230
1
100
AcDbAlignedDimension
 13
1571.53832573
 23
-18.635
 33
0
 14
1571.53832573
 24
81.36499999999999
 34
0
 50
90
100
AcDbRotatedDimension
  0
DIMENSION
  5
326
100
AcDbEntity
  8
A - Cotas
  6
ByLayer
 62
  256
370
   -1
100
AcDbDimension
  2
*D8
 10
1589.78609616
 20
-18.66
 30
0
 11
1589.78609616
 21
31.365
 31
0
 70
   32
 71
    5
 72
    0
  3
Standard
 53
0
210
0
220
0
230
1
100
AcDbAlignedDimension
 13
1642.65482573
 23
81.39
 33
0
 14
1642.65482573
 24
-18.66
 34
0
 50
90
100
AcDbRotatedDimension
  0
DIMENSION
  5
327
100
AcDbEntity
  8
A - Cotas
  6
ByLayer
 62
  256
370
   -1
100
AcDbDimension
  2
*D9
 10
2015.07132573
 20
-171.389645116
 30
0
 11
2012.57132573
 21
-171.389645116
 31
0
 70
   32
 71
    5
  3
Standard
 53
0
210
0
220
0
230
1
100
AcDbAlignedDimension
 13
2010.07132573
 23
-163.387746
 33
0
 14
2015.07132573
 24
-167.387746
 34
0
100
AcDbRotatedDimension
  0
DIMENSION
  5
328
100
AcDbEntity
  8
A - Cotas
  6
ByLayer
 62
  256
370
   -1
100
AcDbDimension
  2
*D10
 10
2009.97558128
 20
-185.315
 30
0
 11
2009.97558128
 21
-190.34
 31
0
 70
   32
 71
    5
  3
Standard
 53
0
210
0
220
0
230
1
100
AcDbAlignedDimension
 13
1990.57982573
 23
-195.365
 33
0
 14
1990.57982573
 24
-185.315
 34
0
 50
90
100
AcDbRotatedDimension
  0
DIMENSION
  5
329
100
AcDbEntity
  8
A - Cotas
  6
ByLayer
 62
  256
370
   -1
100
AcDbDimension
  2
*D11
 10
2025.07132573
 20
-173.647311901
 30
0
 11
2020.07132573
 21
-173.647311901
 31
0
 70
   32
 71
    5
  3
Standard
 53
0
210
0
220
0
230
1
100
AcDbAlignedDimension
 13
2015.07132573
 23
-167.387746
 33
0
 14
2025.07132573
 24
-167.387746
 34
0
100
AcDbRotatedDimension
  0
DIMENSION
  5
32A
100
AcDbEntity
  8
A - Cotas
  6
ByLayer
 62
  256
370
   -1
100
AcDbDimension
  2
*D12
 10
2031.47318579
 20
-173.670535507
 30
0
 11
2028.27225576
 21
-173.670535507
 31
0
 70
   32
 71
    5
  3
Standard
 53
0
210
0
220
0
230
1
100
AcDbAlignedDimension
 13
2025.07132573
 23
-167.387746
 33
0
 14
2031.47318579
 24
-163.387746
 34
0
100
AcDbRotatedDimension
  0
CIRCLE
  5
32B
100
AcDbEntity
  8
A - Caja
  6
ByLayer
 62
  256
370
   -1
100
AcDbCircle
 10
1858.72732573
 20
-45.1482269718
 40
1.5875
  0
DIMENSION
  5
32C
100
AcDbEntity
  8
A - Cotas
  6
ByLayer
 62
  256
370
   -1
100
AcDbDimension
  2
*D13
 10
1625.36108828
 20
180.29
 30
0
 11
1625.36108828
 21
182.79
 31
0
 70
   32
 71
    5
 72
    0
  3
Standard
 53
0
210
0
220
0
230
1
100
AcDbAlignedDimension
 13
1634.60482573
 23
185.29
 33
0
 14
1634.60482573
 24
180.29
 34
0
 50
90
100
AcDbRotatedDimension
  0
LINE
  5
32D
100
AcDbEntity
  8
A - Caja
  6
ByBlock
 62
  256
370
   -1
100
AcDbLine
 10
1576.58832573
 20
108.315
 11
1571.53832573
 21
108.315
  0
LINE
  5
32E
100
AcDbEntity
  8
A - Caja
  6
ByBlock
 62
  256
370
   -1
100
AcDbLine
 10
1576.58832573
 20
112.315
 11
1576.58832573
 21
108.315
  0
LINE
  5
32F
100
AcDbEntity
  8
A - Caja
  6
CONTINUOUS
 62
  256
370
   -1
100
AcDbLine
 10
1619.13832573
 20
81.36499999999999
 11
1619.13832573
 21
108.315
  0
LINE
  5
330
100
AcDbEntity
  8
A - Cotas
  6
ByLayer
 62
  256
370
   -1
100
AcDbLine
 10
1576.58832573
 20
112.315
 11
1596.58832573
 21
112.315
  0
LINE
  5
331
100
AcDbEntity
  8
A - Caja
  6
ByBlock
 62
  256
370
   -1
100
AcDbLine
 10
1596.58832573
 20
112.315
 11
1576.58832573
 21
112.315
  0
LINE
  5
332
100
AcDbEntity
  8
A - Caja
  6
ByBlock
 62
  256
370
   -1
100
AcDbLine
 10
1619.13832573
 20
108.315
 11
1596.58832573
 21
108.315
  0
LINE
  5
333
100
AcDbEntity
  8
A - Caja
  6
ByBlock
 62
  256
370
   -1
100
AcDbLine
 10
1596.58832573
 20
112.315
 11
1596.58832573
 21
108.315
  0
LINE
  5
334
100
AcDbEntity
  8
A - Caja
  6
ByBlock
 62
  256
370
   -1
100
AcDbLine
 10
2052.62132573
 20
108.315
 11
2057.67132573
 21
108.315
  0
LINE
  5
335
100
AcDbEntity
  8
A - Caja
  6
ByBlock
 62
  256
370
   -1
100
AcDbLine
 10
2052.62132573
 20
112.315
 11
2052.62132573
 21
108.315
  0
LINE
  5
336
100
AcDbEntity
  8
A - Caja
  6
ByBlock
 62
  256
370
   -1
100
AcDbLine
 10
2032.62132573
 20
112.315
 11
2052.62132573
 21
112.315
  0
LINE
  5
337
100
AcDbEntity
  8
A - Caja
  6
ByBlock
 62
  256
370
   -1
100
AcDbLine
 10
2010.07132573
 20
108.315
 11
2032.62132573
 21
108.315
  0
LINE
  5
338
100
AcDbEntity
  8
A - Caja
  6
ByBlock
 62
  256
370
   -1
100
AcDbLine
 10
2032.62132573
 20
112.315
 11
2032.62132573
 21
108.315
  0
DIMENSION
  5
339
100
AcDbEntity
  8
A - Cotas
  6
ByLayer
 62
  256
370
   -1
100
AcDbDimension
  2
*D14
 10
2052.62132573
 20
119.190497797
 30
0
 11
2042.62132573
 21
119.190497797
 31
0
 70
   32
 71
    5
 72
    0
  3
Standard
 53
0
210
0
220
0
230
1
100
AcDbAlignedDimension
 13
2032.62132573
 23
112.315
 33
0
 14
2052.62132573
 24
112.315
 34
0
100
AcDbRotatedDimension
  0
DIMENSION
  5
33A
100
AcDbEntity
  8
A - Cotas
  6
ByLayer
 62
  256
370
   -1
100
AcDbDimension
  2
*D15
 10
2016.73917645
 20
160.24
 30
0
 11
2016.73917645
 21
170.265
 31
0
 70
   32
 71
    5
 72
    0
  3
Standard
 53
0
210
0
220
0
230
1
100
AcDbAlignedDimension
 13
1990.60482573
 23
180.29
 33
0
 14
1990.60482573
 24
160.24
 34
0
 50
90
100
AcDbRotatedDimension
  0
DIMENSION
  5
33B
100
AcDbEntity
  8
A - Cotas
  6
ByLayer
 62
  256
370
   -1
100
AcDbDimension
  2
*D16
 10
1813.01732573
 20
43.0668790868
 30
0
 11
1745.70732573
 21
43.0668790868
 31
0
 70
   32
 71
    5
  3
Standard
 53
0
210
0
220
0
230
1
100
AcDbAlignedDimension
 13
1678.39732573
 23
70.4082269718
 33
0
 14
1813.01732573
 24
70.4082269718
 34
0
100
AcDbRotatedDimension
  0
DIMENSION
  5
33C
100
AcDbEntity
  8
A - Cotas
  6
ByLayer
 62
  256
370
   -1
100
AcDbDimension
  2
*D17
 10
1625.36118029
 20
180.29
 30
0
 11
1625.36118029
 21
170.265
 31
0
 70
   33
 71
    5
 72
    0
  3
Standard
 53
0
210
0
220
0
230
1
100
AcDbAlignedDimension
 13
1634.60482573
 23
160.24
 33
0
 14
1634.60482573
 24
180.29
 34
0
  0
DIMENSION
  5
33D
100
AcDbEntity
  8
A - Cotas
  6
ByLayer
 62
  256
370
   -1
100
AcDbDimension
  2
*D18
 10
1596.58832573
 20
117.093488908
 30
0
 11
1586.58832573
 21
117.093488908
 31
0
 70
   33
 71
    5
 72
    0
  3
Standard
 53
0
210
0
220
0
230
1
100
AcDbAlignedDimension
 13
1576.58832573
 23
112.315
 33
0
 14
1596.58832573
 24
112.315
 34
0
  0
DIMENSION
  5
33E
100
AcDbEntity
  8
A - Cotas
  6
ByBlock
 62
    1
370
   -1
100
AcDbDimension
  2
*D19
 10
1550.13053762
 20
175.145006343
 30
0
 11
1549.25678077
 21
176.480652412
 31
0
 70
   36
 71
    5
  3
Standard
 53
0
210
0
220
0
230
1
100
AcDbRadialDimension
 15
1553.70009269
 25
178.64618851
 35
0
 40
0
  0
DIMENSION
  5
33F
100
AcDbEntity
  8
A - Cotas
  6
ByBlock
 62
    1
370
   -1
100
AcDbDimension
  2
*D20
 10
1550.13053762
 20
175.095006343
 30
0
 11
1550.04542092
 21
173.129036247
 31
0
 70
   36
 71
    5
  3
Standard
 53
0
210
0
220
0
230
1
100
AcDbRadialDimension
 15
1553.32364693
 25
171.247402816
 35
0
 40
0
  0
DIMENSION
  5
340
100
AcDbEntity
  8
A - Cotas
  6
ByBlock
 62
    1
370
   -1
100
AcDbDimension
  2
*D21
 10
1537.13053762
 20
178.145006343
 30
0
 11
1538.60654341
 21
178.464509618
 31
0
 70
   36
 71
    5
  3
Standard
 53
0
210
0
220
0
230
1
100
AcDbRadialDimension
 15
1535.92723324
 25
179.74252272
 35
0
 40
0
  0
DIMENSION
  5
341
100
AcDbEntity
  8
A - Cotas
  6
ByBlock
 62
    1
370
   -1
100
AcDbDimension
  2
*D22
 10
1537.13053762
 20
172.095006343
 30
0
 11
1538.64508518
 21
171.749828319
 31
0
 70
   36
 71
    5
  3
Standard
 53
0
210
0
220
0
230
1
100
AcDbRadialDimension
 15
1536.1199421
 25
170.369116225
 35
0
 40
0
  0
DIMENSION
  5
342
100
AcDbEntity
  8
A - Cotas
  6
ByBlock
 62
    1
370
   -1
100
AcDbDimension
  2
*D23
 10
1555.13053762
 20
166.359274812
 30
0
 11
1545.13053762
 21
166.359274812
 31
0
 70
   32
 71
    5
  3
Standard
 53
0
210
0
220
0
230
1
100
AcDbAlignedDimension
 13
1535.13053762
 23
172.095006343
 33
0
 14
1555.13053762
 24
175.095006343
 34
0
100
AcDbRotatedDimension
  0
DIMENSION
  5
343
100
AcDbEntity
  8
A - Cotas
  6
ByBlock
 62
    1
370
   -1
100
AcDbDimension
  2
*D24
 10
1530.62841149
 20
174.095006343
 30
0
 11
1530.62841149
 21
171.845006343
 31
0
 70
   32
 71
    5
  3
Standard
 53
0
210
0
220
0
230
1
100
AcDbAlignedDimension
 13
1537.13053762
 23
170.095006343
 33
0
 14
1535.13053762
 24
174.095006343
 34
0
 50
90
100
AcDbRotatedDimension
  0
DIMENSION
  5
344
100
AcDbEntity
  8
A - Cotas
  6
ByBlock
 62
    1
370
   -1
100
AcDbDimension
  2
*D25
 10
1530.62841149
 20
178.145006343
 30
0
 11
1530.62841149
 21
175.845006343
 31
0
 70
   32
 71
    5
  3
Standard
 53
0
210
0
220
0
230
1
100
AcDbAlignedDimension
 13
1535.13053762
 23
174.095006343
 33
0
 14
1535.13053762
 24
178.145006343
 34
0
 50
90
100
AcDbRotatedDimension
  0
DIMENSION
  5
345
100
AcDbEntity
  8
A - Cotas
  6
ByBlock
 62
    1
370
   -1
100
AcDbDimension
  2
*D26
 10
1530.62841149
 20
180.145006343
 30
0
 11
1530.62841149
 21
179.10898911
 31
0
 70
   32
 71
    5
  3
Standard
 53
0
210
0
220
0
230
1
100
AcDbAlignedDimension
 13
1535.13053762
 23
178.145006343
 33
0
 14
1537.13053762
 24
180.145006343
 34
0
 50
90
100
AcDbRotatedDimension
  0
DIMENSION
  5
346
100
AcDbEntity
  8
A - Cotas
  6
ByBlock
 62
    1
370
   -1
100
AcDbDimension
  2
*D27
 10
1558.85910202
 20
170.095006343
 30
0
 11
1558.85910202
 21
175.269347428
 31
0
 70
   32
 71
    5
  3
Standard
 53
0
210
0
220
0
230
1
100
AcDbAlignedDimension
 13
1550.13053762
 23
180.145006343
 33
0
 14
1550.13053762
 24
170.095006343
 34
0
 50
90
100
AcDbRotatedDimension
  0
INSERT
  5
347
100
AcDbEntity
  8
A - Caja
  6
ByBlock
 62
  256
370
   -1
100
AcDbBlockReference
  2
E740198
 10
1634.60482573
 20
-200.969198339
 30
0
 41
1
 42
1
 43
0
 50
0
 70
    1
 71
    1
 44
0
 45
0
  0
INSERT
  5
348
100
AcDbEntity
  8
A - Caja
  6
ByBlock
 62
  256
370
   -1
100
AcDbBlockReference
  2
E7401D8
 10
1843.21608875
 20
-90.4437995246
 30
0
 41
1
 42
1
 43
0
 50
0
 70
    1
 71
    1
 44
0
 45
0
  0
INSERT
  5
349
100
AcDbEntity
  8
A - Caja
  6
ByBlock
 62
  256
370
   -1
100
AcDbBlockReference
  2
E7401C8
 10
1759.86514643
 20
-90.7451873313
 30
0
 41
1
 42
1
 43
0
 50
0
 70
    1
 71
    1
 44
0
 45
0
  0
INSERT
  5
34A
100
AcDbEntity
  8
A - Caja
  6
ByBlock
 62
  256
370
   -1
100
AcDbBlockReference
  2
E7401C8
 10
1759.86514643
 20
-103.445187331
 30
0
 41
1
 42
1
 43
0
 50
0
 70
    1
 71
    1
 44
0
 45
0
  0
INSERT
  5
34B
100
AcDbEntity
  8
A - Caja
  6
ByBlock
 62
  256
370
   -1
100
AcDbBlockReference
  2
E7401C8
 10
1759.86514643
 20
-116.145187331
 30
0
 41
1
 42
1
 43
0
 50
0
 70
    1
 71
    1
 44
0
 45
0
  0
INSERT
  5
34C
100
AcDbEntity
  8
A - Caja
  6
ByBlock
 62
  256
370
   -1
100
AcDbBlockReference
  2
E7401C8
 10
1759.86514643
 20
-128.845187331
 30
0
 41
1
 42
1
 43
0
 50
0
 70
    1
 71
    1
 44
0
 45
0
  0
INSERT
  5
34D
100
AcDbEntity
  8
A - Caja
  6
ByBlock
 62
  256
370
   -1
100
AcDbBlockReference
  2
E7401C8
 10
1772.56514643
 20
-90.7451873313
 30
0
 41
1
 42
1
 43
0
 50
0
 70
    1
 71
    1
 44
0
 45
0
  0
INSERT
  5
34E
100
AcDbEntity
  8
A - Caja
  6
ByBlock
 62
  256
370
   -1
100
AcDbBlockReference
  2
E7401C8
 10
1772.56514643
 20
-103.445187331
 30
0
 41
1
 42
1
 43
0
 50
0
 70
    1
 71
    1
 44
0
 45
0
  0
INSERT
  5
34F
100
AcDbEntity
  8
A - Caja
  6
ByBlock
 62
  256
370
   -1
100
AcDbBlockReference
  2
E7401C8
 10
1772.56514643
 20
-116.145187331
 30
0
 41
1
 42
1
 43
0
 50
0
 70
    1
 71
    1
 44
0
 45
0
  0
INSERT
  5
350
100
AcDbEntity
  8
A - Caja
  6
ByBlock
 62
  256
370
   -1
100
AcDbBlockReference
  2
E7401C8
 10
1772.56514643
 20
-128.845187331
 30
0
 41
1
 42
1
 43
0
 50
0
 70
    1
 71
    1
 44
0
 45
0
  0
INSERT
  5
351
100
AcDbEntity
  8
A - Caja
  6
ByBlock
 62
  256
370
   -1
100
AcDbBlockReference
  2
E7401C8
 10
1785.26514643
 20
-90.7451873313
 30
0
 41
1
 42
1
 43
0
 50
0
 70
    1
 71
    1
 44
0
 45
0
  0
INSERT
  5
352
100
AcDbEntity
  8
A - Caja
  6
ByBlock
 62
  256
370
   -1
100
AcDbBlockReference
  2
E7401C8
 10
1785.26514643
 20
-103.445187331
 30
0
 41
1
 42
1
 43
0
 50
0
 70
    1
 71
    1
 44
0
 45
0
  0
INSERT
  5
353
100
AcDbEntity
  8
A - Caja
  6
ByBlock
 62
  256
370
   -1
100
AcDbBlockReference
  2
E7401C8
 10
1785.26514643
 20
-116.145187331
 30
0
 41
1
 42
1
 43
0
 50
0
 70
    1
 71
    1
 44
0
 45
0
  0
INSERT
  5
354
100
AcDbEntity
  8
A - Caja
  6
ByBlock
 62
  256
370
   -1
100
AcDbBlockReference
  2
E7401C8
 10
1785.26514643
 20
-128.845187331
 30
0
 41
1
 42
1
 43
0
 50
0
 70
    1
 71
    1
 44
0
 45
0
  0
INSERT
  5
355
100
AcDbEntity
  8
A - Caja
  6
ByBlock
 62
  256
370
   -1
100
AcDbBlockReference
  2
E7401C8
 10
1797.96514643
 20
-90.7451873313
 30
0
 41
1
 42
1
 43
0
 50
0
 70
    1
 71
    1
 44
0
 45
0
  0
INSERT
  5
356
100
AcDbEntity
  8
A - Caja
  6
ByBlock
 62
  256
370
   -1
100
AcDbBlockReference
  2
E7401C8
 10
1797.96514643
 20
-103.445187331
 30
0
 41
1
 42
1
 43
0
 50
0
 70
    1
 71
    1
 44
0
 45
0
  0
INSERT
  5
357
100
AcDbEntity
  8
A - Caja
  6
ByBlock
 62
  256
370
   -1
100
AcDbBlockReference
  2
E7401C8
 10
1797.96514643
 20
-116.145187331
 30
0
 41
1
 42
1
 43
0
 50
0
 70
    1
 71
    1
 44
0
 45
0
  0
INSERT
  5
358
100
AcDbEntity
  8
A - Caja
  6
ByBlock
 62
  256
370
   -1
100
AcDbBlockReference
  2
E7401C8
 10
1797.96514643
 20
-128.845187331
 30
0
 41
1
 42
1
 43
0
 50
0
 70
    1
 71
    1
 44
0
 45
0
  0
INSERT
  5
359
100
AcDbEntity
  8
A - Caja
  6
ByBlock
 62
  256
370
   -1
100
AcDbBlockReference
  2
E7401C8
 10
1810.66514643
 20
-90.7451873313
 30
0
 41
1
 42
1
 43
0
 50
0
 70
    1
 71
    1
 44
0
 45
0
  0
INSERT
  5
35A
100
AcDbEntity
  8
A - Caja
  6
ByBlock
 62
  256
370
   -1
100
AcDbBlockReference
  2
E7401C8
 10
1810.66514643
 20
-103.445187331
 30
0
 41
1
 42
1
 43
0
 50
0
 70
    1
 71
    1
 44
0
 45
0
  0
INSERT
  5
35B
100
AcDbEntity
  8
A - Caja
  6
ByBlock
 62
  256
370
   -1
100
AcDbBlockReference
  2
E7401C8
 10
1810.66514643
 20
-116.145187331
 30
0
 41
1
 42
1
 43
0
 50
0
 70
    1
 71
    1
 44
0
 45
0
  0
INSERT
  5
35C
100
AcDbEntity
  8
A - Caja
  6
ByBlock
 62
  256
370
   -1
100
AcDbBlockReference
  2
E7401C8
 10
1810.66514643
 20
-128.845187331
 30
0
 41
1
 42
1
 43
0
 50
0
 70
    1
 71
    1
 44
0
 45
0
  0
INSERT
  5
35D
100
AcDbEntity
  8
A - Caja
  6
ByBlock
 62
  256
370
   -1
100
AcDbBlockReference
  2
E7401D8
 10
1843.21608875
 20
-105.901670959
 30
0
 41
1
 42
1
 43
0
 50
0
 70
    1
 71
    1
 44
0
 45
0
  0
INSERT
  5
35E
100
AcDbEntity
  8
A - Caja
  6
ByBlock
 62
  256
370
   -1
100
AcDbBlockReference
  2
E7401D8
 10
1843.21608875
 20
-121.359542393
 30
0
 41
1
 42
1
 43
0
 50
0
 70
    1
 71
    1
 44
0
 45
0
  0
INSERT
  5
35F
100
AcDbEntity
  8
A - Caja
  6
ByBlock
 62
  256
370
   -1
100
AcDbBlockReference
  2
E7401D8
 10
1870.36161907
 20
-90.4437995246
 30
0
 41
1
 42
1
 43
0
 50
0
 70
    1
 71
    1
 44
0
 45
0
  0
INSERT
  5
360
100
AcDbEntity
  8
A - Caja
  6
ByBlock
 62
  256
370
   -1
100
AcDbBlockReference
  2
E7401D8
 10
1870.36161907
 20
-105.901670959
 30
0
 41
1
 42
1
 43
0
 50
0
 70
    1
 71
    1
 44
0
 45
0
  0
INSERT
  5
361
100
AcDbEntity
  8
A - Caja
  6
ByBlock
 62
  256
370
   -1
100
AcDbBlockReference
  2
E7401D8
 10
1870.36161907
 20
-121.359542393
 30
0
 41
1
 42
1
 43
0
 50
0
 70
    1
 71
    1
 44
0
 45
0
  0
INSERT
  5
362
100
AcDbEntity
  8
A - Caja
  6
ByBlock
 62
  256
370
   -1
100
AcDbBlockReference
  2
E7401B8
 10
1634.60482573
 20
133.69
 30
0
 41
1
 42
1
 43
0
 50
0
 70
    1
 71
    1
 44
0
 45
0
  0
INSERT
  5
363
100
AcDbEntity
  8
A - Caja
  6
ByBlock
 62
  256
370
   -1
100
AcDbBlockReference
  2
E7401A8
 10
1867.62732573
 20
58.9782269718
 30
0
 41
1
 42
1
 43
0
 50
0
 70
    1
 71
    1
 44
0
 45
0
  0
TEXT
  5
364
100
AcDbEntity
  8
0
  6
ByBlock
 62
  256
370
   -1
100
AcDbText
 10
1314.88440826
 20
-374.632776339
 30
0
 40
30
  1
r09d 21/10/2020
 50
0
 41
1
 51
0
  7
standard
 71
    0
210
0
220
0
230
1
100
AcDbText
  0
INSERT
  5
365
100
AcDbEntity
  8
A - Caja
  6
ByLayer
 62
  256
370
   -1
100
AcDbBlockReference
  2
suelo
 10
1180.12000524
 20
-171.412746
 30
0
 41
1
 42
1
 43
0
 50
0
 70
    1
 71
    1
 44
0
 45
0
  0
ENDSEC
  0
SECTION
  2
OBJECTS
  0
DICTIONARY
  5
C
330
0
100
AcDbDictionary
281
    1
  3
ACAD_GROUP
350
D
  0
DICTIONARY
  5
D
330
C
100
AcDbDictionary
281
    1
  0
ENDSEC
  0
EOF
