999
dxfrw 0.6.3
  0
SECTION
  2
HEADER
  9
$ACADVER
  1
AC1021
  9
$DWGCODEPAGE
  3
ANSI_1252
  9
$INSBASE
 10
0
 20
0
 30
0
  9
$EXTMIN
 10
0
 20
-214.757
 30
0
  9
$EXTMAX
 10
358.775
 20
42.037
 30
0
  9
$LIMMIN
 10
0
 20
0
  9
$LIMMAX
 10
420
 20
297
  9
$ORTHOMODE
 70
    0
  9
$REGENMODE
 70
    1
  9
$FILLMODE
 70
    1
  9
$QTEXTMODE
 70
    0
  9
$MIRRTEXT
 70
    0
  9
$LTSCALE
 40
1
  9
$ATTMODE
 70
    0
  9
$TEXTSIZE
 40
2.5
  9
$TRACEWID
 40
15.68
  9
$TEXTSTYLE
  7
STANDARD
  9
$CLAYER
  8
0
  9
$CELTYPE
  6
BYLAYER
  9
$CECOLOR
 62
  256
  9
$CELTSCALE
 40
1
  9
$DISPSILH
 70
    0
  9
$DIMSCALE
 40
1
  9
$DIMASZ
 40
2.5
  9
$DIMEXO
 40
0.625
  9
$DIMDLI
 40
3.75
  9
$DIMRND
 40
0
  9
$DIMDLE
 40
0
  9
$DIMEXE
 40
1.25
  9
$DIMTP
 40
0
  9
$DIMTM
 40
0
  9
$DIMTXT
 40
2.5
  9
$DIMCEN
 40
2.5
  9
$DIMTSZ
 40
0
  9
$DIMTOL
 70
    0
  9
$DIMLIM
 70
    0
  9
$DIMTIH
 70
    0
  9
$DIMTOH
 70
    0
  9
$DIMSE1
 70
    0
  9
$DIMSE2
 70
    0
  9
$DIMTAD
 70
    1
  9
$DIMZIN
 70
    8
  9
$DIMBLK
  1

  9
$DIMASO
 70
    1
  9
$DIMSHO
 70
    1
  9
$DIMPOST
  1

  9
$DIMAPOST
  1

  9
$DIMALT
 70
    0
  9
$DIMALTD
 70
    3
  9
$DIMALTF
 40
0.03937
  9
$DIMLFAC
 40
1
  9
$DIMTOFL
 70
    1
  9
$DIMTVP
 40
0
  9
$DIMTIX
 70
    0
  9
$DIMSOXD
 70
    0
  9
$DIMSAH
 70
    0
  9
$DIMBLK1
  1

  9
$DIMBLK2
  1

  9
$DIMSTYLE
  2
Standard
  9
$DIMCLRD
 70
    0
  9
$DIMCLRE
 70
    0
  9
$DIMCLRT
 70
    0
  9
$DIMTFAC
 40
1
  9
$DIMGAP
 40
0.625
  9
$DIMJUST
 70
    0
  9
$DIMSD1
 70
    0
  9
$DIMSD2
 70
    0
  9
$DIMTOLJ
 70
    0
  9
$DIMTZIN
 70
    8
  9
$DIMALTZ
 70
    0
  9
$DIMALTTZ
 70
    0
  9
$DIMUPT
 70
    0
  9
$DIMDEC
 70
    2
  9
$DIMTDEC
 70
    2
  9
$DIMALTU
 70
    2
  9
$DIMALTTD
 70
    3
  9
$DIMTXSTY
  7
STANDARD
  9
$DIMAUNIT
 70
    0
  9
$DIMADEC
 70
    0
  9
$DIMALTRND
 40
0
  9
$DIMAZIN
 70
    0
  9
$DIMDSEP
 70
   44
  9
$DIMATFIT
 70
    3
  9
$DIMFRAC
 70
    0
  9
$DIMLDRBLK
  1
STANDARD
  9
$DIMLUNIT
 70
    2
  9
$DIMLWD
 70
   -2
  9
$DIMLWE
 70
   -2
  9
$DIMTMOVE
 70
    0
  9
$DIMFXL
 40
1
  9
$DIMFXLON
 70
    0
  9
$DIMJOGANG
 40
0.7854
  9
$DIMTFILL
 70
    0
  9
$DIMTFILLCLR
 70
    0
  9
$DIMARCSYM
 70
    0
  9
$DIMLTYPE
  6

  9
$DIMLTEX1
  6

  9
$DIMLTEX2
  6

  9
$LUNITS
 70
    2
  9
$LUPREC
 70
    4
  9
$SKETCHINC
 40
1
  9
$FILLETRAD
 40
0
  9
$AUNITS
 70
    0
  9
$AUPREC
 70
    2
  9
$MENU
  1
.
  9
$ELEVATION
 40
0
  9
$PELEVATION
 40
0
  9
$THICKNESS
 40
0
  9
$LIMCHECK
 70
    0
  9
$CHAMFERA
 40
0
  9
$CHAMFERB
 40
0
  9
$CHAMFERC
 40
0
  9
$CHAMFERD
 40
0
  9
$SKPOLY
 70
    0
  9
$USRTIMER
 70
    1
  9
$ANGBASE
 50
0
  9
$ANGDIR
 70
    1
  9
$PDMODE
 70
   34
  9
$PDSIZE
 40
0
  9
$PLINEWID
 40
0
  9
$SPLFRAME
 70
    0
  9
$SPLINETYPE
 70
    2
  9
$SPLINESEGS
 70
    8
  9
$HANDSEED
  5
20000
  9
$SURFTAB1
 70
    6
  9
$SURFTAB2
 70
    6
  9
$SURFTYPE
 70
    6
  9
$SURFU
 70
    6
  9
$SURFV
 70
    6
  9
$UCSBASE
  2

  9
$UCSNAME
  2

  9
$UCSORG
 10
0
 20
0
 30
0
  9
$UCSXDIR
 10
1
 20
0
 30
0
  9
$UCSYDIR
 10
0
 20
1
 30
0
  9
$UCSORTHOREF
  2

  9
$UCSORTHOVIEW
 70
    0
  9
$UCSORGTOP
 10
0
 20
0
 30
0
  9
$UCSORGBOTTOM
 10
0
 20
0
 30
0
  9
$UCSORGLEFT
 10
0
 20
0
 30
0
  9
$UCSORGRIGHT
 10
0
 20
0
 30
0
  9
$UCSORGFRONT
 10
0
 20
0
 30
0
  9
$UCSORGBACK
 10
0
 20
0
 30
0
  9
$PUCSBASE
  2

  9
$PUCSNAME
  2

  9
$PUCSORG
 10
0
 20
0
 30
0
  9
$PUCSXDIR
 10
1
 20
0
 30
0
  9
$PUCSYDIR
 10
0
 20
1
 30
0
  9
$PUCSORTHOREF
  2

  9
$PUCSORTHOVIEW
 70
    0
  9
$PUCSORGTOP
 10
0
 20
0
 30
0
  9
$PUCSORGBOTTOM
 10
0
 20
0
 30
0
  9
$PUCSORGLEFT
 10
0
 20
0
 30
0
  9
$PUCSORGRIGHT
 10
0
 20
0
 30
0
  9
$PUCSORGFRONT
 10
0
 20
0
 30
0
  9
$PUCSORGBACK
 10
0
 20
0
 30
0
  9
$USERI1
 70
    0
  9
$USERI2
 70
    0
  9
$USERI3
 70
    0
  9
$USERI4
 70
    0
  9
$USERI5
 70
    0
  9
$USERR1
 40
0
  9
$USERR2
 40
0
  9
$USERR3
 40
0
  9
$USERR4
 40
0
  9
$USERR5
 40
0
  9
$WORLDVIEW
 70
    1
  9
$SHADEDGE
 70
    3
  9
$SHADEDIF
 70
   70
  9
$TILEMODE
 70
    1
  9
$MAXACTVP
 70
   64
  9
$PINSBASE
 10
0
 20
0
 30
0
  9
$PLIMCHECK
 70
    0
  9
$PEXTMIN
 10
0
 20
0
 30
0
  9
$PEXTMAX
 10
0
 20
0
 30
0
  9
$SNAPSTYLE
 70
    0
  9
$PLIMMIN
 10
0
 20
0
  9
$PLIMMAX
 10
210
 20
297
  9
$UNITMODE
 70
    0
  9
$VISRETAIN
 70
    1
  9
$PLINEGEN
 70
    0
  9
$PSLTSCALE
 70
    1
  9
$TREEDEPTH
 70
 3020
  9
$CMLSTYLE
  2
Standard
  9
$CMLJUST
 70
    0
  9
$CMLSCALE
 40
20
  9
$PROXYGRAPHICS
 70
    1
  9
$MEASUREMENT
 70
    0
  9
$CELWEIGHT
370
   -1
  9
$ENDCAPS
280
    0
  9
$JOINSTYLE
280
    0
  9
$LWDISPLAY
290
    0
  9
$INSUNITS
 70
    0
  9
$HYPERLINKBASE
  1

  9
$STYLESHEET
  1

  9
$XEDIT
290
    1
  9
$CEPSNTYPE
380
    0
  9
$PSTYLEMODE
290
    1
  9
$EXTNAMES
290
    1
  9
$PSVPSCALE
 40
1
  9
$OLESTARTUP
290
    0
  9
$SORTENTS
280
  127
  9
$INDEXCTL
280
    0
  9
$HIDETEXT
280
    1
  9
$XCLIPFRAME
290
    0
  9
$HALOGAP
280
    0
  9
$OBSCOLOR
 70
  257
  9
$OBSLTYPE
280
    0
  9
$INTERSECTIONDISPLAY
280
    0
  9
$INTERSECTIONCOLOR
 70
  257
  9
$DIMASSOC
280
    1
  9
$PROJECTNAME
  1

  9
$CAMERADISPLAY
290
    0
  9
$LENSLENGTH
 40
50
  9
$CAMERAHEIGHT
 40
0
  9
$STEPSPERSEC
 40
2
  9
$STEPSIZE
 40
50
  9
$3DDWFPREC
 40
2
  9
$PSOLWIDTH
 40
5
  9
$PSOLHEIGHT
 40
80
  9
$LOFTANG1
 40
1.570796326794897
  9
$LOFTANG2
 40
1.570796326794897
  9
$LOFTMAG1
 40
0
  9
$LOFTMAG2
 40
0
  9
$LOFTPARAM
 70
    7
  9
$LOFTNORMALS
280
    1
  9
$LATITUDE
 40
1
  9
$LONGITUDE
 40
1
  9
$NORTHDIRECTION
 40
0
  9
$TIMEZONE
 70
-8000
  9
$LIGHTGLYPHDISPLAY
280
    1
  9
$TILEMODELIGHTSYNCH
280
    1
  9
$SOLIDHIST
280
    1
  9
$SHOWHIST
280
    1
  9
$DWFFRAME
280
    2
  9
$DGNFRAME
280
    0
  9
$REALWORLDSCALE
290
    1
  9
$INTERFERECOLOR
 62
    1
  9
$CSHADOW
280
    0
  9
$SHADOWPLANELOCATION
 40
0
  0
ENDSEC
  0
SECTION
  2
CLASSES
  0
ENDSEC
  0
SECTION
  2
TABLES
  0
TABLE
  2
VPORT
  5
8
330
0
100
AcDbSymbolTable
 70
    1
  0
VPORT
  5
31
330
2
100
AcDbSymbolTableRecord
100
AcDbViewportTableRecord
  2
*ACTIVE
 70
    0
 10
0
 20
0
 11
1
 21
1
 12
261.7597955329244
 22
44.28816971506782
 13
0
 23
0
 14
10
 24
10
 15
10
 25
10
 16
0
 26
0
 36
1
 17
0
 27
0
 37
0
 40
319.2090722859605
 41
1.968586387434555
 42
50
 43
0
 44
0
 50
0
 51
0
 71
    0
 72
  100
 73
    1
 74
    3
 75
    0
 76
    1
 77
    0
 78
    0
281
    0
 65
    1
110
0
120
0
130
0
111
1
121
0
131
0
112
0
122
1
132
0
 79
    0
146
0
348
10020
 60
    7
 61
    5
292
1
282
    1
141
0
142
0
 63
  250
421
3358443
  0
ENDTAB
  0
TABLE
  2
LTYPE
  5
5
330
0
100
AcDbSymbolTable
 70
    4
  0
LTYPE
  5
14
330
5
100
AcDbSymbolTableRecord
100
AcDbLinetypeTableRecord
  2
ByBlock
 70
    0
  3

 72
   65
 73
    0
 40
0
  0
LTYPE
  5
15
330
5
100
AcDbSymbolTableRecord
100
AcDbLinetypeTableRecord
  2
ByLayer
 70
    0
  3

 72
   65
 73
    0
 40
0
  0
LTYPE
  5
16
330
5
100
AcDbSymbolTableRecord
100
AcDbLinetypeTableRecord
  2
Continuous
 70
    0
  3
Solid line
 72
   65
 73
    0
 40
0
  0
LTYPE
  5
32
330
5
100
AcDbSymbolTableRecord
100
AcDbLinetypeTableRecord
  2
DOT
 70
    0
  3
Dot . . . . . . . . . . . . . . . . . . . . . .
 72
   65
 73
    2
 40
6.35
 49
0
 74
    0
 49
-6.35
 74
    0
  0
LTYPE
  5
33
330
5
100
AcDbSymbolTableRecord
100
AcDbLinetypeTableRecord
  2
DOTTINY
 70
    0
  3
Dot (.15x) .....................................
 72
   65
 73
    2
 40
0.9525
 49
0
 74
    0
 49
-0.9525
 74
    0
  0
LTYPE
  5
34
330
5
100
AcDbSymbolTableRecord
100
AcDbLinetypeTableRecord
  2
DOT2
 70
    0
  3
Dot (.5x) .....................................
 72
   65
 73
    2
 40
3.175
 49
0
 74
    0
 49
-3.175
 74
    0
  0
LTYPE
  5
35
330
5
100
AcDbSymbolTableRecord
100
AcDbLinetypeTableRecord
  2
DOTX2
 70
    0
  3
Dot (2x) .  .  .  .  .  .  .  .  .  .  .  .  .
 72
   65
 73
    2
 40
12.7
 49
0
 74
    0
 49
-12.7
 74
    0
  0
LTYPE
  5
36
330
5
100
AcDbSymbolTableRecord
100
AcDbLinetypeTableRecord
  2
DASHED
 70
    0
  3
Dashed _ _ _ _ _ _ _ _ _ _ _ _ _ _ _ _ _
 72
   65
 73
    2
 40
19.05
 49
12.7
 74
    0
 49
-6.35
 74
    0
  0
LTYPE
  5
37
330
5
100
AcDbSymbolTableRecord
100
AcDbLinetypeTableRecord
  2
DASHEDTINY
 70
    0
  3
Dashed (.15x) _ _ _ _ _ _ _ _ _ _ _ _ _ _ _ _ _
 72
   65
 73
    2
 40
2.8575
 49
1.905
 74
    0
 49
-0.9525
 74
    0
  0
LTYPE
  5
38
330
5
100
AcDbSymbolTableRecord
100
AcDbLinetypeTableRecord
  2
DASHED2
 70
    0
  3
Dashed (.5x) _ _ _ _ _ _ _ _ _ _ _ _ _ _ _ _ _
 72
   65
 73
    2
 40
9.524999999999999
 49
6.35
 74
    0
 49
-3.175
 74
    0
  0
LTYPE
  5
39
330
5
100
AcDbSymbolTableRecord
100
AcDbLinetypeTableRecord
  2
DASHEDX2
 70
    0
  3
Dashed (2x) ____  ____  ____  ____  ____  ___
 72
   65
 73
    2
 40
38.09999999999999
 49
25.4
 74
    0
 49
-12.7
 74
    0
  0
LTYPE
  5
3A
330
5
100
AcDbSymbolTableRecord
100
AcDbLinetypeTableRecord
  2
DASHDOT
 70
    0
  3
Dash dot __ . __ . __ . __ . __ . __ . __ . __
 72
   65
 73
    4
 40
25.4
 49
12.7
 74
    0
 49
-6.35
 74
    0
 49
0
 74
    0
 49
-6.35
 74
    0
  0
LTYPE
  5
3B
330
5
100
AcDbSymbolTableRecord
100
AcDbLinetypeTableRecord
  2
DASHDOTTINY
 70
    0
  3
Dash dot (.15x) _._._._._._._._._._._._._._._.
 72
   65
 73
    4
 40
3.81
 49
1.905
 74
    0
 49
-0.9525
 74
    0
 49
0
 74
    0
 49
-0.9525
 74
    0
  0
LTYPE
  5
3C
330
5
100
AcDbSymbolTableRecord
100
AcDbLinetypeTableRecord
  2
DASHDOT2
 70
    0
  3
Dash dot (.5x) _._._._._._._._._._._._._._._.
 72
   65
 73
    4
 40
12.7
 49
6.35
 74
    0
 49
-3.175
 74
    0
 49
0
 74
    0
 49
-3.175
 74
    0
  0
LTYPE
  5
3D
330
5
100
AcDbSymbolTableRecord
100
AcDbLinetypeTableRecord
  2
DASHDOTX2
 70
    0
  3
Dash dot (2x) ____  .  ____  .  ____  .  ___
 72
   65
 73
    4
 40
50.8
 49
25.4
 74
    0
 49
-12.7
 74
    0
 49
0
 74
    0
 49
-12.7
 74
    0
  0
LTYPE
  5
3E
330
5
100
AcDbSymbolTableRecord
100
AcDbLinetypeTableRecord
  2
DIVIDE
 70
    0
  3
Divide ____ . . ____ . . ____ . . ____ . . ____
 72
   65
 73
    6
 40
31.75
 49
12.7
 74
    0
 49
-6.35
 74
    0
 49
0
 74
    0
 49
-6.35
 74
    0
 49
0
 74
    0
 49
-6.35
 74
    0
  0
LTYPE
  5
3F
330
5
100
AcDbSymbolTableRecord
100
AcDbLinetypeTableRecord
  2
DIVIDETINY
 70
    0
  3
Divide (.15x) __..__..__..__..__..__..__..__.._
 72
   65
 73
    6
 40
4.7625
 49
1.905
 74
    0
 49
-0.9525
 74
    0
 49
0
 74
    0
 49
-0.9525
 74
    0
 49
0
 74
    0
 49
-0.9525
 74
    0
  0
LTYPE
  5
40
330
5
100
AcDbSymbolTableRecord
100
AcDbLinetypeTableRecord
  2
DIVIDE2
 70
    0
  3
Divide (.5x) __..__..__..__..__..__..__..__.._
 72
   65
 73
    6
 40
15.875
 49
6.35
 74
    0
 49
-3.175
 74
    0
 49
0
 74
    0
 49
-3.175
 74
    0
 49
0
 74
    0
 49
-3.175
 74
    0
  0
LTYPE
  5
41
330
5
100
AcDbSymbolTableRecord
100
AcDbLinetypeTableRecord
  2
DIVIDEX2
 70
    0
  3
Divide (2x) ________  .  .  ________  .  .  _
 72
   65
 73
    6
 40
63.5
 49
25.4
 74
    0
 49
-12.7
 74
    0
 49
0
 74
    0
 49
-12.7
 74
    0
 49
0
 74
    0
 49
-12.7
 74
    0
  0
LTYPE
  5
42
330
5
100
AcDbSymbolTableRecord
100
AcDbLinetypeTableRecord
  2
BORDER
 70
    0
  3
Border __ __ . __ __ . __ __ . __ __ . __ __ .
 72
   65
 73
    6
 40
44.45
 49
12.7
 74
    0
 49
-6.35
 74
    0
 49
12.7
 74
    0
 49
-6.35
 74
    0
 49
0
 74
    0
 49
-6.35
 74
    0
  0
LTYPE
  5
43
330
5
100
AcDbSymbolTableRecord
100
AcDbLinetypeTableRecord
  2
BORDERTINY
 70
    0
  3
Border (.15x) __.__.__.__.__.__.__.__.__.__.__.
 72
   65
 73
    6
 40
6.6675
 49
1.905
 74
    0
 49
-0.9525
 74
    0
 49
1.905
 74
    0
 49
-0.9525
 74
    0
 49
0
 74
    0
 49
-0.9525
 74
    0
  0
LTYPE
  5
44
330
5
100
AcDbSymbolTableRecord
100
AcDbLinetypeTableRecord
  2
BORDER2
 70
    0
  3
Border (.5x) __.__.__.__.__.__.__.__.__.__.__.
 72
   65
 73
    6
 40
22.225
 49
6.35
 74
    0
 49
-3.175
 74
    0
 49
6.35
 74
    0
 49
-3.175
 74
    0
 49
0
 74
    0
 49
-3.175
 74
    0
  0
LTYPE
  5
45
330
5
100
AcDbSymbolTableRecord
100
AcDbLinetypeTableRecord
  2
BORDERX2
 70
    0
  3
Border (2x) ____  ____  .  ____  ____  .  ___
 72
   65
 73
    6
 40
88.89999999999999
 49
25.4
 74
    0
 49
-12.7
 74
    0
 49
25.4
 74
    0
 49
-12.7
 74
    0
 49
0
 74
    0
 49
-12.7
 74
    0
  0
LTYPE
  5
46
330
5
100
AcDbSymbolTableRecord
100
AcDbLinetypeTableRecord
  2
CENTER
 70
    0
  3
Center ____ _ ____ _ ____ _ ____ _ ____ _ ____
 72
   65
 73
    4
 40
50.8
 49
31.75
 74
    0
 49
-6.35
 74
    0
 49
6.35
 74
    0
 49
-6.35
 74
    0
  0
LTYPE
  5
47
330
5
100
AcDbSymbolTableRecord
100
AcDbLinetypeTableRecord
  2
CENTERTINY
 70
    0
  3
Center (.15x) ___ _ ___ _ ___ _ ___ _ ___ _ ___
 72
   65
 73
    4
 40
7.619999999999999
 49
4.7625
 74
    0
 49
-0.9525
 74
    0
 49
0.9525
 74
    0
 49
-0.9525
 74
    0
  0
LTYPE
  5
48
330
5
100
AcDbSymbolTableRecord
100
AcDbLinetypeTableRecord
  2
CENTER2
 70
    0
  3
Center (.5x) ___ _ ___ _ ___ _ ___ _ ___ _ ___
 72
   65
 73
    4
 40
28.575
 49
19.05
 74
    0
 49
-3.175
 74
    0
 49
3.175
 74
    0
 49
-3.175
 74
    0
  0
LTYPE
  5
49
330
5
100
AcDbSymbolTableRecord
100
AcDbLinetypeTableRecord
  2
CENTERX2
 70
    0
  3
Center (2x) ________  __  ________  __  _____
 72
   65
 73
    4
 40
101.6
 49
63.5
 74
    0
 49
-12.7
 74
    0
 49
12.7
 74
    0
 49
-12.7
 74
    0
  0
ENDTAB
  0
TABLE
  2
LAYER
  5
2
330
0
100
AcDbSymbolTable
 70
    1
  0
LAYER
  5
10
330
2
100
AcDbSymbolTableRecord
100
AcDbLayerTableRecord
  2
0
 70
    0
 62
    7
  6
CONTINUOUS
370
    0
390
F
  0
LAYER
  5
4A
330
2
100
AcDbSymbolTableRecord
100
AcDbLayerTableRecord
  2
BLACK
 70
    0
 62
    7
  6
CONTINUOUS
370
   -3
390
F
  0
LAYER
  5
4B
330
2
100
AcDbSymbolTableRecord
100
AcDbLayerTableRecord
  2
BLUE1
 70
    0
 62
  178
  6
CONTINUOUS
370
   -3
390
F
  0
LAYER
  5
4C
330
2
100
AcDbSymbolTableRecord
100
AcDbLayerTableRecord
  2
BLUE2
 70
    0
 62
    5
  6
CONTINUOUS
370
   -3
390
F
  0
LAYER
  5
4D
330
2
100
AcDbSymbolTableRecord
100
AcDbLayerTableRecord
  2
BLUE3
 70
    0
 62
  171
  6
CONTINUOUS
370
   -3
390
F
  0
LAYER
  5
4E
330
2
100
AcDbSymbolTableRecord
100
AcDbLayerTableRecord
  2
BLUE4
 70
    0
 62
    5
  6
CONTINUOUS
370
   -3
390
F
  0
LAYER
  5
4F
330
2
100
AcDbSymbolTableRecord
100
AcDbLayerTableRecord
  2
BROWN1
 70
    0
 62
   58
  6
CONTINUOUS
370
   -3
390
F
  0
LAYER
  5
50
330
2
100
AcDbSymbolTableRecord
100
AcDbLayerTableRecord
  2
BROWN2
 70
    0
 62
   54
  6
CONTINUOUS
370
   -3
390
F
  0
LAYER
  5
51
330
2
100
AcDbSymbolTableRecord
100
AcDbLayerTableRecord
  2
CYAN1
 70
    0
 62
  138
  6
CONTINUOUS
370
   -3
390
F
  0
LAYER
  5
52
330
2
100
AcDbSymbolTableRecord
100
AcDbLayerTableRecord
  2
CYAN2
 70
    0
 62
    4
  6
CONTINUOUS
370
   -3
390
F
  0
LAYER
  5
53
330
2
100
AcDbSymbolTableRecord
100
AcDbLayerTableRecord
  2
CYAN3
 70
    0
 62
  131
  6
CONTINUOUS
370
   -3
390
F
  0
LAYER
  5
54
330
2
100
AcDbSymbolTableRecord
100
AcDbLayerTableRecord
  2
CYAN4
 70
    0
 62
    4
  6
CONTINUOUS
370
   -3
390
F
  0
LAYER
  5
55
330
2
100
AcDbSymbolTableRecord
100
AcDbLayerTableRecord
  2
GRAY1
 70
    0
 62
  251
  6
CONTINUOUS
370
   -3
390
F
  0
LAYER
  5
56
330
2
100
AcDbSymbolTableRecord
100
AcDbLayerTableRecord
  2
GRAY2
 70
    0
 62
    8
  6
CONTINUOUS
370
   -3
390
F
  0
LAYER
  5
57
330
2
100
AcDbSymbolTableRecord
100
AcDbLayerTableRecord
  2
GRAY3
 70
    0
 62
    9
  6
CONTINUOUS
370
   -3
390
F
  0
LAYER
  5
58
330
2
100
AcDbSymbolTableRecord
100
AcDbLayerTableRecord
  2
GREEN1
 70
    0
 62
   98
  6
CONTINUOUS
370
   -3
390
F
  0
LAYER
  5
59
330
2
100
AcDbSymbolTableRecord
100
AcDbLayerTableRecord
  2
GREEN2
 70
    0
 62
    3
  6
CONTINUOUS
370
   -3
390
F
  0
LAYER
  5
5A
330
2
100
AcDbSymbolTableRecord
100
AcDbLayerTableRecord
  2
GREEN3
 70
    0
 62
   91
  6
CONTINUOUS
370
   -3
390
F
  0
LAYER
  5
5B
330
2
100
AcDbSymbolTableRecord
100
AcDbLayerTableRecord
  2
GREEN4
 70
    0
 62
    3
  6
CONTINUOUS
370
   -3
390
F
  0
LAYER
  5
5C
330
2
100
AcDbSymbolTableRecord
100
AcDbLayerTableRecord
  2
LYELLOW
 70
    0
 62
   51
  6
CONTINUOUS
370
   -3
390
F
  0
LAYER
  5
5D
330
2
100
AcDbSymbolTableRecord
100
AcDbLayerTableRecord
  2
MAGENTA1
 70
    0
 62
  228
  6
CONTINUOUS
370
   -3
390
F
  0
LAYER
  5
5E
330
2
100
AcDbSymbolTableRecord
100
AcDbLayerTableRecord
  2
MAGENTA2
 70
    0
 62
    6
  6
CONTINUOUS
370
   -3
390
F
  0
LAYER
  5
5F
330
2
100
AcDbSymbolTableRecord
100
AcDbLayerTableRecord
  2
MAGENTA3
 70
    0
 62
  221
  6
CONTINUOUS
370
   -3
390
F
  0
LAYER
  5
60
330
2
100
AcDbSymbolTableRecord
100
AcDbLayerTableRecord
  2
MAGENTA4
 70
    0
 62
    6
  6
CONTINUOUS
370
   -3
390
F
  0
LAYER
  5
61
330
2
100
AcDbSymbolTableRecord
100
AcDbLayerTableRecord
  2
RED1
 70
    0
 62
   18
  6
CONTINUOUS
370
   -3
390
F
  0
LAYER
  5
62
330
2
100
AcDbSymbolTableRecord
100
AcDbLayerTableRecord
  2
RED2
 70
    0
 62
    1
  6
CONTINUOUS
370
   -3
390
F
  0
LAYER
  5
63
330
2
100
AcDbSymbolTableRecord
100
AcDbLayerTableRecord
  2
RED3
 70
    0
 62
   11
  6
CONTINUOUS
370
   -3
390
F
  0
LAYER
  5
64
330
2
100
AcDbSymbolTableRecord
100
AcDbLayerTableRecord
  2
RED4
 70
    0
 62
    1
  6
CONTINUOUS
370
   -3
390
F
  0
LAYER
  5
65
330
2
100
AcDbSymbolTableRecord
100
AcDbLayerTableRecord
  2
WHITE
 70
    0
 62
    7
  6
CONTINUOUS
370
   -3
390
F
  0
LAYER
  5
66
330
2
100
AcDbSymbolTableRecord
100
AcDbLayerTableRecord
  2
YELLOW3
 70
    0
 62
    2
  6
CONTINUOUS
370
   -3
390
F
  0
LAYER
  5
67
330
2
100
AcDbSymbolTableRecord
100
AcDbLayerTableRecord
  2
YELLOW4
 70
    0
 62
    2
  6
CONTINUOUS
370
   -3
390
F
  0
ENDTAB
  0
TABLE
  2
STYLE
  5
3
330
0
100
AcDbSymbolTable
 70
    3
  0
STYLE
  5
68
330
2
100
AcDbSymbolTableRecord
100
AcDbTextStyleTableRecord
  2
Standard
 70
    0
 40
0
 41
1
 50
0
 71
    0
 42
1
  3
txt
  4

  0
ENDTAB
  0
TABLE
  2
VIEW
  5
6
330
0
100
AcDbSymbolTable
 70
    0
  0
ENDTAB
  0
TABLE
  2
UCS
  5
7
330
0
100
AcDbSymbolTable
 70
    0
  0
ENDTAB
  0
TABLE
  2
APPID
  5
9
330
0
100
AcDbSymbolTable
 70
    1
  0
APPID
  5
12
330
9
100
AcDbSymbolTableRecord
100
AcDbRegAppTableRecord
  2
ACAD
 70
    0
  0
APPID
  5
69
330
9
100
AcDbSymbolTableRecord
100
AcDbRegAppTableRecord
  2
LibreCad
 70
    0
  0
ENDTAB
  0
TABLE
  2
DIMSTYLE
  5
A
330
0
100
AcDbSymbolTable
 70
    1
100
AcDbDimStyleTable
 71
    1
  0
DIMSTYLE
105
6A
330
A
100
AcDbSymbolTableRecord
100
AcDbDimStyleTableRecord
  2
Standard
 70
    0
 40
1
 41
2.5
 42
0.625
 43
0.38
 44
1.25
 45
0
 46
0
 47
0
 48
0
 49
1
140
2.5
141
0.09
142
0
143
25.4
144
1
145
0
146
1
147
0.625
148
0
 71
    0
 72
    0
 73
    0
 74
    1
 75
    0
 76
    0
 77
    0
 78
    1
 79
    0
170
    0
171
    2
172
    0
173
    0
174
    0
175
    0
176
    0
177
    0
178
    0
179
    0
271
    2
272
    4
273
    2
274
    2
275
    0
276
    0
277
    2
278
    0
279
    0
280
    0
281
    0
282
    0
283
    1
284
    0
285
    0
286
    0
288
    0
289
    3
340
standard
341

371
   -2
372
   -2
  0
ENDTAB
  0
TABLE
  2
BLOCK_RECORD
  5
1
330
0
100
AcDbSymbolTable
 70
    2
  0
BLOCK_RECORD
  5
1F
330
1
100
AcDbSymbolTableRecord
100
AcDbBlockTableRecord
  2
*Model_Space
 70
    0
280
    1
281
    0
  0
BLOCK_RECORD
  5
1E
330
1
100
AcDbSymbolTableRecord
100
AcDbBlockTableRecord
  2
*Paper_Space
 70
    0
280
    1
281
    0
  0
ENDTAB
  0
ENDSEC
  0
SECTION
  2
BLOCKS
  0
BLOCK
  5
20
330
1F
100
AcDbEntity
  8
0
100
AcDbBlockBegin
  2
*Model_Space
 70
    0
 10
0
 20
0
 30
0
  3
*Model_Space
  1

  0
ENDBLK
  5
21
330
1F
100
AcDbEntity
  8
0
100
AcDbBlockEnd
  0
BLOCK
  5
1C
330
1B
100
AcDbEntity
  8
0
100
AcDbBlockBegin
  2
*Paper_Space
 70
    0
 10
0
 20
0
 30
0
  3
*Paper_Space
  1

  0
ENDBLK
  5
1D
330
1F
100
AcDbEntity
  8
0
100
AcDbBlockEnd
  0
ENDSEC
  0
SECTION
  2
ENTITIES
  0
CIRCLE
  5
6B
100
AcDbEntity
  8
BLACK
  6
ByLayer
 62
  256
370
   -1
100
AcDbCircle
 10
34.6075
 20
-120.015
 40
1.5875
  0
CIRCLE
  5
6C
100
AcDbEntity
  8
BLACK
  6
ByLayer
 62
  256
370
   -1
100
AcDbCircle
 10
47.3075
 20
-120.015
 40
3.81
  0
CIRCLE
  5
6D
100
AcDbEntity
  8
BLACK
  6
ByLayer
 62
  256
370
   -1
100
AcDbCircle
 10
34.6075
 20
-120.015
 40
3.81
  0
CIRCLE
  5
6E
100
AcDbEntity
  8
BLACK
  6
ByLayer
 62
  256
370
   -1
100
AcDbCircle
 10
60.0075
 20
-120.015
 40
1.5875
  0
CIRCLE
  5
6F
100
AcDbEntity
  8
BLACK
  6
ByLayer
 62
  256
370
   -1
100
AcDbCircle
 10
47.3075
 20
-120.015
 40
1.5875
  0
CIRCLE
  5
70
100
AcDbEntity
  8
BLACK
  6
ByLayer
 62
  256
370
   -1
100
AcDbCircle
 10
60.0075
 20
-120.015
 40
3.81
  0
CIRCLE
  5
71
100
AcDbEntity
  8
BLACK
  6
ByLayer
 62
  256
370
   -1
100
AcDbCircle
 10
171.45
 20
28.956
 40
3.6195
  0
LINE
  5
72
100
AcDbEntity
  8
BLACK
  6
CONTINUOUS
 62
  256
370
   -1
100
AcDbLine
 10
358.775
 20
-211.582
 11
358.775
 21
-180.34
  0
LINE
  5
73
100
AcDbEntity
  8
BLACK
  6
CONTINUOUS
 62
  256
370
   -1
100
AcDbLine
 10
0
 20
-211.582
 11
0
 21
-180.34
  0
LINE
  5
74
100
AcDbEntity
  8
BLACK
  6
CONTINUOUS
 62
  256
370
   -1
100
AcDbLine
 10
358.775
 20
7.62
 11
358.775
 21
38.862
  0
LINE
  5
75
100
AcDbEntity
  8
BLACK
  6
CONTINUOUS
 62
  256
370
   -1
100
AcDbLine
 10
0
 20
7.62
 11
0
 21
38.862
  0
LINE
  5
76
100
AcDbEntity
  8
BLACK
  6
CONTINUOUS
 62
  256
370
   -1
100
AcDbLine
 10
79.0575
 20
-108.902
 11
79.0575
 21
-77.6605
  0
LINE
  5
77
100
AcDbEntity
  8
BLACK
  6
CONTINUOUS
 62
  256
370
   -1
100
AcDbLine
 10
238.76
 20
-108.902
 11
238.76
 21
-77.6605
  0
LINE
  5
78
100
AcDbEntity
  8
BLACK
  6
CONTINUOUS
 62
  256
370
   -1
100
AcDbLine
 10
238.76
 20
-123.38
 11
238.76
 21
-154.623
  0
LINE
  5
79
100
AcDbEntity
  8
BLACK
  6
CONTINUOUS
 62
  256
370
   -1
100
AcDbLine
 10
79.0575
 20
-154.623
 11
79.0575
 21
-123.38
  0
LINE
  5
7A
100
AcDbEntity
  8
BLACK
  6
CONTINUOUS
 62
  256
370
   -1
100
AcDbLine
 10
291.147
 20
-214.757
 11
270.827
 21
-214.757
  0
LINE
  5
7B
100
AcDbEntity
  8
BLACK
  6
CONTINUOUS
 62
  256
370
   -1
100
AcDbLine
 10
270.827
 20
-214.757
 11
270.827
 21
-211.582
  0
LINE
  5
7C
100
AcDbEntity
  8
BLACK
  6
CONTINUOUS
 62
  256
370
   -1
100
AcDbLine
 10
26.9875
 20
-214.757
 11
47.3075
 21
-214.757
  0
LINE
  5
7D
100
AcDbEntity
  8
BLACK
  6
CONTINUOUS
 62
  256
370
   -1
100
AcDbLine
 10
148.907
 20
-214.757
 11
148.907
 21
-211.582
  0
LINE
  5
7E
100
AcDbEntity
  8
BLACK
  6
CONTINUOUS
 62
  256
370
   -1
100
AcDbLine
 10
311.467
 20
-214.757
 11
311.467
 21
-211.582
  0
LINE
  5
7F
100
AcDbEntity
  8
BLACK
  6
CONTINUOUS
 62
  256
370
   -1
100
AcDbLine
 10
331.787
 20
-214.757
 11
311.467
 21
-214.757
  0
LINE
  5
80
100
AcDbEntity
  8
BLACK
  6
CONTINUOUS
 62
  256
370
   -1
100
AcDbLine
 10
128.588
 20
-211.582
 11
128.588
 21
-214.757
  0
LINE
  5
81
100
AcDbEntity
  8
BLACK
  6
CONTINUOUS
 62
  256
370
   -1
100
AcDbLine
 10
189.547
 20
-211.582
 11
169.227
 21
-211.582
  0
LINE
  5
82
100
AcDbEntity
  8
BLACK
  6
CONTINUOUS
 62
  256
370
   -1
100
AcDbLine
 10
250.507
 20
-214.757
 11
230.188
 21
-214.757
  0
LINE
  5
83
100
AcDbEntity
  8
BLACK
  6
CONTINUOUS
 62
  256
370
   -1
100
AcDbLine
 10
26.9875
 20
-211.582
 11
0
 21
-211.582
  0
LINE
  5
84
100
AcDbEntity
  8
BLACK
  6
CONTINUOUS
 62
  256
370
   -1
100
AcDbLine
 10
108.267
 20
-214.757
 11
128.588
 21
-214.757
  0
LINE
  5
85
100
AcDbEntity
  8
BLACK
  6
CONTINUOUS
 62
  256
370
   -1
100
AcDbLine
 10
250.507
 20
-211.582
 11
270.827
 21
-211.582
  0
LINE
  5
86
100
AcDbEntity
  8
BLACK
  6
CONTINUOUS
 62
  256
370
   -1
100
AcDbLine
 10
148.907
 20
-214.757
 11
169.227
 21
-214.757
  0
LINE
  5
87
100
AcDbEntity
  8
BLACK
  6
CONTINUOUS
 62
  256
370
   -1
100
AcDbLine
 10
26.9875
 20
-214.757
 11
26.9875
 21
-211.582
  0
LINE
  5
88
100
AcDbEntity
  8
BLACK
  6
CONTINUOUS
 62
  256
370
   -1
100
AcDbLine
 10
47.3075
 20
-214.757
 11
47.3075
 21
-211.582
  0
LINE
  5
89
100
AcDbEntity
  8
BLACK
  6
CONTINUOUS
 62
  256
370
   -1
100
AcDbLine
 10
358.775
 20
-211.582
 11
331.787
 21
-211.582
  0
LINE
  5
8A
100
AcDbEntity
  8
BLACK
  6
CONTINUOUS
 62
  256
370
   -1
100
AcDbLine
 10
108.267
 20
-214.757
 11
108.267
 21
-211.582
  0
LINE
  5
8B
100
AcDbEntity
  8
BLACK
  6
CONTINUOUS
 62
  256
370
   -1
100
AcDbLine
 10
291.147
 20
-214.757
 11
291.147
 21
-211.582
  0
LINE
  5
8C
100
AcDbEntity
  8
BLACK
  6
CONTINUOUS
 62
  256
370
   -1
100
AcDbLine
 10
291.147
 20
-211.582
 11
311.467
 21
-211.582
  0
LINE
  5
8D
100
AcDbEntity
  8
BLACK
  6
CONTINUOUS
 62
  256
370
   -1
100
AcDbLine
 10
209.867
 20
-214.757
 11
209.867
 21
-211.582
  0
LINE
  5
8E
100
AcDbEntity
  8
BLACK
  6
CONTINUOUS
 62
  256
370
   -1
100
AcDbLine
 10
230.188
 20
-214.757
 11
230.188
 21
-211.582
  0
LINE
  5
8F
100
AcDbEntity
  8
BLACK
  6
CONTINUOUS
 62
  256
370
   -1
100
AcDbLine
 10
250.507
 20
-214.757
 11
250.507
 21
-211.582
  0
LINE
  5
90
100
AcDbEntity
  8
BLACK
  6
CONTINUOUS
 62
  256
370
   -1
100
AcDbLine
 10
108.267
 20
-211.582
 11
87.94750000000001
 21
-211.582
  0
LINE
  5
91
100
AcDbEntity
  8
BLACK
  6
CONTINUOUS
 62
  256
370
   -1
100
AcDbLine
 10
67.6275
 20
-214.757
 11
67.6275
 21
-211.582
  0
LINE
  5
92
100
AcDbEntity
  8
BLACK
  6
CONTINUOUS
 62
  256
370
   -1
100
AcDbLine
 10
331.787
 20
-214.757
 11
331.787
 21
-211.582
  0
LINE
  5
93
100
AcDbEntity
  8
BLACK
  6
CONTINUOUS
 62
  256
370
   -1
100
AcDbLine
 10
209.867
 20
-211.582
 11
230.188
 21
-211.582
  0
LINE
  5
94
100
AcDbEntity
  8
BLACK
  6
CONTINUOUS
 62
  256
370
   -1
100
AcDbLine
 10
148.907
 20
-211.582
 11
128.588
 21
-211.582
  0
LINE
  5
95
100
AcDbEntity
  8
BLACK
  6
CONTINUOUS
 62
  256
370
   -1
100
AcDbLine
 10
67.6275
 20
-214.757
 11
87.94750000000001
 21
-214.757
  0
LINE
  5
96
100
AcDbEntity
  8
BLACK
  6
CONTINUOUS
 62
  256
370
   -1
100
AcDbLine
 10
67.6275
 20
-211.582
 11
47.3075
 21
-211.582
  0
LINE
  5
97
100
AcDbEntity
  8
BLACK
  6
CONTINUOUS
 62
  256
370
   -1
100
AcDbLine
 10
87.94750000000001
 20
-211.582
 11
87.94750000000001
 21
-214.757
  0
LINE
  5
98
100
AcDbEntity
  8
BLACK
  6
CONTINUOUS
 62
  256
370
   -1
100
AcDbLine
 10
189.547
 20
-214.757
 11
209.867
 21
-214.757
  0
LINE
  5
99
100
AcDbEntity
  8
BLACK
  6
CONTINUOUS
 62
  256
370
   -1
100
AcDbLine
 10
169.227
 20
-214.757
 11
169.227
 21
-211.582
  0
LINE
  5
9A
100
AcDbEntity
  8
BLACK
  6
CONTINUOUS
 62
  256
370
   -1
100
AcDbLine
 10
189.547
 20
-211.582
 11
189.547
 21
-214.757
  0
CIRCLE
  5
9B
100
AcDbEntity
  8
BLACK
  6
ByLayer
 62
  256
370
   -1
100
AcDbCircle
 10
60.0075
 20
-107.315
 40
3.81
  0
CIRCLE
  5
9C
100
AcDbEntity
  8
BLACK
  6
ByLayer
 62
  256
370
   -1
100
AcDbCircle
 10
47.3075
 20
-107.315
 40
1.5875
  0
CIRCLE
  5
9D
100
AcDbEntity
  8
BLACK
  6
ByLayer
 62
  256
370
   -1
100
AcDbCircle
 10
47.3075
 20
-107.315
 40
3.81
  0
CIRCLE
  5
9E
100
AcDbEntity
  8
BLACK
  6
ByLayer
 62
  256
370
   -1
100
AcDbCircle
 10
34.6075
 20
-107.315
 40
3.81
  0
CIRCLE
  5
9F
100
AcDbEntity
  8
BLACK
  6
ByLayer
 62
  256
370
   -1
100
AcDbCircle
 10
34.6075
 20
-107.315
 40
1.5875
  0
CIRCLE
  5
A0
100
AcDbEntity
  8
BLACK
  6
ByLayer
 62
  256
370
   -1
100
AcDbCircle
 10
60.0075
 20
-107.315
 40
1.5875
  0
CIRCLE
  5
A1
100
AcDbEntity
  8
BLACK
  6
ByLayer
 62
  256
370
   -1
100
AcDbCircle
 10
60.0075
 20
-94.61499999999999
 40
3.81
  0
CIRCLE
  5
A2
100
AcDbEntity
  8
BLACK
  6
ByLayer
 62
  256
370
   -1
100
AcDbCircle
 10
47.3075
 20
-94.61499999999999
 40
3.81
  0
CIRCLE
  5
A3
100
AcDbEntity
  8
BLACK
  6
ByLayer
 62
  256
370
   -1
100
AcDbCircle
 10
34.6075
 20
-94.61499999999999
 40
3.81
  0
CIRCLE
  5
A4
100
AcDbEntity
  8
BLACK
  6
ByLayer
 62
  256
370
   -1
100
AcDbCircle
 10
34.6075
 20
-94.61499999999999
 40
1.5875
  0
CIRCLE
  5
A5
100
AcDbEntity
  8
BLACK
  6
ByLayer
 62
  256
370
   -1
100
AcDbCircle
 10
60.0075
 20
-94.61499999999999
 40
1.5875
  0
CIRCLE
  5
A6
100
AcDbEntity
  8
BLACK
  6
ByLayer
 62
  256
370
   -1
100
AcDbCircle
 10
47.3075
 20
-94.61499999999999
 40
1.5875
  0
CIRCLE
  5
A7
100
AcDbEntity
  8
BLACK
  6
ByLayer
 62
  256
370
   -1
100
AcDbCircle
 10
47.3075
 20
-81.91500000000001
 40
3.81
  0
CIRCLE
  5
A8
100
AcDbEntity
  8
BLACK
  6
ByLayer
 62
  256
370
   -1
100
AcDbCircle
 10
47.3075
 20
-81.91500000000001
 40
1.5875
  0
CIRCLE
  5
A9
100
AcDbEntity
  8
BLACK
  6
ByLayer
 62
  256
370
   -1
100
AcDbCircle
 10
60.0075
 20
-81.91500000000001
 40
3.81
  0
CIRCLE
  5
AA
100
AcDbEntity
  8
BLACK
  6
ByLayer
 62
  256
370
   -1
100
AcDbCircle
 10
60.0075
 20
-81.91500000000001
 40
1.5875
  0
CIRCLE
  5
AB
100
AcDbEntity
  8
BLACK
  6
ByLayer
 62
  256
370
   -1
100
AcDbCircle
 10
34.6075
 20
-81.91500000000001
 40
3.81
  0
CIRCLE
  5
AC
100
AcDbEntity
  8
BLACK
  6
ByLayer
 62
  256
370
   -1
100
AcDbCircle
 10
34.6075
 20
-81.91500000000001
 40
1.5875
  0
ARC
  5
AD
100
AcDbEntity
  8
BLACK
  6
ByLayer
 62
  256
370
   -1
100
AcDbCircle
 10
91.694
 20
-185.166
 40
1.905
100
AcDbArc
 50
-0
 51
90
  0
ARC
  5
AE
100
AcDbEntity
  8
BLACK
  6
ByLayer
 62
  256
370
   -1
100
AcDbCircle
 10
111.379
 20
-197.866
 40
1.905
100
AcDbArc
 50
180
 51
270
  0
LINE
  5
AF
100
AcDbEntity
  8
BLACK
  6
CONTINUOUS
 62
  256
370
   -1
100
AcDbLine
 10
91.694
 20
-199.771
 11
60.579
 21
-199.771
  0
ARC
  5
B0
100
AcDbEntity
  8
BLACK
  6
ByLayer
 62
  256
370
   -1
100
AcDbCircle
 10
142.494
 20
-185.166
 40
1.905
100
AcDbArc
 50
-0
 51
90
  0
ARC
  5
B1
100
AcDbEntity
  8
BLACK
  6
ByLayer
 62
  256
370
   -1
100
AcDbCircle
 10
91.694
 20
-197.866
 40
1.905
100
AcDbArc
 50
-90
 51
-0
  0
ARC
  5
B2
100
AcDbEntity
  8
BLACK
  6
ByLayer
 62
  256
370
   -1
100
AcDbCircle
 10
60.579
 20
-197.866
 40
1.905
100
AcDbArc
 50
180
 51
270
  0
ARC
  5
B3
100
AcDbEntity
  8
BLACK
  6
ByLayer
 62
  256
370
   -1
100
AcDbCircle
 10
142.494
 20
-197.866
 40
1.905
100
AcDbArc
 50
-90
 51
-0
  0
ARC
  5
B4
100
AcDbEntity
  8
BLACK
  6
ByLayer
 62
  256
370
   -1
100
AcDbCircle
 10
60.579
 20
-185.166
 40
1.905
100
AcDbArc
 50
90
 51
180
  0
LINE
  5
B5
100
AcDbEntity
  8
BLACK
  6
CONTINUOUS
 62
  256
370
   -1
100
AcDbLine
 10
144.399
 20
-185.166
 11
144.399
 21
-197.866
  0
LINE
  5
B6
100
AcDbEntity
  8
BLACK
  6
CONTINUOUS
 62
  256
370
   -1
100
AcDbLine
 10
93.599
 20
-185.166
 11
93.599
 21
-197.866
  0
ARC
  5
B7
100
AcDbEntity
  8
BLACK
  6
ByLayer
 62
  256
370
   -1
100
AcDbCircle
 10
111.379
 20
-185.166
 40
1.905
100
AcDbArc
 50
90
 51
180
  0
LINE
  5
B8
100
AcDbEntity
  8
BLACK
  6
CONTINUOUS
 62
  256
370
   -1
100
AcDbLine
 10
142.494
 20
-199.771
 11
111.379
 21
-199.771
  0
LINE
  5
B9
100
AcDbEntity
  8
BLACK
  6
CONTINUOUS
 62
  256
370
   -1
100
AcDbLine
 10
111.379
 20
-183.261
 11
142.494
 21
-183.261
  0
LINE
  5
BA
100
AcDbEntity
  8
BLACK
  6
CONTINUOUS
 62
  256
370
   -1
100
AcDbLine
 10
60.579
 20
-183.261
 11
91.694
 21
-183.261
  0
LINE
  5
BB
100
AcDbEntity
  8
BLACK
  6
CONTINUOUS
 62
  256
370
   -1
100
AcDbLine
 10
58.674
 20
-197.866
 11
58.674
 21
-185.166
  0
LINE
  5
BC
100
AcDbEntity
  8
BLACK
  6
CONTINUOUS
 62
  256
370
   -1
100
AcDbLine
 10
109.474
 20
-197.866
 11
109.474
 21
-185.166
  0
CIRCLE
  5
BD
100
AcDbEntity
  8
BLACK
  6
ByLayer
 62
  256
370
   -1
100
AcDbCircle
 10
76.2
 20
19.1135
 40
6
  0
CIRCLE
  5
BE
100
AcDbEntity
  8
BLACK
  6
ByLayer
 62
  256
370
   -1
100
AcDbCircle
 10
127
 20
19.1135
 40
6
  0
CIRCLE
  5
BF
100
AcDbEntity
  8
BLACK
  6
ByLayer
 62
  256
370
   -1
100
AcDbCircle
 10
101.6
 20
18.796
 40
7.1
  0
CIRCLE
  5
C0
100
AcDbEntity
  8
BLACK
  6
ByLayer
 62
  256
370
   -1
100
AcDbCircle
 10
25.4
 20
18.796
 40
5.6
  0
CIRCLE
  5
C1
100
AcDbEntity
  8
BLACK
  6
ByLayer
 62
  256
370
   -1
100
AcDbCircle
 10
50.8
 20
22.606
 40
10.16
  0
CIRCLE
  5
C2
100
AcDbEntity
  8
BLACK
  6
ByLayer
 62
  256
370
   -1
100
AcDbCircle
 10
152.4
 20
22.606
 40
10.165
  0
LINE
  5
C3
100
AcDbEntity
  8
BLACK
  6
CONTINUOUS
 62
  256
370
   -1
100
AcDbLine
 10
225.425
 20
10.541
 11
180.975
 21
10.541
  0
LINE
  5
C4
100
AcDbEntity
  8
BLACK
  6
CONTINUOUS
 62
  256
370
   -1
100
AcDbLine
 10
227.33
 20
28.0035
 11
227.33
 21
12.446
  0
LINE
  5
C5
100
AcDbEntity
  8
BLACK
  6
CONTINUOUS
 62
  256
370
   -1
100
AcDbLine
 10
180.975
 20
29.9085
 11
225.425
 21
29.9085
  0
LINE
  5
C6
100
AcDbEntity
  8
BLACK
  6
CONTINUOUS
 62
  256
370
   -1
100
AcDbLine
 10
179.07
 20
12.446
 11
179.07
 21
28.0035
  0
ARC
  5
C7
100
AcDbEntity
  8
BLACK
  6
ByLayer
 62
  256
370
   -1
100
AcDbCircle
 10
180.975
 20
28.0035
 40
1.905
100
AcDbArc
 50
90
 51
180
  0
ARC
  5
C8
100
AcDbEntity
  8
BLACK
  6
ByLayer
 62
  256
370
   -1
100
AcDbCircle
 10
225.425
 20
28.0035
 40
1.905
100
AcDbArc
 50
-0
 51
90
  0
ARC
  5
C9
100
AcDbEntity
  8
BLACK
  6
ByLayer
 62
  256
370
   -1
100
AcDbCircle
 10
225.425
 20
12.446
 40
1.905
100
AcDbArc
 50
-90
 51
-0
  0
ARC
  5
CA
100
AcDbEntity
  8
BLACK
  6
ByLayer
 62
  256
370
   -1
100
AcDbCircle
 10
180.975
 20
12.446
 40
1.905
100
AcDbArc
 50
180
 51
270
  0
LINE
  5
CB
100
AcDbEntity
  8
BLACK
  6
CONTINUOUS
 62
  256
370
   -1
100
AcDbLine
 10
0
 20
38.862
 11
26.9875
 21
38.862
  0
LINE
  5
CC
100
AcDbEntity
  8
BLACK
  6
CONTINUOUS
 62
  256
370
   -1
100
AcDbLine
 10
189.547
 20
4.445
 11
209.867
 21
4.445
  0
LINE
  5
CD
100
AcDbEntity
  8
BLACK
  6
CONTINUOUS
 62
  256
370
   -1
100
AcDbLine
 10
331.787
 20
38.862
 11
358.775
 21
38.862
  0
LINE
  5
CE
100
AcDbEntity
  8
BLACK
  6
CONTINUOUS
 62
  256
370
   -1
100
AcDbLine
 10
26.9875
 20
7.62
 11
0
 21
7.62
  0
LINE
  5
CF
100
AcDbEntity
  8
BLACK
  6
CONTINUOUS
 62
  256
370
   -1
100
AcDbLine
 10
189.547
 20
7.62
 11
189.547
 21
4.445
  0
LINE
  5
D0
100
AcDbEntity
  8
BLACK
  6
CONTINUOUS
 62
  256
370
   -1
100
AcDbLine
 10
189.547
 20
42.037
 11
189.547
 21
38.862
  0
LINE
  5
D1
100
AcDbEntity
  8
BLACK
  6
CONTINUOUS
 62
  256
370
   -1
100
AcDbLine
 10
169.227
 20
38.862
 11
189.547
 21
38.862
  0
LINE
  5
D2
100
AcDbEntity
  8
BLACK
  6
CONTINUOUS
 62
  256
370
   -1
100
AcDbLine
 10
47.3075
 20
42.037
 11
26.9875
 21
42.037
  0
LINE
  5
D3
100
AcDbEntity
  8
BLACK
  6
CONTINUOUS
 62
  256
370
   -1
100
AcDbLine
 10
169.227
 20
42.037
 11
148.907
 21
42.037
  0
LINE
  5
D4
100
AcDbEntity
  8
BLACK
  6
CONTINUOUS
 62
  256
370
   -1
100
AcDbLine
 10
67.6275
 20
38.862
 11
67.6275
 21
42.037
  0
LINE
  5
D5
100
AcDbEntity
  8
BLACK
  6
CONTINUOUS
 62
  256
370
   -1
100
AcDbLine
 10
47.3075
 20
38.862
 11
47.3075
 21
42.037
  0
LINE
  5
D6
100
AcDbEntity
  8
BLACK
  6
CONTINUOUS
 62
  256
370
   -1
100
AcDbLine
 10
169.227
 20
4.445
 11
169.227
 21
7.62
  0
LINE
  5
D7
100
AcDbEntity
  8
BLACK
  6
CONTINUOUS
 62
  256
370
   -1
100
AcDbLine
 10
169.227
 20
38.862
 11
169.227
 21
42.037
  0
LINE
  5
D8
100
AcDbEntity
  8
BLACK
  6
CONTINUOUS
 62
  256
370
   -1
100
AcDbLine
 10
128.588
 20
38.862
 11
148.907
 21
38.862
  0
LINE
  5
D9
100
AcDbEntity
  8
BLACK
  6
CONTINUOUS
 62
  256
370
   -1
100
AcDbLine
 10
291.147
 20
38.862
 11
291.147
 21
42.037
  0
LINE
  5
DA
100
AcDbEntity
  8
BLACK
  6
CONTINUOUS
 62
  256
370
   -1
100
AcDbLine
 10
230.188
 20
42.037
 11
250.507
 21
42.037
  0
LINE
  5
DB
100
AcDbEntity
  8
BLACK
  6
CONTINUOUS
 62
  256
370
   -1
100
AcDbLine
 10
128.588
 20
42.037
 11
108.267
 21
42.037
  0
LINE
  5
DC
100
AcDbEntity
  8
BLACK
  6
CONTINUOUS
 62
  256
370
   -1
100
AcDbLine
 10
148.907
 20
7.62
 11
128.588
 21
7.62
  0
LINE
  5
DD
100
AcDbEntity
  8
BLACK
  6
CONTINUOUS
 62
  256
370
   -1
100
AcDbLine
 10
128.588
 20
42.037
 11
128.588
 21
38.862
  0
LINE
  5
DE
100
AcDbEntity
  8
BLACK
  6
CONTINUOUS
 62
  256
370
   -1
100
AcDbLine
 10
148.907
 20
4.445
 11
169.227
 21
4.445
  0
LINE
  5
DF
100
AcDbEntity
  8
BLACK
  6
CONTINUOUS
 62
  256
370
   -1
100
AcDbLine
 10
67.6275
 20
7.62
 11
47.3075
 21
7.62
  0
LINE
  5
E0
100
AcDbEntity
  8
BLACK
  6
CONTINUOUS
 62
  256
370
   -1
100
AcDbLine
 10
230.188
 20
4.445
 11
230.188
 21
7.62
  0
LINE
  5
E1
100
AcDbEntity
  8
BLACK
  6
CONTINUOUS
 62
  256
370
   -1
100
AcDbLine
 10
87.94750000000001
 20
7.62
 11
87.94750000000001
 21
4.445
  0
LINE
  5
E2
100
AcDbEntity
  8
BLACK
  6
CONTINUOUS
 62
  256
370
   -1
100
AcDbLine
 10
108.267
 20
38.862
 11
108.267
 21
42.037
  0
LINE
  5
E3
100
AcDbEntity
  8
BLACK
  6
CONTINUOUS
 62
  256
370
   -1
100
AcDbLine
 10
209.867
 20
42.037
 11
189.547
 21
42.037
  0
LINE
  5
E4
100
AcDbEntity
  8
BLACK
  6
CONTINUOUS
 62
  256
370
   -1
100
AcDbLine
 10
87.94750000000001
 20
38.862
 11
108.267
 21
38.862
  0
LINE
  5
E5
100
AcDbEntity
  8
BLACK
  6
CONTINUOUS
 62
  256
370
   -1
100
AcDbLine
 10
87.94750000000001
 20
42.037
 11
67.6275
 21
42.037
  0
LINE
  5
E6
100
AcDbEntity
  8
BLACK
  6
CONTINUOUS
 62
  256
370
   -1
100
AcDbLine
 10
311.467
 20
38.862
 11
311.467
 21
42.037
  0
LINE
  5
E7
100
AcDbEntity
  8
BLACK
  6
CONTINUOUS
 62
  256
370
   -1
100
AcDbLine
 10
230.188
 20
38.862
 11
209.867
 21
38.862
  0
LINE
  5
E8
100
AcDbEntity
  8
BLACK
  6
CONTINUOUS
 62
  256
370
   -1
100
AcDbLine
 10
250.507
 20
38.862
 11
250.507
 21
42.037
  0
LINE
  5
E9
100
AcDbEntity
  8
BLACK
  6
CONTINUOUS
 62
  256
370
   -1
100
AcDbLine
 10
47.3075
 20
38.862
 11
67.6275
 21
38.862
  0
LINE
  5
EA
100
AcDbEntity
  8
BLACK
  6
CONTINUOUS
 62
  256
370
   -1
100
AcDbLine
 10
209.867
 20
7.62
 11
230.188
 21
7.62
  0
LINE
  5
EB
100
AcDbEntity
  8
BLACK
  6
CONTINUOUS
 62
  256
370
   -1
100
AcDbLine
 10
189.547
 20
7.62
 11
169.227
 21
7.62
  0
LINE
  5
EC
100
AcDbEntity
  8
BLACK
  6
CONTINUOUS
 62
  256
370
   -1
100
AcDbLine
 10
270.827
 20
38.862
 11
270.827
 21
42.037
  0
LINE
  5
ED
100
AcDbEntity
  8
BLACK
  6
CONTINUOUS
 62
  256
370
   -1
100
AcDbLine
 10
67.6275
 20
4.445
 11
67.6275
 21
7.62
  0
LINE
  5
EE
100
AcDbEntity
  8
BLACK
  6
CONTINUOUS
 62
  256
370
   -1
100
AcDbLine
 10
47.3075
 20
4.445
 11
47.3075
 21
7.62
  0
LINE
  5
EF
100
AcDbEntity
  8
BLACK
  6
CONTINUOUS
 62
  256
370
   -1
100
AcDbLine
 10
230.188
 20
38.862
 11
230.188
 21
42.037
  0
LINE
  5
F0
100
AcDbEntity
  8
BLACK
  6
CONTINUOUS
 62
  256
370
   -1
100
AcDbLine
 10
108.267
 20
7.62
 11
87.94750000000001
 21
7.62
  0
LINE
  5
F1
100
AcDbEntity
  8
BLACK
  6
CONTINUOUS
 62
  256
370
   -1
100
AcDbLine
 10
128.588
 20
7.62
 11
128.588
 21
4.445
  0
LINE
  5
F2
100
AcDbEntity
  8
BLACK
  6
CONTINUOUS
 62
  256
370
   -1
100
AcDbLine
 10
148.907
 20
38.862
 11
148.907
 21
42.037
  0
LINE
  5
F3
100
AcDbEntity
  8
BLACK
  6
CONTINUOUS
 62
  256
370
   -1
100
AcDbLine
 10
108.267
 20
4.445
 11
108.267
 21
7.62
  0
LINE
  5
F4
100
AcDbEntity
  8
BLACK
  6
CONTINUOUS
 62
  256
370
   -1
100
AcDbLine
 10
108.267
 20
4.445
 11
128.588
 21
4.445
  0
LINE
  5
F5
100
AcDbEntity
  8
BLACK
  6
CONTINUOUS
 62
  256
370
   -1
100
AcDbLine
 10
67.6275
 20
4.445
 11
87.94750000000001
 21
4.445
  0
LINE
  5
F6
100
AcDbEntity
  8
BLACK
  6
CONTINUOUS
 62
  256
370
   -1
100
AcDbLine
 10
26.9875
 20
38.862
 11
26.9875
 21
42.037
  0
LINE
  5
F7
100
AcDbEntity
  8
BLACK
  6
CONTINUOUS
 62
  256
370
   -1
100
AcDbLine
 10
209.867
 20
4.445
 11
209.867
 21
7.62
  0
LINE
  5
F8
100
AcDbEntity
  8
BLACK
  6
CONTINUOUS
 62
  256
370
   -1
100
AcDbLine
 10
209.867
 20
38.862
 11
209.867
 21
42.037
  0
LINE
  5
F9
100
AcDbEntity
  8
BLACK
  6
CONTINUOUS
 62
  256
370
   -1
100
AcDbLine
 10
26.9875
 20
4.445
 11
26.9875
 21
7.62
  0
LINE
  5
FA
100
AcDbEntity
  8
BLACK
  6
CONTINUOUS
 62
  256
370
   -1
100
AcDbLine
 10
26.9875
 20
4.445
 11
47.3075
 21
4.445
  0
LINE
  5
FB
100
AcDbEntity
  8
BLACK
  6
CONTINUOUS
 62
  256
370
   -1
100
AcDbLine
 10
148.907
 20
4.445
 11
148.907
 21
7.62
  0
LINE
  5
FC
100
AcDbEntity
  8
BLACK
  6
CONTINUOUS
 62
  256
370
   -1
100
AcDbLine
 10
331.787
 20
38.862
 11
331.787
 21
42.037
  0
LINE
  5
FD
100
AcDbEntity
  8
BLACK
  6
CONTINUOUS
 62
  256
370
   -1
100
AcDbLine
 10
87.94750000000001
 20
42.037
 11
87.94750000000001
 21
38.862
  0
LINE
  5
FE
100
AcDbEntity
  8
BLACK
  6
CONTINUOUS
 62
  256
370
   -1
100
AcDbLine
 10
270.827
 20
42.037
 11
291.147
 21
42.037
  0
LINE
  5
FF
100
AcDbEntity
  8
BLACK
  6
CONTINUOUS
 62
  256
370
   -1
100
AcDbLine
 10
311.467
 20
42.037
 11
331.787
 21
42.037
  0
LINE
  5
100
100
AcDbEntity
  8
BLACK
  6
CONTINUOUS
 62
  256
370
   -1
100
AcDbLine
 10
311.467
 20
38.862
 11
291.147
 21
38.862
  0
LINE
  5
101
100
AcDbEntity
  8
BLACK
  6
CONTINUOUS
 62
  256
370
   -1
100
AcDbLine
 10
270.827
 20
38.862
 11
250.507
 21
38.862
  0
LINE
  5
102
100
AcDbEntity
  8
BLACK
  6
CONTINUOUS
 62
  256
370
   -1
100
AcDbLine
 10
331.787
 20
-180.34
 11
358.775
 21
-180.34
  0
LINE
  5
103
100
AcDbEntity
  8
BLACK
  6
CONTINUOUS
 62
  256
370
   -1
100
AcDbLine
 10
0
 20
-180.34
 11
26.9875
 21
-180.34
  0
LINE
  5
104
100
AcDbEntity
  8
BLACK
  6
CONTINUOUS
 62
  256
370
   -1
100
AcDbLine
 10
291.147
 20
-180.34
 11
291.147
 21
-177.165
  0
LINE
  5
105
100
AcDbEntity
  8
BLACK
  6
CONTINUOUS
 62
  256
370
   -1
100
AcDbLine
 10
311.467
 20
-180.34
 11
311.467
 21
-177.165
  0
LINE
  5
106
100
AcDbEntity
  8
BLACK
  6
CONTINUOUS
 62
  256
370
   -1
100
AcDbLine
 10
148.907
 20
-180.34
 11
148.907
 21
-177.165
  0
LINE
  5
107
100
AcDbEntity
  8
BLACK
  6
CONTINUOUS
 62
  256
370
   -1
100
AcDbLine
 10
331.787
 20
-180.34
 11
331.787
 21
-177.165
  0
LINE
  5
108
100
AcDbEntity
  8
BLACK
  6
CONTINUOUS
 62
  256
370
   -1
100
AcDbLine
 10
270.827
 20
-180.34
 11
270.827
 21
-177.165
  0
LINE
  5
109
100
AcDbEntity
  8
BLACK
  6
CONTINUOUS
 62
  256
370
   -1
100
AcDbLine
 10
128.588
 20
-177.165
 11
128.588
 21
-180.34
  0
LINE
  5
10A
100
AcDbEntity
  8
BLACK
  6
CONTINUOUS
 62
  256
370
   -1
100
AcDbLine
 10
189.547
 20
-177.165
 11
189.547
 21
-180.34
  0
LINE
  5
10B
100
AcDbEntity
  8
BLACK
  6
CONTINUOUS
 62
  256
370
   -1
100
AcDbLine
 10
230.188
 20
-180.34
 11
230.188
 21
-177.165
  0
LINE
  5
10C
100
AcDbEntity
  8
BLACK
  6
CONTINUOUS
 62
  256
370
   -1
100
AcDbLine
 10
169.227
 20
-180.34
 11
169.227
 21
-177.165
  0
LINE
  5
10D
100
AcDbEntity
  8
BLACK
  6
CONTINUOUS
 62
  256
370
   -1
100
AcDbLine
 10
250.507
 20
-180.34
 11
250.507
 21
-177.165
  0
LINE
  5
10E
100
AcDbEntity
  8
BLACK
  6
CONTINUOUS
 62
  256
370
   -1
100
AcDbLine
 10
209.867
 20
-180.34
 11
209.867
 21
-177.165
  0
LINE
  5
10F
100
AcDbEntity
  8
BLACK
  6
CONTINUOUS
 62
  256
370
   -1
100
AcDbLine
 10
87.94750000000001
 20
-177.165
 11
87.94750000000001
 21
-180.34
  0
LINE
  5
110
100
AcDbEntity
  8
BLACK
  6
CONTINUOUS
 62
  256
370
   -1
100
AcDbLine
 10
67.6275
 20
-180.34
 11
67.6275
 21
-177.165
  0
LINE
  5
111
100
AcDbEntity
  8
BLACK
  6
CONTINUOUS
 62
  256
370
   -1
100
AcDbLine
 10
108.267
 20
-180.34
 11
108.267
 21
-177.165
  0
LINE
  5
112
100
AcDbEntity
  8
BLACK
  6
CONTINUOUS
 62
  256
370
   -1
100
AcDbLine
 10
26.9875
 20
-180.34
 11
26.9875
 21
-177.165
  0
LINE
  5
113
100
AcDbEntity
  8
BLACK
  6
CONTINUOUS
 62
  256
370
   -1
100
AcDbLine
 10
47.3075
 20
-180.34
 11
47.3075
 21
-177.165
  0
LINE
  5
114
100
AcDbEntity
  8
BLACK
  6
CONTINUOUS
 62
  256
370
   -1
100
AcDbLine
 10
87.94750000000001
 20
-177.165
 11
67.6275
 21
-177.165
  0
LINE
  5
115
100
AcDbEntity
  8
BLACK
  6
CONTINUOUS
 62
  256
370
   -1
100
AcDbLine
 10
87.94750000000001
 20
-180.34
 11
108.267
 21
-180.34
  0
LINE
  5
116
100
AcDbEntity
  8
BLACK
  6
CONTINUOUS
 62
  256
370
   -1
100
AcDbLine
 10
128.588
 20
-177.165
 11
108.267
 21
-177.165
  0
LINE
  5
117
100
AcDbEntity
  8
BLACK
  6
CONTINUOUS
 62
  256
370
   -1
100
AcDbLine
 10
128.588
 20
-180.34
 11
148.907
 21
-180.34
  0
LINE
  5
118
100
AcDbEntity
  8
BLACK
  6
CONTINUOUS
 62
  256
370
   -1
100
AcDbLine
 10
230.188
 20
-177.165
 11
250.507
 21
-177.165
  0
LINE
  5
119
100
AcDbEntity
  8
BLACK
  6
CONTINUOUS
 62
  256
370
   -1
100
AcDbLine
 10
169.227
 20
-180.34
 11
189.547
 21
-180.34
  0
LINE
  5
11A
100
AcDbEntity
  8
BLACK
  6
CONTINUOUS
 62
  256
370
   -1
100
AcDbLine
 10
47.3075
 20
-180.34
 11
67.6275
 21
-180.34
  0
LINE
  5
11B
100
AcDbEntity
  8
BLACK
  6
CONTINUOUS
 62
  256
370
   -1
100
AcDbLine
 10
47.3075
 20
-177.165
 11
26.9875
 21
-177.165
  0
LINE
  5
11C
100
AcDbEntity
  8
BLACK
  6
CONTINUOUS
 62
  256
370
   -1
100
AcDbLine
 10
169.227
 20
-177.165
 11
148.907
 21
-177.165
  0
LINE
  5
11D
100
AcDbEntity
  8
BLACK
  6
CONTINUOUS
 62
  256
370
   -1
100
AcDbLine
 10
209.867
 20
-177.165
 11
189.547
 21
-177.165
  0
LINE
  5
11E
100
AcDbEntity
  8
BLACK
  6
CONTINUOUS
 62
  256
370
   -1
100
AcDbLine
 10
230.188
 20
-180.34
 11
209.867
 21
-180.34
  0
LINE
  5
11F
100
AcDbEntity
  8
BLACK
  6
CONTINUOUS
 62
  256
370
   -1
100
AcDbLine
 10
270.827
 20
-180.34
 11
250.507
 21
-180.34
  0
LINE
  5
120
100
AcDbEntity
  8
BLACK
  6
CONTINUOUS
 62
  256
370
   -1
100
AcDbLine
 10
270.827
 20
-177.165
 11
291.147
 21
-177.165
  0
LINE
  5
121
100
AcDbEntity
  8
BLACK
  6
CONTINUOUS
 62
  256
370
   -1
100
AcDbLine
 10
311.467
 20
-177.165
 11
331.787
 21
-177.165
  0
LINE
  5
122
100
AcDbEntity
  8
BLACK
  6
CONTINUOUS
 62
  256
370
   -1
100
AcDbLine
 10
311.467
 20
-180.34
 11
291.147
 21
-180.34
  0
LINE
  5
123
100
AcDbEntity
  8
BLACK
  6
CONTINUOUS
 62
  256
370
   -1
100
AcDbLine
 10
148.907
 20
-123.38
 11
128.588
 21
-123.38
  0
LINE
  5
124
100
AcDbEntity
  8
BLACK
  6
CONTINUOUS
 62
  256
370
   -1
100
AcDbLine
 10
189.547
 20
-154.623
 11
169.227
 21
-154.623
  0
LINE
  5
125
100
AcDbEntity
  8
BLACK
  6
CONTINUOUS
 62
  256
370
   -1
100
AcDbLine
 10
108.267
 20
-123.38
 11
79.0575
 21
-123.38
  0
LINE
  5
126
100
AcDbEntity
  8
BLACK
  6
CONTINUOUS
 62
  256
370
   -1
100
AcDbLine
 10
148.907
 20
-154.623
 11
128.588
 21
-154.623
  0
LINE
  5
127
100
AcDbEntity
  8
BLACK
  6
CONTINUOUS
 62
  256
370
   -1
100
AcDbLine
 10
189.547
 20
-123.38
 11
169.227
 21
-123.38
  0
LINE
  5
128
100
AcDbEntity
  8
BLACK
  6
CONTINUOUS
 62
  256
370
   -1
100
AcDbLine
 10
238.76
 20
-154.623
 11
209.867
 21
-154.623
  0
LINE
  5
129
100
AcDbEntity
  8
BLACK
  6
CONTINUOUS
 62
  256
370
   -1
100
AcDbLine
 10
108.267
 20
-154.623
 11
79.0575
 21
-154.623
  0
LINE
  5
12A
100
AcDbEntity
  8
BLACK
  6
CONTINUOUS
 62
  256
370
   -1
100
AcDbLine
 10
238.76
 20
-123.38
 11
209.867
 21
-123.38
  0
LINE
  5
12B
100
AcDbEntity
  8
BLACK
  6
CONTINUOUS
 62
  256
370
   -1
100
AcDbLine
 10
148.907
 20
-120.206
 11
169.227
 21
-120.206
  0
LINE
  5
12C
100
AcDbEntity
  8
BLACK
  6
CONTINUOUS
 62
  256
370
   -1
100
AcDbLine
 10
148.907
 20
-123.38
 11
148.907
 21
-120.206
  0
LINE
  5
12D
100
AcDbEntity
  8
BLACK
  6
CONTINUOUS
 62
  256
370
   -1
100
AcDbLine
 10
189.547
 20
-157.797
 11
189.547
 21
-154.623
  0
LINE
  5
12E
100
AcDbEntity
  8
BLACK
  6
CONTINUOUS
 62
  256
370
   -1
100
AcDbLine
 10
108.267
 20
-157.797
 11
108.267
 21
-154.623
  0
LINE
  5
12F
100
AcDbEntity
  8
BLACK
  6
CONTINUOUS
 62
  256
370
   -1
100
AcDbLine
 10
169.227
 20
-154.623
 11
169.227
 21
-157.797
  0
LINE
  5
130
100
AcDbEntity
  8
BLACK
  6
CONTINUOUS
 62
  256
370
   -1
100
AcDbLine
 10
128.588
 20
-154.623
 11
128.588
 21
-157.797
  0
LINE
  5
131
100
AcDbEntity
  8
BLACK
  6
CONTINUOUS
 62
  256
370
   -1
100
AcDbLine
 10
189.547
 20
-120.206
 11
209.867
 21
-120.206
  0
LINE
  5
132
100
AcDbEntity
  8
BLACK
  6
CONTINUOUS
 62
  256
370
   -1
100
AcDbLine
 10
189.547
 20
-123.38
 11
189.547
 21
-120.206
  0
LINE
  5
133
100
AcDbEntity
  8
BLACK
  6
CONTINUOUS
 62
  256
370
   -1
100
AcDbLine
 10
169.227
 20
-120.206
 11
169.227
 21
-123.38
  0
LINE
  5
134
100
AcDbEntity
  8
BLACK
  6
CONTINUOUS
 62
  256
370
   -1
100
AcDbLine
 10
108.267
 20
-120.206
 11
128.588
 21
-120.206
  0
LINE
  5
135
100
AcDbEntity
  8
BLACK
  6
CONTINUOUS
 62
  256
370
   -1
100
AcDbLine
 10
108.267
 20
-123.38
 11
108.267
 21
-120.206
  0
LINE
  5
136
100
AcDbEntity
  8
BLACK
  6
CONTINUOUS
 62
  256
370
   -1
100
AcDbLine
 10
108.267
 20
-157.797
 11
128.588
 21
-157.797
  0
LINE
  5
137
100
AcDbEntity
  8
BLACK
  6
CONTINUOUS
 62
  256
370
   -1
100
AcDbLine
 10
148.907
 20
-157.797
 11
169.227
 21
-157.797
  0
LINE
  5
138
100
AcDbEntity
  8
BLACK
  6
CONTINUOUS
 62
  256
370
   -1
100
AcDbLine
 10
128.588
 20
-120.206
 11
128.588
 21
-123.38
  0
LINE
  5
139
100
AcDbEntity
  8
BLACK
  6
CONTINUOUS
 62
  256
370
   -1
100
AcDbLine
 10
148.907
 20
-157.797
 11
148.907
 21
-154.623
  0
LINE
  5
13A
100
AcDbEntity
  8
BLACK
  6
CONTINUOUS
 62
  256
370
   -1
100
AcDbLine
 10
189.547
 20
-157.797
 11
209.867
 21
-157.797
  0
LINE
  5
13B
100
AcDbEntity
  8
BLACK
  6
CONTINUOUS
 62
  256
370
   -1
100
AcDbLine
 10
209.867
 20
-154.623
 11
209.867
 21
-157.797
  0
LINE
  5
13C
100
AcDbEntity
  8
BLACK
  6
CONTINUOUS
 62
  256
370
   -1
100
AcDbLine
 10
209.867
 20
-120.206
 11
209.867
 21
-123.38
  0
LINE
  5
13D
100
AcDbEntity
  8
BLACK
  6
CONTINUOUS
 62
  256
370
   -1
100
AcDbLine
 10
108.267
 20
-108.902
 11
79.0575
 21
-108.902
  0
LINE
  5
13E
100
AcDbEntity
  8
BLACK
  6
CONTINUOUS
 62
  256
370
   -1
100
AcDbLine
 10
108.267
 20
-77.6605
 11
79.0575
 21
-77.6605
  0
LINE
  5
13F
100
AcDbEntity
  8
BLACK
  6
CONTINUOUS
 62
  256
370
   -1
100
AcDbLine
 10
148.907
 20
-77.6605
 11
128.588
 21
-77.6605
  0
LINE
  5
140
100
AcDbEntity
  8
BLACK
  6
CONTINUOUS
 62
  256
370
   -1
100
AcDbLine
 10
148.907
 20
-108.902
 11
128.588
 21
-108.902
  0
LINE
  5
141
100
AcDbEntity
  8
BLACK
  6
CONTINUOUS
 62
  256
370
   -1
100
AcDbLine
 10
189.547
 20
-108.902
 11
169.227
 21
-108.902
  0
LINE
  5
142
100
AcDbEntity
  8
BLACK
  6
CONTINUOUS
 62
  256
370
   -1
100
AcDbLine
 10
189.547
 20
-77.6605
 11
169.227
 21
-77.6605
  0
LINE
  5
143
100
AcDbEntity
  8
BLACK
  6
CONTINUOUS
 62
  256
370
   -1
100
AcDbLine
 10
238.76
 20
-77.6605
 11
209.867
 21
-77.6605
  0
LINE
  5
144
100
AcDbEntity
  8
BLACK
  6
CONTINUOUS
 62
  256
370
   -1
100
AcDbLine
 10
238.76
 20
-108.902
 11
209.867
 21
-108.902
  0
LINE
  5
145
100
AcDbEntity
  8
BLACK
  6
CONTINUOUS
 62
  256
370
   -1
100
AcDbLine
 10
148.907
 20
-112.078
 11
169.227
 21
-112.078
  0
LINE
  5
146
100
AcDbEntity
  8
BLACK
  6
CONTINUOUS
 62
  256
370
   -1
100
AcDbLine
 10
148.907
 20
-112.078
 11
148.907
 21
-108.902
  0
LINE
  5
147
100
AcDbEntity
  8
BLACK
  6
CONTINUOUS
 62
  256
370
   -1
100
AcDbLine
 10
189.547
 20
-112.078
 11
209.867
 21
-112.078
  0
LINE
  5
148
100
AcDbEntity
  8
BLACK
  6
CONTINUOUS
 62
  256
370
   -1
100
AcDbLine
 10
189.547
 20
-112.078
 11
189.547
 21
-108.902
  0
LINE
  5
149
100
AcDbEntity
  8
BLACK
  6
CONTINUOUS
 62
  256
370
   -1
100
AcDbLine
 10
169.227
 20
-108.902
 11
169.227
 21
-112.078
  0
LINE
  5
14A
100
AcDbEntity
  8
BLACK
  6
CONTINUOUS
 62
  256
370
   -1
100
AcDbLine
 10
108.267
 20
-112.078
 11
128.588
 21
-112.078
  0
LINE
  5
14B
100
AcDbEntity
  8
BLACK
  6
CONTINUOUS
 62
  256
370
   -1
100
AcDbLine
 10
108.267
 20
-112.078
 11
108.267
 21
-108.902
  0
LINE
  5
14C
100
AcDbEntity
  8
BLACK
  6
CONTINUOUS
 62
  256
370
   -1
100
AcDbLine
 10
128.588
 20
-108.902
 11
128.588
 21
-112.078
  0
LINE
  5
14D
100
AcDbEntity
  8
BLACK
  6
CONTINUOUS
 62
  256
370
   -1
100
AcDbLine
 10
209.867
 20
-108.902
 11
209.867
 21
-112.078
  0
LINE
  5
14E
100
AcDbEntity
  8
BLACK
  6
CONTINUOUS
 62
  256
370
   -1
100
AcDbLine
 10
209.867
 20
-74.4855
 11
209.867
 21
-77.6605
  0
LINE
  5
14F
100
AcDbEntity
  8
BLACK
  6
CONTINUOUS
 62
  256
370
   -1
100
AcDbLine
 10
189.547
 20
-74.4855
 11
209.867
 21
-74.4855
  0
LINE
  5
150
100
AcDbEntity
  8
BLACK
  6
CONTINUOUS
 62
  256
370
   -1
100
AcDbLine
 10
189.547
 20
-77.6605
 11
189.547
 21
-74.4855
  0
LINE
  5
151
100
AcDbEntity
  8
BLACK
  6
CONTINUOUS
 62
  256
370
   -1
100
AcDbLine
 10
169.227
 20
-74.4855
 11
169.227
 21
-77.6605
  0
LINE
  5
152
100
AcDbEntity
  8
BLACK
  6
CONTINUOUS
 62
  256
370
   -1
100
AcDbLine
 10
148.907
 20
-74.4855
 11
169.227
 21
-74.4855
  0
LINE
  5
153
100
AcDbEntity
  8
BLACK
  6
CONTINUOUS
 62
  256
370
   -1
100
AcDbLine
 10
148.907
 20
-77.6605
 11
148.907
 21
-74.4855
  0
LINE
  5
154
100
AcDbEntity
  8
BLACK
  6
CONTINUOUS
 62
  256
370
   -1
100
AcDbLine
 10
128.588
 20
-74.4855
 11
128.588
 21
-77.6605
  0
LINE
  5
155
100
AcDbEntity
  8
BLACK
  6
CONTINUOUS
 62
  256
370
   -1
100
AcDbLine
 10
108.267
 20
-74.4855
 11
128.588
 21
-74.4855
  0
LINE
  5
156
100
AcDbEntity
  8
BLACK
  6
CONTINUOUS
 62
  256
370
   -1
100
AcDbLine
 10
108.267
 20
-77.6605
 11
108.267
 21
-74.4855
  0
LINE
  5
157
100
AcDbEntity
  8
BLACK
  6
CONTINUOUS
 62
  256
370
   -1
100
AcDbLine
 10
47.3075
 20
-7.9375
 11
47.3075
 21
-4.7625
  0
LINE
  5
158
100
AcDbEntity
  8
BLACK
  6
CONTINUOUS
 62
  256
370
   -1
100
AcDbLine
 10
26.9875
 20
-7.9375
 11
26.9875
 21
-4.7625
  0
LINE
  5
159
100
AcDbEntity
  8
BLACK
  6
CONTINUOUS
 62
  256
370
   -1
100
AcDbLine
 10
67.6275
 20
-7.9375
 11
67.6275
 21
-4.7625
  0
LINE
  5
15A
100
AcDbEntity
  8
BLACK
  6
CONTINUOUS
 62
  256
370
   -1
100
AcDbLine
 10
87.94750000000001
 20
-7.9375
 11
87.94750000000001
 21
-4.7625
  0
LINE
  5
15B
100
AcDbEntity
  8
BLACK
  6
CONTINUOUS
 62
  256
370
   -1
100
AcDbLine
 10
108.267
 20
-7.9375
 11
108.267
 21
-4.7625
  0
LINE
  5
15C
100
AcDbEntity
  8
BLACK
  6
CONTINUOUS
 62
  256
370
   -1
100
AcDbLine
 10
128.588
 20
-7.9375
 11
128.588
 21
-4.7625
  0
LINE
  5
15D
100
AcDbEntity
  8
BLACK
  6
CONTINUOUS
 62
  256
370
   -1
100
AcDbLine
 10
148.907
 20
-7.9375
 11
148.907
 21
-4.7625
  0
LINE
  5
15E
100
AcDbEntity
  8
BLACK
  6
CONTINUOUS
 62
  256
370
   -1
100
AcDbLine
 10
169.227
 20
-7.9375
 11
169.227
 21
-4.7625
  0
LINE
  5
15F
100
AcDbEntity
  8
BLACK
  6
CONTINUOUS
 62
  256
370
   -1
100
AcDbLine
 10
209.867
 20
-7.9375
 11
209.867
 21
-4.7625
  0
LINE
  5
160
100
AcDbEntity
  8
BLACK
  6
CONTINUOUS
 62
  256
370
   -1
100
AcDbLine
 10
189.547
 20
-7.9375
 11
189.547
 21
-4.7625
  0
LINE
  5
161
100
AcDbEntity
  8
BLACK
  6
CONTINUOUS
 62
  256
370
   -1
100
AcDbLine
 10
250.507
 20
-7.9375
 11
250.507
 21
-4.7625
  0
LINE
  5
162
100
AcDbEntity
  8
BLACK
  6
CONTINUOUS
 62
  256
370
   -1
100
AcDbLine
 10
230.188
 20
-7.9375
 11
230.188
 21
-4.7625
  0
LINE
  5
163
100
AcDbEntity
  8
BLACK
  6
CONTINUOUS
 62
  256
370
   -1
100
AcDbLine
 10
270.827
 20
-7.9375
 11
270.827
 21
-4.7625
  0
LINE
  5
164
100
AcDbEntity
  8
BLACK
  6
CONTINUOUS
 62
  256
370
   -1
100
AcDbLine
 10
291.147
 20
-7.9375
 11
291.147
 21
-4.7625
  0
LINE
  5
165
100
AcDbEntity
  8
BLACK
  6
CONTINUOUS
 62
  256
370
   -1
100
AcDbLine
 10
311.467
 20
-7.9375
 11
311.467
 21
-4.7625
  0
LINE
  5
166
100
AcDbEntity
  8
BLACK
  6
CONTINUOUS
 62
  256
370
   -1
100
AcDbLine
 10
331.787
 20
-7.9375
 11
331.787
 21
-4.7625
  0
LINE
  5
167
100
AcDbEntity
  8
BLACK
  6
CONTINUOUS
 62
  256
370
   -1
100
AcDbLine
 10
350.837
 20
-36.83
 11
354.012
 21
-36.83
  0
LINE
  5
168
100
AcDbEntity
  8
BLACK
  6
CONTINUOUS
 62
  256
370
   -1
100
AcDbLine
 10
350.837
 20
-57.15
 11
354.012
 21
-57.15
  0
LINE
  5
169
100
AcDbEntity
  8
BLACK
  6
CONTINUOUS
 62
  256
370
   -1
100
AcDbLine
 10
350.837
 20
-77.47
 11
354.012
 21
-77.47
  0
LINE
  5
16A
100
AcDbEntity
  8
BLACK
  6
CONTINUOUS
 62
  256
370
   -1
100
AcDbLine
 10
350.837
 20
-97.79000000000001
 11
354.012
 21
-97.79000000000001
  0
LINE
  5
16B
100
AcDbEntity
  8
BLACK
  6
CONTINUOUS
 62
  256
370
   -1
100
AcDbLine
 10
350.837
 20
-118.11
 11
354.012
 21
-118.11
  0
LINE
  5
16C
100
AcDbEntity
  8
BLACK
  6
CONTINUOUS
 62
  256
370
   -1
100
AcDbLine
 10
350.837
 20
-138.43
 11
354.012
 21
-138.43
  0
LINE
  5
16D
100
AcDbEntity
  8
BLACK
  6
CONTINUOUS
 62
  256
370
   -1
100
AcDbLine
 10
331.787
 20
-170.498
 11
331.787
 21
-167.322
  0
LINE
  5
16E
100
AcDbEntity
  8
BLACK
  6
CONTINUOUS
 62
  256
370
   -1
100
AcDbLine
 10
311.467
 20
-170.498
 11
311.467
 21
-167.322
  0
LINE
  5
16F
100
AcDbEntity
  8
BLACK
  6
CONTINUOUS
 62
  256
370
   -1
100
AcDbLine
 10
291.147
 20
-170.498
 11
291.147
 21
-167.322
  0
LINE
  5
170
100
AcDbEntity
  8
BLACK
  6
CONTINUOUS
 62
  256
370
   -1
100
AcDbLine
 10
270.827
 20
-170.498
 11
270.827
 21
-167.322
  0
LINE
  5
171
100
AcDbEntity
  8
BLACK
  6
CONTINUOUS
 62
  256
370
   -1
100
AcDbLine
 10
250.507
 20
-170.498
 11
250.507
 21
-167.322
  0
LINE
  5
172
100
AcDbEntity
  8
BLACK
  6
CONTINUOUS
 62
  256
370
   -1
100
AcDbLine
 10
230.188
 20
-170.498
 11
230.188
 21
-167.322
  0
LINE
  5
173
100
AcDbEntity
  8
BLACK
  6
CONTINUOUS
 62
  256
370
   -1
100
AcDbLine
 10
209.867
 20
-170.498
 11
209.867
 21
-167.322
  0
LINE
  5
174
100
AcDbEntity
  8
BLACK
  6
CONTINUOUS
 62
  256
370
   -1
100
AcDbLine
 10
189.547
 20
-167.322
 11
189.547
 21
-170.498
  0
LINE
  5
175
100
AcDbEntity
  8
BLACK
  6
CONTINUOUS
 62
  256
370
   -1
100
AcDbLine
 10
169.227
 20
-170.498
 11
169.227
 21
-167.322
  0
LINE
  5
176
100
AcDbEntity
  8
BLACK
  6
CONTINUOUS
 62
  256
370
   -1
100
AcDbLine
 10
148.907
 20
-170.498
 11
148.907
 21
-167.322
  0
LINE
  5
177
100
AcDbEntity
  8
BLACK
  6
CONTINUOUS
 62
  256
370
   -1
100
AcDbLine
 10
128.588
 20
-167.322
 11
128.588
 21
-170.498
  0
LINE
  5
178
100
AcDbEntity
  8
BLACK
  6
CONTINUOUS
 62
  256
370
   -1
100
AcDbLine
 10
108.267
 20
-170.498
 11
108.267
 21
-167.322
  0
LINE
  5
179
100
AcDbEntity
  8
BLACK
  6
CONTINUOUS
 62
  256
370
   -1
100
AcDbLine
 10
87.94750000000001
 20
-167.322
 11
87.94750000000001
 21
-170.498
  0
LINE
  5
17A
100
AcDbEntity
  8
BLACK
  6
CONTINUOUS
 62
  256
370
   -1
100
AcDbLine
 10
67.6275
 20
-170.498
 11
67.6275
 21
-167.322
  0
LINE
  5
17B
100
AcDbEntity
  8
BLACK
  6
CONTINUOUS
 62
  256
370
   -1
100
AcDbLine
 10
47.3075
 20
-170.498
 11
47.3075
 21
-167.322
  0
LINE
  5
17C
100
AcDbEntity
  8
BLACK
  6
CONTINUOUS
 62
  256
370
   -1
100
AcDbLine
 10
26.9875
 20
-170.498
 11
26.9875
 21
-167.322
  0
LINE
  5
17D
100
AcDbEntity
  8
BLACK
  6
CONTINUOUS
 62
  256
370
   -1
100
AcDbLine
 10
4.7625
 20
-138.43
 11
7.9375
 21
-138.43
  0
LINE
  5
17E
100
AcDbEntity
  8
BLACK
  6
CONTINUOUS
 62
  256
370
   -1
100
AcDbLine
 10
4.7625
 20
-118.11
 11
7.9375
 21
-118.11
  0
LINE
  5
17F
100
AcDbEntity
  8
BLACK
  6
CONTINUOUS
 62
  256
370
   -1
100
AcDbLine
 10
7.9375
 20
-97.79000000000001
 11
4.7625
 21
-97.79000000000001
  0
LINE
  5
180
100
AcDbEntity
  8
BLACK
  6
CONTINUOUS
 62
  256
370
   -1
100
AcDbLine
 10
4.7625
 20
-77.47
 11
7.9375
 21
-77.47
  0
LINE
  5
181
100
AcDbEntity
  8
BLACK
  6
CONTINUOUS
 62
  256
370
   -1
100
AcDbLine
 10
4.7625
 20
-57.15
 11
7.9375
 21
-57.15
  0
LINE
  5
182
100
AcDbEntity
  8
BLACK
  6
CONTINUOUS
 62
  256
370
   -1
100
AcDbLine
 10
4.7625
 20
-36.83
 11
7.9375
 21
-36.83
  0
LINE
  5
183
100
AcDbEntity
  8
BLACK
  6
CONTINUOUS
 62
  256
370
   -1
100
AcDbLine
 10
270.827
 20
-4.7625
 11
291.147
 21
-4.7625
  0
LINE
  5
184
100
AcDbEntity
  8
BLACK
  6
CONTINUOUS
 62
  256
370
   -1
100
AcDbLine
 10
291.147
 20
-7.9375
 11
270.827
 21
-7.9375
  0
LINE
  5
185
100
AcDbEntity
  8
BLACK
  6
CONTINUOUS
 62
  256
370
   -1
100
AcDbLine
 10
169.227
 20
-4.7625
 11
148.907
 21
-4.7625
  0
LINE
  5
186
100
AcDbEntity
  8
BLACK
  6
CONTINUOUS
 62
  256
370
   -1
100
AcDbLine
 10
148.907
 20
-7.9375
 11
169.227
 21
-7.9375
  0
LINE
  5
187
100
AcDbEntity
  8
BLACK
  6
CONTINUOUS
 62
  256
370
   -1
100
AcDbLine
 10
87.94750000000001
 20
-4.7625
 11
67.6275
 21
-4.7625
  0
LINE
  5
188
100
AcDbEntity
  8
BLACK
  6
CONTINUOUS
 62
  256
370
   -1
100
AcDbLine
 10
189.547
 20
-7.9375
 11
209.867
 21
-7.9375
  0
LINE
  5
189
100
AcDbEntity
  8
BLACK
  6
CONTINUOUS
 62
  256
370
   -1
100
AcDbLine
 10
67.6275
 20
-7.9375
 11
87.94750000000001
 21
-7.9375
  0
LINE
  5
18A
100
AcDbEntity
  8
BLACK
  6
CONTINUOUS
 62
  256
370
   -1
100
AcDbLine
 10
26.9875
 20
-7.9375
 11
47.3075
 21
-7.9375
  0
LINE
  5
18B
100
AcDbEntity
  8
BLACK
  6
CONTINUOUS
 62
  256
370
   -1
100
AcDbLine
 10
230.188
 20
-4.7625
 11
250.507
 21
-4.7625
  0
LINE
  5
18C
100
AcDbEntity
  8
BLACK
  6
CONTINUOUS
 62
  256
370
   -1
100
AcDbLine
 10
128.588
 20
-4.7625
 11
108.267
 21
-4.7625
  0
LINE
  5
18D
100
AcDbEntity
  8
BLACK
  6
CONTINUOUS
 62
  256
370
   -1
100
AcDbLine
 10
311.467
 20
-4.7625
 11
331.787
 21
-4.7625
  0
LINE
  5
18E
100
AcDbEntity
  8
BLACK
  6
CONTINUOUS
 62
  256
370
   -1
100
AcDbLine
 10
331.787
 20
-7.9375
 11
311.467
 21
-7.9375
  0
LINE
  5
18F
100
AcDbEntity
  8
BLACK
  6
CONTINUOUS
 62
  256
370
   -1
100
AcDbLine
 10
209.867
 20
-4.7625
 11
189.547
 21
-4.7625
  0
LINE
  5
190
100
AcDbEntity
  8
BLACK
  6
CONTINUOUS
 62
  256
370
   -1
100
AcDbLine
 10
250.507
 20
-7.9375
 11
230.188
 21
-7.9375
  0
LINE
  5
191
100
AcDbEntity
  8
BLACK
  6
CONTINUOUS
 62
  256
370
   -1
100
AcDbLine
 10
47.3075
 20
-4.7625
 11
26.9875
 21
-4.7625
  0
LINE
  5
192
100
AcDbEntity
  8
BLACK
  6
CONTINUOUS
 62
  256
370
   -1
100
AcDbLine
 10
108.267
 20
-7.9375
 11
128.588
 21
-7.9375
  0
LINE
  5
193
100
AcDbEntity
  8
BLACK
  6
CONTINUOUS
 62
  256
370
   -1
100
AcDbLine
 10
331.787
 20
-170.498
 11
311.467
 21
-170.498
  0
LINE
  5
194
100
AcDbEntity
  8
BLACK
  6
CONTINUOUS
 62
  256
370
   -1
100
AcDbLine
 10
311.467
 20
-167.322
 11
331.787
 21
-167.322
  0
LINE
  5
195
100
AcDbEntity
  8
BLACK
  6
CONTINUOUS
 62
  256
370
   -1
100
AcDbLine
 10
291.147
 20
-170.498
 11
270.827
 21
-170.498
  0
LINE
  5
196
100
AcDbEntity
  8
BLACK
  6
CONTINUOUS
 62
  256
370
   -1
100
AcDbLine
 10
270.827
 20
-167.322
 11
291.147
 21
-167.322
  0
LINE
  5
197
100
AcDbEntity
  8
BLACK
  6
CONTINUOUS
 62
  256
370
   -1
100
AcDbLine
 10
250.507
 20
-170.498
 11
230.188
 21
-170.498
  0
LINE
  5
198
100
AcDbEntity
  8
BLACK
  6
CONTINUOUS
 62
  256
370
   -1
100
AcDbLine
 10
230.188
 20
-167.322
 11
250.507
 21
-167.322
  0
LINE
  5
199
100
AcDbEntity
  8
BLACK
  6
CONTINUOUS
 62
  256
370
   -1
100
AcDbLine
 10
209.867
 20
-167.322
 11
189.547
 21
-167.322
  0
LINE
  5
19A
100
AcDbEntity
  8
BLACK
  6
CONTINUOUS
 62
  256
370
   -1
100
AcDbLine
 10
189.547
 20
-170.498
 11
209.867
 21
-170.498
  0
LINE
  5
19B
100
AcDbEntity
  8
BLACK
  6
CONTINUOUS
 62
  256
370
   -1
100
AcDbLine
 10
169.227
 20
-167.322
 11
148.907
 21
-167.322
  0
LINE
  5
19C
100
AcDbEntity
  8
BLACK
  6
CONTINUOUS
 62
  256
370
   -1
100
AcDbLine
 10
148.907
 20
-170.498
 11
169.227
 21
-170.498
  0
LINE
  5
19D
100
AcDbEntity
  8
BLACK
  6
CONTINUOUS
 62
  256
370
   -1
100
AcDbLine
 10
128.588
 20
-167.322
 11
108.267
 21
-167.322
  0
LINE
  5
19E
100
AcDbEntity
  8
BLACK
  6
CONTINUOUS
 62
  256
370
   -1
100
AcDbLine
 10
108.267
 20
-170.498
 11
128.588
 21
-170.498
  0
LINE
  5
19F
100
AcDbEntity
  8
BLACK
  6
CONTINUOUS
 62
  256
370
   -1
100
AcDbLine
 10
87.94750000000001
 20
-167.322
 11
67.6275
 21
-167.322
  0
LINE
  5
1A0
100
AcDbEntity
  8
BLACK
  6
CONTINUOUS
 62
  256
370
   -1
100
AcDbLine
 10
67.6275
 20
-170.498
 11
87.94750000000001
 21
-170.498
  0
LINE
  5
1A1
100
AcDbEntity
  8
BLACK
  6
CONTINUOUS
 62
  256
370
   -1
100
AcDbLine
 10
47.3075
 20
-167.322
 11
26.9875
 21
-167.322
  0
LINE
  5
1A2
100
AcDbEntity
  8
BLACK
  6
CONTINUOUS
 62
  256
370
   -1
100
AcDbLine
 10
26.9875
 20
-170.498
 11
47.3075
 21
-170.498
  0
LINE
  5
1A3
100
AcDbEntity
  8
BLACK
  6
CONTINUOUS
 62
  256
370
   -1
100
AcDbLine
 10
354.012
 20
-138.43
 11
354.012
 21
-118.11
  0
LINE
  5
1A4
100
AcDbEntity
  8
BLACK
  6
CONTINUOUS
 62
  256
370
   -1
100
AcDbLine
 10
350.837
 20
-118.11
 11
350.837
 21
-138.43
  0
LINE
  5
1A5
100
AcDbEntity
  8
BLACK
  6
CONTINUOUS
 62
  256
370
   -1
100
AcDbLine
 10
350.837
 20
-97.79000000000001
 11
350.837
 21
-77.47
  0
LINE
  5
1A6
100
AcDbEntity
  8
BLACK
  6
CONTINUOUS
 62
  256
370
   -1
100
AcDbLine
 10
354.012
 20
-77.47
 11
354.012
 21
-97.79000000000001
  0
LINE
  5
1A7
100
AcDbEntity
  8
BLACK
  6
CONTINUOUS
 62
  256
370
   -1
100
AcDbLine
 10
350.837
 20
-57.15
 11
350.837
 21
-36.83
  0
LINE
  5
1A8
100
AcDbEntity
  8
BLACK
  6
CONTINUOUS
 62
  256
370
   -1
100
AcDbLine
 10
354.012
 20
-36.83
 11
354.012
 21
-57.15
  0
LINE
  5
1A9
100
AcDbEntity
  8
BLACK
  6
CONTINUOUS
 62
  256
370
   -1
100
AcDbLine
 10
4.7625
 20
-138.43
 11
4.7625
 21
-118.11
  0
LINE
  5
1AA
100
AcDbEntity
  8
BLACK
  6
CONTINUOUS
 62
  256
370
   -1
100
AcDbLine
 10
7.9375
 20
-118.11
 11
7.9375
 21
-138.43
  0
LINE
  5
1AB
100
AcDbEntity
  8
BLACK
  6
CONTINUOUS
 62
  256
370
   -1
100
AcDbLine
 10
4.7625
 20
-97.79000000000001
 11
4.7625
 21
-77.47
  0
LINE
  5
1AC
100
AcDbEntity
  8
BLACK
  6
CONTINUOUS
 62
  256
370
   -1
100
AcDbLine
 10
7.9375
 20
-77.47
 11
7.9375
 21
-97.79000000000001
  0
LINE
  5
1AD
100
AcDbEntity
  8
BLACK
  6
CONTINUOUS
 62
  256
370
   -1
100
AcDbLine
 10
4.7625
 20
-57.15
 11
4.7625
 21
-36.83
  0
LINE
  5
1AE
100
AcDbEntity
  8
BLACK
  6
CONTINUOUS
 62
  256
370
   -1
100
AcDbLine
 10
7.9375
 20
-36.83
 11
7.9375
 21
-57.15
  0
LINE
  5
1AF
100
AcDbEntity
  8
BLACK
  6
CONTINUOUS
 62
  256
370
   -1
100
AcDbLine
 10
356.235
 20
-175.26
 11
2.54
 21
-175.26
  0
LINE
  5
1B0
100
AcDbEntity
  8
BLACK
  6
CONTINUOUS
 62
  256
370
   -1
100
AcDbLine
 10
358.775
 20
-2.54
 11
358.775
 21
-172.72
  0
LINE
  5
1B1
100
AcDbEntity
  8
BLACK
  6
CONTINUOUS
 62
  256
370
   -1
100
AcDbLine
 10
2.54
 20
0
 11
356.235
 21
0
  0
LINE
  5
1B2
100
AcDbEntity
  8
BLACK
  6
CONTINUOUS
 62
  256
370
   -1
100
AcDbLine
 10
0
 20
-172.72
 11
0
 21
-2.54
  0
ARC
  5
1B3
100
AcDbEntity
  8
BLACK
  6
ByLayer
 62
  256
370
   -1
100
AcDbCircle
 10
2.54
 20
-172.72
 40
2.54
100
AcDbArc
 50
180
 51
270
  0
ARC
  5
1B4
100
AcDbEntity
  8
BLACK
  6
ByLayer
 62
  256
370
   -1
100
AcDbCircle
 10
2.54
 20
-2.54
 40
2.54
100
AcDbArc
 50
90
 51
180
  0
ARC
  5
1B5
100
AcDbEntity
  8
BLACK
  6
ByLayer
 62
  256
370
   -1
100
AcDbCircle
 10
356.235
 20
-2.54
 40
2.54
100
AcDbArc
 50
-0
 51
90
  0
ARC
  5
1B6
100
AcDbEntity
  8
BLACK
  6
ByLayer
 62
  256
370
   -1
100
AcDbCircle
 10
356.235
 20
-172.72
 40
2.54
100
AcDbArc
 50
-90
 51
-0
  0
LINE
  5
1B7
100
AcDbEntity
  8
BLACK
  6
CONTINUOUS
 62
  256
370
   -1
100
AcDbLine
 10
307.975
 20
-66.675
 11
307.975
 21
-104.775
  0
LINE
  5
1B8
100
AcDbEntity
  8
BLACK
  6
CONTINUOUS
 62
  256
370
   -1
100
AcDbLine
 10
346.075
 20
-66.675
 11
307.975
 21
-66.675
  0
LINE
  5
1B9
100
AcDbEntity
  8
BLACK
  6
CONTINUOUS
 62
  256
370
   -1
100
AcDbLine
 10
346.075
 20
-104.775
 11
346.075
 21
-66.675
  0
LINE
  5
1BA
100
AcDbEntity
  8
BLACK
  6
CONTINUOUS
 62
  256
370
   -1
100
AcDbLine
 10
307.975
 20
-104.775
 11
346.075
 21
-104.775
  0
LINE
  5
1BB
100
AcDbEntity
  8
BLACK
  6
CONTINUOUS
 62
  256
370
   -1
100
AcDbLine
 10
274.637
 20
-161.925
 11
60.325
 21
-161.925
  0
LINE
  5
1BC
100
AcDbEntity
  8
BLACK
  6
CONTINUOUS
 62
  256
370
   -1
100
AcDbLine
 10
274.637
 20
-142.875
 11
274.637
 21
-161.925
  0
LINE
  5
1BD
100
AcDbEntity
  8
BLACK
  6
CONTINUOUS
 62
  256
370
   -1
100
AcDbLine
 10
288.925
 20
-142.875
 11
274.637
 21
-142.875
  0
LINE
  5
1BE
100
AcDbEntity
  8
BLACK
  6
CONTINUOUS
 62
  256
370
   -1
100
AcDbLine
 10
288.925
 20
-161.925
 11
288.925
 21
-142.875
  0
LINE
  5
1BF
100
AcDbEntity
  8
BLACK
  6
CONTINUOUS
 62
  256
370
   -1
100
AcDbLine
 10
346.075
 20
-161.925
 11
288.925
 21
-161.925
  0
CIRCLE
  5
1C0
100
AcDbEntity
  8
BLACK
  6
ByLayer
 62
  256
370
   -1
100
AcDbCircle
 10
332.74
 20
-112.395
 40
1.5875
  0
CIRCLE
  5
1C1
100
AcDbEntity
  8
BLACK
  6
ByLayer
 62
  256
370
   -1
100
AcDbCircle
 10
281.94
 20
-156.21
 40
1.5875
  0
CIRCLE
  5
1C2
100
AcDbEntity
  8
BLACK
  6
ByLayer
 62
  256
370
   -1
100
AcDbCircle
 10
43.18
 20
-156.21
 40
1.5875
  0
CIRCLE
  5
1C3
100
AcDbEntity
  8
BLACK
  6
ByLayer
 62
  256
370
   -1
100
AcDbCircle
 10
303.53
 20
-74.93000000000001
 40
1.5875
  0
CIRCLE
  5
1C4
100
AcDbEntity
  8
BLACK
  6
ByLayer
 62
  256
370
   -1
100
AcDbCircle
 10
177.8
 20
-44.45
 40
1.5875
  0
CIRCLE
  5
1C5
100
AcDbEntity
  8
BLACK
  6
ByLayer
 62
  256
370
   -1
100
AcDbCircle
 10
43.18
 20
-44.45
 40
1.5875
  0
LINE
  5
1C6
100
AcDbEntity
  8
BLACK
  6
CONTINUOUS
 62
  256
370
   -1
100
AcDbLine
 10
12.7
 20
-161.925
 11
12.7
 21
-66.675
  0
LINE
  5
1C7
100
AcDbEntity
  8
BLACK
  6
CONTINUOUS
 62
  256
370
   -1
100
AcDbLine
 10
36.5125
 20
-161.925
 11
12.7
 21
-161.925
  0
LINE
  5
1C8
100
AcDbEntity
  8
BLACK
  6
CONTINUOUS
 62
  256
370
   -1
100
AcDbLine
 10
36.5125
 20
-142.875
 11
36.5125
 21
-161.925
  0
LINE
  5
1C9
100
AcDbEntity
  8
BLACK
  6
CONTINUOUS
 62
  256
370
   -1
100
AcDbLine
 10
60.325
 20
-142.875
 11
36.5125
 21
-142.875
  0
LINE
  5
1CA
100
AcDbEntity
  8
BLACK
  6
CONTINUOUS
 62
  256
370
   -1
100
AcDbLine
 10
60.325
 20
-161.925
 11
60.325
 21
-142.875
  0
LINE
  5
1CB
100
AcDbEntity
  8
BLACK
  6
CONTINUOUS
 62
  256
370
   -1
100
AcDbLine
 10
346.075
 20
-142.875
 11
346.075
 21
-161.925
  0
LINE
  5
1CC
100
AcDbEntity
  8
BLACK
  6
CONTINUOUS
 62
  256
370
   -1
100
AcDbLine
 10
327.025
 20
-142.875
 11
346.075
 21
-142.875
  0
LINE
  5
1CD
100
AcDbEntity
  8
BLACK
  6
CONTINUOUS
 62
  256
370
   -1
100
AcDbLine
 10
327.025
 20
-123.825
 11
327.025
 21
-142.875
  0
LINE
  5
1CE
100
AcDbEntity
  8
BLACK
  6
CONTINUOUS
 62
  256
370
   -1
100
AcDbLine
 10
307.975
 20
-123.825
 11
327.025
 21
-123.825
  0
LINE
  5
1CF
100
AcDbEntity
  8
BLACK
  6
CONTINUOUS
 62
  256
370
   -1
100
AcDbLine
 10
307.975
 20
-142.875
 11
307.975
 21
-123.825
  0
LINE
  5
1D0
100
AcDbEntity
  8
BLACK
  6
CONTINUOUS
 62
  256
370
   -1
100
AcDbLine
 10
298.45
 20
-142.875
 11
307.975
 21
-142.875
  0
LINE
  5
1D1
100
AcDbEntity
  8
BLACK
  6
CONTINUOUS
 62
  256
370
   -1
100
AcDbLine
 10
298.45
 20
-66.675
 11
298.45
 21
-142.875
  0
LINE
  5
1D2
100
AcDbEntity
  8
BLACK
  6
CONTINUOUS
 62
  256
370
   -1
100
AcDbLine
 10
12.7
 20
-66.675
 11
298.45
 21
-66.675
  0
LINE
  5
1D3
100
AcDbEntity
  8
BLACK
  6
CONTINUOUS
 62
  256
370
   -1
100
AcDbLine
 10
232.41
 20
-55.88
 11
232.41
 21
-38.1
  0
LINE
  5
1D4
100
AcDbEntity
  8
BLACK
  6
CONTINUOUS
 62
  256
370
   -1
100
AcDbLine
 10
344.17
 20
-55.88
 11
232.41
 21
-55.88
  0
LINE
  5
1D5
100
AcDbEntity
  8
BLACK
  6
CONTINUOUS
 62
  256
370
   -1
100
AcDbLine
 10
232.41
 20
-38.1
 11
344.17
 21
-38.1
  0
LINE
  5
1D6
100
AcDbEntity
  8
BLACK
  6
CONTINUOUS
 62
  256
370
   -1
100
AcDbLine
 10
12.7
 20
-57.15
 11
31.75
 21
-57.15
  0
LINE
  5
1D7
100
AcDbEntity
  8
BLACK
  6
CONTINUOUS
 62
  256
370
   -1
100
AcDbLine
 10
344.17
 20
-38.1
 11
344.17
 21
-55.88
  0
LINE
  5
1D8
100
AcDbEntity
  8
BLACK
  6
CONTINUOUS
 62
  256
370
   -1
100
AcDbLine
 10
50.8
 20
-57.15
 11
50.8
 21
-38.1
  0
LINE
  5
1D9
100
AcDbEntity
  8
BLACK
  6
CONTINUOUS
 62
  256
370
   -1
100
AcDbLine
 10
146.05
 20
-57.15
 11
50.8
 21
-57.15
  0
LINE
  5
1DA
100
AcDbEntity
  8
BLACK
  6
CONTINUOUS
 62
  256
370
   -1
100
AcDbLine
 10
146.05
 20
-38.1
 11
146.05
 21
-57.15
  0
LINE
  5
1DB
100
AcDbEntity
  8
BLACK
  6
CONTINUOUS
 62
  256
370
   -1
100
AcDbLine
 10
50.8
 20
-38.1
 11
146.05
 21
-38.1
  0
LINE
  5
1DC
100
AcDbEntity
  8
BLACK
  6
CONTINUOUS
 62
  256
370
   -1
100
AcDbLine
 10
12.7
 20
-38.1
 11
12.7
 21
-57.15
  0
LINE
  5
1DD
100
AcDbEntity
  8
BLACK
  6
CONTINUOUS
 62
  256
370
   -1
100
AcDbLine
 10
31.75
 20
-38.1
 11
12.7
 21
-38.1
  0
LINE
  5
1DE
100
AcDbEntity
  8
BLACK
  6
CONTINUOUS
 62
  256
370
   -1
100
AcDbLine
 10
31.75
 20
-57.15
 11
31.75
 21
-38.1
  0
LINE
  5
1DF
100
AcDbEntity
  8
0
  6
ByLayer
 62
  256
370
   -1
100
AcDbLine
 10
232.41
 20
29.9085
 11
344.17
 21
29.9085
  0
LINE
  5
1E0
100
AcDbEntity
  8
0
  6
ByLayer
 62
  256
370
   -1
100
AcDbLine
 10
344.17
 20
7.62
 11
344.17
 21
29.9085
  0
LINE
  5
1E1
100
AcDbEntity
  8
0
  6
ByLayer
 62
  256
370
   -1
100
AcDbLine
 10
232.41
 20
4.445
 11
232.41
 21
29.9085
  0
LINE
  5
1E2
100
AcDbEntity
  8
BLACK
  6
CONTINUOUS
 62
  256
370
   -1
100
AcDbLine
 10
232.41
 20
4.445
 11
230.188
 21
4.445
  0
LINE
  5
1E3
100
AcDbEntity
  8
BLACK
  6
CONTINUOUS
 62
  256
370
   -1
100
AcDbLine
 10
344.17
 20
4.445
 11
344.17
 21
7.62
  0
LINE
  5
1E4
100
AcDbEntity
  8
0
  6
ByLayer
 62
  256
370
   -1
100
AcDbLine
 10
344.17
 20
4.445
 11
354.01
 21
4.445
  0
LINE
  5
1E5
100
AcDbEntity
  8
BLACK
  6
CONTINUOUS
 62
  256
370
   -1
100
AcDbLine
 10
358.775
 20
7.62
 11
354.01
 21
7.62
  0
LINE
  5
1E6
100
AcDbEntity
  8
BLACK
  6
CONTINUOUS
 62
  256
370
   -1
100
AcDbLine
 10
354.01
 20
4.445
 11
354.01
 21
7.62
  0
ENDSEC
  0
SECTION
  2
OBJECTS
  0
DICTIONARY
  5
C
330
0
100
AcDbDictionary
281
    1
  3
ACAD_GROUP
350
D
  0
DICTIONARY
  5
D
330
C
100
AcDbDictionary
281
    1
  0
ENDSEC
  0
EOF
