999
dxfrw 0.6.3
  0
SECTION
  2
HEADER
  9
$ACADVER
  1
AC1021
  9
$DWGCODEPAGE
  3
ANSI_1252
  9
$INSBASE
 10
0
 20
0
 30
0
  9
$EXTMIN
 10
0
 20
0
 30
0
  9
$EXTMAX
 10
420
 20
297
 30
0
  9
$LIMMIN
 10
0
 20
0
  9
$LIMMAX
 10
420
 20
297
  9
$ORTHOMODE
 70
    0
  9
$REGENMODE
 70
    1
  9
$FILLMODE
 70
    1
  9
$QTEXTMODE
 70
    0
  9
$MIRRTEXT
 70
    0
  9
$LTSCALE
 40
1
  9
$ATTMODE
 70
    0
  9
$TEXTSIZE
 40
2.5
  9
$TRACEWID
 40
15.68
  9
$TEXTSTYLE
  7
STANDARD
  9
$CLAYER
  8
0
  9
$CELTYPE
  6
BYLAYER
  9
$CECOLOR
 62
  256
  9
$CELTSCALE
 40
1
  9
$DISPSILH
 70
    0
  9
$DIMSCALE
 40
1
  9
$DIMASZ
 40
2.5
  9
$DIMEXO
 40
0.625
  9
$DIMDLI
 40
3.75
  9
$DIMRND
 40
0
  9
$DIMDLE
 40
0
  9
$DIMEXE
 40
1.25
  9
$DIMTP
 40
0
  9
$DIMTM
 40
0
  9
$DIMTXT
 40
2.5
  9
$DIMCEN
 40
2.5
  9
$DIMTSZ
 40
0
  9
$DIMTOL
 70
    0
  9
$DIMLIM
 70
    0
  9
$DIMTIH
 70
    0
  9
$DIMTOH
 70
    0
  9
$DIMSE1
 70
    0
  9
$DIMSE2
 70
    0
  9
$DIMTAD
 70
    1
  9
$DIMZIN
 70
    8
  9
$DIMBLK
  1

  9
$DIMASO
 70
    1
  9
$DIMSHO
 70
    1
  9
$DIMPOST
  1

  9
$DIMAPOST
  1

  9
$DIMALT
 70
    0
  9
$DIMALTD
 70
    3
  9
$DIMALTF
 40
0.03937
  9
$DIMLFAC
 40
1
  9
$DIMTOFL
 70
    1
  9
$DIMTVP
 40
0
  9
$DIMTIX
 70
    0
  9
$DIMSOXD
 70
    0
  9
$DIMSAH
 70
    0
  9
$DIMBLK1
  1

  9
$DIMBLK2
  1

  9
$DIMSTYLE
  2
Standard
  9
$DIMCLRD
 70
    0
  9
$DIMCLRE
 70
    0
  9
$DIMCLRT
 70
    0
  9
$DIMTFAC
 40
1
  9
$DIMGAP
 40
0.625
  9
$DIMJUST
 70
    0
  9
$DIMSD1
 70
    0
  9
$DIMSD2
 70
    0
  9
$DIMTOLJ
 70
    0
  9
$DIMTZIN
 70
    8
  9
$DIMALTZ
 70
    0
  9
$DIMALTTZ
 70
    0
  9
$DIMUPT
 70
    0
  9
$DIMDEC
 70
    2
  9
$DIMTDEC
 70
    2
  9
$DIMALTU
 70
    2
  9
$DIMALTTD
 70
    3
  9
$DIMTXSTY
  7
STANDARD
  9
$DIMAUNIT
 70
    0
  9
$DIMADEC
 70
    0
  9
$DIMALTRND
 40
0
  9
$DIMAZIN
 70
    0
  9
$DIMDSEP
 70
   44
  9
$DIMATFIT
 70
    3
  9
$DIMFRAC
 70
    0
  9
$DIMLDRBLK
  1
STANDARD
  9
$DIMLUNIT
 70
    2
  9
$DIMLWD
 70
   -2
  9
$DIMLWE
 70
   -2
  9
$DIMTMOVE
 70
    0
  9
$DIMFXL
 40
1
  9
$DIMFXLON
 70
    0
  9
$DIMJOGANG
 40
0.7854
  9
$DIMTFILL
 70
    0
  9
$DIMTFILLCLR
 70
    0
  9
$DIMARCSYM
 70
    0
  9
$DIMLTYPE
  6

  9
$DIMLTEX1
  6

  9
$DIMLTEX2
  6

  9
$LUNITS
 70
    2
  9
$LUPREC
 70
    4
  9
$SKETCHINC
 40
1
  9
$FILLETRAD
 40
0
  9
$AUNITS
 70
    0
  9
$AUPREC
 70
    2
  9
$MENU
  1
.
  9
$ELEVATION
 40
0
  9
$PELEVATION
 40
0
  9
$THICKNESS
 40
0
  9
$LIMCHECK
 70
    0
  9
$CHAMFERA
 40
0
  9
$CHAMFERB
 40
0
  9
$CHAMFERC
 40
0
  9
$CHAMFERD
 40
0
  9
$SKPOLY
 70
    0
  9
$USRTIMER
 70
    1
  9
$ANGBASE
 50
0
  9
$ANGDIR
 70
    1
  9
$PDMODE
 70
   34
  9
$PDSIZE
 40
0
  9
$PLINEWID
 40
0
  9
$SPLFRAME
 70
    0
  9
$SPLINETYPE
 70
    2
  9
$SPLINESEGS
 70
    8
  9
$HANDSEED
  5
20000
  9
$SURFTAB1
 70
    6
  9
$SURFTAB2
 70
    6
  9
$SURFTYPE
 70
    6
  9
$SURFU
 70
    6
  9
$SURFV
 70
    6
  9
$UCSBASE
  2

  9
$UCSNAME
  2

  9
$UCSORG
 10
0
 20
0
 30
0
  9
$UCSXDIR
 10
1
 20
0
 30
0
  9
$UCSYDIR
 10
0
 20
1
 30
0
  9
$UCSORTHOREF
  2

  9
$UCSORTHOVIEW
 70
    0
  9
$UCSORGTOP
 10
0
 20
0
 30
0
  9
$UCSORGBOTTOM
 10
0
 20
0
 30
0
  9
$UCSORGLEFT
 10
0
 20
0
 30
0
  9
$UCSORGRIGHT
 10
0
 20
0
 30
0
  9
$UCSORGFRONT
 10
0
 20
0
 30
0
  9
$UCSORGBACK
 10
0
 20
0
 30
0
  9
$PUCSBASE
  2

  9
$PUCSNAME
  2

  9
$PUCSORG
 10
0
 20
0
 30
0
  9
$PUCSXDIR
 10
1
 20
0
 30
0
  9
$PUCSYDIR
 10
0
 20
1
 30
0
  9
$PUCSORTHOREF
  2

  9
$PUCSORTHOVIEW
 70
    0
  9
$PUCSORGTOP
 10
0
 20
0
 30
0
  9
$PUCSORGBOTTOM
 10
0
 20
0
 30
0
  9
$PUCSORGLEFT
 10
0
 20
0
 30
0
  9
$PUCSORGRIGHT
 10
0
 20
0
 30
0
  9
$PUCSORGFRONT
 10
0
 20
0
 30
0
  9
$PUCSORGBACK
 10
0
 20
0
 30
0
  9
$USERI1
 70
    0
  9
$USERI2
 70
    0
  9
$USERI3
 70
    0
  9
$USERI4
 70
    0
  9
$USERI5
 70
    0
  9
$USERR1
 40
0
  9
$USERR2
 40
0
  9
$USERR3
 40
0
  9
$USERR4
 40
0
  9
$USERR5
 40
0
  9
$WORLDVIEW
 70
    1
  9
$SHADEDGE
 70
    3
  9
$SHADEDIF
 70
   70
  9
$TILEMODE
 70
    1
  9
$MAXACTVP
 70
   64
  9
$PINSBASE
 10
0
 20
0
 30
0
  9
$PLIMCHECK
 70
    0
  9
$PEXTMIN
 10
0
 20
0
 30
0
  9
$PEXTMAX
 10
0
 20
0
 30
0
  9
$GRIDMODE
 70
    1
  9
$SNAPSTYLE
 70
    0
  9
$PLIMMIN
 10
0
 20
0
  9
$PLIMMAX
 10
420
 20
297
  9
$UNITMODE
 70
    0
  9
$VISRETAIN
 70
    1
  9
$PLINEGEN
 70
    0
  9
$PSLTSCALE
 70
    1
  9
$TREEDEPTH
 70
 3020
  9
$CMLSTYLE
  2
Standard
  9
$CMLJUST
 70
    0
  9
$CMLSCALE
 40
20
  9
$PROXYGRAPHICS
 70
    1
  9
$MEASUREMENT
 70
    1
  9
$CELWEIGHT
370
   -1
  9
$ENDCAPS
280
    0
  9
$JOINSTYLE
280
    0
  9
$LWDISPLAY
290
    0
  9
$INSUNITS
 70
    0
  9
$HYPERLINKBASE
  1

  9
$STYLESHEET
  1

  9
$XEDIT
290
    1
  9
$CEPSNTYPE
380
    0
  9
$PSTYLEMODE
290
    1
  9
$EXTNAMES
290
    1
  9
$PSVPSCALE
 40
1
  9
$OLESTARTUP
290
    0
  9
$SORTENTS
280
  127
  9
$INDEXCTL
280
    0
  9
$HIDETEXT
280
    1
  9
$XCLIPFRAME
290
    0
  9
$HALOGAP
280
    0
  9
$OBSCOLOR
 70
  257
  9
$OBSLTYPE
280
    0
  9
$INTERSECTIONDISPLAY
280
    0
  9
$INTERSECTIONCOLOR
 70
  257
  9
$DIMASSOC
280
    1
  9
$PROJECTNAME
  1

  9
$CAMERADISPLAY
290
    0
  9
$LENSLENGTH
 40
50
  9
$CAMERAHEIGHT
 40
0
  9
$STEPSPERSEC
 40
2
  9
$STEPSIZE
 40
50
  9
$3DDWFPREC
 40
2
  9
$PSOLWIDTH
 40
5
  9
$PSOLHEIGHT
 40
80
  9
$LOFTANG1
 40
1.570796326794897
  9
$LOFTANG2
 40
1.570796326794897
  9
$LOFTMAG1
 40
0
  9
$LOFTMAG2
 40
0
  9
$LOFTPARAM
 70
    7
  9
$LOFTNORMALS
280
    1
  9
$LATITUDE
 40
1
  9
$LONGITUDE
 40
1
  9
$NORTHDIRECTION
 40
0
  9
$TIMEZONE
 70
-8000
  9
$LIGHTGLYPHDISPLAY
280
    1
  9
$TILEMODELIGHTSYNCH
280
    1
  9
$SOLIDHIST
280
    1
  9
$SHOWHIST
280
    1
  9
$DWFFRAME
280
    2
  9
$DGNFRAME
280
    0
  9
$REALWORLDSCALE
290
    1
  9
$INTERFERECOLOR
 62
    1
  9
$CSHADOW
280
    0
  9
$SHADOWPLANELOCATION
 40
0
  0
ENDSEC
  0
SECTION
  2
CLASSES
  0
ENDSEC
  0
SECTION
  2
TABLES
  0
TABLE
  2
VPORT
  5
8
330
0
100
AcDbSymbolTable
 70
    1
  0
VPORT
  5
31
330
2
100
AcDbSymbolTableRecord
100
AcDbViewportTableRecord
  2
*ACTIVE
 70
    0
 10
0
 20
0
 11
1
 21
1
 12
258.3776077885953
 22
150.5653685674548
 13
0
 23
0
 14
10
 24
10
 15
10
 25
10
 16
0
 26
0
 36
1
 17
0
 27
0
 37
0
 40
305.2614742698192
 41
2.009472259810555
 42
50
 43
0
 44
0
 50
0
 51
0
 71
    0
 72
  100
 73
    1
 74
    3
 75
    0
 76
    1
 77
    0
 78
    0
281
    0
 65
    1
110
0
120
0
130
0
111
1
121
0
131
0
112
0
122
1
132
0
 79
    0
146
0
348
10020
 60
    7
 61
    5
292
1
282
    1
141
0
142
0
 63
  250
421
3358443
  0
ENDTAB
  0
TABLE
  2
LTYPE
  5
5
330
0
100
AcDbSymbolTable
 70
    4
  0
LTYPE
  5
14
330
5
100
AcDbSymbolTableRecord
100
AcDbLinetypeTableRecord
  2
ByBlock
 70
    0
  3

 72
   65
 73
    0
 40
0
  0
LTYPE
  5
15
330
5
100
AcDbSymbolTableRecord
100
AcDbLinetypeTableRecord
  2
ByLayer
 70
    0
  3

 72
   65
 73
    0
 40
0
  0
LTYPE
  5
16
330
5
100
AcDbSymbolTableRecord
100
AcDbLinetypeTableRecord
  2
Continuous
 70
    0
  3
Solid line
 72
   65
 73
    0
 40
0
  0
LTYPE
  5
32
330
5
100
AcDbSymbolTableRecord
100
AcDbLinetypeTableRecord
  2
DOT
 70
    0
  3
Dot . . . . . . . . . . . . . . . . . . . . . .
 72
   65
 73
    2
 40
6.35
 49
0
 74
    0
 49
-6.35
 74
    0
  0
LTYPE
  5
33
330
5
100
AcDbSymbolTableRecord
100
AcDbLinetypeTableRecord
  2
DOTTINY
 70
    0
  3
Dot (.15x) .....................................
 72
   65
 73
    2
 40
0.9525
 49
0
 74
    0
 49
-0.9525
 74
    0
  0
LTYPE
  5
34
330
5
100
AcDbSymbolTableRecord
100
AcDbLinetypeTableRecord
  2
DOT2
 70
    0
  3
Dot (.5x) .....................................
 72
   65
 73
    2
 40
3.175
 49
0
 74
    0
 49
-3.175
 74
    0
  0
LTYPE
  5
35
330
5
100
AcDbSymbolTableRecord
100
AcDbLinetypeTableRecord
  2
DOTX2
 70
    0
  3
Dot (2x) .  .  .  .  .  .  .  .  .  .  .  .  .
 72
   65
 73
    2
 40
12.7
 49
0
 74
    0
 49
-12.7
 74
    0
  0
LTYPE
  5
36
330
5
100
AcDbSymbolTableRecord
100
AcDbLinetypeTableRecord
  2
DASHED
 70
    0
  3
Dashed _ _ _ _ _ _ _ _ _ _ _ _ _ _ _ _ _
 72
   65
 73
    2
 40
19.05
 49
12.7
 74
    0
 49
-6.35
 74
    0
  0
LTYPE
  5
37
330
5
100
AcDbSymbolTableRecord
100
AcDbLinetypeTableRecord
  2
DASHEDTINY
 70
    0
  3
Dashed (.15x) _ _ _ _ _ _ _ _ _ _ _ _ _ _ _ _ _
 72
   65
 73
    2
 40
2.8575
 49
1.905
 74
    0
 49
-0.9525
 74
    0
  0
LTYPE
  5
38
330
5
100
AcDbSymbolTableRecord
100
AcDbLinetypeTableRecord
  2
DASHED2
 70
    0
  3
Dashed (.5x) _ _ _ _ _ _ _ _ _ _ _ _ _ _ _ _ _
 72
   65
 73
    2
 40
9.524999999999999
 49
6.35
 74
    0
 49
-3.175
 74
    0
  0
LTYPE
  5
39
330
5
100
AcDbSymbolTableRecord
100
AcDbLinetypeTableRecord
  2
DASHEDX2
 70
    0
  3
Dashed (2x) ____  ____  ____  ____  ____  ___
 72
   65
 73
    2
 40
38.09999999999999
 49
25.4
 74
    0
 49
-12.7
 74
    0
  0
LTYPE
  5
3A
330
5
100
AcDbSymbolTableRecord
100
AcDbLinetypeTableRecord
  2
DASHDOT
 70
    0
  3
Dash dot __ . __ . __ . __ . __ . __ . __ . __
 72
   65
 73
    4
 40
25.4
 49
12.7
 74
    0
 49
-6.35
 74
    0
 49
0
 74
    0
 49
-6.35
 74
    0
  0
LTYPE
  5
3B
330
5
100
AcDbSymbolTableRecord
100
AcDbLinetypeTableRecord
  2
DASHDOTTINY
 70
    0
  3
Dash dot (.15x) _._._._._._._._._._._._._._._.
 72
   65
 73
    4
 40
3.81
 49
1.905
 74
    0
 49
-0.9525
 74
    0
 49
0
 74
    0
 49
-0.9525
 74
    0
  0
LTYPE
  5
3C
330
5
100
AcDbSymbolTableRecord
100
AcDbLinetypeTableRecord
  2
DASHDOT2
 70
    0
  3
Dash dot (.5x) _._._._._._._._._._._._._._._.
 72
   65
 73
    4
 40
12.7
 49
6.35
 74
    0
 49
-3.175
 74
    0
 49
0
 74
    0
 49
-3.175
 74
    0
  0
LTYPE
  5
3D
330
5
100
AcDbSymbolTableRecord
100
AcDbLinetypeTableRecord
  2
DASHDOTX2
 70
    0
  3
Dash dot (2x) ____  .  ____  .  ____  .  ___
 72
   65
 73
    4
 40
50.8
 49
25.4
 74
    0
 49
-12.7
 74
    0
 49
0
 74
    0
 49
-12.7
 74
    0
  0
LTYPE
  5
3E
330
5
100
AcDbSymbolTableRecord
100
AcDbLinetypeTableRecord
  2
DIVIDE
 70
    0
  3
Divide ____ . . ____ . . ____ . . ____ . . ____
 72
   65
 73
    6
 40
31.75
 49
12.7
 74
    0
 49
-6.35
 74
    0
 49
0
 74
    0
 49
-6.35
 74
    0
 49
0
 74
    0
 49
-6.35
 74
    0
  0
LTYPE
  5
3F
330
5
100
AcDbSymbolTableRecord
100
AcDbLinetypeTableRecord
  2
DIVIDETINY
 70
    0
  3
Divide (.15x) __..__..__..__..__..__..__..__.._
 72
   65
 73
    6
 40
4.7625
 49
1.905
 74
    0
 49
-0.9525
 74
    0
 49
0
 74
    0
 49
-0.9525
 74
    0
 49
0
 74
    0
 49
-0.9525
 74
    0
  0
LTYPE
  5
40
330
5
100
AcDbSymbolTableRecord
100
AcDbLinetypeTableRecord
  2
DIVIDE2
 70
    0
  3
Divide (.5x) __..__..__..__..__..__..__..__.._
 72
   65
 73
    6
 40
15.875
 49
6.35
 74
    0
 49
-3.175
 74
    0
 49
0
 74
    0
 49
-3.175
 74
    0
 49
0
 74
    0
 49
-3.175
 74
    0
  0
LTYPE
  5
41
330
5
100
AcDbSymbolTableRecord
100
AcDbLinetypeTableRecord
  2
DIVIDEX2
 70
    0
  3
Divide (2x) ________  .  .  ________  .  .  _
 72
   65
 73
    6
 40
63.5
 49
25.4
 74
    0
 49
-12.7
 74
    0
 49
0
 74
    0
 49
-12.7
 74
    0
 49
0
 74
    0
 49
-12.7
 74
    0
  0
LTYPE
  5
42
330
5
100
AcDbSymbolTableRecord
100
AcDbLinetypeTableRecord
  2
BORDER
 70
    0
  3
Border __ __ . __ __ . __ __ . __ __ . __ __ .
 72
   65
 73
    6
 40
44.45
 49
12.7
 74
    0
 49
-6.35
 74
    0
 49
12.7
 74
    0
 49
-6.35
 74
    0
 49
0
 74
    0
 49
-6.35
 74
    0
  0
LTYPE
  5
43
330
5
100
AcDbSymbolTableRecord
100
AcDbLinetypeTableRecord
  2
BORDERTINY
 70
    0
  3
Border (.15x) __.__.__.__.__.__.__.__.__.__.__.
 72
   65
 73
    6
 40
6.6675
 49
1.905
 74
    0
 49
-0.9525
 74
    0
 49
1.905
 74
    0
 49
-0.9525
 74
    0
 49
0
 74
    0
 49
-0.9525
 74
    0
  0
LTYPE
  5
44
330
5
100
AcDbSymbolTableRecord
100
AcDbLinetypeTableRecord
  2
BORDER2
 70
    0
  3
Border (.5x) __.__.__.__.__.__.__.__.__.__.__.
 72
   65
 73
    6
 40
22.225
 49
6.35
 74
    0
 49
-3.175
 74
    0
 49
6.35
 74
    0
 49
-3.175
 74
    0
 49
0
 74
    0
 49
-3.175
 74
    0
  0
LTYPE
  5
45
330
5
100
AcDbSymbolTableRecord
100
AcDbLinetypeTableRecord
  2
BORDERX2
 70
    0
  3
Border (2x) ____  ____  .  ____  ____  .  ___
 72
   65
 73
    6
 40
88.89999999999999
 49
25.4
 74
    0
 49
-12.7
 74
    0
 49
25.4
 74
    0
 49
-12.7
 74
    0
 49
0
 74
    0
 49
-12.7
 74
    0
  0
LTYPE
  5
46
330
5
100
AcDbSymbolTableRecord
100
AcDbLinetypeTableRecord
  2
CENTER
 70
    0
  3
Center ____ _ ____ _ ____ _ ____ _ ____ _ ____
 72
   65
 73
    4
 40
50.8
 49
31.75
 74
    0
 49
-6.35
 74
    0
 49
6.35
 74
    0
 49
-6.35
 74
    0
  0
LTYPE
  5
47
330
5
100
AcDbSymbolTableRecord
100
AcDbLinetypeTableRecord
  2
CENTERTINY
 70
    0
  3
Center (.15x) ___ _ ___ _ ___ _ ___ _ ___ _ ___
 72
   65
 73
    4
 40
7.619999999999999
 49
4.7625
 74
    0
 49
-0.9525
 74
    0
 49
0.9525
 74
    0
 49
-0.9525
 74
    0
  0
LTYPE
  5
48
330
5
100
AcDbSymbolTableRecord
100
AcDbLinetypeTableRecord
  2
CENTER2
 70
    0
  3
Center (.5x) ___ _ ___ _ ___ _ ___ _ ___ _ ___
 72
   65
 73
    4
 40
28.575
 49
19.05
 74
    0
 49
-3.175
 74
    0
 49
3.175
 74
    0
 49
-3.175
 74
    0
  0
LTYPE
  5
49
330
5
100
AcDbSymbolTableRecord
100
AcDbLinetypeTableRecord
  2
CENTERX2
 70
    0
  3
Center (2x) ________  __  ________  __  _____
 72
   65
 73
    4
 40
101.6
 49
63.5
 74
    0
 49
-12.7
 74
    0
 49
12.7
 74
    0
 49
-12.7
 74
    0
  0
ENDTAB
  0
TABLE
  2
LAYER
  5
2
330
0
100
AcDbSymbolTable
 70
    1
  0
LAYER
  5
10
330
2
100
AcDbSymbolTableRecord
100
AcDbLayerTableRecord
  2
0
 70
    0
 62
    7
  6
CONTINUOUS
370
    0
390
F
  0
LAYER
  5
4A
330
2
100
AcDbSymbolTableRecord
100
AcDbLayerTableRecord
  2
BLACK
 70
    0
 62
    7
  6
CONTINUOUS
370
   -3
390
F
  0
LAYER
  5
4B
330
2
100
AcDbSymbolTableRecord
100
AcDbLayerTableRecord
  2
BLUE1
 70
    0
 62
  178
  6
CONTINUOUS
370
   -3
390
F
  0
LAYER
  5
4C
330
2
100
AcDbSymbolTableRecord
100
AcDbLayerTableRecord
  2
BLUE2
 70
    0
 62
    5
  6
CONTINUOUS
370
   -3
390
F
  0
LAYER
  5
4D
330
2
100
AcDbSymbolTableRecord
100
AcDbLayerTableRecord
  2
BLUE3
 70
    0
 62
  171
  6
CONTINUOUS
370
   -3
390
F
  0
LAYER
  5
4E
330
2
100
AcDbSymbolTableRecord
100
AcDbLayerTableRecord
  2
BLUE4
 70
    0
 62
    5
  6
CONTINUOUS
370
   -3
390
F
  0
LAYER
  5
4F
330
2
100
AcDbSymbolTableRecord
100
AcDbLayerTableRecord
  2
BROWN1
 70
    0
 62
   58
  6
CONTINUOUS
370
   -3
390
F
  0
LAYER
  5
50
330
2
100
AcDbSymbolTableRecord
100
AcDbLayerTableRecord
  2
BROWN2
 70
    0
 62
   54
  6
CONTINUOUS
370
   -3
390
F
  0
LAYER
  5
51
330
2
100
AcDbSymbolTableRecord
100
AcDbLayerTableRecord
  2
CYAN1
 70
    0
 62
  138
  6
CONTINUOUS
370
   -3
390
F
  0
LAYER
  5
52
330
2
100
AcDbSymbolTableRecord
100
AcDbLayerTableRecord
  2
CYAN2
 70
    0
 62
    4
  6
CONTINUOUS
370
   -3
390
F
  0
LAYER
  5
53
330
2
100
AcDbSymbolTableRecord
100
AcDbLayerTableRecord
  2
CYAN3
 70
    0
 62
  131
  6
CONTINUOUS
370
   -3
390
F
  0
LAYER
  5
54
330
2
100
AcDbSymbolTableRecord
100
AcDbLayerTableRecord
  2
CYAN4
 70
    0
 62
    4
  6
CONTINUOUS
370
   -3
390
F
  0
LAYER
  5
55
330
2
100
AcDbSymbolTableRecord
100
AcDbLayerTableRecord
  2
GRAY1
 70
    0
 62
  251
  6
CONTINUOUS
370
   -3
390
F
  0
LAYER
  5
56
330
2
100
AcDbSymbolTableRecord
100
AcDbLayerTableRecord
  2
GRAY2
 70
    0
 62
    8
  6
CONTINUOUS
370
   -3
390
F
  0
LAYER
  5
57
330
2
100
AcDbSymbolTableRecord
100
AcDbLayerTableRecord
  2
GRAY3
 70
    0
 62
    9
  6
CONTINUOUS
370
   -3
390
F
  0
LAYER
  5
58
330
2
100
AcDbSymbolTableRecord
100
AcDbLayerTableRecord
  2
GREEN1
 70
    0
 62
   98
  6
CONTINUOUS
370
   -3
390
F
  0
LAYER
  5
59
330
2
100
AcDbSymbolTableRecord
100
AcDbLayerTableRecord
  2
GREEN2
 70
    0
 62
    3
  6
CONTINUOUS
370
   -3
390
F
  0
LAYER
  5
5A
330
2
100
AcDbSymbolTableRecord
100
AcDbLayerTableRecord
  2
GREEN3
 70
    0
 62
   91
  6
CONTINUOUS
370
   -3
390
F
  0
LAYER
  5
5B
330
2
100
AcDbSymbolTableRecord
100
AcDbLayerTableRecord
  2
GREEN4
 70
    0
 62
    3
  6
CONTINUOUS
370
   -3
390
F
  0
LAYER
  5
5C
330
2
100
AcDbSymbolTableRecord
100
AcDbLayerTableRecord
  2
LYELLOW
 70
    0
 62
   51
  6
CONTINUOUS
370
   -3
390
F
  0
LAYER
  5
5D
330
2
100
AcDbSymbolTableRecord
100
AcDbLayerTableRecord
  2
MAGENTA1
 70
    0
 62
  228
  6
CONTINUOUS
370
   -3
390
F
  0
LAYER
  5
5E
330
2
100
AcDbSymbolTableRecord
100
AcDbLayerTableRecord
  2
MAGENTA2
 70
    0
 62
    6
  6
CONTINUOUS
370
   -3
390
F
  0
LAYER
  5
5F
330
2
100
AcDbSymbolTableRecord
100
AcDbLayerTableRecord
  2
MAGENTA3
 70
    0
 62
  221
  6
CONTINUOUS
370
   -3
390
F
  0
LAYER
  5
60
330
2
100
AcDbSymbolTableRecord
100
AcDbLayerTableRecord
  2
MAGENTA4
 70
    0
 62
    6
  6
CONTINUOUS
370
   -3
390
F
  0
LAYER
  5
61
330
2
100
AcDbSymbolTableRecord
100
AcDbLayerTableRecord
  2
RED1
 70
    0
 62
   18
  6
CONTINUOUS
370
   -3
390
F
  0
LAYER
  5
62
330
2
100
AcDbSymbolTableRecord
100
AcDbLayerTableRecord
  2
RED2
 70
    0
 62
    1
  6
CONTINUOUS
370
   -3
390
F
  0
LAYER
  5
63
330
2
100
AcDbSymbolTableRecord
100
AcDbLayerTableRecord
  2
RED3
 70
    0
 62
   11
  6
CONTINUOUS
370
   -3
390
F
  0
LAYER
  5
64
330
2
100
AcDbSymbolTableRecord
100
AcDbLayerTableRecord
  2
RED4
 70
    0
 62
    1
  6
CONTINUOUS
370
   -3
390
F
  0
LAYER
  5
65
330
2
100
AcDbSymbolTableRecord
100
AcDbLayerTableRecord
  2
WHITE
 70
    0
 62
    7
  6
CONTINUOUS
370
   -3
390
F
  0
LAYER
  5
66
330
2
100
AcDbSymbolTableRecord
100
AcDbLayerTableRecord
  2
YELLOW3
 70
    0
 62
    2
  6
CONTINUOUS
370
   -3
390
F
  0
LAYER
  5
67
330
2
100
AcDbSymbolTableRecord
100
AcDbLayerTableRecord
  2
YELLOW4
 70
    0
 62
    2
  6
CONTINUOUS
370
   -3
390
F
  0
ENDTAB
  0
TABLE
  2
STYLE
  5
3
330
0
100
AcDbSymbolTable
 70
    3
  0
STYLE
  5
68
330
2
100
AcDbSymbolTableRecord
100
AcDbTextStyleTableRecord
  2
Standard
 70
    0
 40
0
 41
1
 50
0
 71
    0
 42
1
  3
txt
  4

  0
ENDTAB
  0
TABLE
  2
VIEW
  5
6
330
0
100
AcDbSymbolTable
 70
    0
  0
ENDTAB
  0
TABLE
  2
UCS
  5
7
330
0
100
AcDbSymbolTable
 70
    0
  0
ENDTAB
  0
TABLE
  2
APPID
  5
9
330
0
100
AcDbSymbolTable
 70
    1
  0
APPID
  5
12
330
9
100
AcDbSymbolTableRecord
100
AcDbRegAppTableRecord
  2
ACAD
 70
    0
  0
APPID
  5
69
330
9
100
AcDbSymbolTableRecord
100
AcDbRegAppTableRecord
  2
LibreCad
 70
    0
  0
ENDTAB
  0
TABLE
  2
DIMSTYLE
  5
A
330
0
100
AcDbSymbolTable
 70
    1
100
AcDbDimStyleTable
 71
    1
  0
DIMSTYLE
105
6A
330
A
100
AcDbSymbolTableRecord
100
AcDbDimStyleTableRecord
  2
Standard
 70
    0
 40
1
 41
2.5
 42
0.625
 43
0.38
 44
1.25
 45
0
 46
0
 47
0
 48
0
 49
1
140
2.5
141
0.09
142
0
143
25.4
144
1
145
0
146
1
147
0.625
148
0
 71
    0
 72
    0
 73
    0
 74
    1
 75
    0
 76
    0
 77
    0
 78
    8
 79
    0
170
    0
171
    2
172
    0
173
    0
174
    0
175
    0
176
    0
177
    0
178
    0
179
    0
271
    2
272
    4
273
    2
274
    2
275
    0
276
    0
277
    2
278
   44
279
    0
280
    0
281
    0
282
    0
283
    1
284
    0
285
    0
286
    0
288
    0
289
    3
340
STANDARD
341

371
   -2
372
   -2
  0
ENDTAB
  0
TABLE
  2
BLOCK_RECORD
  5
1
330
0
100
AcDbSymbolTable
 70
    2
  0
BLOCK_RECORD
  5
1F
330
1
100
AcDbSymbolTableRecord
100
AcDbBlockTableRecord
  2
*Model_Space
 70
    0
280
    1
281
    0
  0
BLOCK_RECORD
  5
1E
330
1
100
AcDbSymbolTableRecord
100
AcDbBlockTableRecord
  2
*Paper_Space
 70
    0
280
    1
281
    0
  0
ENDTAB
  0
ENDSEC
  0
SECTION
  2
BLOCKS
  0
BLOCK
  5
20
330
1F
100
AcDbEntity
  8
0
100
AcDbBlockBegin
  2
*Model_Space
 70
    0
 10
0
 20
0
 30
0
  3
*Model_Space
  1

  0
ENDBLK
  5
21
330
1F
100
AcDbEntity
  8
0
100
AcDbBlockEnd
  0
BLOCK
  5
1C
330
1B
100
AcDbEntity
  8
0
100
AcDbBlockBegin
  2
*Paper_Space
 70
    0
 10
0
 20
0
 30
0
  3
*Paper_Space
  1

  0
ENDBLK
  5
1D
330
1F
100
AcDbEntity
  8
0
100
AcDbBlockEnd
  0
ENDSEC
  0
SECTION
  2
ENTITIES
  0
CIRCLE
  5
6B
100
AcDbEntity
  8
BLACK
  6
ByLayer
 62
  256
370
   -1
100
AcDbCircle
 10
70.74549999999996
 20
111.123
 40
1.5875
  0
CIRCLE
  5
6C
100
AcDbEntity
  8
BLACK
  6
ByLayer
 62
  256
370
   -1
100
AcDbCircle
 10
83.44549999999995
 20
111.123
 40
3.81
  0
CIRCLE
  5
6D
100
AcDbEntity
  8
BLACK
  6
ByLayer
 62
  256
370
   -1
100
AcDbCircle
 10
70.74549999999996
 20
111.123
 40
3.81
  0
CIRCLE
  5
6E
100
AcDbEntity
  8
BLACK
  6
ByLayer
 62
  256
370
   -1
100
AcDbCircle
 10
96.14549999999997
 20
111.123
 40
1.5875
  0
CIRCLE
  5
6F
100
AcDbEntity
  8
BLACK
  6
ByLayer
 62
  256
370
   -1
100
AcDbCircle
 10
83.44549999999995
 20
111.123
 40
1.5875
  0
CIRCLE
  5
70
100
AcDbEntity
  8
BLACK
  6
ByLayer
 62
  256
370
   -1
100
AcDbCircle
 10
96.14549999999997
 20
111.123
 40
3.81
  0
LINE
  5
71
100
AcDbEntity
  8
BLACK
  6
CONTINUOUS
 62
  256
370
   -1
100
AcDbLine
 10
394.9129999999999
 20
19.55599999999995
 11
394.9129999999999
 21
50.79799999999992
  0
LINE
  5
72
100
AcDbEntity
  8
BLACK
  6
CONTINUOUS
 62
  256
370
   -1
100
AcDbLine
 10
36.13799999999993
 20
19.55600000000001
 11
36.13799999999995
 21
50.798
  0
LINE
  5
73
100
AcDbEntity
  8
BLACK
  6
CONTINUOUS
 62
  256
370
   -1
100
AcDbLine
 10
115.1955
 20
122.236
 11
115.1955
 21
153.4775
  0
LINE
  5
74
100
AcDbEntity
  8
BLACK
  6
CONTINUOUS
 62
  256
370
   -1
100
AcDbLine
 10
274.898
 20
122.2359999999999
 11
274.898
 21
153.4775
  0
LINE
  5
75
100
AcDbEntity
  8
BLACK
  6
CONTINUOUS
 62
  256
370
   -1
100
AcDbLine
 10
274.898
 20
107.758
 11
274.898
 21
76.51499999999993
  0
LINE
  5
76
100
AcDbEntity
  8
BLACK
  6
CONTINUOUS
 62
  256
370
   -1
100
AcDbLine
 10
115.1955
 20
76.51499999999999
 11
115.1955
 21
107.758
  0
LINE
  5
77
100
AcDbEntity
  8
BLACK
  6
CONTINUOUS
 62
  256
370
   -1
100
AcDbLine
 10
327.2849999999999
 20
16.38099999999989
 11
306.9649999999999
 21
16.38099999999989
  0
LINE
  5
78
100
AcDbEntity
  8
BLACK
  6
CONTINUOUS
 62
  256
370
   -1
100
AcDbLine
 10
306.9649999999999
 20
16.38099999999989
 11
306.9649999999999
 21
19.55599999999995
  0
LINE
  5
79
100
AcDbEntity
  8
BLACK
  6
CONTINUOUS
 62
  256
370
   -1
100
AcDbLine
 10
63.12549999999993
 20
16.381
 11
83.44549999999992
 21
16.381
  0
LINE
  5
7A
100
AcDbEntity
  8
BLACK
  6
CONTINUOUS
 62
  256
370
   -1
100
AcDbLine
 10
185.045
 20
16.38099999999997
 11
185.045
 21
19.55599999999998
  0
LINE
  5
7B
100
AcDbEntity
  8
BLACK
  6
CONTINUOUS
 62
  256
370
   -1
100
AcDbLine
 10
347.6049999999999
 20
16.38099999999989
 11
347.6049999999999
 21
19.55599999999995
  0
LINE
  5
7C
100
AcDbEntity
  8
BLACK
  6
CONTINUOUS
 62
  256
370
   -1
100
AcDbLine
 10
367.9249999999999
 20
16.38099999999989
 11
347.6049999999999
 21
16.38099999999989
  0
LINE
  5
7D
100
AcDbEntity
  8
BLACK
  6
CONTINUOUS
 62
  256
370
   -1
100
AcDbLine
 10
164.7259999999999
 20
19.55599999999998
 11
164.7259999999999
 21
16.38099999999997
  0
LINE
  5
7E
100
AcDbEntity
  8
BLACK
  6
CONTINUOUS
 62
  256
370
   -1
100
AcDbLine
 10
225.6849999999999
 20
19.55599999999998
 11
205.365
 21
19.55599999999998
  0
LINE
  5
7F
100
AcDbEntity
  8
BLACK
  6
CONTINUOUS
 62
  256
370
   -1
100
AcDbLine
 10
286.6449999999999
 20
16.38099999999989
 11
266.3259999999999
 21
16.38099999999997
  0
LINE
  5
80
100
AcDbEntity
  8
BLACK
  6
CONTINUOUS
 62
  256
370
   -1
100
AcDbLine
 10
63.12549999999993
 20
19.55600000000001
 11
36.13799999999993
 21
19.55600000000001
  0
LINE
  5
81
100
AcDbEntity
  8
BLACK
  6
CONTINUOUS
 62
  256
370
   -1
100
AcDbLine
 10
144.4049999999999
 20
16.38099999999997
 11
164.7259999999999
 21
16.38099999999997
  0
LINE
  5
82
100
AcDbEntity
  8
BLACK
  6
CONTINUOUS
 62
  256
370
   -1
100
AcDbLine
 10
286.6449999999999
 20
19.55599999999995
 11
306.9649999999999
 21
19.55599999999995
  0
LINE
  5
83
100
AcDbEntity
  8
BLACK
  6
CONTINUOUS
 62
  256
370
   -1
100
AcDbLine
 10
185.045
 20
16.38099999999997
 11
205.365
 21
16.38099999999997
  0
LINE
  5
84
100
AcDbEntity
  8
BLACK
  6
CONTINUOUS
 62
  256
370
   -1
100
AcDbLine
 10
63.12549999999993
 20
16.381
 11
63.12549999999993
 21
19.55600000000001
  0
LINE
  5
85
100
AcDbEntity
  8
BLACK
  6
CONTINUOUS
 62
  256
370
   -1
100
AcDbLine
 10
83.44549999999992
 20
16.381
 11
83.44549999999992
 21
19.55600000000001
  0
LINE
  5
86
100
AcDbEntity
  8
BLACK
  6
CONTINUOUS
 62
  256
370
   -1
100
AcDbLine
 10
394.9129999999999
 20
19.55599999999995
 11
367.9249999999999
 21
19.55599999999995
  0
LINE
  5
87
100
AcDbEntity
  8
BLACK
  6
CONTINUOUS
 62
  256
370
   -1
100
AcDbLine
 10
144.4049999999999
 20
16.38099999999997
 11
144.4049999999999
 21
19.55599999999998
  0
LINE
  5
88
100
AcDbEntity
  8
BLACK
  6
CONTINUOUS
 62
  256
370
   -1
100
AcDbLine
 10
327.2849999999999
 20
16.38099999999989
 11
327.2849999999999
 21
19.55599999999995
  0
LINE
  5
89
100
AcDbEntity
  8
BLACK
  6
CONTINUOUS
 62
  256
370
   -1
100
AcDbLine
 10
327.2849999999999
 20
19.55599999999995
 11
347.6049999999999
 21
19.55599999999995
  0
LINE
  5
8A
100
AcDbEntity
  8
BLACK
  6
CONTINUOUS
 62
  256
370
   -1
100
AcDbLine
 10
246.0049999999999
 20
16.38099999999997
 11
246.0049999999999
 21
19.55599999999998
  0
LINE
  5
8B
100
AcDbEntity
  8
BLACK
  6
CONTINUOUS
 62
  256
370
   -1
100
AcDbLine
 10
266.3259999999999
 20
16.38099999999997
 11
266.3259999999999
 21
19.55599999999998
  0
LINE
  5
8C
100
AcDbEntity
  8
BLACK
  6
CONTINUOUS
 62
  256
370
   -1
100
AcDbLine
 10
286.6449999999999
 20
16.38099999999989
 11
286.6449999999999
 21
19.55599999999995
  0
LINE
  5
8D
100
AcDbEntity
  8
BLACK
  6
CONTINUOUS
 62
  256
370
   -1
100
AcDbLine
 10
144.4049999999999
 20
19.55599999999998
 11
124.0854999999999
 21
19.55599999999998
  0
LINE
  5
8E
100
AcDbEntity
  8
BLACK
  6
CONTINUOUS
 62
  256
370
   -1
100
AcDbLine
 10
103.7654999999999
 20
16.381
 11
103.7654999999999
 21
19.55600000000001
  0
LINE
  5
8F
100
AcDbEntity
  8
BLACK
  6
CONTINUOUS
 62
  256
370
   -1
100
AcDbLine
 10
367.9249999999999
 20
16.38099999999989
 11
367.9249999999999
 21
19.55599999999995
  0
LINE
  5
90
100
AcDbEntity
  8
BLACK
  6
CONTINUOUS
 62
  256
370
   -1
100
AcDbLine
 10
246.0049999999999
 20
19.55599999999998
 11
266.3259999999999
 21
19.55599999999998
  0
LINE
  5
91
100
AcDbEntity
  8
BLACK
  6
CONTINUOUS
 62
  256
370
   -1
100
AcDbLine
 10
185.045
 20
19.55599999999998
 11
164.7259999999999
 21
19.55599999999998
  0
LINE
  5
92
100
AcDbEntity
  8
BLACK
  6
CONTINUOUS
 62
  256
370
   -1
100
AcDbLine
 10
103.7654999999999
 20
16.381
 11
124.0854999999999
 21
16.38099999999997
  0
LINE
  5
93
100
AcDbEntity
  8
BLACK
  6
CONTINUOUS
 62
  256
370
   -1
100
AcDbLine
 10
103.7654999999999
 20
19.55600000000001
 11
83.44549999999992
 21
19.55600000000001
  0
LINE
  5
94
100
AcDbEntity
  8
BLACK
  6
CONTINUOUS
 62
  256
370
   -1
100
AcDbLine
 10
124.0854999999999
 20
19.55599999999998
 11
124.0854999999999
 21
16.38099999999997
  0
LINE
  5
95
100
AcDbEntity
  8
BLACK
  6
CONTINUOUS
 62
  256
370
   -1
100
AcDbLine
 10
225.6849999999999
 20
16.38099999999997
 11
246.0049999999999
 21
16.38099999999997
  0
LINE
  5
96
100
AcDbEntity
  8
BLACK
  6
CONTINUOUS
 62
  256
370
   -1
100
AcDbLine
 10
205.365
 20
16.38099999999997
 11
205.365
 21
19.55599999999998
  0
LINE
  5
97
100
AcDbEntity
  8
BLACK
  6
CONTINUOUS
 62
  256
370
   -1
100
AcDbLine
 10
225.6849999999999
 20
19.55599999999998
 11
225.6849999999999
 21
16.38099999999997
  0
CIRCLE
  5
98
100
AcDbEntity
  8
BLACK
  6
ByLayer
 62
  256
370
   -1
100
AcDbCircle
 10
96.14549999999997
 20
123.823
 40
3.81
  0
CIRCLE
  5
99
100
AcDbEntity
  8
BLACK
  6
ByLayer
 62
  256
370
   -1
100
AcDbCircle
 10
83.44549999999995
 20
123.823
 40
1.5875
  0
CIRCLE
  5
9A
100
AcDbEntity
  8
BLACK
  6
ByLayer
 62
  256
370
   -1
100
AcDbCircle
 10
83.44549999999995
 20
123.823
 40
3.81
  0
CIRCLE
  5
9B
100
AcDbEntity
  8
BLACK
  6
ByLayer
 62
  256
370
   -1
100
AcDbCircle
 10
70.74549999999996
 20
123.823
 40
3.81
  0
CIRCLE
  5
9C
100
AcDbEntity
  8
BLACK
  6
ByLayer
 62
  256
370
   -1
100
AcDbCircle
 10
70.74549999999996
 20
123.823
 40
1.5875
  0
CIRCLE
  5
9D
100
AcDbEntity
  8
BLACK
  6
ByLayer
 62
  256
370
   -1
100
AcDbCircle
 10
96.14549999999997
 20
123.823
 40
1.5875
  0
CIRCLE
  5
9E
100
AcDbEntity
  8
BLACK
  6
ByLayer
 62
  256
370
   -1
100
AcDbCircle
 10
96.14549999999997
 20
136.523
 40
3.81
  0
CIRCLE
  5
9F
100
AcDbEntity
  8
BLACK
  6
ByLayer
 62
  256
370
   -1
100
AcDbCircle
 10
83.44549999999997
 20
136.523
 40
3.81
  0
CIRCLE
  5
A0
100
AcDbEntity
  8
BLACK
  6
ByLayer
 62
  256
370
   -1
100
AcDbCircle
 10
70.74549999999996
 20
136.523
 40
3.81
  0
CIRCLE
  5
A1
100
AcDbEntity
  8
BLACK
  6
ByLayer
 62
  256
370
   -1
100
AcDbCircle
 10
70.74549999999996
 20
136.523
 40
1.5875
  0
CIRCLE
  5
A2
100
AcDbEntity
  8
BLACK
  6
ByLayer
 62
  256
370
   -1
100
AcDbCircle
 10
96.14549999999997
 20
136.523
 40
1.5875
  0
CIRCLE
  5
A3
100
AcDbEntity
  8
BLACK
  6
ByLayer
 62
  256
370
   -1
100
AcDbCircle
 10
83.44549999999997
 20
136.523
 40
1.5875
  0
CIRCLE
  5
A4
100
AcDbEntity
  8
BLACK
  6
ByLayer
 62
  256
370
   -1
100
AcDbCircle
 10
83.44549999999997
 20
149.223
 40
3.81
  0
CIRCLE
  5
A5
100
AcDbEntity
  8
BLACK
  6
ByLayer
 62
  256
370
   -1
100
AcDbCircle
 10
83.44549999999997
 20
149.223
 40
1.5875
  0
CIRCLE
  5
A6
100
AcDbEntity
  8
BLACK
  6
ByLayer
 62
  256
370
   -1
100
AcDbCircle
 10
96.14549999999997
 20
149.223
 40
3.81
  0
CIRCLE
  5
A7
100
AcDbEntity
  8
BLACK
  6
ByLayer
 62
  256
370
   -1
100
AcDbCircle
 10
96.14549999999997
 20
149.223
 40
1.5875
  0
CIRCLE
  5
A8
100
AcDbEntity
  8
BLACK
  6
ByLayer
 62
  256
370
   -1
100
AcDbCircle
 10
70.74549999999996
 20
149.223
 40
3.81
  0
CIRCLE
  5
A9
100
AcDbEntity
  8
BLACK
  6
ByLayer
 62
  256
370
   -1
100
AcDbCircle
 10
70.74549999999996
 20
149.223
 40
1.5875
  0
ARC
  5
AA
100
AcDbEntity
  8
BLACK
  6
ByLayer
 62
  256
370
   -1
100
AcDbCircle
 10
127.8319999999999
 20
45.97199999999998
 40
1.905
100
AcDbArc
 50
0
 51
90
  0
ARC
  5
AB
100
AcDbEntity
  8
BLACK
  6
ByLayer
 62
  256
370
   -1
100
AcDbCircle
 10
147.5169999999999
 20
33.27199999999999
 40
1.905
100
AcDbArc
 50
180
 51
270
  0
LINE
  5
AC
100
AcDbEntity
  8
BLACK
  6
CONTINUOUS
 62
  256
370
   -1
100
AcDbLine
 10
127.8319999999999
 20
31.36700000000002
 11
96.71699999999993
 21
31.36700000000005
  0
ARC
  5
AD
100
AcDbEntity
  8
BLACK
  6
ByLayer
 62
  256
370
   -1
100
AcDbCircle
 10
178.632
 20
45.97199999999998
 40
1.905
100
AcDbArc
 50
0
 51
90
  0
ARC
  5
AE
100
AcDbEntity
  8
BLACK
  6
ByLayer
 62
  256
370
   -1
100
AcDbCircle
 10
127.8319999999999
 20
33.27199999999999
 40
1.905
100
AcDbArc
 50
270
 51
0
  0
ARC
  5
AF
100
AcDbEntity
  8
BLACK
  6
ByLayer
 62
  256
370
   -1
100
AcDbCircle
 10
96.71699999999993
 20
33.27200000000002
 40
1.905
100
AcDbArc
 50
180
 51
270
  0
ARC
  5
B0
100
AcDbEntity
  8
BLACK
  6
ByLayer
 62
  256
370
   -1
100
AcDbCircle
 10
178.6319999999999
 20
33.27199999999999
 40
1.905
100
AcDbArc
 50
270
 51
0
  0
ARC
  5
B1
100
AcDbEntity
  8
BLACK
  6
ByLayer
 62
  256
370
   -1
100
AcDbCircle
 10
96.71699999999993
 20
45.97200000000001
 40
1.905
100
AcDbArc
 50
90
 51
180
  0
LINE
  5
B2
100
AcDbEntity
  8
BLACK
  6
CONTINUOUS
 62
  256
370
   -1
100
AcDbLine
 10
180.537
 20
45.97199999999998
 11
180.5369999999999
 21
33.27199999999999
  0
LINE
  5
B3
100
AcDbEntity
  8
BLACK
  6
CONTINUOUS
 62
  256
370
   -1
100
AcDbLine
 10
129.7369999999999
 20
45.97199999999998
 11
129.7369999999999
 21
33.27199999999999
  0
ARC
  5
B4
100
AcDbEntity
  8
BLACK
  6
ByLayer
 62
  256
370
   -1
100
AcDbCircle
 10
147.5169999999999
 20
45.97199999999998
 40
1.905
100
AcDbArc
 50
90
 51
180
  0
LINE
  5
B5
100
AcDbEntity
  8
BLACK
  6
CONTINUOUS
 62
  256
370
   -1
100
AcDbLine
 10
178.6319999999999
 20
31.36700000000002
 11
147.5169999999999
 21
31.36700000000002
  0
LINE
  5
B6
100
AcDbEntity
  8
BLACK
  6
CONTINUOUS
 62
  256
370
   -1
100
AcDbLine
 10
147.5169999999999
 20
47.87699999999998
 11
178.632
 21
47.87699999999998
  0
LINE
  5
B7
100
AcDbEntity
  8
BLACK
  6
CONTINUOUS
 62
  256
370
   -1
100
AcDbLine
 10
96.71699999999993
 20
47.87700000000001
 11
127.8319999999999
 21
47.87699999999998
  0
LINE
  5
B8
100
AcDbEntity
  8
BLACK
  6
CONTINUOUS
 62
  256
370
   -1
100
AcDbLine
 10
94.81199999999993
 20
33.27200000000002
 11
94.81199999999993
 21
45.97200000000001
  0
LINE
  5
B9
100
AcDbEntity
  8
BLACK
  6
CONTINUOUS
 62
  256
370
   -1
100
AcDbLine
 10
145.6119999999999
 20
33.27199999999999
 11
145.6119999999999
 21
45.97199999999998
  0
LINE
  5
BA
100
AcDbEntity
  8
BLACK
  6
CONTINUOUS
 62
  256
370
   -1
100
AcDbLine
 10
367.9249999999999
 20
50.79799999999992
 11
394.9129999999999
 21
50.79799999999992
  0
LINE
  5
BB
100
AcDbEntity
  8
BLACK
  6
CONTINUOUS
 62
  256
370
   -1
100
AcDbLine
 10
36.13799999999995
 20
50.798
 11
63.12549999999995
 21
50.798
  0
LINE
  5
BC
100
AcDbEntity
  8
BLACK
  6
CONTINUOUS
 62
  256
370
   -1
100
AcDbLine
 10
327.2849999999999
 20
50.79799999999992
 11
327.2849999999999
 21
53.97299999999993
  0
LINE
  5
BD
100
AcDbEntity
  8
BLACK
  6
CONTINUOUS
 62
  256
370
   -1
100
AcDbLine
 10
347.6049999999999
 20
50.79799999999992
 11
347.6049999999999
 21
53.97299999999993
  0
LINE
  5
BE
100
AcDbEntity
  8
BLACK
  6
CONTINUOUS
 62
  256
370
   -1
100
AcDbLine
 10
185.045
 20
50.79799999999997
 11
185.045
 21
53.97299999999998
  0
LINE
  5
BF
100
AcDbEntity
  8
BLACK
  6
CONTINUOUS
 62
  256
370
   -1
100
AcDbLine
 10
367.9249999999999
 20
50.79799999999992
 11
367.9249999999999
 21
53.97299999999993
  0
LINE
  5
C0
100
AcDbEntity
  8
BLACK
  6
CONTINUOUS
 62
  256
370
   -1
100
AcDbLine
 10
306.9649999999999
 20
50.79799999999992
 11
306.9649999999999
 21
53.97299999999993
  0
LINE
  5
C1
100
AcDbEntity
  8
BLACK
  6
CONTINUOUS
 62
  256
370
   -1
100
AcDbLine
 10
164.726
 20
53.97299999999998
 11
164.726
 21
50.79799999999997
  0
LINE
  5
C2
100
AcDbEntity
  8
BLACK
  6
CONTINUOUS
 62
  256
370
   -1
100
AcDbLine
 10
225.685
 20
53.97299999999998
 11
225.685
 21
50.79799999999997
  0
LINE
  5
C3
100
AcDbEntity
  8
BLACK
  6
CONTINUOUS
 62
  256
370
   -1
100
AcDbLine
 10
266.326
 20
50.79799999999997
 11
266.326
 21
53.97299999999998
  0
LINE
  5
C4
100
AcDbEntity
  8
BLACK
  6
CONTINUOUS
 62
  256
370
   -1
100
AcDbLine
 10
205.365
 20
50.79799999999997
 11
205.365
 21
53.97299999999998
  0
LINE
  5
C5
100
AcDbEntity
  8
BLACK
  6
CONTINUOUS
 62
  256
370
   -1
100
AcDbLine
 10
286.645
 20
50.79799999999992
 11
286.645
 21
53.97299999999993
  0
LINE
  5
C6
100
AcDbEntity
  8
BLACK
  6
CONTINUOUS
 62
  256
370
   -1
100
AcDbLine
 10
246.005
 20
50.79799999999997
 11
246.005
 21
53.97299999999998
  0
LINE
  5
C7
100
AcDbEntity
  8
BLACK
  6
CONTINUOUS
 62
  256
370
   -1
100
AcDbLine
 10
124.0854999999999
 20
53.97299999999998
 11
124.0854999999999
 21
50.79799999999997
  0
LINE
  5
C8
100
AcDbEntity
  8
BLACK
  6
CONTINUOUS
 62
  256
370
   -1
100
AcDbLine
 10
103.7654999999999
 20
50.798
 11
103.7654999999999
 21
53.97300000000001
  0
LINE
  5
C9
100
AcDbEntity
  8
BLACK
  6
CONTINUOUS
 62
  256
370
   -1
100
AcDbLine
 10
144.4049999999999
 20
50.79799999999997
 11
144.4049999999999
 21
53.97299999999998
  0
LINE
  5
CA
100
AcDbEntity
  8
BLACK
  6
CONTINUOUS
 62
  256
370
   -1
100
AcDbLine
 10
63.12549999999995
 20
50.798
 11
63.12549999999995
 21
53.97300000000001
  0
LINE
  5
CB
100
AcDbEntity
  8
BLACK
  6
CONTINUOUS
 62
  256
370
   -1
100
AcDbLine
 10
83.44549999999992
 20
50.798
 11
83.44549999999992
 21
53.97300000000001
  0
LINE
  5
CC
100
AcDbEntity
  8
BLACK
  6
CONTINUOUS
 62
  256
370
   -1
100
AcDbLine
 10
124.0854999999999
 20
53.97299999999998
 11
103.7654999999999
 21
53.97300000000001
  0
LINE
  5
CD
100
AcDbEntity
  8
BLACK
  6
CONTINUOUS
 62
  256
370
   -1
100
AcDbLine
 10
124.0854999999999
 20
50.79799999999997
 11
144.4049999999999
 21
50.79799999999997
  0
LINE
  5
CE
100
AcDbEntity
  8
BLACK
  6
CONTINUOUS
 62
  256
370
   -1
100
AcDbLine
 10
164.726
 20
53.97299999999998
 11
144.4049999999999
 21
53.97299999999998
  0
LINE
  5
CF
100
AcDbEntity
  8
BLACK
  6
CONTINUOUS
 62
  256
370
   -1
100
AcDbLine
 10
164.726
 20
50.79799999999997
 11
185.045
 21
50.79799999999997
  0
LINE
  5
D0
100
AcDbEntity
  8
BLACK
  6
CONTINUOUS
 62
  256
370
   -1
100
AcDbLine
 10
266.326
 20
53.97299999999998
 11
286.645
 21
53.97299999999993
  0
LINE
  5
D1
100
AcDbEntity
  8
BLACK
  6
CONTINUOUS
 62
  256
370
   -1
100
AcDbLine
 10
205.365
 20
50.79799999999997
 11
225.685
 21
50.79799999999997
  0
LINE
  5
D2
100
AcDbEntity
  8
BLACK
  6
CONTINUOUS
 62
  256
370
   -1
100
AcDbLine
 10
83.44549999999992
 20
50.798
 11
103.7654999999999
 21
50.798
  0
LINE
  5
D3
100
AcDbEntity
  8
BLACK
  6
CONTINUOUS
 62
  256
370
   -1
100
AcDbLine
 10
83.44549999999992
 20
53.97300000000001
 11
63.12549999999995
 21
53.97300000000001
  0
LINE
  5
D4
100
AcDbEntity
  8
BLACK
  6
CONTINUOUS
 62
  256
370
   -1
100
AcDbLine
 10
205.365
 20
53.97299999999998
 11
185.045
 21
53.97299999999998
  0
LINE
  5
D5
100
AcDbEntity
  8
BLACK
  6
CONTINUOUS
 62
  256
370
   -1
100
AcDbLine
 10
246.005
 20
53.97299999999998
 11
225.685
 21
53.97299999999998
  0
LINE
  5
D6
100
AcDbEntity
  8
BLACK
  6
CONTINUOUS
 62
  256
370
   -1
100
AcDbLine
 10
266.326
 20
50.79799999999997
 11
246.005
 21
50.79799999999997
  0
LINE
  5
D7
100
AcDbEntity
  8
BLACK
  6
CONTINUOUS
 62
  256
370
   -1
100
AcDbLine
 10
306.9649999999999
 20
50.79799999999992
 11
286.645
 21
50.79799999999992
  0
LINE
  5
D8
100
AcDbEntity
  8
BLACK
  6
CONTINUOUS
 62
  256
370
   -1
100
AcDbLine
 10
306.9649999999999
 20
53.97299999999993
 11
327.2849999999999
 21
53.97299999999993
  0
LINE
  5
D9
100
AcDbEntity
  8
BLACK
  6
CONTINUOUS
 62
  256
370
   -1
100
AcDbLine
 10
347.6049999999999
 20
53.97299999999993
 11
367.9249999999999
 21
53.97299999999993
  0
LINE
  5
DA
100
AcDbEntity
  8
BLACK
  6
CONTINUOUS
 62
  256
370
   -1
100
AcDbLine
 10
347.6049999999999
 20
50.79799999999992
 11
327.2849999999999
 21
50.79799999999992
  0
LINE
  5
DB
100
AcDbEntity
  8
BLACK
  6
CONTINUOUS
 62
  256
370
   -1
100
AcDbLine
 10
185.045
 20
107.758
 11
164.726
 21
107.758
  0
LINE
  5
DC
100
AcDbEntity
  8
BLACK
  6
CONTINUOUS
 62
  256
370
   -1
100
AcDbLine
 10
225.685
 20
76.51499999999999
 11
205.365
 21
76.51499999999999
  0
LINE
  5
DD
100
AcDbEntity
  8
BLACK
  6
CONTINUOUS
 62
  256
370
   -1
100
AcDbLine
 10
144.405
 20
107.758
 11
115.1955
 21
107.758
  0
LINE
  5
DE
100
AcDbEntity
  8
BLACK
  6
CONTINUOUS
 62
  256
370
   -1
100
AcDbLine
 10
185.045
 20
76.51499999999999
 11
164.726
 21
76.51499999999999
  0
LINE
  5
DF
100
AcDbEntity
  8
BLACK
  6
CONTINUOUS
 62
  256
370
   -1
100
AcDbLine
 10
225.685
 20
107.758
 11
205.365
 21
107.758
  0
LINE
  5
E0
100
AcDbEntity
  8
BLACK
  6
CONTINUOUS
 62
  256
370
   -1
100
AcDbLine
 10
274.898
 20
76.51499999999993
 11
246.005
 21
76.51499999999999
  0
LINE
  5
E1
100
AcDbEntity
  8
BLACK
  6
CONTINUOUS
 62
  256
370
   -1
100
AcDbLine
 10
144.4049999999999
 20
76.51499999999999
 11
115.1955
 21
76.51499999999999
  0
LINE
  5
E2
100
AcDbEntity
  8
BLACK
  6
CONTINUOUS
 62
  256
370
   -1
100
AcDbLine
 10
274.898
 20
107.758
 11
246.005
 21
107.758
  0
LINE
  5
E3
100
AcDbEntity
  8
BLACK
  6
CONTINUOUS
 62
  256
370
   -1
100
AcDbLine
 10
185.045
 20
110.932
 11
205.365
 21
110.932
  0
LINE
  5
E4
100
AcDbEntity
  8
BLACK
  6
CONTINUOUS
 62
  256
370
   -1
100
AcDbLine
 10
185.045
 20
107.758
 11
185.045
 21
110.932
  0
LINE
  5
E5
100
AcDbEntity
  8
BLACK
  6
CONTINUOUS
 62
  256
370
   -1
100
AcDbLine
 10
225.685
 20
73.34099999999998
 11
225.685
 21
76.51499999999999
  0
LINE
  5
E6
100
AcDbEntity
  8
BLACK
  6
CONTINUOUS
 62
  256
370
   -1
100
AcDbLine
 10
144.4049999999999
 20
73.34099999999998
 11
144.4049999999999
 21
76.51499999999999
  0
LINE
  5
E7
100
AcDbEntity
  8
BLACK
  6
CONTINUOUS
 62
  256
370
   -1
100
AcDbLine
 10
205.365
 20
76.51499999999999
 11
205.365
 21
73.34099999999998
  0
LINE
  5
E8
100
AcDbEntity
  8
BLACK
  6
CONTINUOUS
 62
  256
370
   -1
100
AcDbLine
 10
164.726
 20
76.51499999999999
 11
164.726
 21
73.34099999999998
  0
LINE
  5
E9
100
AcDbEntity
  8
BLACK
  6
CONTINUOUS
 62
  256
370
   -1
100
AcDbLine
 10
225.685
 20
110.932
 11
246.005
 21
110.932
  0
LINE
  5
EA
100
AcDbEntity
  8
BLACK
  6
CONTINUOUS
 62
  256
370
   -1
100
AcDbLine
 10
225.685
 20
107.758
 11
225.685
 21
110.932
  0
LINE
  5
EB
100
AcDbEntity
  8
BLACK
  6
CONTINUOUS
 62
  256
370
   -1
100
AcDbLine
 10
205.365
 20
110.932
 11
205.365
 21
107.758
  0
LINE
  5
EC
100
AcDbEntity
  8
BLACK
  6
CONTINUOUS
 62
  256
370
   -1
100
AcDbLine
 10
144.405
 20
110.932
 11
164.726
 21
110.932
  0
LINE
  5
ED
100
AcDbEntity
  8
BLACK
  6
CONTINUOUS
 62
  256
370
   -1
100
AcDbLine
 10
144.405
 20
107.758
 11
144.405
 21
110.932
  0
LINE
  5
EE
100
AcDbEntity
  8
BLACK
  6
CONTINUOUS
 62
  256
370
   -1
100
AcDbLine
 10
144.4049999999999
 20
73.34099999999998
 11
164.726
 21
73.34099999999998
  0
LINE
  5
EF
100
AcDbEntity
  8
BLACK
  6
CONTINUOUS
 62
  256
370
   -1
100
AcDbLine
 10
185.045
 20
73.34099999999998
 11
205.365
 21
73.34099999999998
  0
LINE
  5
F0
100
AcDbEntity
  8
BLACK
  6
CONTINUOUS
 62
  256
370
   -1
100
AcDbLine
 10
164.726
 20
110.932
 11
164.726
 21
107.758
  0
LINE
  5
F1
100
AcDbEntity
  8
BLACK
  6
CONTINUOUS
 62
  256
370
   -1
100
AcDbLine
 10
185.045
 20
73.34099999999998
 11
185.045
 21
76.51499999999999
  0
LINE
  5
F2
100
AcDbEntity
  8
BLACK
  6
CONTINUOUS
 62
  256
370
   -1
100
AcDbLine
 10
225.685
 20
73.34099999999998
 11
246.005
 21
73.34099999999998
  0
LINE
  5
F3
100
AcDbEntity
  8
BLACK
  6
CONTINUOUS
 62
  256
370
   -1
100
AcDbLine
 10
246.005
 20
76.51499999999999
 11
246.005
 21
73.34099999999998
  0
LINE
  5
F4
100
AcDbEntity
  8
BLACK
  6
CONTINUOUS
 62
  256
370
   -1
100
AcDbLine
 10
246.005
 20
110.932
 11
246.005
 21
107.758
  0
LINE
  5
F5
100
AcDbEntity
  8
BLACK
  6
CONTINUOUS
 62
  256
370
   -1
100
AcDbLine
 10
144.405
 20
122.236
 11
115.1955
 21
122.236
  0
LINE
  5
F6
100
AcDbEntity
  8
BLACK
  6
CONTINUOUS
 62
  256
370
   -1
100
AcDbLine
 10
144.405
 20
153.4775
 11
115.1955
 21
153.4775
  0
LINE
  5
F7
100
AcDbEntity
  8
BLACK
  6
CONTINUOUS
 62
  256
370
   -1
100
AcDbLine
 10
185.045
 20
153.4775
 11
164.726
 21
153.4775
  0
LINE
  5
F8
100
AcDbEntity
  8
BLACK
  6
CONTINUOUS
 62
  256
370
   -1
100
AcDbLine
 10
185.045
 20
122.236
 11
164.726
 21
122.236
  0
LINE
  5
F9
100
AcDbEntity
  8
BLACK
  6
CONTINUOUS
 62
  256
370
   -1
100
AcDbLine
 10
225.685
 20
122.236
 11
205.365
 21
122.236
  0
LINE
  5
FA
100
AcDbEntity
  8
BLACK
  6
CONTINUOUS
 62
  256
370
   -1
100
AcDbLine
 10
225.685
 20
153.4775
 11
205.365
 21
153.4775
  0
LINE
  5
FB
100
AcDbEntity
  8
BLACK
  6
CONTINUOUS
 62
  256
370
   -1
100
AcDbLine
 10
274.898
 20
153.4775
 11
246.005
 21
153.4775
  0
LINE
  5
FC
100
AcDbEntity
  8
BLACK
  6
CONTINUOUS
 62
  256
370
   -1
100
AcDbLine
 10
274.898
 20
122.2359999999999
 11
246.005
 21
122.236
  0
LINE
  5
FD
100
AcDbEntity
  8
BLACK
  6
CONTINUOUS
 62
  256
370
   -1
100
AcDbLine
 10
185.045
 20
119.0599999999999
 11
205.365
 21
119.0599999999999
  0
LINE
  5
FE
100
AcDbEntity
  8
BLACK
  6
CONTINUOUS
 62
  256
370
   -1
100
AcDbLine
 10
185.045
 20
119.0599999999999
 11
185.045
 21
122.236
  0
LINE
  5
FF
100
AcDbEntity
  8
BLACK
  6
CONTINUOUS
 62
  256
370
   -1
100
AcDbLine
 10
225.685
 20
119.0599999999999
 11
246.005
 21
119.0599999999999
  0
LINE
  5
100
100
AcDbEntity
  8
BLACK
  6
CONTINUOUS
 62
  256
370
   -1
100
AcDbLine
 10
225.685
 20
119.0599999999999
 11
225.685
 21
122.236
  0
LINE
  5
101
100
AcDbEntity
  8
BLACK
  6
CONTINUOUS
 62
  256
370
   -1
100
AcDbLine
 10
205.365
 20
122.236
 11
205.365
 21
119.0599999999999
  0
LINE
  5
102
100
AcDbEntity
  8
BLACK
  6
CONTINUOUS
 62
  256
370
   -1
100
AcDbLine
 10
144.405
 20
119.06
 11
164.726
 21
119.0599999999999
  0
LINE
  5
103
100
AcDbEntity
  8
BLACK
  6
CONTINUOUS
 62
  256
370
   -1
100
AcDbLine
 10
144.405
 20
119.06
 11
144.405
 21
122.236
  0
LINE
  5
104
100
AcDbEntity
  8
BLACK
  6
CONTINUOUS
 62
  256
370
   -1
100
AcDbLine
 10
164.726
 20
122.236
 11
164.726
 21
119.0599999999999
  0
LINE
  5
105
100
AcDbEntity
  8
BLACK
  6
CONTINUOUS
 62
  256
370
   -1
100
AcDbLine
 10
246.005
 20
122.236
 11
246.005
 21
119.0599999999999
  0
LINE
  5
106
100
AcDbEntity
  8
BLACK
  6
CONTINUOUS
 62
  256
370
   -1
100
AcDbLine
 10
246.005
 20
156.6525
 11
246.005
 21
153.4775
  0
LINE
  5
107
100
AcDbEntity
  8
BLACK
  6
CONTINUOUS
 62
  256
370
   -1
100
AcDbLine
 10
225.685
 20
156.6525
 11
246.005
 21
156.6525
  0
LINE
  5
108
100
AcDbEntity
  8
BLACK
  6
CONTINUOUS
 62
  256
370
   -1
100
AcDbLine
 10
225.685
 20
153.4775
 11
225.685
 21
156.6525
  0
LINE
  5
109
100
AcDbEntity
  8
BLACK
  6
CONTINUOUS
 62
  256
370
   -1
100
AcDbLine
 10
205.365
 20
156.6525
 11
205.365
 21
153.4775
  0
LINE
  5
10A
100
AcDbEntity
  8
BLACK
  6
CONTINUOUS
 62
  256
370
   -1
100
AcDbLine
 10
185.045
 20
156.6525
 11
205.365
 21
156.6525
  0
LINE
  5
10B
100
AcDbEntity
  8
BLACK
  6
CONTINUOUS
 62
  256
370
   -1
100
AcDbLine
 10
185.045
 20
153.4775
 11
185.045
 21
156.6525
  0
LINE
  5
10C
100
AcDbEntity
  8
BLACK
  6
CONTINUOUS
 62
  256
370
   -1
100
AcDbLine
 10
164.726
 20
156.6525
 11
164.726
 21
153.4775
  0
LINE
  5
10D
100
AcDbEntity
  8
BLACK
  6
CONTINUOUS
 62
  256
370
   -1
100
AcDbLine
 10
144.405
 20
156.6525
 11
164.726
 21
156.6525
  0
LINE
  5
10E
100
AcDbEntity
  8
BLACK
  6
CONTINUOUS
 62
  256
370
   -1
100
AcDbLine
 10
144.405
 20
153.4775
 11
144.405
 21
156.6525
  0
LINE
  5
10F
100
AcDbEntity
  8
BLACK
  6
CONTINUOUS
 62
  256
370
   -1
100
AcDbLine
 10
83.4455
 20
223.2005
 11
83.4455
 21
226.3755
  0
LINE
  5
110
100
AcDbEntity
  8
BLACK
  6
CONTINUOUS
 62
  256
370
   -1
100
AcDbLine
 10
63.12549999999999
 20
223.2005
 11
63.12549999999999
 21
226.3755
  0
LINE
  5
111
100
AcDbEntity
  8
BLACK
  6
CONTINUOUS
 62
  256
370
   -1
100
AcDbLine
 10
103.7655
 20
223.2005
 11
103.7655
 21
226.3755
  0
LINE
  5
112
100
AcDbEntity
  8
BLACK
  6
CONTINUOUS
 62
  256
370
   -1
100
AcDbLine
 10
124.0855
 20
223.2005
 11
124.0855
 21
226.3755
  0
LINE
  5
113
100
AcDbEntity
  8
BLACK
  6
CONTINUOUS
 62
  256
370
   -1
100
AcDbLine
 10
144.405
 20
223.2005
 11
144.405
 21
226.3755
  0
LINE
  5
114
100
AcDbEntity
  8
BLACK
  6
CONTINUOUS
 62
  256
370
   -1
100
AcDbLine
 10
164.726
 20
223.2005
 11
164.726
 21
226.3755
  0
LINE
  5
115
100
AcDbEntity
  8
BLACK
  6
CONTINUOUS
 62
  256
370
   -1
100
AcDbLine
 10
185.045
 20
223.2005
 11
185.045
 21
226.3755
  0
LINE
  5
116
100
AcDbEntity
  8
BLACK
  6
CONTINUOUS
 62
  256
370
   -1
100
AcDbLine
 10
205.365
 20
223.2004999999999
 11
205.365
 21
226.3755
  0
LINE
  5
117
100
AcDbEntity
  8
BLACK
  6
CONTINUOUS
 62
  256
370
   -1
100
AcDbLine
 10
246.005
 20
223.2004999999999
 11
246.005
 21
226.3755
  0
LINE
  5
118
100
AcDbEntity
  8
BLACK
  6
CONTINUOUS
 62
  256
370
   -1
100
AcDbLine
 10
225.685
 20
223.2004999999999
 11
225.685
 21
226.3755
  0
LINE
  5
119
100
AcDbEntity
  8
BLACK
  6
CONTINUOUS
 62
  256
370
   -1
100
AcDbLine
 10
286.645
 20
223.2004999999999
 11
286.645
 21
226.3754999999999
  0
LINE
  5
11A
100
AcDbEntity
  8
BLACK
  6
CONTINUOUS
 62
  256
370
   -1
100
AcDbLine
 10
266.326
 20
223.2004999999999
 11
266.326
 21
226.3754999999999
  0
LINE
  5
11B
100
AcDbEntity
  8
BLACK
  6
CONTINUOUS
 62
  256
370
   -1
100
AcDbLine
 10
306.965
 20
223.2004999999999
 11
306.965
 21
226.3754999999999
  0
LINE
  5
11C
100
AcDbEntity
  8
BLACK
  6
CONTINUOUS
 62
  256
370
   -1
100
AcDbLine
 10
327.285
 20
223.2004999999999
 11
327.285
 21
226.3754999999999
  0
LINE
  5
11D
100
AcDbEntity
  8
BLACK
  6
CONTINUOUS
 62
  256
370
   -1
100
AcDbLine
 10
347.605
 20
223.2004999999999
 11
347.605
 21
226.3754999999999
  0
LINE
  5
11E
100
AcDbEntity
  8
BLACK
  6
CONTINUOUS
 62
  256
370
   -1
100
AcDbLine
 10
367.925
 20
223.2004999999999
 11
367.925
 21
226.3754999999999
  0
LINE
  5
11F
100
AcDbEntity
  8
BLACK
  6
CONTINUOUS
 62
  256
370
   -1
100
AcDbLine
 10
386.975
 20
194.3079999999999
 11
390.15
 21
194.3079999999999
  0
LINE
  5
120
100
AcDbEntity
  8
BLACK
  6
CONTINUOUS
 62
  256
370
   -1
100
AcDbLine
 10
386.975
 20
173.9879999999999
 11
390.15
 21
173.9879999999999
  0
LINE
  5
121
100
AcDbEntity
  8
BLACK
  6
CONTINUOUS
 62
  256
370
   -1
100
AcDbLine
 10
386.975
 20
153.6679999999999
 11
390.15
 21
153.6679999999999
  0
LINE
  5
122
100
AcDbEntity
  8
BLACK
  6
CONTINUOUS
 62
  256
370
   -1
100
AcDbLine
 10
386.975
 20
133.3479999999999
 11
390.15
 21
133.3479999999999
  0
LINE
  5
123
100
AcDbEntity
  8
BLACK
  6
CONTINUOUS
 62
  256
370
   -1
100
AcDbLine
 10
386.9749999999999
 20
113.0279999999999
 11
390.1499999999999
 21
113.0279999999999
  0
LINE
  5
124
100
AcDbEntity
  8
BLACK
  6
CONTINUOUS
 62
  256
370
   -1
100
AcDbLine
 10
386.9749999999999
 20
92.70799999999991
 11
390.1499999999999
 21
92.70799999999991
  0
LINE
  5
125
100
AcDbEntity
  8
BLACK
  6
CONTINUOUS
 62
  256
370
   -1
100
AcDbLine
 10
367.9249999999999
 20
60.63999999999993
 11
367.9249999999999
 21
63.81599999999992
  0
LINE
  5
126
100
AcDbEntity
  8
BLACK
  6
CONTINUOUS
 62
  256
370
   -1
100
AcDbLine
 10
347.6049999999999
 20
60.63999999999993
 11
347.6049999999999
 21
63.81599999999992
  0
LINE
  5
127
100
AcDbEntity
  8
BLACK
  6
CONTINUOUS
 62
  256
370
   -1
100
AcDbLine
 10
327.2849999999999
 20
60.63999999999993
 11
327.2849999999999
 21
63.81599999999992
  0
LINE
  5
128
100
AcDbEntity
  8
BLACK
  6
CONTINUOUS
 62
  256
370
   -1
100
AcDbLine
 10
306.9649999999999
 20
60.63999999999993
 11
306.9649999999999
 21
63.81599999999992
  0
LINE
  5
129
100
AcDbEntity
  8
BLACK
  6
CONTINUOUS
 62
  256
370
   -1
100
AcDbLine
 10
286.645
 20
60.63999999999993
 11
286.645
 21
63.81599999999992
  0
LINE
  5
12A
100
AcDbEntity
  8
BLACK
  6
CONTINUOUS
 62
  256
370
   -1
100
AcDbLine
 10
266.326
 20
60.63999999999999
 11
266.326
 21
63.81599999999997
  0
LINE
  5
12B
100
AcDbEntity
  8
BLACK
  6
CONTINUOUS
 62
  256
370
   -1
100
AcDbLine
 10
246.005
 20
60.63999999999999
 11
246.005
 21
63.81599999999997
  0
LINE
  5
12C
100
AcDbEntity
  8
BLACK
  6
CONTINUOUS
 62
  256
370
   -1
100
AcDbLine
 10
225.685
 20
63.81599999999997
 11
225.685
 21
60.63999999999999
  0
LINE
  5
12D
100
AcDbEntity
  8
BLACK
  6
CONTINUOUS
 62
  256
370
   -1
100
AcDbLine
 10
205.365
 20
60.63999999999999
 11
205.365
 21
63.81599999999997
  0
LINE
  5
12E
100
AcDbEntity
  8
BLACK
  6
CONTINUOUS
 62
  256
370
   -1
100
AcDbLine
 10
185.045
 20
60.63999999999999
 11
185.045
 21
63.81599999999997
  0
LINE
  5
12F
100
AcDbEntity
  8
BLACK
  6
CONTINUOUS
 62
  256
370
   -1
100
AcDbLine
 10
164.726
 20
63.81599999999997
 11
164.726
 21
60.63999999999999
  0
LINE
  5
130
100
AcDbEntity
  8
BLACK
  6
CONTINUOUS
 62
  256
370
   -1
100
AcDbLine
 10
144.4049999999999
 20
60.63999999999999
 11
144.4049999999999
 21
63.81599999999997
  0
LINE
  5
131
100
AcDbEntity
  8
BLACK
  6
CONTINUOUS
 62
  256
370
   -1
100
AcDbLine
 10
124.0854999999999
 20
63.81599999999997
 11
124.0854999999999
 21
60.63999999999999
  0
LINE
  5
132
100
AcDbEntity
  8
BLACK
  6
CONTINUOUS
 62
  256
370
   -1
100
AcDbLine
 10
103.7654999999999
 20
60.64000000000001
 11
103.7654999999999
 21
63.816
  0
LINE
  5
133
100
AcDbEntity
  8
BLACK
  6
CONTINUOUS
 62
  256
370
   -1
100
AcDbLine
 10
83.44549999999995
 20
60.64000000000001
 11
83.44549999999995
 21
63.816
  0
LINE
  5
134
100
AcDbEntity
  8
BLACK
  6
CONTINUOUS
 62
  256
370
   -1
100
AcDbLine
 10
63.12549999999995
 20
60.64000000000001
 11
63.12549999999995
 21
63.816
  0
LINE
  5
135
100
AcDbEntity
  8
BLACK
  6
CONTINUOUS
 62
  256
370
   -1
100
AcDbLine
 10
40.90049999999995
 20
92.708
 11
44.07549999999996
 21
92.708
  0
LINE
  5
136
100
AcDbEntity
  8
BLACK
  6
CONTINUOUS
 62
  256
370
   -1
100
AcDbLine
 10
40.90049999999997
 20
113.028
 11
44.07549999999996
 21
113.028
  0
LINE
  5
137
100
AcDbEntity
  8
BLACK
  6
CONTINUOUS
 62
  256
370
   -1
100
AcDbLine
 10
44.07549999999996
 20
133.348
 11
40.90049999999997
 21
133.348
  0
LINE
  5
138
100
AcDbEntity
  8
BLACK
  6
CONTINUOUS
 62
  256
370
   -1
100
AcDbLine
 10
40.90049999999997
 20
153.668
 11
44.07549999999996
 21
153.668
  0
LINE
  5
139
100
AcDbEntity
  8
BLACK
  6
CONTINUOUS
 62
  256
370
   -1
100
AcDbLine
 10
40.90049999999997
 20
173.988
 11
44.07549999999998
 21
173.988
  0
LINE
  5
13A
100
AcDbEntity
  8
BLACK
  6
CONTINUOUS
 62
  256
370
   -1
100
AcDbLine
 10
40.90049999999998
 20
194.308
 11
44.07549999999998
 21
194.308
  0
LINE
  5
13B
100
AcDbEntity
  8
BLACK
  6
CONTINUOUS
 62
  256
370
   -1
100
AcDbLine
 10
306.965
 20
226.3754999999999
 11
327.285
 21
226.3754999999999
  0
LINE
  5
13C
100
AcDbEntity
  8
BLACK
  6
CONTINUOUS
 62
  256
370
   -1
100
AcDbLine
 10
327.285
 20
223.2004999999999
 11
306.965
 21
223.2004999999999
  0
LINE
  5
13D
100
AcDbEntity
  8
BLACK
  6
CONTINUOUS
 62
  256
370
   -1
100
AcDbLine
 10
205.365
 20
226.3755
 11
185.045
 21
226.3755
  0
LINE
  5
13E
100
AcDbEntity
  8
BLACK
  6
CONTINUOUS
 62
  256
370
   -1
100
AcDbLine
 10
185.045
 20
223.2005
 11
205.365
 21
223.2004999999999
  0
LINE
  5
13F
100
AcDbEntity
  8
BLACK
  6
CONTINUOUS
 62
  256
370
   -1
100
AcDbLine
 10
124.0855
 20
226.3755
 11
103.7655
 21
226.3755
  0
LINE
  5
140
100
AcDbEntity
  8
BLACK
  6
CONTINUOUS
 62
  256
370
   -1
100
AcDbLine
 10
225.685
 20
223.2004999999999
 11
246.005
 21
223.2004999999999
  0
LINE
  5
141
100
AcDbEntity
  8
BLACK
  6
CONTINUOUS
 62
  256
370
   -1
100
AcDbLine
 10
103.7655
 20
223.2005
 11
124.0855
 21
223.2005
  0
LINE
  5
142
100
AcDbEntity
  8
BLACK
  6
CONTINUOUS
 62
  256
370
   -1
100
AcDbLine
 10
63.12549999999999
 20
223.2005
 11
83.4455
 21
223.2005
  0
LINE
  5
143
100
AcDbEntity
  8
BLACK
  6
CONTINUOUS
 62
  256
370
   -1
100
AcDbLine
 10
266.326
 20
226.3754999999999
 11
286.645
 21
226.3754999999999
  0
LINE
  5
144
100
AcDbEntity
  8
BLACK
  6
CONTINUOUS
 62
  256
370
   -1
100
AcDbLine
 10
164.726
 20
226.3755
 11
144.405
 21
226.3755
  0
LINE
  5
145
100
AcDbEntity
  8
BLACK
  6
CONTINUOUS
 62
  256
370
   -1
100
AcDbLine
 10
347.605
 20
226.3754999999999
 11
367.925
 21
226.3754999999999
  0
LINE
  5
146
100
AcDbEntity
  8
BLACK
  6
CONTINUOUS
 62
  256
370
   -1
100
AcDbLine
 10
367.925
 20
223.2004999999999
 11
347.605
 21
223.2004999999999
  0
LINE
  5
147
100
AcDbEntity
  8
BLACK
  6
CONTINUOUS
 62
  256
370
   -1
100
AcDbLine
 10
246.005
 20
226.3755
 11
225.685
 21
226.3755
  0
LINE
  5
148
100
AcDbEntity
  8
BLACK
  6
CONTINUOUS
 62
  256
370
   -1
100
AcDbLine
 10
286.645
 20
223.2004999999999
 11
266.326
 21
223.2004999999999
  0
LINE
  5
149
100
AcDbEntity
  8
BLACK
  6
CONTINUOUS
 62
  256
370
   -1
100
AcDbLine
 10
83.4455
 20
226.3755
 11
63.12549999999999
 21
226.3755
  0
LINE
  5
14A
100
AcDbEntity
  8
BLACK
  6
CONTINUOUS
 62
  256
370
   -1
100
AcDbLine
 10
144.405
 20
223.2005
 11
164.726
 21
223.2005
  0
LINE
  5
14B
100
AcDbEntity
  8
BLACK
  6
CONTINUOUS
 62
  256
370
   -1
100
AcDbLine
 10
367.9249999999999
 20
60.63999999999993
 11
347.6049999999999
 21
60.63999999999993
  0
LINE
  5
14C
100
AcDbEntity
  8
BLACK
  6
CONTINUOUS
 62
  256
370
   -1
100
AcDbLine
 10
347.6049999999999
 20
63.81599999999992
 11
367.9249999999999
 21
63.81599999999992
  0
LINE
  5
14D
100
AcDbEntity
  8
BLACK
  6
CONTINUOUS
 62
  256
370
   -1
100
AcDbLine
 10
327.2849999999999
 20
60.63999999999993
 11
306.9649999999999
 21
60.63999999999993
  0
LINE
  5
14E
100
AcDbEntity
  8
BLACK
  6
CONTINUOUS
 62
  256
370
   -1
100
AcDbLine
 10
306.9649999999999
 20
63.81599999999992
 11
327.2849999999999
 21
63.81599999999992
  0
LINE
  5
14F
100
AcDbEntity
  8
BLACK
  6
CONTINUOUS
 62
  256
370
   -1
100
AcDbLine
 10
286.645
 20
60.63999999999993
 11
266.326
 21
60.63999999999999
  0
LINE
  5
150
100
AcDbEntity
  8
BLACK
  6
CONTINUOUS
 62
  256
370
   -1
100
AcDbLine
 10
266.326
 20
63.81599999999997
 11
286.645
 21
63.81599999999992
  0
LINE
  5
151
100
AcDbEntity
  8
BLACK
  6
CONTINUOUS
 62
  256
370
   -1
100
AcDbLine
 10
246.005
 20
63.81599999999997
 11
225.685
 21
63.81599999999997
  0
LINE
  5
152
100
AcDbEntity
  8
BLACK
  6
CONTINUOUS
 62
  256
370
   -1
100
AcDbLine
 10
225.685
 20
60.63999999999999
 11
246.005
 21
60.63999999999999
  0
LINE
  5
153
100
AcDbEntity
  8
BLACK
  6
CONTINUOUS
 62
  256
370
   -1
100
AcDbLine
 10
205.365
 20
63.81599999999997
 11
185.045
 21
63.81599999999997
  0
LINE
  5
154
100
AcDbEntity
  8
BLACK
  6
CONTINUOUS
 62
  256
370
   -1
100
AcDbLine
 10
185.045
 20
60.63999999999999
 11
205.365
 21
60.63999999999999
  0
LINE
  5
155
100
AcDbEntity
  8
BLACK
  6
CONTINUOUS
 62
  256
370
   -1
100
AcDbLine
 10
164.726
 20
63.81599999999997
 11
144.4049999999999
 21
63.81599999999997
  0
LINE
  5
156
100
AcDbEntity
  8
BLACK
  6
CONTINUOUS
 62
  256
370
   -1
100
AcDbLine
 10
144.4049999999999
 20
60.63999999999999
 11
164.726
 21
60.63999999999999
  0
LINE
  5
157
100
AcDbEntity
  8
BLACK
  6
CONTINUOUS
 62
  256
370
   -1
100
AcDbLine
 10
124.0854999999999
 20
63.81599999999997
 11
103.7654999999999
 21
63.816
  0
LINE
  5
158
100
AcDbEntity
  8
BLACK
  6
CONTINUOUS
 62
  256
370
   -1
100
AcDbLine
 10
103.7654999999999
 20
60.64000000000001
 11
124.0854999999999
 21
60.63999999999999
  0
LINE
  5
159
100
AcDbEntity
  8
BLACK
  6
CONTINUOUS
 62
  256
370
   -1
100
AcDbLine
 10
83.44549999999995
 20
63.816
 11
63.12549999999995
 21
63.816
  0
LINE
  5
15A
100
AcDbEntity
  8
BLACK
  6
CONTINUOUS
 62
  256
370
   -1
100
AcDbLine
 10
63.12549999999995
 20
60.64000000000001
 11
83.44549999999995
 21
60.64000000000001
  0
LINE
  5
15B
100
AcDbEntity
  8
BLACK
  6
CONTINUOUS
 62
  256
370
   -1
100
AcDbLine
 10
390.1499999999999
 20
92.70799999999991
 11
390.1499999999999
 21
113.0279999999999
  0
LINE
  5
15C
100
AcDbEntity
  8
BLACK
  6
CONTINUOUS
 62
  256
370
   -1
100
AcDbLine
 10
386.9749999999999
 20
113.0279999999999
 11
386.9749999999999
 21
92.70799999999991
  0
LINE
  5
15D
100
AcDbEntity
  8
BLACK
  6
CONTINUOUS
 62
  256
370
   -1
100
AcDbLine
 10
386.975
 20
133.3479999999999
 11
386.975
 21
153.6679999999999
  0
LINE
  5
15E
100
AcDbEntity
  8
BLACK
  6
CONTINUOUS
 62
  256
370
   -1
100
AcDbLine
 10
390.15
 20
153.6679999999999
 11
390.15
 21
133.3479999999999
  0
LINE
  5
15F
100
AcDbEntity
  8
BLACK
  6
CONTINUOUS
 62
  256
370
   -1
100
AcDbLine
 10
386.975
 20
173.9879999999999
 11
386.975
 21
194.3079999999999
  0
LINE
  5
160
100
AcDbEntity
  8
BLACK
  6
CONTINUOUS
 62
  256
370
   -1
100
AcDbLine
 10
390.15
 20
194.3079999999999
 11
390.15
 21
173.9879999999999
  0
LINE
  5
161
100
AcDbEntity
  8
BLACK
  6
CONTINUOUS
 62
  256
370
   -1
100
AcDbLine
 10
40.90049999999995
 20
92.708
 11
40.90049999999997
 21
113.028
  0
LINE
  5
162
100
AcDbEntity
  8
BLACK
  6
CONTINUOUS
 62
  256
370
   -1
100
AcDbLine
 10
44.07549999999996
 20
113.028
 11
44.07549999999996
 21
92.708
  0
LINE
  5
163
100
AcDbEntity
  8
BLACK
  6
CONTINUOUS
 62
  256
370
   -1
100
AcDbLine
 10
40.90049999999997
 20
133.348
 11
40.90049999999997
 21
153.668
  0
LINE
  5
164
100
AcDbEntity
  8
BLACK
  6
CONTINUOUS
 62
  256
370
   -1
100
AcDbLine
 10
44.07549999999996
 20
153.668
 11
44.07549999999996
 21
133.348
  0
LINE
  5
165
100
AcDbEntity
  8
BLACK
  6
CONTINUOUS
 62
  256
370
   -1
100
AcDbLine
 10
40.90049999999997
 20
173.988
 11
40.90049999999998
 21
194.308
  0
LINE
  5
166
100
AcDbEntity
  8
BLACK
  6
CONTINUOUS
 62
  256
370
   -1
100
AcDbLine
 10
44.07549999999998
 20
194.308
 11
44.07549999999998
 21
173.988
  0
LINE
  5
167
100
AcDbEntity
  8
BLACK
  6
CONTINUOUS
 62
  256
370
   -1
100
AcDbLine
 10
392.3729999999999
 20
55.87799999999993
 11
38.67799999999995
 21
55.87800000000001
  0
LINE
  5
168
100
AcDbEntity
  8
BLACK
  6
CONTINUOUS
 62
  256
370
   -1
100
AcDbLine
 10
394.913
 20
228.5979999999999
 11
394.9129999999999
 21
58.41799999999992
  0
LINE
  5
169
100
AcDbEntity
  8
BLACK
  6
CONTINUOUS
 62
  256
370
   -1
100
AcDbLine
 10
38.67799999999998
 20
231.138
 11
392.373
 21
231.1379999999999
  0
LINE
  5
16A
100
AcDbEntity
  8
BLACK
  6
CONTINUOUS
 62
  256
370
   -1
100
AcDbLine
 10
36.13799999999995
 20
58.41800000000001
 11
36.13799999999999
 21
228.598
  0
ARC
  5
16B
100
AcDbEntity
  8
BLACK
  6
ByLayer
 62
  256
370
   -1
100
AcDbCircle
 10
38.67799999999995
 20
58.41800000000001
 40
2.54
100
AcDbArc
 50
180
 51
270
  0
ARC
  5
16C
100
AcDbEntity
  8
BLACK
  6
ByLayer
 62
  256
370
   -1
100
AcDbCircle
 10
38.67799999999998
 20
228.598
 40
2.54
100
AcDbArc
 50
90
 51
180
  0
ARC
  5
16D
100
AcDbEntity
  8
BLACK
  6
ByLayer
 62
  256
370
   -1
100
AcDbCircle
 10
392.373
 20
228.5979999999999
 40
2.54
100
AcDbArc
 50
0
 51
90
  0
ARC
  5
16E
100
AcDbEntity
  8
BLACK
  6
ByLayer
 62
  256
370
   -1
100
AcDbCircle
 10
392.3729999999999
 20
58.41799999999992
 40
2.54
100
AcDbArc
 50
270
 51
0
  0
LINE
  5
16F
100
AcDbEntity
  8
BLACK
  6
CONTINUOUS
 62
  256
370
   -1
100
AcDbLine
 10
344.113
 20
164.4629999999999
 11
344.113
 21
126.3629999999999
  0
LINE
  5
170
100
AcDbEntity
  8
BLACK
  6
CONTINUOUS
 62
  256
370
   -1
100
AcDbLine
 10
382.213
 20
164.4629999999999
 11
344.113
 21
164.4629999999999
  0
LINE
  5
171
100
AcDbEntity
  8
BLACK
  6
CONTINUOUS
 62
  256
370
   -1
100
AcDbLine
 10
382.213
 20
126.3629999999999
 11
382.213
 21
164.4629999999999
  0
LINE
  5
172
100
AcDbEntity
  8
BLACK
  6
CONTINUOUS
 62
  256
370
   -1
100
AcDbLine
 10
344.113
 20
126.3629999999999
 11
382.213
 21
126.3629999999999
  0
LINE
  5
173
100
AcDbEntity
  8
BLACK
  6
CONTINUOUS
 62
  256
370
   -1
100
AcDbLine
 10
310.7749999999999
 20
69.21299999999991
 11
96.46299999999995
 21
69.21299999999999
  0
LINE
  5
174
100
AcDbEntity
  8
BLACK
  6
CONTINUOUS
 62
  256
370
   -1
100
AcDbLine
 10
310.7749999999999
 20
88.26299999999992
 11
310.7749999999999
 21
69.21299999999991
  0
LINE
  5
175
100
AcDbEntity
  8
BLACK
  6
CONTINUOUS
 62
  256
370
   -1
100
AcDbLine
 10
325.0629999999999
 20
88.26299999999992
 11
310.7749999999999
 21
88.26299999999992
  0
LINE
  5
176
100
AcDbEntity
  8
BLACK
  6
CONTINUOUS
 62
  256
370
   -1
100
AcDbLine
 10
325.0629999999999
 20
69.21299999999991
 11
325.0629999999999
 21
88.26299999999992
  0
LINE
  5
177
100
AcDbEntity
  8
BLACK
  6
CONTINUOUS
 62
  256
370
   -1
100
AcDbLine
 10
382.2129999999999
 20
69.21299999999991
 11
325.0629999999999
 21
69.21299999999991
  0
CIRCLE
  5
178
100
AcDbEntity
  8
BLACK
  6
ByLayer
 62
  256
370
   -1
100
AcDbCircle
 10
368.878
 20
118.7429999999999
 40
1.5875
  0
CIRCLE
  5
179
100
AcDbEntity
  8
BLACK
  6
ByLayer
 62
  256
370
   -1
100
AcDbCircle
 10
318.0779999999999
 20
74.92799999999991
 40
1.5875
  0
CIRCLE
  5
17A
100
AcDbEntity
  8
BLACK
  6
ByLayer
 62
  256
370
   -1
100
AcDbCircle
 10
79.31799999999996
 20
74.928
 40
1.5875
  0
CIRCLE
  5
17B
100
AcDbEntity
  8
BLACK
  6
ByLayer
 62
  256
370
   -1
100
AcDbCircle
 10
339.6679999999999
 20
156.2079999999999
 40
1.5875
  0
CIRCLE
  5
17C
100
AcDbEntity
  8
BLACK
  6
ByLayer
 62
  256
370
   -1
100
AcDbCircle
 10
213.938
 20
186.688
 40
1.5875
  0
CIRCLE
  5
17D
100
AcDbEntity
  8
BLACK
  6
ByLayer
 62
  256
370
   -1
100
AcDbCircle
 10
79.31799999999998
 20
186.688
 40
1.5875
  0
LINE
  5
17E
100
AcDbEntity
  8
BLACK
  6
CONTINUOUS
 62
  256
370
   -1
100
AcDbLine
 10
48.83799999999994
 20
69.21299999999999
 11
48.83799999999997
 21
164.463
  0
LINE
  5
17F
100
AcDbEntity
  8
BLACK
  6
CONTINUOUS
 62
  256
370
   -1
100
AcDbLine
 10
72.65049999999995
 20
69.21299999999999
 11
48.83799999999994
 21
69.21299999999999
  0
LINE
  5
180
100
AcDbEntity
  8
BLACK
  6
CONTINUOUS
 62
  256
370
   -1
100
AcDbLine
 10
72.65049999999995
 20
88.26300000000001
 11
72.65049999999995
 21
69.21299999999999
  0
LINE
  5
181
100
AcDbEntity
  8
BLACK
  6
CONTINUOUS
 62
  256
370
   -1
100
AcDbLine
 10
96.46299999999995
 20
88.26300000000001
 11
72.65049999999995
 21
88.26300000000001
  0
LINE
  5
182
100
AcDbEntity
  8
BLACK
  6
CONTINUOUS
 62
  256
370
   -1
100
AcDbLine
 10
96.46299999999995
 20
69.21299999999999
 11
96.46299999999995
 21
88.26300000000001
  0
LINE
  5
183
100
AcDbEntity
  8
BLACK
  6
CONTINUOUS
 62
  256
370
   -1
100
AcDbLine
 10
382.2129999999999
 20
88.26299999999992
 11
382.2129999999999
 21
69.21299999999991
  0
LINE
  5
184
100
AcDbEntity
  8
BLACK
  6
CONTINUOUS
 62
  256
370
   -1
100
AcDbLine
 10
363.1629999999999
 20
88.26299999999992
 11
382.2129999999999
 21
88.26299999999992
  0
LINE
  5
185
100
AcDbEntity
  8
BLACK
  6
CONTINUOUS
 62
  256
370
   -1
100
AcDbLine
 10
363.1629999999999
 20
107.3129999999999
 11
363.1629999999999
 21
88.26299999999992
  0
LINE
  5
186
100
AcDbEntity
  8
BLACK
  6
CONTINUOUS
 62
  256
370
   -1
100
AcDbLine
 10
344.1129999999999
 20
107.3129999999999
 11
363.1629999999999
 21
107.3129999999999
  0
LINE
  5
187
100
AcDbEntity
  8
BLACK
  6
CONTINUOUS
 62
  256
370
   -1
100
AcDbLine
 10
344.1129999999999
 20
88.26299999999992
 11
344.1129999999999
 21
107.3129999999999
  0
LINE
  5
188
100
AcDbEntity
  8
BLACK
  6
CONTINUOUS
 62
  256
370
   -1
100
AcDbLine
 10
334.5879999999999
 20
88.26299999999992
 11
344.1129999999999
 21
88.26299999999992
  0
LINE
  5
189
100
AcDbEntity
  8
BLACK
  6
CONTINUOUS
 62
  256
370
   -1
100
AcDbLine
 10
334.588
 20
164.4629999999999
 11
334.5879999999999
 21
88.26299999999992
  0
LINE
  5
18A
100
AcDbEntity
  8
BLACK
  6
CONTINUOUS
 62
  256
370
   -1
100
AcDbLine
 10
48.83799999999997
 20
164.463
 11
334.588
 21
164.4629999999999
  0
LINE
  5
18B
100
AcDbEntity
  8
BLACK
  6
CONTINUOUS
 62
  256
370
   -1
100
AcDbLine
 10
268.5479999999999
 20
175.2579999999999
 11
268.5479999999999
 21
193.038
  0
LINE
  5
18C
100
AcDbEntity
  8
BLACK
  6
CONTINUOUS
 62
  256
370
   -1
100
AcDbLine
 10
380.308
 20
175.2579999999999
 11
268.5479999999999
 21
175.2579999999999
  0
LINE
  5
18D
100
AcDbEntity
  8
BLACK
  6
CONTINUOUS
 62
  256
370
   -1
100
AcDbLine
 10
268.5479999999999
 20
193.038
 11
380.308
 21
193.0379999999999
  0
LINE
  5
18E
100
AcDbEntity
  8
BLACK
  6
CONTINUOUS
 62
  256
370
   -1
100
AcDbLine
 10
48.83799999999997
 20
173.988
 11
67.88799999999998
 21
173.988
  0
LINE
  5
18F
100
AcDbEntity
  8
BLACK
  6
CONTINUOUS
 62
  256
370
   -1
100
AcDbLine
 10
380.308
 20
193.0379999999999
 11
380.308
 21
175.2579999999999
  0
LINE
  5
190
100
AcDbEntity
  8
BLACK
  6
CONTINUOUS
 62
  256
370
   -1
100
AcDbLine
 10
86.93799999999999
 20
173.988
 11
86.93799999999999
 21
193.038
  0
LINE
  5
191
100
AcDbEntity
  8
BLACK
  6
CONTINUOUS
 62
  256
370
   -1
100
AcDbLine
 10
182.188
 20
173.988
 11
86.93799999999999
 21
173.988
  0
LINE
  5
192
100
AcDbEntity
  8
BLACK
  6
CONTINUOUS
 62
  256
370
   -1
100
AcDbLine
 10
182.188
 20
193.038
 11
182.188
 21
173.988
  0
LINE
  5
193
100
AcDbEntity
  8
BLACK
  6
CONTINUOUS
 62
  256
370
   -1
100
AcDbLine
 10
86.93799999999999
 20
193.038
 11
182.188
 21
193.038
  0
LINE
  5
194
100
AcDbEntity
  8
BLACK
  6
CONTINUOUS
 62
  256
370
   -1
100
AcDbLine
 10
48.83799999999998
 20
193.038
 11
48.83799999999997
 21
173.988
  0
LINE
  5
195
100
AcDbEntity
  8
BLACK
  6
CONTINUOUS
 62
  256
370
   -1
100
AcDbLine
 10
67.88799999999998
 20
193.038
 11
48.83799999999998
 21
193.038
  0
LINE
  5
196
100
AcDbEntity
  8
BLACK
  6
CONTINUOUS
 62
  256
370
   -1
100
AcDbLine
 10
67.88799999999998
 20
173.988
 11
67.88799999999998
 21
193.038
  0
CIRCLE
  5
197
100
AcDbEntity
  8
BLACK
  6
ByLayer
 62
  256
370
   -1
100
AcDbCircle
 10
223.463
 20
260.0939999999999
 40
3.6195
  0
LINE
  5
198
100
AcDbEntity
  8
BLACK
  6
CONTINUOUS
 62
  256
370
   -1
100
AcDbLine
 10
36.13799999999999
 20
238.758
 11
36.138
 21
270
  0
LINE
  5
199
100
AcDbEntity
  8
BLACK
  6
CONTINUOUS
 62
  256
370
   -1
100
AcDbLine
 10
394.913
 20
238.7579999999999
 11
394.913
 21
269.9999999999999
  0
CIRCLE
  5
19A
100
AcDbEntity
  8
BLACK
  6
ByLayer
 62
  256
370
   -1
100
AcDbCircle
 10
318.713
 20
250.2514999999999
 40
6
  0
CIRCLE
  5
19B
100
AcDbEntity
  8
BLACK
  6
ByLayer
 62
  256
370
   -1
100
AcDbCircle
 10
267.913
 20
250.2515
 40
6
  0
CIRCLE
  5
19C
100
AcDbEntity
  8
BLACK
  6
ByLayer
 62
  256
370
   -1
100
AcDbCircle
 10
293.3129999999999
 20
249.934
 40
7.1
  0
CIRCLE
  5
19D
100
AcDbEntity
  8
BLACK
  6
ByLayer
 62
  256
370
   -1
100
AcDbCircle
 10
369.513
 20
249.9339999999999
 40
5.6
  0
CIRCLE
  5
19E
100
AcDbEntity
  8
BLACK
  6
ByLayer
 62
  256
370
   -1
100
AcDbCircle
 10
344.1129999999999
 20
253.7439999999999
 40
10.16
  0
CIRCLE
  5
19F
100
AcDbEntity
  8
BLACK
  6
ByLayer
 62
  256
370
   -1
100
AcDbCircle
 10
242.513
 20
253.744
 40
10.165
  0
LINE
  5
1A0
100
AcDbEntity
  8
BLACK
  6
CONTINUOUS
 62
  256
370
   -1
100
AcDbLine
 10
169.488
 20
241.679
 11
213.938
 21
241.679
  0
LINE
  5
1A1
100
AcDbEntity
  8
BLACK
  6
CONTINUOUS
 62
  256
370
   -1
100
AcDbLine
 10
167.583
 20
259.1415
 11
167.583
 21
243.584
  0
LINE
  5
1A2
100
AcDbEntity
  8
BLACK
  6
CONTINUOUS
 62
  256
370
   -1
100
AcDbLine
 10
213.938
 20
261.0465
 11
169.488
 21
261.0465
  0
LINE
  5
1A3
100
AcDbEntity
  8
BLACK
  6
CONTINUOUS
 62
  256
370
   -1
100
AcDbLine
 10
215.843
 20
243.5839999999999
 11
215.843
 21
259.1415
  0
ARC
  5
1A4
100
AcDbEntity
  8
BLACK
  6
ByLayer
 62
  256
370
   -1
100
AcDbCircle
 10
213.938
 20
259.1415
 40
1.905
100
AcDbArc
 50
0
 51
90
  0
ARC
  5
1A5
100
AcDbEntity
  8
BLACK
  6
ByLayer
 62
  256
370
   -1
100
AcDbCircle
 10
169.488
 20
259.1415
 40
1.905
100
AcDbArc
 50
90
 51
180
  0
ARC
  5
1A6
100
AcDbEntity
  8
BLACK
  6
ByLayer
 62
  256
370
   -1
100
AcDbCircle
 10
169.488
 20
243.584
 40
1.905
100
AcDbArc
 50
180
 51
270
  0
ARC
  5
1A7
100
AcDbEntity
  8
BLACK
  6
ByLayer
 62
  256
370
   -1
100
AcDbCircle
 10
213.938
 20
243.5839999999999
 40
1.905
100
AcDbArc
 50
270
 51
0
  0
LINE
  5
1A8
100
AcDbEntity
  8
BLACK
  6
CONTINUOUS
 62
  256
370
   -1
100
AcDbLine
 10
394.913
 20
269.9999999999999
 11
367.9254999999999
 21
269.9999999999999
  0
LINE
  5
1A9
100
AcDbEntity
  8
BLACK
  6
CONTINUOUS
 62
  256
370
   -1
100
AcDbLine
 10
205.366
 20
235.583
 11
185.046
 21
235.583
  0
LINE
  5
1AA
100
AcDbEntity
  8
BLACK
  6
CONTINUOUS
 62
  256
370
   -1
100
AcDbLine
 10
63.12599999999999
 20
270
 11
36.138
 21
270
  0
LINE
  5
1AB
100
AcDbEntity
  8
BLACK
  6
CONTINUOUS
 62
  256
370
   -1
100
AcDbLine
 10
367.9254999999999
 20
238.7579999999999
 11
394.913
 21
238.7579999999999
  0
LINE
  5
1AC
100
AcDbEntity
  8
BLACK
  6
CONTINUOUS
 62
  256
370
   -1
100
AcDbLine
 10
205.366
 20
238.758
 11
205.366
 21
235.583
  0
LINE
  5
1AD
100
AcDbEntity
  8
BLACK
  6
CONTINUOUS
 62
  256
370
   -1
100
AcDbLine
 10
205.366
 20
273.175
 11
205.366
 21
269.9999999999999
  0
LINE
  5
1AE
100
AcDbEntity
  8
BLACK
  6
CONTINUOUS
 62
  256
370
   -1
100
AcDbLine
 10
225.686
 20
269.9999999999999
 11
205.366
 21
269.9999999999999
  0
LINE
  5
1AF
100
AcDbEntity
  8
BLACK
  6
CONTINUOUS
 62
  256
370
   -1
100
AcDbLine
 10
347.6054999999999
 20
273.175
 11
367.9254999999999
 21
273.175
  0
LINE
  5
1B0
100
AcDbEntity
  8
BLACK
  6
CONTINUOUS
 62
  256
370
   -1
100
AcDbLine
 10
225.686
 20
273.175
 11
246.006
 21
273.175
  0
LINE
  5
1B1
100
AcDbEntity
  8
BLACK
  6
CONTINUOUS
 62
  256
370
   -1
100
AcDbLine
 10
327.2855
 20
269.9999999999999
 11
327.2855
 21
273.175
  0
LINE
  5
1B2
100
AcDbEntity
  8
BLACK
  6
CONTINUOUS
 62
  256
370
   -1
100
AcDbLine
 10
347.6054999999999
 20
269.9999999999999
 11
347.6054999999999
 21
273.175
  0
LINE
  5
1B3
100
AcDbEntity
  8
BLACK
  6
CONTINUOUS
 62
  256
370
   -1
100
AcDbLine
 10
225.686
 20
235.583
 11
225.686
 21
238.758
  0
LINE
  5
1B4
100
AcDbEntity
  8
BLACK
  6
CONTINUOUS
 62
  256
370
   -1
100
AcDbLine
 10
225.686
 20
269.9999999999999
 11
225.686
 21
273.175
  0
LINE
  5
1B5
100
AcDbEntity
  8
BLACK
  6
CONTINUOUS
 62
  256
370
   -1
100
AcDbLine
 10
266.325
 20
269.9999999999999
 11
246.006
 21
269.9999999999999
  0
LINE
  5
1B6
100
AcDbEntity
  8
BLACK
  6
CONTINUOUS
 62
  256
370
   -1
100
AcDbLine
 10
103.766
 20
270
 11
103.766
 21
273.175
  0
LINE
  5
1B7
100
AcDbEntity
  8
BLACK
  6
CONTINUOUS
 62
  256
370
   -1
100
AcDbLine
 10
164.725
 20
273.175
 11
144.406
 21
273.175
  0
LINE
  5
1B8
100
AcDbEntity
  8
BLACK
  6
CONTINUOUS
 62
  256
370
   -1
100
AcDbLine
 10
266.325
 20
273.175
 11
286.646
 21
273.175
  0
LINE
  5
1B9
100
AcDbEntity
  8
BLACK
  6
CONTINUOUS
 62
  256
370
   -1
100
AcDbLine
 10
246.006
 20
238.758
 11
266.325
 21
238.758
  0
LINE
  5
1BA
100
AcDbEntity
  8
BLACK
  6
CONTINUOUS
 62
  256
370
   -1
100
AcDbLine
 10
266.325
 20
273.175
 11
266.325
 21
269.9999999999999
  0
LINE
  5
1BB
100
AcDbEntity
  8
BLACK
  6
CONTINUOUS
 62
  256
370
   -1
100
AcDbLine
 10
246.006
 20
235.583
 11
225.686
 21
235.583
  0
LINE
  5
1BC
100
AcDbEntity
  8
BLACK
  6
CONTINUOUS
 62
  256
370
   -1
100
AcDbLine
 10
327.2855
 20
238.7579999999999
 11
347.6054999999999
 21
238.7579999999999
  0
LINE
  5
1BD
100
AcDbEntity
  8
BLACK
  6
CONTINUOUS
 62
  256
370
   -1
100
AcDbLine
 10
164.725
 20
235.583
 11
164.725
 21
238.758
  0
LINE
  5
1BE
100
AcDbEntity
  8
BLACK
  6
CONTINUOUS
 62
  256
370
   -1
100
AcDbLine
 10
306.9655
 20
238.7579999999999
 11
306.9655
 21
235.5829999999999
  0
LINE
  5
1BF
100
AcDbEntity
  8
BLACK
  6
CONTINUOUS
 62
  256
370
   -1
100
AcDbLine
 10
286.646
 20
269.9999999999999
 11
286.646
 21
273.175
  0
LINE
  5
1C0
100
AcDbEntity
  8
BLACK
  6
CONTINUOUS
 62
  256
370
   -1
100
AcDbLine
 10
185.046
 20
273.175
 11
205.366
 21
273.175
  0
LINE
  5
1C1
100
AcDbEntity
  8
BLACK
  6
CONTINUOUS
 62
  256
370
   -1
100
AcDbLine
 10
306.9655
 20
269.9999999999999
 11
286.646
 21
269.9999999999999
  0
LINE
  5
1C2
100
AcDbEntity
  8
BLACK
  6
CONTINUOUS
 62
  256
370
   -1
100
AcDbLine
 10
306.9655
 20
273.175
 11
327.2855
 21
273.175
  0
LINE
  5
1C3
100
AcDbEntity
  8
BLACK
  6
CONTINUOUS
 62
  256
370
   -1
100
AcDbLine
 10
83.446
 20
270
 11
83.446
 21
273.175
  0
LINE
  5
1C4
100
AcDbEntity
  8
BLACK
  6
CONTINUOUS
 62
  256
370
   -1
100
AcDbLine
 10
164.725
 20
270
 11
185.046
 21
269.9999999999999
  0
LINE
  5
1C5
100
AcDbEntity
  8
BLACK
  6
CONTINUOUS
 62
  256
370
   -1
100
AcDbLine
 10
144.406
 20
270
 11
144.406
 21
273.175
  0
LINE
  5
1C6
100
AcDbEntity
  8
BLACK
  6
CONTINUOUS
 62
  256
370
   -1
100
AcDbLine
 10
347.6054999999999
 20
269.9999999999999
 11
327.2855
 21
269.9999999999999
  0
LINE
  5
1C7
100
AcDbEntity
  8
BLACK
  6
CONTINUOUS
 62
  256
370
   -1
100
AcDbLine
 10
185.046
 20
238.758
 11
164.725
 21
238.758
  0
LINE
  5
1C8
100
AcDbEntity
  8
BLACK
  6
CONTINUOUS
 62
  256
370
   -1
100
AcDbLine
 10
205.366
 20
238.758
 11
225.686
 21
238.758
  0
LINE
  5
1C9
100
AcDbEntity
  8
BLACK
  6
CONTINUOUS
 62
  256
370
   -1
100
AcDbLine
 10
124.086
 20
270
 11
124.086
 21
273.175
  0
LINE
  5
1CA
100
AcDbEntity
  8
BLACK
  6
CONTINUOUS
 62
  256
370
   -1
100
AcDbLine
 10
327.2855
 20
235.5829999999999
 11
327.2855
 21
238.7579999999999
  0
LINE
  5
1CB
100
AcDbEntity
  8
BLACK
  6
CONTINUOUS
 62
  256
370
   -1
100
AcDbLine
 10
347.6054999999999
 20
235.5829999999999
 11
347.6054999999999
 21
238.7579999999999
  0
LINE
  5
1CC
100
AcDbEntity
  8
BLACK
  6
CONTINUOUS
 62
  256
370
   -1
100
AcDbLine
 10
164.725
 20
270
 11
164.725
 21
273.175
  0
LINE
  5
1CD
100
AcDbEntity
  8
BLACK
  6
CONTINUOUS
 62
  256
370
   -1
100
AcDbLine
 10
286.646
 20
238.7579999999999
 11
306.9655
 21
238.7579999999999
  0
LINE
  5
1CE
100
AcDbEntity
  8
BLACK
  6
CONTINUOUS
 62
  256
370
   -1
100
AcDbLine
 10
266.325
 20
238.758
 11
266.325
 21
235.5829999999999
  0
LINE
  5
1CF
100
AcDbEntity
  8
BLACK
  6
CONTINUOUS
 62
  256
370
   -1
100
AcDbLine
 10
246.006
 20
269.9999999999999
 11
246.006
 21
273.175
  0
LINE
  5
1D0
100
AcDbEntity
  8
BLACK
  6
CONTINUOUS
 62
  256
370
   -1
100
AcDbLine
 10
286.646
 20
235.5829999999999
 11
286.646
 21
238.7579999999999
  0
LINE
  5
1D1
100
AcDbEntity
  8
BLACK
  6
CONTINUOUS
 62
  256
370
   -1
100
AcDbLine
 10
286.646
 20
235.5829999999999
 11
266.325
 21
235.5829999999999
  0
LINE
  5
1D2
100
AcDbEntity
  8
BLACK
  6
CONTINUOUS
 62
  256
370
   -1
100
AcDbLine
 10
327.2855
 20
235.5829999999999
 11
306.9655
 21
235.5829999999999
  0
LINE
  5
1D3
100
AcDbEntity
  8
BLACK
  6
CONTINUOUS
 62
  256
370
   -1
100
AcDbLine
 10
367.9254999999999
 20
269.9999999999999
 11
367.9254999999999
 21
273.175
  0
LINE
  5
1D4
100
AcDbEntity
  8
BLACK
  6
CONTINUOUS
 62
  256
370
   -1
100
AcDbLine
 10
185.046
 20
235.583
 11
185.046
 21
238.758
  0
LINE
  5
1D5
100
AcDbEntity
  8
BLACK
  6
CONTINUOUS
 62
  256
370
   -1
100
AcDbLine
 10
185.046
 20
269.9999999999999
 11
185.046
 21
273.175
  0
LINE
  5
1D6
100
AcDbEntity
  8
BLACK
  6
CONTINUOUS
 62
  256
370
   -1
100
AcDbLine
 10
367.9254999999999
 20
235.5829999999999
 11
367.9254999999999
 21
238.7579999999999
  0
LINE
  5
1D7
100
AcDbEntity
  8
BLACK
  6
CONTINUOUS
 62
  256
370
   -1
100
AcDbLine
 10
367.9254999999999
 20
235.5829999999999
 11
347.6054999999999
 21
235.5829999999999
  0
LINE
  5
1D8
100
AcDbEntity
  8
BLACK
  6
CONTINUOUS
 62
  256
370
   -1
100
AcDbLine
 10
246.006
 20
235.583
 11
246.006
 21
238.758
  0
LINE
  5
1D9
100
AcDbEntity
  8
BLACK
  6
CONTINUOUS
 62
  256
370
   -1
100
AcDbLine
 10
63.12599999999999
 20
270
 11
63.12599999999999
 21
273.175
  0
LINE
  5
1DA
100
AcDbEntity
  8
BLACK
  6
CONTINUOUS
 62
  256
370
   -1
100
AcDbLine
 10
306.9655
 20
273.175
 11
306.9655
 21
269.9999999999999
  0
LINE
  5
1DB
100
AcDbEntity
  8
BLACK
  6
CONTINUOUS
 62
  256
370
   -1
100
AcDbLine
 10
124.086
 20
273.175
 11
103.766
 21
273.175
  0
LINE
  5
1DC
100
AcDbEntity
  8
BLACK
  6
CONTINUOUS
 62
  256
370
   -1
100
AcDbLine
 10
83.446
 20
273.175
 11
63.12599999999999
 21
273.175
  0
LINE
  5
1DD
100
AcDbEntity
  8
BLACK
  6
CONTINUOUS
 62
  256
370
   -1
100
AcDbLine
 10
83.446
 20
270
 11
103.766
 21
270
  0
LINE
  5
1DE
100
AcDbEntity
  8
BLACK
  6
CONTINUOUS
 62
  256
370
   -1
100
AcDbLine
 10
124.086
 20
270
 11
144.406
 21
270
  0
LINE
  5
1DF
100
AcDbEntity
  8
0
  6
ByLayer
 62
  256
370
   -1
100
AcDbLine
 10
162.503
 20
261.0465
 11
50.74299999999995
 21
261.0465
  0
LINE
  5
1E0
100
AcDbEntity
  8
0
  6
ByLayer
 62
  256
370
   -1
100
AcDbLine
 10
50.74299999999995
 20
238.758
 11
50.74299999999995
 21
261.0465
  0
LINE
  5
1E1
100
AcDbEntity
  8
0
  6
ByLayer
 62
  256
370
   -1
100
AcDbLine
 10
162.503
 20
235.583
 11
162.503
 21
261.0465
  0
LINE
  5
1E2
100
AcDbEntity
  8
BLACK
  6
CONTINUOUS
 62
  256
370
   -1
100
AcDbLine
 10
162.503
 20
235.583
 11
164.725
 21
235.583
  0
LINE
  5
1E3
100
AcDbEntity
  8
BLACK
  6
CONTINUOUS
 62
  256
370
   -1
100
AcDbLine
 10
50.74299999999995
 20
235.583
 11
50.74299999999995
 21
238.758
  0
LINE
  5
1E4
100
AcDbEntity
  8
0
  6
ByLayer
 62
  256
370
   -1
100
AcDbLine
 10
50.74299999999995
 20
235.583
 11
40.90299999999998
 21
235.583
  0
LINE
  5
1E5
100
AcDbEntity
  8
BLACK
  6
CONTINUOUS
 62
  256
370
   -1
100
AcDbLine
 10
36.13799999999999
 20
238.758
 11
40.90299999999998
 21
238.758
  0
LINE
  5
1E6
100
AcDbEntity
  8
BLACK
  6
CONTINUOUS
 62
  256
370
   -1
100
AcDbLine
 10
40.90299999999998
 20
235.583
 11
40.90299999999998
 21
238.758
  0
ENDSEC
  0
SECTION
  2
OBJECTS
  0
DICTIONARY
  5
C
330
0
100
AcDbDictionary
281
    1
  3
ACAD_GROUP
350
D
  0
DICTIONARY
  5
D
330
C
100
AcDbDictionary
281
    1
  0
PLOTSETTINGS
  5
1E7
100
AcDbPlotSettings
  6
1x1
 40
4.23
 41
4.23
 42
4.23
 43
4.23
  0
ENDSEC
  0
EOF
